<svg width="343" height="343" viewBox="0 0 343 343" fill="none" xmlns="http://www.w3.org/2000/svg">
<path d="M-83.6885 243.77L142.573 168.349L-116.027 -25.6007L-114.604 -26.075L143.996 167.875L197.122 150.166L241.922 183.766L548.584 81.5456L549.784 82.4456L243.122 184.666L433.922 327.766L740.584 225.546L741.784 226.446L435.122 328.666L479.922 362.266L426.796 379.975L685.396 573.925L683.973 574.399L425.373 380.449L199.112 455.87L457.712 649.82L456.289 650.294L197.689 456.344L144.562 474.053L99.7623 440.453L-206.9 542.673L-208.1 541.773L98.5623 439.553L-92.2377 296.453L-398.9 398.673L-400.1 397.773L-93.4377 295.553L-138.238 261.953L-85.1115 244.244L-343.711 50.294L-342.288 49.8197L-83.6885 243.77ZM381.996 346.375L425.596 379.075L477.299 361.841L433.699 329.141L381.996 346.375ZM197.912 454.97L424.173 379.549L380.573 346.849L154.312 422.27L197.912 454.97ZM144.785 472.678L196.489 455.444L152.889 422.744L101.185 439.978L144.785 472.678ZM189.996 202.375L380.796 345.475L432.499 328.241L241.699 185.141L189.996 202.375ZM99.9853 439.078L151.689 421.844L-39.1115 278.744L-90.8147 295.978L99.9853 439.078ZM153.112 421.37L379.373 345.949L188.573 202.849L-37.6885 278.27L153.112 421.37ZM188.796 201.475L240.499 184.241L196.899 151.541L145.196 168.775L188.796 201.475ZM-92.0147 295.078L-40.3115 277.844L-83.9115 245.144L-135.615 262.378L-92.0147 295.078ZM-38.8885 277.37L187.373 201.949L143.773 169.249L-82.4885 244.67L-38.8885 277.37Z" fill="url(#paint0_radial_4030_1585)" fill-opacity="0.12"/>
<path opacity="0.08" d="M-236.747 14.6394L563.253 614.639" stroke="white"/>
<path opacity="0.08" d="M-251.926 19.699L548.074 619.699" stroke="white"/>
<path opacity="0.08" d="M-206.39 4.52002L593.61 604.52" stroke="white"/>
<path opacity="0.08" d="M-221.569 9.57983L578.431 609.58" stroke="white"/>
<path opacity="0.08" d="M-176.032 -5.59912L623.968 594.401" stroke="white"/>
<path opacity="0.08" d="M-191.211 -0.539551L608.789 599.46" stroke="white"/>
<path opacity="0.08" d="M-267.105 24.7588L532.895 624.759" stroke="white"/>
<path opacity="0.08" d="M-282.284 29.8184L517.716 629.818" stroke="white"/>
<path opacity="0.08" d="M638.784 149.196L-309.9 465.423" stroke="white"/>
<path opacity="0.08" d="M625.984 139.596L-322.7 455.823" stroke="white"/>
<path opacity="0.08" d="M664.384 168.396L-284.3 484.624" stroke="white"/>
<path opacity="0.08" d="M651.584 158.796L-297.1 475.023" stroke="white"/>
<path opacity="0.08" d="M689.984 187.596L-258.7 503.823" stroke="white"/>
<path opacity="0.08" d="M677.184 177.996L-271.5 494.223" stroke="white"/>
<path opacity="0.08" d="M613.184 129.996L-335.5 446.223" stroke="white"/>
<path opacity="0.08" d="M600.384 120.396L-348.3 436.624" stroke="white"/>
<g style="mix-blend-mode:plus-lighter" filter="url(#filter0_f_4030_1585)">
<path d="M195.381 205.13C191.847 202.479 185.583 201.462 181.392 202.86L6.83417 261.046C4.49814 261.824 3.29902 263.188 3.30665 264.702L0.927326 279.364C0.934428 280.566 1.70213 281.862 3.26577 283.035L150.466 393.435C154 396.086 160.264 397.102 164.455 395.705L339.013 337.519C341.109 336.821 342.29 335.651 342.505 334.325L344.771 320.117C345.259 318.682 344.552 317.008 342.581 315.53L195.381 205.13Z" fill="url(#paint1_linear_4030_1585)" fill-opacity="0.4"/>
</g>
<rect width="240" height="240" rx="8" transform="matrix(0.948683 -0.316228 0.8 0.6 -39 278.057)" fill="black" fill-opacity="0.75" stroke="#323232" stroke-width="1.5"/>
<g style="mix-blend-mode:plus-lighter" filter="url(#filter1_f_4030_1585)">
<path d="M195.381 205.13C191.847 202.479 185.583 201.462 181.392 202.86L6.83417 261.046C4.49814 261.824 3.29902 263.188 3.30665 264.702L0.927326 279.364C0.934428 280.566 1.70213 281.862 3.26577 283.035L150.466 393.435C154 396.086 160.264 397.102 164.455 395.705L339.013 337.519C341.109 336.821 342.29 335.651 342.505 334.325L344.771 320.117C345.259 318.682 344.552 317.008 342.581 315.53L195.381 205.13Z" fill="url(#paint2_linear_4030_1585)"/>
</g>
<g style="mix-blend-mode:plus-lighter" filter="url(#filter2_f_4030_1585)">
<path d="M195.381 205.13C191.847 202.479 185.583 201.462 181.392 202.86L6.83417 261.046C4.49814 261.824 3.29902 263.188 3.30665 264.702L0.927326 279.364C0.934428 280.566 1.70213 281.862 3.26577 283.035L150.466 393.435C154 396.086 160.264 397.102 164.455 395.705L339.013 337.519C341.109 336.821 342.29 335.651 342.505 334.325L344.771 320.117C345.259 318.682 344.552 317.008 342.581 315.53L195.381 205.13Z" fill="url(#paint3_linear_4030_1585)"/>
</g>
<g style="mix-blend-mode:plus-lighter" filter="url(#filter3_f_4030_1585)">
<path d="M195.381 205.13C191.847 202.479 185.583 201.462 181.392 202.86L6.83417 261.046C4.49814 261.824 3.29902 263.188 3.30665 264.702L0.927326 279.364C0.934428 280.566 1.70213 281.862 3.26577 283.035L150.466 393.435C154 396.086 160.264 397.102 164.455 395.705L339.013 337.519C341.109 336.821 342.29 335.651 342.505 334.325L344.771 320.117C345.259 318.682 344.552 317.008 342.581 315.53L195.381 205.13Z" fill="url(#paint4_linear_4030_1585)"/>
</g>
<g style="mix-blend-mode:plus-lighter" filter="url(#filter4_f_4030_1585)">
<path d="M195.381 205.13C191.847 202.479 185.583 201.462 181.392 202.86L6.83417 261.046C4.49814 261.824 3.29902 263.188 3.30665 264.702L0.927326 279.364C0.934428 280.566 1.70213 281.862 3.26577 283.035L150.466 393.435C154 396.086 160.264 397.102 164.455 395.705L339.013 337.519C341.109 336.821 342.29 335.651 342.505 334.325L344.771 320.117C345.259 318.682 344.552 317.008 342.581 315.53L195.381 205.13Z" fill="url(#paint5_linear_4030_1585)"/>
</g>
<g style="mix-blend-mode:plus-lighter" filter="url(#filter5_f_4030_1585)">
<path d="M195.381 205.13C191.847 202.479 185.583 201.462 181.392 202.86L6.83417 261.046C4.49814 261.824 3.29902 263.188 3.30665 264.702L0.927326 279.364C0.934428 280.566 1.70213 281.862 3.26577 283.035L150.466 393.435C154 396.086 160.264 397.102 164.455 395.705L339.013 337.519C341.109 336.821 342.29 335.651 342.505 334.325L344.771 320.117C345.259 318.682 344.552 317.008 342.581 315.53L195.381 205.13Z" fill="url(#paint6_linear_4030_1585)"/>
</g>
<g style="mix-blend-mode:plus-lighter" filter="url(#filter6_f_4030_1585)">
<path d="M195.381 205.13C191.847 202.479 185.583 201.462 181.392 202.86L6.83417 261.046C4.49814 261.824 3.29902 263.188 3.30665 264.702L0.927326 279.364C0.934428 280.566 1.70213 281.862 3.26577 283.035L150.466 393.435C154 396.086 160.264 397.102 164.455 395.705L339.013 337.519C341.109 336.821 342.29 335.651 342.505 334.325L344.771 320.117C345.259 318.682 344.552 317.008 342.581 315.53L195.381 205.13Z" fill="url(#paint7_linear_4030_1585)" fill-opacity="0.5"/>
</g>
<rect width="200" height="200" rx="8" transform="matrix(0.948683 -0.316228 0.8 0.6 -0.75531 263.575)" fill="black"/>
<rect width="200" height="200" rx="8" transform="matrix(0.948683 -0.316228 0.8 0.6 -0.75531 263.575)" fill="white" fill-opacity="0.01"/>
<rect width="200" height="200" rx="8" transform="matrix(0.948683 -0.316228 0.8 0.6 -0.75531 263.575)" fill="black" fill-opacity="0.05"/>
<rect width="200" height="200" rx="8" transform="matrix(0.948683 -0.316228 0.8 0.6 -0.75531 263.575)" fill="url(#paint8_radial_4030_1585)" fill-opacity="0.08"/>
<rect width="200" height="200" rx="8" transform="matrix(0.948683 -0.316228 0.8 0.6 -0.75531 263.575)" fill="url(#paint9_linear_4030_1585)" fill-opacity="0.03"/>
<path opacity="0.12" d="M71.089 302.075C71.4638 301.95 72.023 302.04 72.3391 302.277L75.7422 304.83C76.0579 305.067 76.0104 305.36 75.6359 305.485L74.0925 305.999L86.9768 315.662C88.0848 316.493 89.6699 317.117 91.3823 317.395L98.7733 318.594C100.814 318.925 102.703 319.668 104.023 320.658L122.967 334.866C124.287 335.856 124.931 337.013 124.758 338.083L124.129 341.955C123.984 342.852 124.525 343.824 125.633 344.655L159.356 369.947L160.899 369.432C161.274 369.307 161.833 369.398 162.149 369.635L163.452 370.612L199.398 358.631L198.853 358.222C198.537 357.985 198.584 357.692 198.959 357.567L201.196 356.821C201.571 356.696 202.132 356.787 202.448 357.024L204.334 358.439C204.651 358.676 204.603 358.97 204.228 359.095L201.991 359.841C201.616 359.965 201.056 359.874 200.74 359.637L200.198 359.231L164.252 371.212L165.552 372.187C165.868 372.424 165.821 372.717 165.446 372.842L161.411 374.187C161.037 374.312 160.477 374.222 160.16 373.985L156.757 371.432C156.442 371.195 156.49 370.902 156.865 370.777L158.407 370.263L124.684 344.971C123.364 343.981 122.72 342.824 122.893 341.754L123.521 337.882C123.667 336.985 123.126 336.013 122.018 335.182L103.075 320.974C101.967 320.143 100.381 319.52 98.6681 319.242L91.2772 318.043C89.2369 317.711 87.3483 316.969 86.0281 315.979L73.1438 306.315L71.6012 306.83C71.2266 306.954 70.6664 306.864 70.3503 306.627L66.9471 304.075C66.6313 303.838 66.6796 303.544 67.0544 303.419L71.089 302.075ZM167.12 223.674C167.495 223.549 168.056 223.64 168.372 223.877L168.914 224.283L183.75 219.338L183.207 218.931C182.891 218.694 182.939 218.401 183.313 218.276L185.55 217.53C185.925 217.406 186.485 217.496 186.801 217.733L188.689 219.149C189.005 219.386 188.956 219.679 188.582 219.804L187.931 220.021L212.561 238.493C213.881 239.483 214.526 240.64 214.352 241.709L213.724 245.582C213.579 246.479 214.12 247.45 215.227 248.281L241.831 268.234C242.895 269.032 244.401 269.639 246.041 269.932L254.078 271.368C256.032 271.717 257.826 272.442 259.094 273.393L272.055 283.114C273.163 283.945 274.749 284.567 276.461 284.845L283.852 286.045C285.892 286.376 287.781 287.119 289.101 288.109L324.721 314.824L326.269 314.308C326.643 314.183 327.203 314.274 327.52 314.511L330.922 317.062C331.238 317.3 331.19 317.593 330.815 317.718L326.781 319.063C326.406 319.188 325.846 319.097 325.53 318.86L324.228 317.884L307.6 323.427L307.301 323.519C305.78 323.96 303.88 324.035 301.967 323.725L281.085 320.336C281.083 320.336 281.082 320.337 281.081 320.338L278.843 321.083C278.469 321.208 277.909 321.118 277.593 320.881L275.707 319.466C275.391 319.229 275.438 318.935 275.812 318.81L278.05 318.064C278.424 317.939 278.985 318.03 279.301 318.267L281.188 319.682C281.19 319.684 281.191 319.686 281.193 319.688L302.071 323.076C303.677 323.337 305.273 323.274 306.549 322.904L306.8 322.827L323.428 317.284L322.128 316.308C321.812 316.071 321.859 315.778 322.234 315.653L323.773 315.14L288.152 288.425C287.044 287.594 285.459 286.97 283.747 286.692L276.356 285.493C274.316 285.162 272.427 284.42 271.107 283.43L258.145 273.709C257.081 272.911 255.575 272.302 253.935 272.009L245.899 270.574C243.945 270.225 242.15 269.501 240.882 268.55L214.278 248.597C212.959 247.607 212.313 246.45 212.487 245.381L213.116 241.509C213.262 240.611 212.72 239.64 211.612 238.809L186.983 220.337L186.344 220.55C185.969 220.674 185.41 220.584 185.094 220.347L184.55 219.938L169.714 224.883L170.259 225.292C170.575 225.529 170.527 225.823 170.153 225.948L167.915 226.694C167.54 226.818 166.98 226.727 166.664 226.49L164.778 225.075C164.462 224.838 164.509 224.544 164.883 224.419L167.12 223.674ZM163.154 355.543C163.529 355.419 164.089 355.51 164.405 355.747L165.708 356.724L176.04 353.28C177.605 352.759 179.631 352.651 181.672 352.982L189.062 354.182C190.775 354.46 192.476 354.37 193.79 353.932L197.381 352.735C198.947 352.213 200.973 352.106 203.013 352.437L210.403 353.637C212.116 353.915 213.817 353.824 215.131 353.386L291.968 327.774L291.424 327.365C291.108 327.128 291.155 326.835 291.529 326.71L293.767 325.964C294.142 325.839 294.702 325.93 295.018 326.167L296.905 327.582C297.221 327.819 297.174 328.113 296.799 328.238L294.561 328.984C294.187 329.109 293.627 329.017 293.311 328.78L292.768 328.374L215.931 353.986C214.365 354.508 212.339 354.616 210.298 354.284L202.908 353.085C201.195 352.807 199.495 352.897 198.181 353.335L194.59 354.532C193.024 355.054 190.997 355.161 188.957 354.83L181.567 353.63C179.854 353.352 178.154 353.442 176.84 353.88L166.508 357.324L167.807 358.299C168.123 358.536 168.076 358.829 167.702 358.954L163.667 360.299C163.292 360.424 162.731 360.333 162.415 360.096L159.013 357.544C158.697 357.307 158.744 357.013 159.119 356.888L163.154 355.543ZM280.851 294.118C283.098 293.369 286.456 293.915 288.352 295.336L311.468 312.673L313.015 312.157C313.39 312.033 313.95 312.123 314.266 312.36L317.669 314.912C317.985 315.149 317.937 315.443 317.562 315.568L313.527 316.912C313.153 317.037 312.593 316.946 312.277 316.71L308.874 314.157C308.558 313.92 308.606 313.627 308.98 313.502L310.519 312.989L287.403 295.652C285.949 294.562 283.374 294.144 281.651 294.718C279.927 295.293 279.709 296.642 281.162 297.732L298.972 311.09L299.625 310.872C299.999 310.748 300.56 310.839 300.876 311.076L302.763 312.491C303.079 312.728 303.031 313.021 302.656 313.146L300.419 313.892C300.044 314.017 299.485 313.926 299.169 313.689L297.282 312.274C296.966 312.037 297.013 311.743 297.387 311.618L298.024 311.406L280.214 298.049C278.319 296.627 278.603 294.867 280.851 294.118ZM280.512 323.814C280.887 323.689 281.448 323.78 281.764 324.017L283.651 325.432C283.967 325.669 283.919 325.963 283.544 326.088L281.307 326.833C280.932 326.958 280.372 326.867 280.056 326.63L279.515 326.224L257.053 333.711L257.595 334.118C257.911 334.355 257.864 334.649 257.489 334.774L255.251 335.519C254.877 335.644 254.317 335.553 254.001 335.316L252.114 333.901C251.798 333.664 251.846 333.371 252.22 333.246L254.458 332.5C254.832 332.375 255.392 332.466 255.709 332.703L256.253 333.111L278.715 325.624L278.169 325.215C277.854 324.978 277.9 324.684 278.275 324.559L280.512 323.814ZM21.4476 264.843C21.8224 264.719 22.3824 264.81 22.6984 265.047L24.0008 266.024L40.625 260.482C42.1906 259.96 44.2167 259.853 46.2574 260.184L67.1382 263.573C67.1414 263.572 67.1443 263.57 67.1476 263.569L69.385 262.823C69.7597 262.699 70.319 262.789 70.635 263.026L72.5217 264.441C72.8377 264.678 72.7908 264.972 72.4162 265.097L70.1788 265.843C69.804 265.967 69.2432 265.876 68.9271 265.639L67.0365 264.221L46.153 260.833C44.4402 260.555 42.7391 260.644 41.425 261.082L24.8008 266.624L26.1008 267.599C26.4168 267.836 26.37 268.129 25.9953 268.254L24.4518 268.769L60.0721 295.484L60.2857 295.637C61.3791 296.391 62.8721 296.956 64.4776 297.216L71.8686 298.416C73.9089 298.747 75.7976 299.489 77.1178 300.479L90.0795 310.2C91.1438 310.998 92.6498 311.607 94.2897 311.899L102.326 313.335C104.28 313.684 106.074 314.408 107.342 315.359L133.946 335.312C135.266 336.302 135.911 337.459 135.738 338.528L135.108 342.4C134.963 343.297 135.504 344.269 136.612 345.1L161.241 363.571L161.884 363.357C162.259 363.232 162.818 363.323 163.134 363.56L163.68 363.969L178.515 359.024L177.969 358.614C177.653 358.377 177.701 358.084 178.076 357.959L180.313 357.213C180.688 357.088 181.247 357.179 181.563 357.416L183.451 358.832C183.766 359.069 183.719 359.362 183.344 359.487L181.107 360.232C180.732 360.357 180.172 360.267 179.856 360.03L179.315 359.624L164.48 364.569L165.022 364.976C165.337 365.213 165.29 365.506 164.915 365.631L162.678 366.376C162.303 366.501 161.743 366.411 161.427 366.174L159.54 364.758C159.224 364.521 159.272 364.228 159.647 364.103L160.293 363.888L135.664 345.416C134.343 344.426 133.699 343.269 133.872 342.199L134.5 338.327C134.646 337.43 134.105 336.459 132.997 335.628L106.393 315.675C105.329 314.877 103.823 314.27 102.183 313.977L94.1462 312.541C92.1926 312.192 90.3987 311.467 89.1308 310.516L76.1691 300.795C75.0611 299.964 73.4758 299.342 71.7634 299.064L64.3725 297.864C62.4596 297.554 60.6805 296.881 59.3777 295.983L59.1235 295.8L23.5031 269.085L21.9606 269.599C21.5858 269.724 21.0249 269.633 20.7089 269.396L17.3065 266.844C16.9905 266.607 17.0381 266.313 17.4129 266.188L21.4476 264.843ZM288.382 314.62C288.757 314.495 289.317 314.586 289.633 314.823L291.521 316.238C291.523 316.24 291.523 316.241 291.525 316.243L299.45 317.529C300.973 317.776 302.486 317.696 303.655 317.306L303.883 317.23L303.34 316.822C303.024 316.585 303.072 316.292 303.446 316.167L305.683 315.421C306.058 315.297 306.618 315.387 306.934 315.624L308.822 317.04C309.138 317.277 309.089 317.57 308.715 317.695L306.477 318.441C306.102 318.565 305.543 318.475 305.227 318.238L304.683 317.83L304.455 317.906C303.034 318.38 301.196 318.477 299.345 318.177L291.419 316.891C291.417 316.891 291.415 316.893 291.413 316.893L289.176 317.639C288.801 317.764 288.242 317.673 287.926 317.436L286.039 316.021C285.723 315.784 285.77 315.491 286.145 315.366L288.382 314.62ZM270.1 319.895C270.475 319.77 271.035 319.861 271.351 320.098L274.753 322.65C275.07 322.887 275.023 323.18 274.648 323.305L270.613 324.65C270.239 324.775 269.678 324.684 269.362 324.447L268.062 323.473L246.943 330.513C245.629 330.951 244.809 331.701 244.664 332.598L244.035 336.47C243.862 337.539 242.885 338.434 241.319 338.956L214.362 347.941C212.797 348.463 210.77 348.57 208.729 348.239L201.338 347.04C199.625 346.762 197.925 346.852 196.611 347.29L191.666 348.938L192.207 349.344C192.523 349.581 192.475 349.874 192.101 349.999L189.863 350.745C189.488 350.87 188.928 350.779 188.612 350.542L186.726 349.127C186.41 348.89 186.457 348.596 186.831 348.471L189.069 347.725C189.443 347.6 190.004 347.691 190.32 347.928L190.866 348.338L195.811 346.69C197.377 346.168 199.403 346.061 201.443 346.392L208.834 347.591C210.547 347.869 212.248 347.779 213.562 347.341L240.519 338.356C241.833 337.918 242.653 337.167 242.799 336.27L243.427 332.397C243.601 331.328 244.578 330.434 246.143 329.913L267.262 322.873L265.959 321.895C265.643 321.658 265.691 321.364 266.066 321.24L270.1 319.895ZM210.34 339.815C210.715 339.69 211.275 339.781 211.591 340.018L214.993 342.57C215.309 342.807 215.262 343.101 214.887 343.226L210.853 344.57C210.478 344.695 209.917 344.604 209.601 344.367L206.199 341.816C205.883 341.579 205.93 341.285 206.305 341.16L210.34 339.815ZM221.119 336.222C221.494 336.097 222.054 336.188 222.37 336.425L225.772 338.977C226.088 339.214 226.041 339.508 225.667 339.633L221.632 340.977C221.257 341.102 220.696 341.011 220.38 340.774L216.978 338.223C216.662 337.985 216.71 337.692 217.084 337.567L221.119 336.222ZM231.908 332.626C232.283 332.501 232.842 332.592 233.158 332.829L236.561 335.381C236.877 335.618 236.83 335.911 236.455 336.036L232.42 337.381C232.046 337.506 231.485 337.415 231.169 337.178L227.766 334.626C227.45 334.389 227.499 334.096 227.874 333.971L231.908 332.626ZM144.445 342.486C144.82 342.362 145.38 342.453 145.696 342.69L147.582 344.105C147.898 344.342 147.852 344.635 147.477 344.76L146.831 344.976L152.515 349.238L153.161 349.023C153.535 348.898 154.095 348.989 154.411 349.226L156.297 350.641C156.613 350.878 156.566 351.171 156.192 351.296L153.954 352.042C153.58 352.167 153.019 352.076 152.703 351.839L150.816 350.424C150.5 350.187 150.548 349.894 150.923 349.769L151.566 349.555L145.883 345.292L145.24 345.506C144.865 345.631 144.304 345.54 143.988 345.303L142.101 343.888C141.785 343.651 141.833 343.357 142.208 343.232L144.445 342.486ZM253.008 275.915C253.383 275.79 253.944 275.881 254.26 276.118L256.147 277.533C256.463 277.77 256.414 278.064 256.04 278.189L255.392 278.405L268.279 288.07L269.824 287.554C270.199 287.43 270.76 287.521 271.076 287.758L274.478 290.309C274.794 290.546 274.746 290.84 274.372 290.965L270.337 292.31C269.962 292.435 269.402 292.344 269.086 292.107L265.684 289.555C265.368 289.318 265.415 289.024 265.789 288.899L267.33 288.386L254.443 278.721L253.802 278.934C253.427 279.059 252.868 278.969 252.552 278.732L250.665 277.317C250.349 277.08 250.396 276.786 250.771 276.661L253.008 275.915ZM97.094 322.554C97.4688 322.429 98.028 322.52 98.344 322.757L100.231 324.172C100.547 324.409 100.5 324.702 100.125 324.827L99.4823 325.042L113.125 335.274L113.768 335.059C114.143 334.935 114.702 335.025 115.018 335.262L116.905 336.677C117.221 336.914 117.174 337.208 116.799 337.333L114.562 338.079C114.187 338.204 113.626 338.113 113.31 337.876L111.424 336.461C111.108 336.224 111.156 335.93 111.531 335.805L112.177 335.59L98.5336 325.358L97.8879 325.573C97.5131 325.698 96.9522 325.607 96.6361 325.37L94.7494 323.955C94.4334 323.718 94.4818 323.425 94.8566 323.3L97.094 322.554ZM186.816 209.719C187.191 209.594 187.751 209.684 188.067 209.921L191.47 212.473C191.786 212.71 191.738 213.004 191.363 213.129L189.816 213.645L223.54 238.938C224.86 239.928 225.505 241.085 225.332 242.154L224.703 246.027C224.558 246.924 225.098 247.896 226.206 248.727L245.15 262.935C246.258 263.766 247.844 264.389 249.556 264.667L256.947 265.866C258.988 266.197 260.876 266.94 262.196 267.93L275.079 277.592L276.626 277.077C277.001 276.952 277.561 277.042 277.877 277.279L281.28 279.831C281.596 280.068 281.548 280.362 281.173 280.487L277.139 281.832C276.764 281.956 276.205 281.866 275.889 281.629L272.485 279.076C272.17 278.839 272.217 278.546 272.592 278.421L274.131 277.908L261.248 268.246C260.14 267.415 258.555 266.792 256.842 266.514L249.451 265.315C247.411 264.983 245.522 264.241 244.201 263.251L225.258 249.043C223.937 248.053 223.293 246.895 223.467 245.826L224.095 241.954C224.241 241.057 223.699 240.085 222.591 239.254L188.867 213.961L187.328 214.474C186.954 214.599 186.394 214.508 186.078 214.271L184.777 213.295L148.822 225.28L149.366 225.688C149.682 225.925 149.635 226.218 149.261 226.343L147.023 227.089C146.648 227.214 146.087 227.123 145.771 226.886L143.885 225.471C143.569 225.234 143.617 224.94 143.992 224.816L146.229 224.07C146.604 223.945 147.163 224.036 147.479 224.273L148.022 224.68L183.977 212.695L182.675 211.719C182.359 211.482 182.407 211.189 182.782 211.064L186.816 209.719ZM233.662 245.83C234.036 245.705 234.596 245.795 234.913 246.032L236.8 247.448C237.116 247.685 237.068 247.978 236.693 248.103L236.047 248.318L249.689 258.55L250.335 258.335C250.71 258.21 251.271 258.301 251.587 258.538L253.474 259.953C253.789 260.19 253.741 260.483 253.366 260.608L251.129 261.354C250.754 261.479 250.195 261.388 249.879 261.151L247.992 259.736C247.676 259.499 247.723 259.205 248.098 259.08L248.741 258.866L235.098 248.634L234.456 248.849C234.081 248.974 233.522 248.883 233.205 248.646L231.318 247.23C231.002 246.993 231.05 246.7 231.424 246.575L233.662 245.83ZM77.8922 291.597C78.267 291.472 78.8262 291.563 79.1422 291.8L82.5446 294.352C82.8606 294.589 82.8137 294.882 82.4391 295.007L80.8937 295.522L93.7797 305.187L94.4254 304.972C94.8002 304.847 95.3594 304.938 95.6754 305.175L97.5622 306.59C97.8782 306.827 97.8312 307.12 97.4567 307.245L95.2193 307.991C94.8445 308.116 94.2836 308.025 93.9675 307.788L92.0808 306.373C91.7648 306.136 91.8133 305.842 92.188 305.717L92.831 305.503L79.9451 295.839L78.4044 296.352C78.0296 296.477 77.4687 296.386 77.1526 296.149L73.7503 293.597C73.4343 293.36 73.4827 293.067 73.8575 292.942L77.8922 291.597ZM34.7011 266.994C35.0759 266.869 35.6359 266.961 35.9519 267.198L39.3542 269.749C39.6702 269.986 39.6226 270.279 39.248 270.404L37.7045 270.919L60.8217 288.257C62.2751 289.347 64.8507 289.765 66.574 289.191C68.2971 288.616 68.5151 287.266 67.0622 286.177L49.2513 272.818L48.6083 273.033C48.2335 273.158 47.6727 273.067 47.3566 272.83L45.4699 271.415C45.154 271.177 45.2024 270.884 45.5771 270.759L47.8145 270.013C48.1892 269.889 48.7485 269.979 49.0645 270.216L50.9512 271.631C51.2672 271.868 51.2203 272.162 50.8457 272.287L50.2 272.502L68.0109 285.86C69.9056 287.282 69.621 289.042 67.374 289.791C65.1268 290.54 61.7682 289.994 59.873 288.573L36.7558 271.235L35.2133 271.749C34.8385 271.874 34.2784 271.784 33.9623 271.547L30.56 268.995C30.2439 268.758 30.2916 268.464 30.6664 268.339L34.7011 266.994ZM194.273 231.864C194.648 231.739 195.209 231.83 195.525 232.067L197.412 233.482C197.727 233.719 197.679 234.012 197.304 234.137L196.657 234.353L202.341 238.616L202.993 238.399C203.368 238.274 203.929 238.365 204.245 238.602L206.132 240.017C206.448 240.254 206.4 240.548 206.025 240.673L203.788 241.419C203.413 241.544 202.853 241.452 202.537 241.215L200.651 239.8C200.335 239.563 200.381 239.27 200.756 239.145L201.393 238.933L195.708 234.669L195.067 234.883C194.692 235.008 194.133 234.917 193.817 234.68L191.93 233.265C191.614 233.028 191.661 232.735 192.036 232.61L194.273 231.864ZM133.862 235.968C135.428 235.446 137.455 235.339 139.495 235.67L146.886 236.869C148.599 237.147 150.3 237.057 151.614 236.619L156.553 234.972L156.01 234.565C155.694 234.328 155.742 234.034 156.117 233.909L158.354 233.163C158.729 233.039 159.289 233.13 159.605 233.367L161.492 234.782C161.808 235.019 161.76 235.312 161.386 235.437L159.148 236.183C158.773 236.308 158.213 236.217 157.897 235.98L157.353 235.572L152.414 237.219C150.848 237.741 148.822 237.848 146.781 237.517L139.39 236.318C137.678 236.04 135.976 236.13 134.662 236.568L107.705 245.553C106.391 245.991 105.571 246.742 105.426 247.639L104.797 251.512C104.624 252.581 103.647 253.474 102.082 253.996L80.9668 261.035L82.2692 262.011C82.5852 262.248 82.5375 262.542 82.1627 262.667L78.128 264.012C77.7532 264.137 77.1932 264.046 76.8772 263.809L73.4749 261.257C73.1589 261.02 73.2057 260.726 73.5804 260.601L77.6151 259.256C77.9899 259.131 78.5507 259.223 78.8668 259.46L80.1668 260.435L101.282 253.396C102.595 252.958 103.415 252.208 103.561 251.311L104.189 247.439C104.363 246.369 105.34 245.475 106.905 244.953L133.862 235.968ZM115.807 246.525C116.182 246.4 116.743 246.491 117.059 246.728L120.461 249.28C120.777 249.517 120.73 249.811 120.355 249.936L116.32 251.281C115.945 251.405 115.385 251.314 115.069 251.077L111.667 248.525C111.351 248.288 111.398 247.995 111.772 247.87L115.807 246.525ZM126.596 242.929C126.97 242.804 127.531 242.895 127.847 243.132L131.25 245.684C131.566 245.921 131.518 246.215 131.143 246.339L127.109 247.684C126.734 247.809 126.174 247.718 125.858 247.481L122.455 244.929C122.139 244.692 122.186 244.399 122.561 244.274L126.596 242.929ZM137.375 239.336C137.75 239.211 138.311 239.302 138.627 239.539L142.029 242.091C142.345 242.328 142.297 242.621 141.923 242.746L137.888 244.091C137.513 244.216 136.953 244.125 136.637 243.888L133.235 241.336C132.919 241.099 132.966 240.806 133.34 240.681L137.375 239.336ZM53.6686 254.924C54.0433 254.799 54.6026 254.89 54.9186 255.127L55.4608 255.534L132.294 229.923C133.86 229.401 135.886 229.293 137.926 229.624L145.316 230.824C147.029 231.102 148.729 231.012 150.044 230.574L153.635 229.377C155.2 228.855 157.227 228.748 159.268 229.079L166.658 230.279C168.37 230.557 170.071 230.466 171.385 230.029L181.721 226.583L180.421 225.607C180.105 225.37 180.151 225.077 180.526 224.952L184.561 223.607C184.936 223.482 185.496 223.573 185.812 223.81L189.215 226.362C189.531 226.599 189.483 226.893 189.108 227.018L185.074 228.363C184.699 228.488 184.139 228.396 183.823 228.159L182.521 227.183L172.185 230.629C170.619 231.15 168.593 231.258 166.553 230.927L159.163 229.727C157.45 229.449 155.749 229.539 154.435 229.977L150.844 231.174C149.278 231.696 147.252 231.803 145.211 231.472L137.821 230.272C136.109 229.994 134.408 230.085 133.094 230.523L56.2608 256.134L56.8061 256.543C57.1217 256.78 57.0742 257.073 56.6998 257.198L54.4624 257.943C54.0878 258.068 53.5276 257.978 53.2115 257.741L51.324 256.325C51.0082 256.088 51.0565 255.795 51.4312 255.67L53.6686 254.924ZM41.7504 265.465C42.1251 265.341 42.6844 265.431 43.0004 265.668L43.5458 266.077L43.77 266.003C45.1905 265.529 47.0285 265.432 48.8799 265.732L56.8027 267.018C56.8068 267.017 56.8107 267.015 56.8149 267.013L59.0523 266.268C59.4271 266.143 59.9871 266.234 60.3031 266.471L62.1898 267.886C62.5056 268.123 62.458 268.416 62.0835 268.541L59.8462 269.287C59.4714 269.412 58.9113 269.321 58.5952 269.084L56.7061 267.667L48.7748 266.38C47.2514 266.133 45.7388 266.213 44.57 266.603L44.3458 266.677L44.8872 267.083C45.2032 267.32 45.1562 267.614 44.7817 267.739L42.5443 268.485C42.1695 268.61 41.6086 268.519 41.2925 268.282L39.4058 266.866C39.09 266.629 39.1383 266.336 39.513 266.211L41.7504 265.465ZM66.916 257.074C67.2908 256.95 67.8508 257.041 68.1668 257.278L68.7097 257.685L91.1761 250.196L90.6332 249.789C90.3171 249.552 90.3648 249.258 90.7396 249.133L92.977 248.387C93.3518 248.263 93.9118 248.354 94.2278 248.591L96.1145 250.006C96.4304 250.243 96.3827 250.536 96.0082 250.661L93.7708 251.407C93.3961 251.532 92.836 251.441 92.5199 251.204L91.9761 250.796L69.5097 258.285L70.0535 258.693C70.3694 258.93 70.3218 259.223 69.9472 259.348L67.7098 260.094C67.3351 260.219 66.775 260.128 66.4589 259.891L64.5722 258.476C64.2561 258.239 64.3038 257.945 64.6786 257.82L66.916 257.074Z" fill="white"/>
<g filter="url(#filter7_ii_4030_1585)">
<path d="M17.0999 242.024C10.0307 236.722 11.0958 230.158 19.4789 227.364L178.858 174.238C187.241 171.443 199.767 173.476 206.837 178.778L341.237 279.578C348.306 284.88 347.241 291.443 338.858 294.238L179.479 347.364C171.096 350.158 158.569 348.126 151.5 342.824L17.0999 242.024Z" fill="url(#paint10_linear_4030_1585)"/>
<path d="M17.0999 242.024C10.0307 236.722 11.0958 230.158 19.4789 227.364L178.858 174.238C187.241 171.443 199.767 173.476 206.837 178.778L341.237 279.578C348.306 284.88 347.241 291.443 338.858 294.238L179.479 347.364C171.096 350.158 158.569 348.126 151.5 342.824L17.0999 242.024Z" fill="url(#paint11_radial_4030_1585)"/>
<path d="M17.0999 242.024C10.0307 236.722 11.0958 230.158 19.4789 227.364L178.858 174.238C187.241 171.443 199.767 173.476 206.837 178.778L341.237 279.578C348.306 284.88 347.241 291.443 338.858 294.238L179.479 347.364C171.096 350.158 158.569 348.126 151.5 342.824L17.0999 242.024Z" fill="url(#paint12_radial_4030_1585)" fill-opacity="0.75"/>
<path d="M17.0999 242.024C10.0307 236.722 11.0958 230.158 19.4789 227.364L178.858 174.238C187.241 171.443 199.767 173.476 206.837 178.778L341.237 279.578C348.306 284.88 347.241 291.443 338.858 294.238L179.479 347.364C171.096 350.158 158.569 348.126 151.5 342.824L17.0999 242.024Z" fill="url(#paint13_linear_4030_1585)" fill-opacity="0.12"/>
</g>
<path d="M19.8789 227.664L179.258 174.538C187.379 171.831 199.514 173.8 206.362 178.936L340.762 279.736C347.611 284.872 346.579 291.231 338.458 293.938L179.079 347.064C170.958 349.771 158.823 347.802 151.974 342.665L17.5743 241.865C10.7259 236.729 11.7577 230.371 19.8789 227.664Z" stroke="white" stroke-opacity="0.08"/>
<rect width="174" height="174" rx="8" transform="matrix(0.948683 -0.316228 0.8 0.6 27.0328 236.113)" stroke="white" stroke-opacity="0.12" stroke-width="1.5"/>
<g clip-path="url(#clip0_4030_1585)">
<path d="M151.212 244.12C149.064 244.835 148.778 246.507 150.573 247.853L156.829 252.544C158.623 253.89 161.82 254.402 163.967 253.686L171.69 251.112C173.838 250.396 174.125 248.722 172.331 247.377L166.076 242.686C164.281 241.339 161.083 240.829 158.935 241.545L151.212 244.12ZM180.092 245.215C178.479 245.753 178.283 247.023 179.652 248.05L184.425 251.63C185.795 252.657 188.215 253.055 189.829 252.517L195.631 250.583C197.245 250.045 197.44 248.776 196.07 247.748L191.297 244.168C189.928 243.142 187.508 242.743 185.895 243.281L180.092 245.215ZM144.047 257.23C142.434 257.768 142.238 259.038 143.607 260.065L148.38 263.645C149.75 264.672 152.17 265.07 153.783 264.532L159.585 262.598C161.198 262.061 161.395 260.791 160.025 259.763L155.252 256.183C153.883 255.157 151.462 254.759 149.849 255.296L144.047 257.23ZM166.584 255.649C164.437 256.365 164.15 258.035 165.946 259.383L172.201 264.074C173.996 265.42 177.192 265.932 179.34 265.216L187.063 262.641C189.211 261.925 189.498 260.252 187.704 258.906L181.449 254.215C179.653 252.868 176.455 252.359 174.307 253.075L166.584 255.649ZM203.427 246.545C202.227 246.945 202.08 247.889 203.1 248.654L206.651 251.317C207.669 252.08 209.468 252.376 210.668 251.976L214.985 250.537C216.184 250.137 216.33 249.193 215.313 248.43L211.762 245.766C210.742 245.001 208.942 244.706 207.743 245.106L203.427 246.545ZM139.204 267.952C138.004 268.352 137.857 269.296 138.877 270.061L142.428 272.725C143.446 273.488 145.246 273.783 146.445 273.384L150.761 271.945C151.962 271.545 152.108 270.601 151.09 269.837L147.539 267.174C146.519 266.409 144.72 266.114 143.519 266.514L139.204 267.952ZM192.237 254.323C190.624 254.861 190.426 256.13 191.795 257.157L196.57 260.738C197.939 261.765 200.358 262.162 201.972 261.624L207.774 259.69C209.388 259.152 209.584 257.883 208.215 256.856L203.44 253.275C202.071 252.249 199.653 251.851 198.039 252.389L192.237 254.323ZM156.191 266.339C154.579 266.876 154.381 268.145 155.75 269.172L160.524 272.753C161.893 273.78 164.313 274.177 165.926 273.64L171.728 271.705C173.341 271.168 173.539 269.898 172.17 268.871L167.395 265.29C166.026 264.264 163.606 263.867 161.993 264.404L156.191 266.339ZM213.179 253.859C211.979 254.259 211.832 255.202 212.851 255.966L216.402 258.63C217.42 259.393 219.219 259.689 220.419 259.289L224.736 257.85C225.935 257.45 226.081 256.506 225.063 255.742L221.512 253.079C220.493 252.315 218.694 252.02 217.495 252.42L213.179 253.859ZM148.956 275.267C147.756 275.666 147.608 276.61 148.627 277.374L152.178 280.037C153.196 280.801 154.997 281.096 156.196 280.697L160.512 279.258C161.712 278.858 161.858 277.914 160.84 277.15L157.289 274.487C156.27 273.723 154.472 273.428 153.271 273.828L148.956 275.267ZM181.823 267.078C179.675 267.794 179.39 269.466 181.186 270.812L187.441 275.503C189.236 276.85 192.431 277.36 194.578 276.644L202.301 274.07C204.449 273.354 204.738 271.682 202.943 270.336L196.688 265.645C194.893 264.298 191.694 263.788 189.546 264.504L181.823 267.078ZM231.162 253.527C230.27 253.824 230.162 254.525 230.918 255.092L233.554 257.069C234.31 257.636 235.645 257.855 236.537 257.558L239.741 256.49C240.631 256.193 240.739 255.493 239.983 254.926L237.347 252.949C236.591 252.382 235.256 252.162 234.366 252.459L231.162 253.527ZM142.539 283.068C141.648 283.365 141.54 284.066 142.296 284.633L144.932 286.61C145.688 287.177 147.023 287.396 147.914 287.099L151.117 286.031C152.008 285.734 152.117 285.034 151.361 284.467L148.725 282.49C147.969 281.923 146.633 281.703 145.742 282L142.539 283.068ZM204.384 263.433C202.77 263.971 202.572 265.24 203.941 266.267L208.715 269.847C210.085 270.875 212.504 271.272 214.118 270.734L219.92 268.8C221.534 268.262 221.73 266.993 220.36 265.965L215.586 262.385C214.217 261.358 211.8 260.961 210.186 261.499L204.384 263.433ZM168.338 275.449C166.725 275.986 166.527 277.255 167.896 278.282L172.67 281.862C174.04 282.89 176.459 283.287 178.072 282.749L183.874 280.815C185.487 280.277 185.685 279.008 184.315 277.98L179.541 274.4C178.172 273.373 175.753 272.977 174.14 273.514L168.338 275.449ZM223.003 261.228C221.804 261.628 221.659 262.573 222.679 263.337L226.229 266C227.249 266.765 229.046 267.059 230.246 266.659L234.562 265.22C235.761 264.821 235.91 263.878 234.89 263.113L231.34 260.45C230.32 259.685 228.519 259.389 227.32 259.789L223.003 261.228ZM158.781 282.635C157.581 283.035 157.435 283.98 158.455 284.745L162.005 287.408C163.025 288.173 164.823 288.467 166.023 288.067L170.338 286.628C171.539 286.228 171.687 285.285 170.667 284.52L167.117 281.858C166.098 281.093 164.297 280.796 163.096 281.197L158.781 282.635ZM239.19 259.548C238.298 259.845 238.19 260.546 238.946 261.113L241.582 263.09C242.336 263.656 243.674 263.877 244.566 263.579L247.77 262.511C248.659 262.215 248.765 261.513 248.011 260.947L245.375 258.97C244.619 258.403 243.284 258.183 242.394 258.48L239.19 259.548ZM150.567 289.089C149.676 289.386 149.568 290.086 150.324 290.653L152.96 292.63C153.714 293.196 155.052 293.417 155.942 293.12L159.145 292.053C160.037 291.756 160.143 291.054 159.388 290.487L156.752 288.511C155.996 287.943 154.661 287.724 153.77 288.021L150.567 289.089ZM252.402 257.997C251.73 258.221 251.646 258.75 252.216 259.178L254.205 260.67C254.774 261.097 255.784 261.262 256.457 261.038L258.873 260.232C259.543 260.009 259.626 259.479 259.057 259.053L257.068 257.561C256.497 257.133 255.489 256.968 254.819 257.191L252.402 257.997ZM143.411 294.328C142.738 294.552 142.655 295.08 143.226 295.509L145.215 297C145.784 297.427 146.793 297.593 147.465 297.368L149.88 296.563C150.553 296.339 150.633 295.81 150.064 295.383L148.076 293.892C147.505 293.464 146.498 293.298 145.826 293.523L143.411 294.328Z" fill="#737373"/>
</g>
<path d="M140.675 166.165L147.075 170.965M147.671 167.291L140.081 169.821" stroke="white" stroke-opacity="0.1"/>
<path d="M238.601 182.057L245.001 186.857M245.597 183.183L238.008 185.712" stroke="white" stroke-opacity="0.1"/>
<defs>
<filter id="filter0_f_4030_1585" x="-199.073" y="2.23267" width="743.992" height="594.099" filterUnits="userSpaceOnUse" color-interpolation-filters="sRGB">
<feFlood flood-opacity="0" result="BackgroundImageFix"/>
<feBlend mode="normal" in="SourceGraphic" in2="BackgroundImageFix" result="shape"/>
<feGaussianBlur stdDeviation="100" result="effect1_foregroundBlur_4030_1585"/>
</filter>
<filter id="filter1_f_4030_1585" x="-1.07266" y="200.233" width="347.992" height="198.099" filterUnits="userSpaceOnUse" color-interpolation-filters="sRGB">
<feFlood flood-opacity="0" result="BackgroundImageFix"/>
<feBlend mode="normal" in="SourceGraphic" in2="BackgroundImageFix" result="shape"/>
<feGaussianBlur stdDeviation="1" result="effect1_foregroundBlur_4030_1585"/>
</filter>
<filter id="filter2_f_4030_1585" x="-7.07266" y="194.233" width="359.992" height="210.099" filterUnits="userSpaceOnUse" color-interpolation-filters="sRGB">
<feFlood flood-opacity="0" result="BackgroundImageFix"/>
<feBlend mode="normal" in="SourceGraphic" in2="BackgroundImageFix" result="shape"/>
<feGaussianBlur stdDeviation="4" result="effect1_foregroundBlur_4030_1585"/>
</filter>
<filter id="filter3_f_4030_1585" x="-3.07266" y="198.233" width="351.992" height="202.099" filterUnits="userSpaceOnUse" color-interpolation-filters="sRGB">
<feFlood flood-opacity="0" result="BackgroundImageFix"/>
<feBlend mode="normal" in="SourceGraphic" in2="BackgroundImageFix" result="shape"/>
<feGaussianBlur stdDeviation="2" result="effect1_foregroundBlur_4030_1585"/>
</filter>
<filter id="filter4_f_4030_1585" x="-23.0727" y="178.233" width="391.992" height="242.099" filterUnits="userSpaceOnUse" color-interpolation-filters="sRGB">
<feFlood flood-opacity="0" result="BackgroundImageFix"/>
<feBlend mode="normal" in="SourceGraphic" in2="BackgroundImageFix" result="shape"/>
<feGaussianBlur stdDeviation="12" result="effect1_foregroundBlur_4030_1585"/>
</filter>
<filter id="filter5_f_4030_1585" x="-7.07266" y="194.233" width="359.992" height="210.099" filterUnits="userSpaceOnUse" color-interpolation-filters="sRGB">
<feFlood flood-opacity="0" result="BackgroundImageFix"/>
<feBlend mode="normal" in="SourceGraphic" in2="BackgroundImageFix" result="shape"/>
<feGaussianBlur stdDeviation="4" result="effect1_foregroundBlur_4030_1585"/>
</filter>
<filter id="filter6_f_4030_1585" x="-47.0727" y="154.233" width="439.992" height="290.099" filterUnits="userSpaceOnUse" color-interpolation-filters="sRGB">
<feFlood flood-opacity="0" result="BackgroundImageFix"/>
<feBlend mode="normal" in="SourceGraphic" in2="BackgroundImageFix" result="shape"/>
<feGaussianBlur stdDeviation="24" result="effect1_foregroundBlur_4030_1585"/>
</filter>
<filter id="filter7_ii_4030_1585" x="12.4229" y="172.984" width="333.491" height="199.634" filterUnits="userSpaceOnUse" color-interpolation-filters="sRGB">
<feFlood flood-opacity="0" result="BackgroundImageFix"/>
<feBlend mode="normal" in="SourceGraphic" in2="BackgroundImageFix" result="shape"/>
<feColorMatrix in="SourceAlpha" type="matrix" values="0 0 0 0 0 0 0 0 0 0 0 0 0 0 0 0 0 0 127 0" result="hardAlpha"/>
<feMorphology radius="1" operator="erode" in="SourceAlpha" result="effect1_innerShadow_4030_1585"/>
<feOffset/>
<feComposite in2="hardAlpha" operator="arithmetic" k2="-1" k3="1"/>
<feColorMatrix type="matrix" values="0 0 0 0 1 0 0 0 0 1 0 0 0 0 1 0 0 0 0.12 0"/>
<feBlend mode="normal" in2="shape" result="effect1_innerShadow_4030_1585"/>
<feColorMatrix in="SourceAlpha" type="matrix" values="0 0 0 0 0 0 0 0 0 0 0 0 0 0 0 0 0 0 127 0" result="hardAlpha"/>
<feOffset dy="24"/>
<feGaussianBlur stdDeviation="24"/>
<feComposite in2="hardAlpha" operator="arithmetic" k2="-1" k3="1"/>
<feColorMatrix type="matrix" values="0 0 0 0 1 0 0 0 0 1 0 0 0 0 1 0 0 0 0.06 0"/>
<feBlend mode="normal" in2="effect1_innerShadow_4030_1585" result="effect2_innerShadow_4030_1585"/>
</filter>
<radialGradient id="paint0_radial_4030_1585" cx="0" cy="0" r="1" gradientUnits="userSpaceOnUse" gradientTransform="translate(153 422.057) rotate(36.8699) scale(386.5 317.777)">
<stop stop-color="white"/>
<stop offset="1" stop-color="white" stop-opacity="0"/>
</radialGradient>
<linearGradient id="paint1_linear_4030_1585" x1="259.324" y1="364.082" x2="203.164" y2="195.602" gradientUnits="userSpaceOnUse">
<stop stop-color="white"/>
<stop offset="1" stop-color="white" stop-opacity="0"/>
</linearGradient>
<linearGradient id="paint2_linear_4030_1585" x1="86.5236" y1="234.482" x2="142.684" y2="402.962" gradientUnits="userSpaceOnUse">
<stop stop-color="white" stop-opacity="0"/>
<stop offset="1" stop-color="white"/>
</linearGradient>
<linearGradient id="paint3_linear_4030_1585" x1="86.5236" y1="234.482" x2="142.684" y2="402.962" gradientUnits="userSpaceOnUse">
<stop stop-color="white" stop-opacity="0"/>
<stop offset="1" stop-color="white"/>
</linearGradient>
<linearGradient id="paint4_linear_4030_1585" x1="86.5236" y1="234.482" x2="142.684" y2="402.962" gradientUnits="userSpaceOnUse">
<stop stop-color="white" stop-opacity="0"/>
<stop offset="1" stop-color="white"/>
</linearGradient>
<linearGradient id="paint5_linear_4030_1585" x1="86.5236" y1="234.482" x2="142.684" y2="402.962" gradientUnits="userSpaceOnUse">
<stop stop-color="white" stop-opacity="0"/>
<stop offset="1" stop-color="white"/>
</linearGradient>
<linearGradient id="paint6_linear_4030_1585" x1="86.5236" y1="234.482" x2="142.684" y2="402.962" gradientUnits="userSpaceOnUse">
<stop stop-color="white" stop-opacity="0"/>
<stop offset="1" stop-color="white"/>
</linearGradient>
<linearGradient id="paint7_linear_4030_1585" x1="86.5236" y1="234.482" x2="142.684" y2="402.962" gradientUnits="userSpaceOnUse">
<stop stop-color="white"/>
<stop offset="1" stop-color="white" stop-opacity="0"/>
</linearGradient>
<radialGradient id="paint8_radial_4030_1585" cx="0" cy="0" r="1" gradientUnits="userSpaceOnUse" gradientTransform="translate(100 100) rotate(90) scale(100)">
<stop stop-color="white"/>
<stop offset="1"/>
</radialGradient>
<linearGradient id="paint9_linear_4030_1585" x1="100" y1="0" x2="100" y2="200" gradientUnits="userSpaceOnUse">
<stop stop-color="white" stop-opacity="0.25"/>
<stop offset="0.502476" stop-color="white" stop-opacity="0"/>
<stop offset="1" stop-color="white"/>
</linearGradient>
<linearGradient id="paint10_linear_4030_1585" x1="69.7137" y1="178.71" x2="131.286" y2="363.428" gradientUnits="userSpaceOnUse">
<stop/>
<stop offset="1"/>
</linearGradient>
<radialGradient id="paint11_radial_4030_1585" cx="0" cy="0" r="1" gradientUnits="userSpaceOnUse" gradientTransform="translate(185.5 254.5) rotate(-76.6307) scale(229.212)">
<stop/>
<stop offset="1" stop-color="white" stop-opacity="0"/>
</radialGradient>
<radialGradient id="paint12_radial_4030_1585" cx="0" cy="0" r="1" gradientUnits="userSpaceOnUse" gradientTransform="translate(179 329) rotate(-85.1526) scale(710.04 849.599)">
<stop offset="0.1"/>
<stop offset="1" stop-color="white" stop-opacity="0"/>
</radialGradient>
<linearGradient id="paint13_linear_4030_1585" x1="99.1683" y1="200.801" x2="151.168" y2="356.801" gradientUnits="userSpaceOnUse">
<stop stop-color="white" stop-opacity="0"/>
<stop offset="0.4"/>
</linearGradient>
<clipPath id="clip0_4030_1585">
<rect width="120" height="120" fill="white" transform="matrix(0.948683 -0.316228 0.8 0.6 74.2473 243.774)"/>
</clipPath>
</defs>
</svg>
