<svg width="343" height="343" viewBox="0 0 343 343" fill="none" xmlns="http://www.w3.org/2000/svg">
<path d="M-83.6885 243.713L142.573 168.292L-116.027 -25.6576L-114.604 -26.1319L143.996 167.818L197.122 150.109L241.922 183.709L548.584 81.4887L549.784 82.3887L243.122 184.609L433.922 327.709L740.584 225.489L741.784 226.389L435.122 328.609L479.922 362.209L426.796 379.918L685.396 573.868L683.973 574.342L425.373 380.392L199.112 455.813L457.712 649.763L456.289 650.237L197.689 456.287L144.562 473.996L99.7623 440.396L-206.9 542.616L-208.1 541.716L98.5623 439.496L-92.2377 296.396L-398.9 398.616L-400.1 397.716L-93.4377 295.496L-138.238 261.896L-85.1115 244.187L-343.711 50.2371L-342.288 49.7628L-83.6885 243.713ZM381.996 346.318L425.596 379.018L477.299 361.784L433.699 329.084L381.996 346.318ZM197.912 454.913L424.173 379.492L380.573 346.792L154.312 422.213L197.912 454.913ZM144.785 472.622L196.489 455.387L152.889 422.687L101.185 439.922L144.785 472.622ZM189.996 202.318L380.796 345.418L432.499 328.184L241.699 185.084L189.996 202.318ZM99.9853 439.022L151.689 421.787L-39.1115 278.687L-90.8147 295.922L99.9853 439.022ZM153.112 421.313L379.373 345.892L188.573 202.792L-37.6885 278.213L153.112 421.313ZM188.796 201.418L240.499 184.184L196.899 151.484L145.196 168.718L188.796 201.418ZM-92.0147 295.022L-40.3115 277.787L-83.9115 245.087L-135.615 262.322L-92.0147 295.022ZM-38.8885 277.313L187.373 201.892L143.773 169.192L-82.4885 244.613L-38.8885 277.313Z" fill="url(#paint0_radial_4030_1479)" fill-opacity="0.12"/>
<path opacity="0.08" d="M-236.747 14.5825L563.253 614.582" stroke="white"/>
<path opacity="0.08" d="M-251.926 19.6421L548.074 619.642" stroke="white"/>
<path opacity="0.08" d="M-206.39 4.46313L593.61 604.463" stroke="white"/>
<path opacity="0.08" d="M-221.569 9.52295L578.431 609.523" stroke="white"/>
<path opacity="0.08" d="M-176.032 -5.65601L623.968 594.344" stroke="white"/>
<path opacity="0.08" d="M-191.211 -0.596436L608.789 599.404" stroke="white"/>
<path opacity="0.08" d="M-267.105 24.7019L532.895 624.702" stroke="white"/>
<path opacity="0.08" d="M-282.284 29.7615L517.716 629.761" stroke="white"/>
<path opacity="0.08" d="M638.784 149.139L-309.9 465.366" stroke="white"/>
<path opacity="0.08" d="M625.984 139.539L-322.7 455.767" stroke="white"/>
<path opacity="0.08" d="M664.384 168.339L-284.3 484.567" stroke="white"/>
<path opacity="0.08" d="M651.584 158.739L-297.1 474.967" stroke="white"/>
<path opacity="0.08" d="M689.984 187.539L-258.7 503.767" stroke="white"/>
<path opacity="0.08" d="M677.184 177.939L-271.5 494.166" stroke="white"/>
<path opacity="0.08" d="M613.184 129.939L-335.5 446.166" stroke="white"/>
<path opacity="0.08" d="M600.384 120.339L-348.3 436.567" stroke="white"/>
<g style="mix-blend-mode:plus-lighter" filter="url(#filter0_f_4030_1479)">
<path d="M195.381 205.073C191.847 202.422 185.583 201.406 181.392 202.803L6.83417 260.989C4.49814 261.767 3.29902 263.131 3.30665 264.645L0.927326 279.307C0.934428 280.509 1.70213 281.805 3.26577 282.978L150.466 393.378C154 396.029 160.264 397.045 164.455 395.648L339.013 337.462C341.109 336.764 342.29 335.594 342.505 334.268L344.771 320.06C345.259 318.626 344.552 316.951 342.581 315.473L195.381 205.073Z" fill="url(#paint1_linear_4030_1479)" fill-opacity="0.4"/>
</g>
<rect width="240" height="240" rx="8" transform="matrix(0.948683 -0.316228 0.8 0.6 -39 278)" fill="black" fill-opacity="0.75" stroke="#323232" stroke-width="1.5"/>
<g style="mix-blend-mode:plus-lighter" filter="url(#filter1_f_4030_1479)">
<path d="M195.381 205.073C191.847 202.422 185.583 201.406 181.392 202.803L6.83417 260.989C4.49814 261.767 3.29902 263.131 3.30665 264.645L0.927326 279.307C0.934428 280.509 1.70213 281.805 3.26577 282.978L150.466 393.378C154 396.029 160.264 397.045 164.455 395.648L339.013 337.462C341.109 336.764 342.29 335.594 342.505 334.268L344.771 320.06C345.259 318.626 344.552 316.951 342.581 315.473L195.381 205.073Z" fill="url(#paint2_linear_4030_1479)"/>
</g>
<g style="mix-blend-mode:plus-lighter" filter="url(#filter2_f_4030_1479)">
<path d="M195.381 205.073C191.847 202.422 185.583 201.406 181.392 202.803L6.83417 260.989C4.49814 261.767 3.29902 263.131 3.30665 264.645L0.927326 279.307C0.934428 280.509 1.70213 281.805 3.26577 282.978L150.466 393.378C154 396.029 160.264 397.045 164.455 395.648L339.013 337.462C341.109 336.764 342.29 335.594 342.505 334.268L344.771 320.06C345.259 318.626 344.552 316.951 342.581 315.473L195.381 205.073Z" fill="url(#paint3_linear_4030_1479)"/>
</g>
<g style="mix-blend-mode:plus-lighter" filter="url(#filter3_f_4030_1479)">
<path d="M195.381 205.073C191.847 202.422 185.583 201.406 181.392 202.803L6.83417 260.989C4.49814 261.767 3.29902 263.131 3.30665 264.645L0.927326 279.307C0.934428 280.509 1.70213 281.805 3.26577 282.978L150.466 393.378C154 396.029 160.264 397.045 164.455 395.648L339.013 337.462C341.109 336.764 342.29 335.594 342.505 334.268L344.771 320.06C345.259 318.626 344.552 316.951 342.581 315.473L195.381 205.073Z" fill="url(#paint4_linear_4030_1479)"/>
</g>
<g style="mix-blend-mode:plus-lighter" filter="url(#filter4_f_4030_1479)">
<path d="M195.381 205.073C191.847 202.422 185.583 201.406 181.392 202.803L6.83417 260.989C4.49814 261.767 3.29902 263.131 3.30665 264.645L0.927326 279.307C0.934428 280.509 1.70213 281.805 3.26577 282.978L150.466 393.378C154 396.029 160.264 397.045 164.455 395.648L339.013 337.462C341.109 336.764 342.29 335.594 342.505 334.268L344.771 320.06C345.259 318.626 344.552 316.951 342.581 315.473L195.381 205.073Z" fill="url(#paint5_linear_4030_1479)"/>
</g>
<g style="mix-blend-mode:plus-lighter" filter="url(#filter5_f_4030_1479)">
<path d="M195.381 205.073C191.847 202.422 185.583 201.406 181.392 202.803L6.83417 260.989C4.49814 261.767 3.29902 263.131 3.30665 264.645L0.927326 279.307C0.934428 280.509 1.70213 281.805 3.26577 282.978L150.466 393.378C154 396.029 160.264 397.045 164.455 395.648L339.013 337.462C341.109 336.764 342.29 335.594 342.505 334.268L344.771 320.06C345.259 318.626 344.552 316.951 342.581 315.473L195.381 205.073Z" fill="url(#paint6_linear_4030_1479)"/>
</g>
<g style="mix-blend-mode:plus-lighter" filter="url(#filter6_f_4030_1479)">
<path d="M195.381 205.073C191.847 202.422 185.583 201.406 181.392 202.803L6.83417 260.989C4.49814 261.767 3.29902 263.131 3.30665 264.645L0.927326 279.307C0.934428 280.509 1.70213 281.805 3.26577 282.978L150.466 393.378C154 396.029 160.264 397.045 164.455 395.648L339.013 337.462C341.109 336.764 342.29 335.594 342.505 334.268L344.771 320.06C345.259 318.626 344.552 316.951 342.581 315.473L195.381 205.073Z" fill="url(#paint7_linear_4030_1479)" fill-opacity="0.5"/>
</g>
<rect width="200" height="200" rx="8" transform="matrix(0.948683 -0.316228 0.8 0.6 -0.75531 263.518)" fill="black"/>
<rect width="200" height="200" rx="8" transform="matrix(0.948683 -0.316228 0.8 0.6 -0.75531 263.518)" fill="white" fill-opacity="0.01"/>
<rect width="200" height="200" rx="8" transform="matrix(0.948683 -0.316228 0.8 0.6 -0.75531 263.518)" fill="black" fill-opacity="0.05"/>
<rect width="200" height="200" rx="8" transform="matrix(0.948683 -0.316228 0.8 0.6 -0.75531 263.518)" fill="url(#paint8_radial_4030_1479)" fill-opacity="0.08"/>
<rect width="200" height="200" rx="8" transform="matrix(0.948683 -0.316228 0.8 0.6 -0.75531 263.518)" fill="url(#paint9_linear_4030_1479)" fill-opacity="0.03"/>
<path opacity="0.12" d="M71.089 302.018C71.4638 301.893 72.023 301.984 72.3391 302.221L75.7422 304.773C76.0579 305.01 76.0104 305.303 75.6359 305.428L74.0925 305.942L86.9768 315.606C88.0848 316.436 89.6699 317.06 91.3823 317.338L98.7733 318.537C100.814 318.869 102.703 319.611 104.023 320.601L122.967 334.809C124.287 335.799 124.931 336.957 124.758 338.026L124.129 341.898C123.984 342.795 124.525 343.767 125.633 344.598L159.356 369.89L160.899 369.375C161.274 369.25 161.833 369.341 162.149 369.578L163.452 370.555L199.398 358.574L198.853 358.165C198.537 357.928 198.584 357.635 198.959 357.51L201.196 356.764C201.571 356.639 202.132 356.73 202.448 356.967L204.334 358.382C204.651 358.619 204.603 358.913 204.228 359.038L201.991 359.784C201.616 359.909 201.056 359.817 200.74 359.58L200.198 359.174L164.252 371.155L165.552 372.13C165.868 372.367 165.821 372.66 165.446 372.785L161.411 374.13C161.037 374.255 160.477 374.165 160.16 373.928L156.757 371.375C156.442 371.138 156.49 370.845 156.865 370.72L158.407 370.206L124.684 344.914C123.364 343.924 122.72 342.767 122.893 341.698L123.521 337.825C123.667 336.928 123.126 335.956 122.018 335.125L103.075 320.917C101.967 320.086 100.381 319.463 98.6681 319.185L91.2772 317.986C89.2369 317.655 87.3483 316.912 86.0281 315.922L73.1438 306.259L71.6012 306.773C71.2266 306.898 70.6664 306.807 70.3503 306.57L66.9471 304.018C66.6313 303.781 66.6796 303.487 67.0544 303.363L71.089 302.018ZM167.12 223.617C167.495 223.492 168.056 223.583 168.372 223.82L168.914 224.227L183.75 219.282L183.207 218.874C182.891 218.637 182.939 218.344 183.313 218.219L185.55 217.474C185.925 217.349 186.485 217.439 186.801 217.676L188.689 219.092C189.005 219.329 188.956 219.622 188.582 219.747L187.931 219.964L212.561 238.436C213.881 239.426 214.526 240.583 214.352 241.653L213.724 245.525C213.579 246.422 214.12 247.393 215.227 248.224L241.831 268.177C242.895 268.975 244.401 269.582 246.041 269.875L254.078 271.311C256.032 271.66 257.826 272.385 259.094 273.336L272.055 283.057C273.163 283.888 274.749 284.51 276.461 284.788L283.852 285.988C285.892 286.319 287.781 287.062 289.101 288.052L324.721 314.767L326.269 314.251C326.643 314.126 327.203 314.217 327.52 314.454L330.922 317.006C331.238 317.243 331.19 317.537 330.815 317.661L326.781 319.006C326.406 319.131 325.846 319.04 325.53 318.803L324.228 317.827L307.6 323.37L307.301 323.463C305.78 323.903 303.88 323.978 301.967 323.668L281.085 320.279C281.083 320.279 281.082 320.28 281.081 320.281L278.843 321.027C278.469 321.151 277.909 321.061 277.593 320.824L275.707 319.409C275.391 319.172 275.438 318.878 275.812 318.753L278.05 318.007C278.424 317.882 278.985 317.973 279.301 318.21L281.188 319.625C281.19 319.627 281.191 319.63 281.193 319.631L302.071 323.019C303.677 323.28 305.273 323.217 306.549 322.847L306.8 322.77L323.428 317.227L322.128 316.251C321.812 316.014 321.859 315.721 322.234 315.596L323.773 315.083L288.152 288.368C287.044 287.537 285.459 286.914 283.747 286.636L276.356 285.436C274.316 285.105 272.427 284.363 271.107 283.373L258.145 273.652C257.081 272.854 255.575 272.245 253.935 271.953L245.899 270.517C243.945 270.168 242.15 269.444 240.882 268.493L214.278 248.54C212.959 247.55 212.313 246.393 212.487 245.324L213.116 241.452C213.262 240.555 212.72 239.583 211.612 238.752L186.983 220.28L186.344 220.493C185.969 220.618 185.41 220.527 185.094 220.29L184.55 219.882L169.714 224.827L170.259 225.235C170.575 225.472 170.527 225.766 170.153 225.891L167.915 226.637C167.54 226.761 166.98 226.67 166.664 226.433L164.778 225.018C164.462 224.781 164.509 224.488 164.883 224.363L167.12 223.617ZM163.154 355.487C163.529 355.362 164.089 355.453 164.405 355.69L165.708 356.667L176.04 353.223C177.605 352.702 179.631 352.594 181.672 352.925L189.062 354.125C190.775 354.403 192.476 354.313 193.79 353.875L197.381 352.678C198.947 352.156 200.973 352.049 203.013 352.38L210.403 353.58C212.116 353.858 213.817 353.767 215.131 353.329L291.968 327.717L291.424 327.308C291.108 327.071 291.155 326.778 291.529 326.653L293.767 325.907C294.142 325.782 294.702 325.873 295.018 326.11L296.905 327.525C297.221 327.762 297.174 328.056 296.799 328.181L294.561 328.927C294.187 329.052 293.627 328.96 293.311 328.723L292.768 328.317L215.931 353.929C214.365 354.451 212.339 354.559 210.298 354.228L202.908 353.028C201.195 352.75 199.495 352.84 198.181 353.278L194.59 354.475C193.024 354.997 190.997 355.104 188.957 354.773L181.567 353.573C179.854 353.295 178.154 353.385 176.84 353.823L166.508 357.267L167.807 358.242C168.123 358.479 168.076 358.772 167.702 358.897L163.667 360.242C163.292 360.367 162.731 360.276 162.415 360.039L159.013 357.487C158.697 357.25 158.744 356.956 159.119 356.831L163.154 355.487ZM280.851 294.061C283.098 293.312 286.456 293.858 288.352 295.279L311.468 312.616L313.015 312.101C313.39 311.976 313.95 312.066 314.266 312.303L317.669 314.855C317.985 315.092 317.937 315.386 317.562 315.511L313.527 316.856C313.153 316.98 312.593 316.89 312.277 316.653L308.874 314.1C308.558 313.863 308.606 313.57 308.98 313.445L310.519 312.933L287.403 295.595C285.949 294.505 283.374 294.087 281.651 294.661C279.927 295.236 279.709 296.585 281.162 297.675L298.972 311.033L299.625 310.816C299.999 310.691 300.56 310.782 300.876 311.019L302.763 312.434C303.079 312.671 303.031 312.964 302.656 313.089L300.419 313.835C300.044 313.96 299.485 313.869 299.169 313.632L297.282 312.217C296.966 311.98 297.013 311.686 297.387 311.561L298.024 311.349L280.214 297.992C278.319 296.57 278.603 294.81 280.851 294.061ZM280.512 323.757C280.887 323.632 281.448 323.723 281.764 323.96L283.651 325.375C283.967 325.612 283.919 325.906 283.544 326.031L281.307 326.776C280.932 326.901 280.372 326.81 280.056 326.573L279.515 326.167L257.053 333.654L257.595 334.061C257.911 334.298 257.864 334.592 257.489 334.717L255.251 335.462C254.877 335.587 254.317 335.496 254.001 335.259L252.114 333.844C251.798 333.607 251.846 333.314 252.22 333.189L254.458 332.443C254.832 332.318 255.392 332.409 255.709 332.646L256.253 333.054L278.715 325.567L278.169 325.158C277.854 324.921 277.9 324.627 278.275 324.502L280.512 323.757ZM21.4476 264.787C21.8224 264.662 22.3824 264.753 22.6984 264.99L24.0008 265.967L40.625 260.425C42.1906 259.904 44.2167 259.796 46.2574 260.127L67.1382 263.516C67.1414 263.515 67.1443 263.513 67.1476 263.512L69.385 262.766C69.7597 262.642 70.319 262.732 70.635 262.969L72.5217 264.384C72.8377 264.621 72.7908 264.915 72.4162 265.04L70.1788 265.786C69.804 265.911 69.2432 265.82 68.9271 265.583L67.0365 264.165L46.153 260.776C44.4402 260.498 42.7391 260.587 41.425 261.025L24.8008 266.567L26.1008 267.542C26.4168 267.779 26.37 268.072 25.9953 268.197L24.4518 268.712L60.0721 295.427L60.2857 295.58C61.3791 296.334 62.8721 296.899 64.4776 297.159L71.8686 298.359C73.9089 298.69 75.7976 299.432 77.1178 300.422L90.0795 310.143C91.1438 310.941 92.6498 311.55 94.2897 311.843L102.326 313.278C104.28 313.627 106.074 314.351 107.342 315.302L133.946 335.255C135.266 336.245 135.911 337.402 135.738 338.471L135.108 342.343C134.963 343.241 135.504 344.212 136.612 345.043L161.241 363.515L161.884 363.3C162.259 363.175 162.818 363.266 163.134 363.503L163.68 363.912L178.515 358.967L177.969 358.557C177.653 358.32 177.701 358.027 178.076 357.902L180.313 357.156C180.688 357.032 181.247 357.122 181.563 357.359L183.451 358.775C183.766 359.012 183.719 359.305 183.344 359.43L181.107 360.176C180.732 360.3 180.172 360.21 179.856 359.973L179.315 359.567L164.48 364.512L165.022 364.919C165.337 365.156 165.29 365.449 164.915 365.574L162.678 366.319C162.303 366.444 161.743 366.354 161.427 366.117L159.54 364.701C159.224 364.464 159.272 364.171 159.647 364.046L160.293 363.831L135.664 345.359C134.343 344.369 133.699 343.212 133.872 342.143L134.5 338.27C134.646 337.373 134.105 336.402 132.997 335.571L106.393 315.618C105.329 314.82 103.823 314.213 102.183 313.92L94.1462 312.484C92.1926 312.135 90.3987 311.41 89.1308 310.459L76.1691 300.738C75.0611 299.907 73.4758 299.285 71.7634 299.007L64.3725 297.807C62.4596 297.497 60.6805 296.825 59.3777 295.926L59.1235 295.743L23.5031 269.028L21.9606 269.542C21.5858 269.667 21.0249 269.576 20.7089 269.339L17.3065 266.787C16.9905 266.55 17.0381 266.256 17.4129 266.131L21.4476 264.787ZM288.382 314.563C288.757 314.438 289.317 314.529 289.633 314.766L291.521 316.181C291.523 316.183 291.523 316.184 291.525 316.186L299.45 317.472C300.973 317.719 302.486 317.639 303.655 317.249L303.883 317.173L303.34 316.765C303.024 316.528 303.072 316.235 303.446 316.11L305.683 315.365C306.058 315.24 306.618 315.33 306.934 315.567L308.822 316.983C309.138 317.22 309.089 317.513 308.715 317.638L306.477 318.384C306.102 318.509 305.543 318.418 305.227 318.181L304.683 317.773L304.455 317.849C303.034 318.323 301.196 318.42 299.345 318.12L291.419 316.834C291.417 316.834 291.415 316.836 291.413 316.837L289.176 317.582C288.801 317.707 288.242 317.616 287.926 317.379L286.039 315.964C285.723 315.727 285.77 315.434 286.145 315.309L288.382 314.563ZM270.1 319.838C270.475 319.713 271.035 319.804 271.351 320.041L274.753 322.593C275.07 322.83 275.023 323.124 274.648 323.249L270.613 324.593C270.239 324.718 269.678 324.627 269.362 324.39L268.062 323.416L246.943 330.456C245.629 330.894 244.809 331.644 244.664 332.541L244.035 336.413C243.862 337.483 242.885 338.377 241.319 338.899L214.362 347.884C212.797 348.406 210.77 348.513 208.729 348.182L201.338 346.983C199.625 346.705 197.925 346.795 196.611 347.233L191.666 348.881L192.207 349.287C192.523 349.524 192.475 349.818 192.101 349.942L189.863 350.688C189.488 350.813 188.928 350.722 188.612 350.485L186.726 349.07C186.41 348.833 186.457 348.539 186.831 348.414L189.069 347.668C189.443 347.544 190.004 347.635 190.32 347.872L190.866 348.281L195.811 346.633C197.377 346.111 199.403 346.004 201.443 346.335L208.834 347.534C210.547 347.812 212.248 347.722 213.562 347.284L240.519 338.299C241.833 337.861 242.653 337.11 242.799 336.213L243.427 332.34C243.601 331.271 244.578 330.378 246.143 329.856L267.262 322.816L265.959 321.839C265.643 321.601 265.691 321.308 266.066 321.183L270.1 319.838ZM210.34 339.758C210.715 339.633 211.275 339.724 211.591 339.961L214.993 342.513C215.309 342.75 215.262 343.044 214.887 343.169L210.853 344.514C210.478 344.639 209.917 344.548 209.601 344.31L206.199 341.759C205.883 341.522 205.93 341.228 206.305 341.103L210.34 339.758ZM221.119 336.165C221.494 336.04 222.054 336.131 222.37 336.368L225.772 338.92C226.088 339.157 226.041 339.451 225.667 339.576L221.632 340.921C221.257 341.045 220.696 340.954 220.38 340.717L216.978 338.166C216.662 337.929 216.71 337.635 217.084 337.51L221.119 336.165ZM231.908 332.569C232.283 332.444 232.842 332.535 233.158 332.772L236.561 335.324C236.877 335.561 236.83 335.855 236.455 335.979L232.42 337.324C232.046 337.449 231.485 337.358 231.169 337.121L227.766 334.569C227.45 334.332 227.499 334.039 227.874 333.914L231.908 332.569ZM144.445 342.429C144.82 342.305 145.38 342.396 145.696 342.633L147.582 344.048C147.898 344.285 147.852 344.578 147.477 344.703L146.831 344.919L152.515 349.181L153.161 348.966C153.535 348.841 154.095 348.932 154.411 349.169L156.297 350.584C156.613 350.821 156.566 351.115 156.192 351.24L153.954 351.985C153.58 352.11 153.019 352.019 152.703 351.782L150.816 350.367C150.5 350.13 150.548 349.837 150.923 349.712L151.566 349.498L145.883 345.235L145.24 345.449C144.865 345.574 144.304 345.483 143.988 345.246L142.101 343.831C141.785 343.594 141.833 343.3 142.208 343.175L144.445 342.429ZM253.008 275.858C253.383 275.733 253.944 275.824 254.26 276.061L256.147 277.477C256.463 277.714 256.414 278.007 256.04 278.132L255.392 278.348L268.279 288.013L269.824 287.498C270.199 287.373 270.76 287.464 271.076 287.701L274.478 290.252C274.794 290.49 274.746 290.783 274.372 290.908L270.337 292.253C269.962 292.378 269.402 292.287 269.086 292.05L265.684 289.498C265.368 289.261 265.415 288.967 265.789 288.842L267.33 288.329L254.443 278.664L253.802 278.878C253.427 279.002 252.868 278.912 252.552 278.675L250.665 277.26C250.349 277.023 250.396 276.729 250.771 276.604L253.008 275.858ZM97.094 322.497C97.4688 322.372 98.028 322.463 98.344 322.7L100.231 324.115C100.547 324.352 100.5 324.645 100.125 324.77L99.4823 324.985L113.125 335.217L113.768 335.003C114.143 334.878 114.702 334.969 115.018 335.205L116.905 336.62C117.221 336.857 117.174 337.151 116.799 337.276L114.562 338.022C114.187 338.147 113.626 338.056 113.31 337.819L111.424 336.404C111.108 336.167 111.156 335.873 111.531 335.748L112.177 335.533L98.5336 325.301L97.8879 325.516C97.5131 325.641 96.9522 325.55 96.6361 325.313L94.7494 323.898C94.4334 323.661 94.4818 323.368 94.8566 323.243L97.094 322.497ZM186.816 209.662C187.191 209.537 187.751 209.628 188.067 209.865L191.47 212.416C191.786 212.653 191.738 212.947 191.363 213.072L189.816 213.588L223.54 238.881C224.86 239.871 225.505 241.028 225.332 242.098L224.703 245.97C224.558 246.867 225.098 247.839 226.206 248.67L245.15 262.878C246.258 263.709 247.844 264.332 249.556 264.61L256.947 265.809C258.988 266.14 260.876 266.883 262.196 267.873L275.079 277.535L276.626 277.02C277.001 276.895 277.561 276.985 277.877 277.222L281.28 279.775C281.596 280.012 281.548 280.305 281.173 280.43L277.139 281.775C276.764 281.9 276.205 281.809 275.889 281.572L272.485 279.02C272.17 278.783 272.217 278.489 272.592 278.365L274.131 277.852L261.248 268.19C260.14 267.359 258.555 266.735 256.842 266.457L249.451 265.258C247.411 264.927 245.522 264.184 244.201 263.194L225.258 248.986C223.937 247.996 223.293 246.839 223.467 245.769L224.095 241.897C224.241 241 223.699 240.028 222.591 239.197L188.867 213.904L187.328 214.417C186.954 214.542 186.394 214.451 186.078 214.214L184.777 213.238L148.822 225.223L149.366 225.631C149.682 225.868 149.635 226.161 149.261 226.286L147.023 227.032C146.648 227.157 146.087 227.066 145.771 226.829L143.885 225.414C143.569 225.177 143.617 224.884 143.992 224.759L146.229 224.013C146.604 223.888 147.163 223.979 147.479 224.216L148.022 224.623L183.977 212.638L182.675 211.662C182.359 211.425 182.407 211.132 182.782 211.007L186.816 209.662ZM233.662 245.773C234.036 245.648 234.596 245.738 234.913 245.975L236.8 247.391C237.116 247.628 237.068 247.921 236.693 248.046L236.047 248.261L249.689 258.493L250.335 258.278C250.71 258.153 251.271 258.244 251.587 258.481L253.474 259.896C253.789 260.133 253.741 260.426 253.366 260.551L251.129 261.297C250.754 261.422 250.195 261.331 249.879 261.094L247.992 259.679C247.676 259.442 247.723 259.149 248.098 259.024L248.741 258.809L235.098 248.578L234.456 248.792C234.081 248.917 233.522 248.826 233.205 248.589L231.318 247.173C231.002 246.936 231.05 246.643 231.424 246.518L233.662 245.773ZM77.8922 291.54C78.267 291.415 78.8262 291.506 79.1422 291.743L82.5446 294.295C82.8606 294.532 82.8137 294.825 82.4391 294.95L80.8937 295.466L93.7797 305.13L94.4254 304.915C94.8002 304.79 95.3594 304.881 95.6754 305.118L97.5622 306.533C97.8782 306.77 97.8312 307.063 97.4567 307.188L95.2193 307.934C94.8445 308.059 94.2836 307.968 93.9675 307.731L92.0808 306.316C91.7648 306.079 91.8133 305.785 92.188 305.661L92.831 305.446L79.9451 295.782L78.4044 296.295C78.0296 296.42 77.4687 296.329 77.1526 296.092L73.7503 293.54C73.4343 293.303 73.4827 293.01 73.8575 292.885L77.8922 291.54ZM34.7011 266.937C35.0759 266.812 35.6359 266.904 35.9519 267.141L39.3542 269.693C39.6702 269.93 39.6226 270.223 39.248 270.347L37.7045 270.862L60.8217 288.2C62.2751 289.29 64.8507 289.708 66.574 289.134C68.2971 288.559 68.5151 287.21 67.0622 286.12L49.2513 272.761L48.6083 272.976C48.2335 273.101 47.6727 273.01 47.3566 272.773L45.4699 271.358C45.154 271.121 45.2024 270.827 45.5771 270.702L47.8145 269.957C48.1892 269.832 48.7485 269.923 49.0645 270.159L50.9512 271.574C51.2672 271.811 51.2203 272.105 50.8457 272.23L50.2 272.445L68.0109 285.803C69.9056 287.225 69.621 288.985 67.374 289.734C65.1268 290.483 61.7682 289.937 59.873 288.516L36.7558 271.178L35.2133 271.692C34.8385 271.817 34.2784 271.727 33.9623 271.49L30.56 268.938C30.2439 268.701 30.2916 268.407 30.6664 268.282L34.7011 266.937ZM194.273 231.807C194.648 231.682 195.209 231.773 195.525 232.01L197.412 233.425C197.727 233.662 197.679 233.956 197.304 234.08L196.657 234.296L202.341 238.56L202.993 238.342C203.368 238.217 203.929 238.308 204.245 238.545L206.132 239.96C206.448 240.197 206.4 240.491 206.025 240.616L203.788 241.362C203.413 241.487 202.853 241.396 202.537 241.159L200.651 239.744C200.335 239.507 200.381 239.213 200.756 239.088L201.393 238.876L195.708 234.613L195.067 234.826C194.692 234.951 194.133 234.86 193.817 234.623L191.93 233.208C191.614 232.971 191.661 232.678 192.036 232.553L194.273 231.807ZM133.862 235.911C135.428 235.389 137.455 235.282 139.495 235.613L146.886 236.812C148.599 237.09 150.3 237 151.614 236.562L156.553 234.915L156.01 234.508C155.694 234.271 155.742 233.977 156.117 233.852L158.354 233.107C158.729 232.982 159.289 233.073 159.605 233.31L161.492 234.725C161.808 234.962 161.76 235.255 161.386 235.38L159.148 236.126C158.773 236.251 158.213 236.16 157.897 235.923L157.353 235.515L152.414 237.162C150.848 237.684 148.822 237.791 146.781 237.46L139.39 236.261C137.678 235.983 135.976 236.073 134.662 236.511L107.705 245.496C106.391 245.934 105.571 246.685 105.426 247.582L104.797 251.455C104.624 252.524 103.647 253.418 102.082 253.939L80.9668 260.978L82.2692 261.954C82.5852 262.191 82.5375 262.485 82.1627 262.61L78.128 263.955C77.7532 264.08 77.1932 263.989 76.8772 263.752L73.4749 261.2C73.1589 260.963 73.2057 260.669 73.5804 260.544L77.6151 259.2C77.9899 259.075 78.5507 259.166 78.8668 259.403L80.1668 260.378L101.282 253.339C102.595 252.901 103.415 252.151 103.561 251.254L104.189 247.382C104.363 246.313 105.34 245.418 106.905 244.896L133.862 235.911ZM115.807 246.468C116.182 246.343 116.743 246.434 117.059 246.671L120.461 249.223C120.777 249.46 120.73 249.754 120.355 249.879L116.32 251.224C115.945 251.348 115.385 251.257 115.069 251.02L111.667 248.468C111.351 248.231 111.398 247.938 111.772 247.813L115.807 246.468ZM126.596 242.872C126.97 242.747 127.531 242.838 127.847 243.075L131.25 245.627C131.566 245.864 131.518 246.158 131.143 246.283L127.109 247.627C126.734 247.752 126.174 247.661 125.858 247.424L122.455 244.872C122.139 244.635 122.186 244.342 122.561 244.217L126.596 242.872ZM137.375 239.279C137.75 239.154 138.311 239.245 138.627 239.482L142.029 242.034C142.345 242.271 142.297 242.565 141.923 242.69L137.888 244.034C137.513 244.159 136.953 244.068 136.637 243.831L133.235 241.279C132.919 241.042 132.966 240.749 133.34 240.624L137.375 239.279ZM53.6686 254.867C54.0433 254.742 54.6026 254.833 54.9186 255.07L55.4608 255.477L132.294 229.866C133.86 229.344 135.886 229.236 137.926 229.568L145.316 230.767C147.029 231.045 148.729 230.955 150.044 230.517L153.635 229.32C155.2 228.798 157.227 228.691 159.268 229.022L166.658 230.222C168.37 230.5 170.071 230.41 171.385 229.972L181.721 226.526L180.421 225.551C180.105 225.314 180.151 225.02 180.526 224.895L184.561 223.55C184.936 223.425 185.496 223.516 185.812 223.753L189.215 226.305C189.531 226.542 189.483 226.836 189.108 226.961L185.074 228.306C184.699 228.431 184.139 228.339 183.823 228.102L182.521 227.126L172.185 230.572C170.619 231.093 168.593 231.201 166.553 230.87L159.163 229.67C157.45 229.392 155.749 229.482 154.435 229.92L150.844 231.117C149.278 231.639 147.252 231.746 145.211 231.415L137.821 230.215C136.109 229.937 134.408 230.028 133.094 230.466L56.2608 256.077L56.8061 256.486C57.1217 256.723 57.0742 257.016 56.6998 257.141L54.4624 257.886C54.0878 258.011 53.5276 257.921 53.2115 257.684L51.324 256.268C51.0082 256.031 51.0565 255.738 51.4312 255.613L53.6686 254.867ZM41.7504 265.409C42.1251 265.284 42.6844 265.374 43.0004 265.611L43.5458 266.02L43.77 265.946C45.1905 265.472 47.0285 265.375 48.8799 265.675L56.8027 266.961C56.8068 266.96 56.8107 266.958 56.8149 266.956L59.0523 266.211C59.4271 266.086 59.9871 266.177 60.3031 266.414L62.1898 267.829C62.5056 268.066 62.458 268.359 62.0835 268.484L59.8462 269.23C59.4714 269.355 58.9113 269.264 58.5952 269.027L56.7061 267.611L48.7748 266.323C47.2514 266.076 45.7388 266.156 44.57 266.546L44.3458 266.62L44.8872 267.026C45.2032 267.263 45.1562 267.557 44.7817 267.682L42.5443 268.428C42.1695 268.553 41.6086 268.462 41.2925 268.225L39.4058 266.81C39.09 266.573 39.1383 266.279 39.513 266.154L41.7504 265.409ZM66.916 257.017C67.2908 256.893 67.8508 256.984 68.1668 257.221L68.7097 257.628L91.1761 250.139L90.6332 249.732C90.3171 249.495 90.3648 249.201 90.7396 249.076L92.977 248.33C93.3518 248.206 93.9118 248.297 94.2278 248.534L96.1145 249.949C96.4304 250.186 96.3827 250.479 96.0082 250.604L93.7708 251.35C93.3961 251.475 92.836 251.384 92.5199 251.147L91.9761 250.739L69.5097 258.228L70.0535 258.636C70.3694 258.873 70.3218 259.166 69.9472 259.291L67.7098 260.037C67.3351 260.162 66.775 260.071 66.4589 259.834L64.5722 258.419C64.2561 258.182 64.3038 257.888 64.6786 257.763L66.916 257.017Z" fill="white"/>
<g filter="url(#filter7_ii_4030_1479)">
<path d="M17.0999 241.967C10.0307 236.665 11.0958 230.101 19.4789 227.307L178.858 174.181C187.241 171.386 199.767 173.419 206.837 178.721L341.237 279.521C348.306 284.823 347.241 291.386 338.858 294.181L179.479 347.307C171.096 350.101 158.569 348.069 151.5 342.767L17.0999 241.967Z" fill="url(#paint10_linear_4030_1479)"/>
<path d="M17.0999 241.967C10.0307 236.665 11.0958 230.101 19.4789 227.307L178.858 174.181C187.241 171.386 199.767 173.419 206.837 178.721L341.237 279.521C348.306 284.823 347.241 291.386 338.858 294.181L179.479 347.307C171.096 350.101 158.569 348.069 151.5 342.767L17.0999 241.967Z" fill="url(#paint11_radial_4030_1479)"/>
<path d="M17.0999 241.967C10.0307 236.665 11.0958 230.101 19.4789 227.307L178.858 174.181C187.241 171.386 199.767 173.419 206.837 178.721L341.237 279.521C348.306 284.823 347.241 291.386 338.858 294.181L179.479 347.307C171.096 350.101 158.569 348.069 151.5 342.767L17.0999 241.967Z" fill="url(#paint12_radial_4030_1479)" fill-opacity="0.75"/>
<path d="M17.0999 241.967C10.0307 236.665 11.0958 230.101 19.4789 227.307L178.858 174.181C187.241 171.386 199.767 173.419 206.837 178.721L341.237 279.521C348.306 284.823 347.241 291.386 338.858 294.181L179.479 347.307C171.096 350.101 158.569 348.069 151.5 342.767L17.0999 241.967Z" fill="url(#paint13_linear_4030_1479)" fill-opacity="0.12"/>
</g>
<path d="M19.8789 227.607L179.258 174.481C187.379 171.774 199.514 173.743 206.362 178.879L340.762 279.679C347.611 284.815 346.579 291.174 338.458 293.881L179.079 347.007C170.958 349.714 158.823 347.745 151.974 342.609L17.5743 241.809C10.7259 236.672 11.7577 230.314 19.8789 227.607Z" stroke="white" stroke-opacity="0.08"/>
<g clip-path="url(#clip0_4030_1479)">
<path fill-rule="evenodd" clip-rule="evenodd" d="M137.069 231.581C134.932 232.706 133.582 234.242 133.227 235.955C132.844 237.797 133.523 239.68 135.268 241.611C135.942 242.357 137.945 243.887 139.082 244.525C143.854 247.199 150.523 248.556 156.233 248.015C160.326 247.627 163.795 246.226 165.537 244.258L166.018 243.714L181.492 246.223L196.966 248.732L197.31 249.492C197.499 249.91 197.833 250.506 198.051 250.816L198.449 251.381L193.73 252.979L189.01 254.576L188.401 254.289C184.312 252.358 178.789 251.304 174.071 251.553C167.52 251.9 162.904 254.443 162.321 258.027C162.091 259.44 162.588 261.175 163.612 262.526L163.924 262.938L159.169 264.499L154.413 266.06L153.366 265.598C148.182 263.311 141.846 262.502 136.342 263.426C135.087 263.636 132.569 264.449 131.616 264.952C127.393 267.18 126.512 270.882 129.36 274.431C130.024 275.258 130.127 275.351 131.728 276.551C133.329 277.752 133.46 277.835 134.732 278.46C139.489 280.796 145.586 281.894 150.871 281.366C151.612 281.292 152.615 281.156 153.099 281.064C154.394 280.818 156.863 279.968 157.735 279.47C161.556 277.285 162.5 274.05 160.272 270.777L159.822 270.116L164.532 268.522L169.243 266.928L169.884 267.23C171.985 268.222 174.996 269.119 177.694 269.556C188.759 271.351 197.636 267.202 195.762 261.113C195.563 260.468 195.091 259.571 194.626 258.957L194.329 258.566L199.094 257.002L203.858 255.438L204.748 255.839C205.237 256.059 206.209 256.442 206.908 256.691L208.179 257.141L206.859 265.248L205.54 273.355L204.35 273.368C200.047 273.415 196.126 274.477 193.836 276.217C191.064 278.322 190.619 281.372 192.665 284.233C193.414 285.28 194.042 285.893 195.437 286.936C197.856 288.746 200.83 290.066 204.438 290.931C209.651 292.181 215.052 292.116 219.132 290.756C224.049 289.118 226.171 285.879 224.656 282.328C223.458 279.519 219.712 276.74 214.91 275.098L213.808 274.721L215.124 266.593L216.44 258.466L217.683 258.451C224.59 258.372 229.708 255.849 230.462 252.152C231.141 248.818 228.211 245.205 222.788 242.691C221.493 242.091 219.156 241.292 217.582 240.912C215.135 240.32 212.076 239.968 209.642 239.999C204.612 240.061 200.26 241.523 198.203 243.841L197.699 244.41L182.188 241.891L166.677 239.372L166.405 238.719C165.858 237.405 164.909 236.227 163.393 234.98C158.284 230.779 148.774 228.693 141.352 230.146C140.072 230.397 138.003 231.09 137.069 231.581ZM143.013 235.403C142.034 236.03 141.643 236.563 141.478 237.495C141.355 238.191 141.385 238.452 141.651 239.018C142.406 240.626 143.991 241.806 146.634 242.727C148.686 243.443 150.857 243.723 153.077 243.559C154.283 243.469 156.154 242.929 156.929 242.446C160.174 240.424 158.508 236.87 153.492 235.118C149.718 233.799 145.331 233.918 143.013 235.403ZM138.302 268.367C138.212 268.42 137.928 268.579 137.67 268.72C137.413 268.861 136.969 269.223 136.684 269.525C136.255 269.978 136.143 270.221 136.039 270.918C135.95 271.515 135.985 271.921 136.158 272.307C137.111 274.44 140.041 276.127 143.868 276.747C145.091 276.945 145.629 276.988 146.603 276.965C148.219 276.927 148.961 276.806 150.229 276.374C151.106 276.075 151.392 275.934 151.87 275.565C153.133 274.59 153.489 273.421 152.908 272.155C152.506 271.278 152.14 270.856 151.117 270.088C150.094 269.321 149.455 268.99 147.991 268.467C145.177 267.462 141.879 267.282 139.401 267.999C138.887 268.148 138.393 268.313 138.302 268.367ZM172.587 256.977C171.392 257.61 170.728 258.396 170.571 259.365C170.366 260.622 171.007 261.773 172.563 262.94C174.119 264.107 175.997 264.845 178.397 265.234C180.797 265.623 182.812 265.516 184.658 264.901C186.538 264.274 187.488 263.393 187.683 262.094C187.87 260.851 187.25 259.739 185.733 258.596C184.699 257.817 184.016 257.462 182.536 256.93C180.493 256.197 177.869 255.891 175.701 256.134C174.7 256.246 173.199 256.652 172.587 256.977ZM207.076 245.486C205.105 246.524 204.57 248.176 205.634 249.941C205.92 250.416 206.059 250.546 207.193 251.396C208.327 252.247 208.513 252.361 209.281 252.676C210.508 253.18 211.639 253.502 212.927 253.715C214.323 253.946 215.581 253.994 216.957 253.87C217.85 253.79 218.175 253.72 219.129 253.403C221.086 252.754 222.015 251.932 222.249 250.646C222.375 249.955 222.227 249.323 221.76 248.558C221.396 247.963 221.303 247.873 220.214 247.056C219.125 246.239 218.994 246.161 218.035 245.765C214.838 244.442 211.272 244.16 208.386 245C207.911 245.138 207.322 245.357 207.076 245.486ZM201.244 279.105C198.533 280.868 199.39 283.79 203.19 285.736C203.469 285.879 204.21 286.181 204.836 286.407C205.78 286.748 206.249 286.862 207.583 287.073C208.721 287.253 209.474 287.322 210.16 287.31C214.97 287.225 217.759 285.114 216.592 282.442C215.483 279.905 210.802 277.828 206.363 277.903C205.715 277.914 204.853 277.97 204.448 278.028C203.514 278.161 201.819 278.731 201.244 279.105Z" fill="#737373"/>
</g>
<rect width="174" height="174" rx="8" transform="matrix(0.948683 -0.316228 0.8 0.6 27.0328 236.056)" stroke="white" stroke-opacity="0.12" stroke-width="1.5"/>
<path d="M140.675 166.109L147.075 170.909M147.671 167.235L140.081 169.764" stroke="white" stroke-opacity="0.1"/>
<path d="M238.601 182L245.001 186.8M245.597 183.126L238.008 185.655" stroke="white" stroke-opacity="0.1"/>
<defs>
<filter id="filter0_f_4030_1479" x="-199.073" y="2.17578" width="743.992" height="594.099" filterUnits="userSpaceOnUse" color-interpolation-filters="sRGB">
<feFlood flood-opacity="0" result="BackgroundImageFix"/>
<feBlend mode="normal" in="SourceGraphic" in2="BackgroundImageFix" result="shape"/>
<feGaussianBlur stdDeviation="100" result="effect1_foregroundBlur_4030_1479"/>
</filter>
<filter id="filter1_f_4030_1479" x="-1.07266" y="200.176" width="347.992" height="198.099" filterUnits="userSpaceOnUse" color-interpolation-filters="sRGB">
<feFlood flood-opacity="0" result="BackgroundImageFix"/>
<feBlend mode="normal" in="SourceGraphic" in2="BackgroundImageFix" result="shape"/>
<feGaussianBlur stdDeviation="1" result="effect1_foregroundBlur_4030_1479"/>
</filter>
<filter id="filter2_f_4030_1479" x="-7.07266" y="194.176" width="359.992" height="210.099" filterUnits="userSpaceOnUse" color-interpolation-filters="sRGB">
<feFlood flood-opacity="0" result="BackgroundImageFix"/>
<feBlend mode="normal" in="SourceGraphic" in2="BackgroundImageFix" result="shape"/>
<feGaussianBlur stdDeviation="4" result="effect1_foregroundBlur_4030_1479"/>
</filter>
<filter id="filter3_f_4030_1479" x="-3.07266" y="198.176" width="351.992" height="202.099" filterUnits="userSpaceOnUse" color-interpolation-filters="sRGB">
<feFlood flood-opacity="0" result="BackgroundImageFix"/>
<feBlend mode="normal" in="SourceGraphic" in2="BackgroundImageFix" result="shape"/>
<feGaussianBlur stdDeviation="2" result="effect1_foregroundBlur_4030_1479"/>
</filter>
<filter id="filter4_f_4030_1479" x="-23.0727" y="178.176" width="391.992" height="242.099" filterUnits="userSpaceOnUse" color-interpolation-filters="sRGB">
<feFlood flood-opacity="0" result="BackgroundImageFix"/>
<feBlend mode="normal" in="SourceGraphic" in2="BackgroundImageFix" result="shape"/>
<feGaussianBlur stdDeviation="12" result="effect1_foregroundBlur_4030_1479"/>
</filter>
<filter id="filter5_f_4030_1479" x="-7.07266" y="194.176" width="359.992" height="210.099" filterUnits="userSpaceOnUse" color-interpolation-filters="sRGB">
<feFlood flood-opacity="0" result="BackgroundImageFix"/>
<feBlend mode="normal" in="SourceGraphic" in2="BackgroundImageFix" result="shape"/>
<feGaussianBlur stdDeviation="4" result="effect1_foregroundBlur_4030_1479"/>
</filter>
<filter id="filter6_f_4030_1479" x="-47.0727" y="154.176" width="439.992" height="290.099" filterUnits="userSpaceOnUse" color-interpolation-filters="sRGB">
<feFlood flood-opacity="0" result="BackgroundImageFix"/>
<feBlend mode="normal" in="SourceGraphic" in2="BackgroundImageFix" result="shape"/>
<feGaussianBlur stdDeviation="24" result="effect1_foregroundBlur_4030_1479"/>
</filter>
<filter id="filter7_ii_4030_1479" x="12.4229" y="172.927" width="333.491" height="199.634" filterUnits="userSpaceOnUse" color-interpolation-filters="sRGB">
<feFlood flood-opacity="0" result="BackgroundImageFix"/>
<feBlend mode="normal" in="SourceGraphic" in2="BackgroundImageFix" result="shape"/>
<feColorMatrix in="SourceAlpha" type="matrix" values="0 0 0 0 0 0 0 0 0 0 0 0 0 0 0 0 0 0 127 0" result="hardAlpha"/>
<feMorphology radius="1" operator="erode" in="SourceAlpha" result="effect1_innerShadow_4030_1479"/>
<feOffset/>
<feComposite in2="hardAlpha" operator="arithmetic" k2="-1" k3="1"/>
<feColorMatrix type="matrix" values="0 0 0 0 1 0 0 0 0 1 0 0 0 0 1 0 0 0 0.12 0"/>
<feBlend mode="normal" in2="shape" result="effect1_innerShadow_4030_1479"/>
<feColorMatrix in="SourceAlpha" type="matrix" values="0 0 0 0 0 0 0 0 0 0 0 0 0 0 0 0 0 0 127 0" result="hardAlpha"/>
<feOffset dy="24"/>
<feGaussianBlur stdDeviation="24"/>
<feComposite in2="hardAlpha" operator="arithmetic" k2="-1" k3="1"/>
<feColorMatrix type="matrix" values="0 0 0 0 1 0 0 0 0 1 0 0 0 0 1 0 0 0 0.06 0"/>
<feBlend mode="normal" in2="effect1_innerShadow_4030_1479" result="effect2_innerShadow_4030_1479"/>
</filter>
<radialGradient id="paint0_radial_4030_1479" cx="0" cy="0" r="1" gradientUnits="userSpaceOnUse" gradientTransform="translate(153 422) rotate(36.8699) scale(386.5 317.777)">
<stop stop-color="white"/>
<stop offset="1" stop-color="white" stop-opacity="0"/>
</radialGradient>
<linearGradient id="paint1_linear_4030_1479" x1="259.324" y1="364.026" x2="203.164" y2="195.546" gradientUnits="userSpaceOnUse">
<stop stop-color="white"/>
<stop offset="1" stop-color="white" stop-opacity="0"/>
</linearGradient>
<linearGradient id="paint2_linear_4030_1479" x1="86.5236" y1="234.426" x2="142.684" y2="402.906" gradientUnits="userSpaceOnUse">
<stop stop-color="white" stop-opacity="0"/>
<stop offset="1" stop-color="white"/>
</linearGradient>
<linearGradient id="paint3_linear_4030_1479" x1="86.5236" y1="234.426" x2="142.684" y2="402.906" gradientUnits="userSpaceOnUse">
<stop stop-color="white" stop-opacity="0"/>
<stop offset="1" stop-color="white"/>
</linearGradient>
<linearGradient id="paint4_linear_4030_1479" x1="86.5236" y1="234.426" x2="142.684" y2="402.906" gradientUnits="userSpaceOnUse">
<stop stop-color="white" stop-opacity="0"/>
<stop offset="1" stop-color="white"/>
</linearGradient>
<linearGradient id="paint5_linear_4030_1479" x1="86.5236" y1="234.426" x2="142.684" y2="402.906" gradientUnits="userSpaceOnUse">
<stop stop-color="white" stop-opacity="0"/>
<stop offset="1" stop-color="white"/>
</linearGradient>
<linearGradient id="paint6_linear_4030_1479" x1="86.5236" y1="234.426" x2="142.684" y2="402.906" gradientUnits="userSpaceOnUse">
<stop stop-color="white" stop-opacity="0"/>
<stop offset="1" stop-color="white"/>
</linearGradient>
<linearGradient id="paint7_linear_4030_1479" x1="86.5236" y1="234.426" x2="142.684" y2="402.906" gradientUnits="userSpaceOnUse">
<stop stop-color="white"/>
<stop offset="1" stop-color="white" stop-opacity="0"/>
</linearGradient>
<radialGradient id="paint8_radial_4030_1479" cx="0" cy="0" r="1" gradientUnits="userSpaceOnUse" gradientTransform="translate(100 100) rotate(90) scale(100)">
<stop stop-color="white"/>
<stop offset="1"/>
</radialGradient>
<linearGradient id="paint9_linear_4030_1479" x1="100" y1="0" x2="100" y2="200" gradientUnits="userSpaceOnUse">
<stop stop-color="white" stop-opacity="0.25"/>
<stop offset="0.502476" stop-color="white" stop-opacity="0"/>
<stop offset="1" stop-color="white"/>
</linearGradient>
<linearGradient id="paint10_linear_4030_1479" x1="69.7137" y1="178.653" x2="131.286" y2="363.371" gradientUnits="userSpaceOnUse">
<stop/>
<stop offset="1"/>
</linearGradient>
<radialGradient id="paint11_radial_4030_1479" cx="0" cy="0" r="1" gradientUnits="userSpaceOnUse" gradientTransform="translate(185.5 254.443) rotate(-76.6307) scale(229.212)">
<stop/>
<stop offset="1" stop-color="white" stop-opacity="0"/>
</radialGradient>
<radialGradient id="paint12_radial_4030_1479" cx="0" cy="0" r="1" gradientUnits="userSpaceOnUse" gradientTransform="translate(179 328.943) rotate(-85.1526) scale(710.04 849.599)">
<stop offset="0.1"/>
<stop offset="1" stop-color="white" stop-opacity="0"/>
</radialGradient>
<linearGradient id="paint13_linear_4030_1479" x1="99.1683" y1="200.744" x2="151.168" y2="356.744" gradientUnits="userSpaceOnUse">
<stop stop-color="white" stop-opacity="0"/>
<stop offset="0.4"/>
</linearGradient>
<clipPath id="clip0_4030_1479">
<rect width="120" height="120" fill="white" transform="matrix(0.948683 -0.316228 0.8 0.6 74.2473 243.718)"/>
</clipPath>
</defs>
</svg>
