<svg width="384" height="534" viewBox="0 0 384 534" fill="none" xmlns="http://www.w3.org/2000/svg">
<path d="M-68.6885 270.77L157.572 195.349L-101.028 1.39933L-99.6045 0.924986L158.996 194.875L212.122 177.166L256.922 210.766L563.584 108.546L564.784 109.446L258.122 211.666L448.922 354.766L755.584 252.546L756.784 253.446L450.122 355.666L494.922 389.266L441.796 406.975L700.396 600.925L698.972 601.399L440.372 407.449L214.112 482.87L472.712 676.82L471.288 677.294L212.688 483.344L159.562 501.053L114.762 467.453L-191.9 569.673L-193.1 568.773L113.562 466.553L-77.2378 323.453L-383.9 425.673L-385.1 424.773L-78.4378 322.553L-123.238 288.953L-70.1115 271.244L-328.712 77.294L-327.288 76.8197L-68.6885 270.77ZM396.996 373.375L440.596 406.075L492.299 388.841L448.699 356.141L396.996 373.375ZM212.912 481.97L439.172 406.549L395.572 373.849L169.312 449.27L212.912 481.97ZM159.785 499.678L211.488 482.444L167.888 449.744L116.185 466.978L159.785 499.678ZM204.996 229.375L395.796 372.475L447.499 355.241L256.699 212.141L204.996 229.375ZM114.985 466.078L166.688 448.844L-24.1115 305.744L-75.8148 322.978L114.985 466.078ZM168.112 448.37L394.372 372.949L203.572 229.849L-22.6885 305.27L168.112 448.37ZM203.796 228.475L255.499 211.241L211.899 178.541L160.196 195.775L203.796 228.475ZM-77.0148 322.078L-25.3115 304.844L-68.9115 272.144L-120.615 289.378L-77.0148 322.078ZM-23.8885 304.37L202.372 228.949L158.772 196.249L-67.4885 271.67L-23.8885 304.37Z" fill="url(#paint0_radial_4030_2026)" fill-opacity="0.12"/>
<path opacity="0.08" d="M-221.747 41.6394L578.253 641.639" stroke="white"/>
<path opacity="0.08" d="M-236.926 46.699L563.074 646.699" stroke="white"/>
<path opacity="0.08" d="M-191.39 31.5201L608.61 631.52" stroke="white"/>
<path opacity="0.08" d="M-206.569 36.5797L593.431 636.58" stroke="white"/>
<path opacity="0.08" d="M-161.032 21.4008L638.968 621.401" stroke="white"/>
<path opacity="0.08" d="M-176.211 26.4604L623.789 626.46" stroke="white"/>
<path opacity="0.08" d="M-252.105 51.7588L547.895 651.759" stroke="white"/>
<path opacity="0.08" d="M-267.284 56.8184L532.716 656.818" stroke="white"/>
<path opacity="0.08" d="M653.784 176.196L-294.9 492.423" stroke="white"/>
<path opacity="0.08" d="M640.984 166.596L-307.7 482.823" stroke="white"/>
<path opacity="0.08" d="M679.384 195.396L-269.3 511.624" stroke="white"/>
<path opacity="0.08" d="M666.584 185.796L-282.1 502.023" stroke="white"/>
<path opacity="0.08" d="M704.984 214.596L-243.7 530.823" stroke="white"/>
<path opacity="0.08" d="M692.184 204.996L-256.5 521.223" stroke="white"/>
<path opacity="0.08" d="M628.184 156.996L-320.5 473.223" stroke="white"/>
<path opacity="0.08" d="M615.384 147.396L-333.3 463.624" stroke="white"/>
<g style="mix-blend-mode:plus-lighter" filter="url(#filter0_f_4030_2026)">
<path d="M210.381 232.13C206.847 229.479 200.583 228.462 196.392 229.86L21.8342 288.046C19.4982 288.824 18.2991 290.188 18.3067 291.702L15.9274 306.364C15.9345 307.566 16.7022 308.862 18.2658 310.035L165.466 420.435C169 423.086 175.264 424.102 179.455 422.705L354.013 364.519C356.109 363.821 357.29 362.651 357.505 361.325L359.771 347.117C360.259 345.682 359.552 344.008 357.581 342.53L210.381 232.13Z" fill="url(#paint1_linear_4030_2026)" fill-opacity="0.4"/>
</g>
<rect width="240" height="240" rx="8" transform="matrix(0.948683 -0.316228 0.8 0.6 -24 305.057)" fill="black" fill-opacity="0.75" stroke="#323232" stroke-width="1.5"/>
<g style="mix-blend-mode:plus-lighter" filter="url(#filter1_f_4030_2026)">
<path d="M210.381 232.13C206.847 229.479 200.583 228.462 196.392 229.86L21.8342 288.046C19.4982 288.824 18.2991 290.188 18.3067 291.702L15.9274 306.364C15.9345 307.566 16.7022 308.862 18.2658 310.035L165.466 420.435C169 423.086 175.264 424.102 179.455 422.705L354.013 364.519C356.109 363.821 357.29 362.651 357.505 361.325L359.771 347.117C360.259 345.682 359.552 344.008 357.581 342.53L210.381 232.13Z" fill="url(#paint2_linear_4030_2026)"/>
</g>
<g style="mix-blend-mode:plus-lighter" filter="url(#filter2_f_4030_2026)">
<path d="M210.381 232.13C206.847 229.479 200.583 228.462 196.392 229.86L21.8342 288.046C19.4982 288.824 18.2991 290.188 18.3067 291.702L15.9274 306.364C15.9345 307.566 16.7022 308.862 18.2658 310.035L165.466 420.435C169 423.086 175.264 424.102 179.455 422.705L354.013 364.519C356.109 363.821 357.29 362.651 357.505 361.325L359.771 347.117C360.259 345.682 359.552 344.008 357.581 342.53L210.381 232.13Z" fill="url(#paint3_linear_4030_2026)"/>
</g>
<g style="mix-blend-mode:plus-lighter" filter="url(#filter3_f_4030_2026)">
<path d="M210.381 232.13C206.847 229.479 200.583 228.462 196.392 229.86L21.8342 288.046C19.4982 288.824 18.2991 290.188 18.3067 291.702L15.9274 306.364C15.9345 307.566 16.7022 308.862 18.2658 310.035L165.466 420.435C169 423.086 175.264 424.102 179.455 422.705L354.013 364.519C356.109 363.821 357.29 362.651 357.505 361.325L359.771 347.117C360.259 345.682 359.552 344.008 357.581 342.53L210.381 232.13Z" fill="url(#paint4_linear_4030_2026)"/>
</g>
<g style="mix-blend-mode:plus-lighter" filter="url(#filter4_f_4030_2026)">
<path d="M210.381 232.13C206.847 229.479 200.583 228.462 196.392 229.86L21.8342 288.046C19.4982 288.824 18.2991 290.188 18.3067 291.702L15.9274 306.364C15.9345 307.566 16.7022 308.862 18.2658 310.035L165.466 420.435C169 423.086 175.264 424.102 179.455 422.705L354.013 364.519C356.109 363.821 357.29 362.651 357.505 361.325L359.771 347.117C360.259 345.682 359.552 344.008 357.581 342.53L210.381 232.13Z" fill="url(#paint5_linear_4030_2026)"/>
</g>
<g style="mix-blend-mode:plus-lighter" filter="url(#filter5_f_4030_2026)">
<path d="M210.381 232.13C206.847 229.479 200.583 228.462 196.392 229.86L21.8342 288.046C19.4982 288.824 18.2991 290.188 18.3067 291.702L15.9274 306.364C15.9345 307.566 16.7022 308.862 18.2658 310.035L165.466 420.435C169 423.086 175.264 424.102 179.455 422.705L354.013 364.519C356.109 363.821 357.29 362.651 357.505 361.325L359.771 347.117C360.259 345.682 359.552 344.008 357.581 342.53L210.381 232.13Z" fill="url(#paint6_linear_4030_2026)"/>
</g>
<g style="mix-blend-mode:plus-lighter" filter="url(#filter6_f_4030_2026)">
<path d="M210.381 232.13C206.847 229.479 200.583 228.462 196.392 229.86L21.8342 288.046C19.4982 288.824 18.2991 290.188 18.3067 291.702L15.9274 306.364C15.9345 307.566 16.7022 308.862 18.2658 310.035L165.466 420.435C169 423.086 175.264 424.102 179.455 422.705L354.013 364.519C356.109 363.821 357.29 362.651 357.505 361.325L359.771 347.117C360.259 345.682 359.552 344.008 357.581 342.53L210.381 232.13Z" fill="url(#paint7_linear_4030_2026)" fill-opacity="0.5"/>
</g>
<rect width="200" height="200" rx="8" transform="matrix(0.948683 -0.316228 0.8 0.6 14.2447 290.575)" fill="black"/>
<rect width="200" height="200" rx="8" transform="matrix(0.948683 -0.316228 0.8 0.6 14.2447 290.575)" fill="white" fill-opacity="0.01"/>
<rect width="200" height="200" rx="8" transform="matrix(0.948683 -0.316228 0.8 0.6 14.2447 290.575)" fill="black" fill-opacity="0.05"/>
<rect width="200" height="200" rx="8" transform="matrix(0.948683 -0.316228 0.8 0.6 14.2447 290.575)" fill="url(#paint8_radial_4030_2026)" fill-opacity="0.08"/>
<rect width="200" height="200" rx="8" transform="matrix(0.948683 -0.316228 0.8 0.6 14.2447 290.575)" fill="url(#paint9_linear_4030_2026)" fill-opacity="0.03"/>
<path opacity="0.12" d="M86.089 329.075C86.4638 328.95 87.023 329.04 87.3391 329.277L90.7422 331.83C91.0579 332.067 91.0104 332.36 90.6359 332.485L89.0925 332.999L101.977 342.662C103.085 343.493 104.67 344.117 106.382 344.395L113.773 345.594C115.814 345.925 117.703 346.668 119.023 347.658L137.967 361.866C139.287 362.856 139.931 364.013 139.758 365.083L139.129 368.955C138.984 369.852 139.525 370.824 140.633 371.655L174.356 396.947L175.899 396.432C176.274 396.307 176.833 396.398 177.149 396.635L178.452 397.612L214.398 385.631L213.853 385.222C213.537 384.985 213.584 384.692 213.959 384.567L216.196 383.821C216.571 383.696 217.132 383.787 217.448 384.024L219.334 385.439C219.651 385.676 219.603 385.97 219.228 386.095L216.991 386.841C216.616 386.965 216.056 386.874 215.74 386.637L215.198 386.231L179.252 398.212L180.552 399.187C180.868 399.424 180.821 399.717 180.446 399.842L176.411 401.187C176.037 401.312 175.477 401.222 175.16 400.985L171.757 398.432C171.442 398.195 171.49 397.902 171.865 397.777L173.407 397.263L139.684 371.971C138.364 370.981 137.72 369.824 137.893 368.754L138.521 364.882C138.667 363.985 138.126 363.013 137.018 362.182L118.075 347.974C116.967 347.143 115.381 346.52 113.668 346.242L106.277 345.043C104.237 344.711 102.348 343.969 101.028 342.979L88.1438 333.315L86.6012 333.83C86.2266 333.954 85.6664 333.864 85.3503 333.627L81.9471 331.075C81.6313 330.838 81.6796 330.544 82.0544 330.419L86.089 329.075ZM182.12 250.674C182.495 250.549 183.056 250.64 183.372 250.877L183.914 251.283L198.75 246.338L198.207 245.931C197.891 245.694 197.939 245.401 198.313 245.276L200.55 244.53C200.925 244.406 201.485 244.496 201.801 244.733L203.689 246.149C204.005 246.386 203.956 246.679 203.582 246.804L202.931 247.021L227.561 265.493C228.881 266.483 229.526 267.64 229.352 268.709L228.724 272.582C228.579 273.479 229.12 274.45 230.227 275.281L256.831 295.234C257.895 296.032 259.401 296.639 261.041 296.932L269.078 298.368C271.032 298.717 272.826 299.442 274.094 300.393L287.055 310.114C288.163 310.945 289.749 311.567 291.461 311.845L298.852 313.045C300.892 313.376 302.781 314.119 304.101 315.109L339.721 341.824L341.269 341.308C341.643 341.183 342.203 341.274 342.52 341.511L345.922 344.062C346.238 344.3 346.19 344.593 345.815 344.718L341.781 346.063C341.406 346.188 340.846 346.097 340.53 345.86L339.228 344.884L322.6 350.427L322.301 350.519C320.78 350.96 318.88 351.035 316.967 350.725L296.085 347.336C296.083 347.336 296.082 347.337 296.081 347.338L293.843 348.083C293.469 348.208 292.909 348.118 292.593 347.881L290.707 346.466C290.391 346.229 290.438 345.935 290.812 345.81L293.05 345.064C293.424 344.939 293.985 345.03 294.301 345.267L296.188 346.682C296.19 346.684 296.191 346.686 296.193 346.688L317.071 350.076C318.677 350.337 320.273 350.274 321.549 349.904L321.8 349.827L338.428 344.284L337.128 343.308C336.812 343.071 336.859 342.778 337.234 342.653L338.773 342.14L303.152 315.425C302.044 314.594 300.459 313.97 298.747 313.692L291.356 312.493C289.316 312.162 287.427 311.42 286.107 310.43L273.145 300.709C272.081 299.911 270.575 299.302 268.935 299.009L260.899 297.574C258.945 297.225 257.15 296.501 255.882 295.55L229.278 275.597C227.959 274.607 227.313 273.45 227.487 272.381L228.116 268.509C228.262 267.611 227.72 266.64 226.612 265.809L201.983 247.337L201.344 247.55C200.969 247.674 200.41 247.584 200.094 247.347L199.55 246.938L184.714 251.883L185.259 252.292C185.575 252.529 185.527 252.823 185.153 252.948L182.915 253.694C182.54 253.818 181.98 253.727 181.664 253.49L179.778 252.075C179.462 251.838 179.509 251.544 179.883 251.419L182.12 250.674ZM178.154 382.543C178.529 382.419 179.089 382.51 179.405 382.747L180.708 383.724L191.04 380.28C192.605 379.759 194.631 379.651 196.672 379.982L204.062 381.182C205.775 381.46 207.476 381.37 208.79 380.932L212.381 379.735C213.947 379.213 215.973 379.106 218.013 379.437L225.403 380.637C227.116 380.915 228.817 380.824 230.131 380.386L306.968 354.774L306.424 354.365C306.108 354.128 306.155 353.835 306.529 353.71L308.767 352.964C309.142 352.839 309.702 352.93 310.018 353.167L311.905 354.582C312.221 354.819 312.174 355.113 311.799 355.238L309.561 355.984C309.187 356.109 308.627 356.017 308.311 355.78L307.768 355.374L230.931 380.986C229.365 381.508 227.339 381.616 225.298 381.284L217.908 380.085C216.195 379.807 214.495 379.897 213.181 380.335L209.59 381.532C208.024 382.054 205.997 382.161 203.957 381.83L196.567 380.63C194.854 380.352 193.154 380.442 191.84 380.88L181.508 384.324L182.807 385.299C183.123 385.536 183.076 385.829 182.702 385.954L178.667 387.299C178.292 387.424 177.731 387.333 177.415 387.096L174.013 384.544C173.697 384.307 173.744 384.013 174.119 383.888L178.154 382.543ZM295.851 321.118C298.098 320.369 301.456 320.915 303.352 322.336L326.468 339.673L328.015 339.157C328.39 339.033 328.95 339.123 329.266 339.36L332.669 341.912C332.985 342.149 332.937 342.443 332.562 342.568L328.527 343.912C328.153 344.037 327.593 343.946 327.277 343.71L323.874 341.157C323.558 340.92 323.606 340.627 323.98 340.502L325.519 339.989L302.403 322.652C300.949 321.562 298.374 321.144 296.651 321.718C294.927 322.293 294.709 323.642 296.162 324.732L313.972 338.09L314.625 337.872C314.999 337.748 315.56 337.839 315.876 338.076L317.763 339.491C318.079 339.728 318.031 340.021 317.656 340.146L315.419 340.892C315.044 341.017 314.485 340.926 314.169 340.689L312.282 339.274C311.966 339.037 312.013 338.743 312.387 338.618L313.024 338.406L295.214 325.049C293.319 323.627 293.603 321.867 295.851 321.118ZM295.512 350.814C295.887 350.689 296.448 350.78 296.764 351.017L298.651 352.432C298.967 352.669 298.919 352.963 298.544 353.088L296.307 353.833C295.932 353.958 295.372 353.867 295.056 353.63L294.515 353.224L272.053 360.711L272.595 361.118C272.911 361.355 272.864 361.649 272.489 361.774L270.251 362.519C269.877 362.644 269.317 362.553 269.001 362.316L267.114 360.901C266.798 360.664 266.846 360.371 267.22 360.246L269.458 359.5C269.832 359.375 270.392 359.466 270.709 359.703L271.253 360.111L293.715 352.624L293.169 352.215C292.854 351.978 292.9 351.684 293.275 351.559L295.512 350.814ZM36.4476 291.843C36.8224 291.719 37.3824 291.81 37.6984 292.047L39.0008 293.024L55.625 287.482C57.1906 286.96 59.2167 286.853 61.2574 287.184L82.1382 290.573C82.1414 290.572 82.1443 290.57 82.1476 290.569L84.385 289.823C84.7597 289.699 85.319 289.789 85.635 290.026L87.5217 291.441C87.8377 291.678 87.7908 291.972 87.4162 292.097L85.1788 292.843C84.804 292.967 84.2432 292.876 83.9271 292.639L82.0365 291.221L61.153 287.833C59.4402 287.555 57.7391 287.644 56.425 288.082L39.8008 293.624L41.1008 294.599C41.4168 294.836 41.37 295.129 40.9953 295.254L39.4518 295.769L75.0721 322.484L75.2857 322.637C76.3791 323.391 77.8721 323.956 79.4776 324.216L86.8686 325.416C88.9089 325.747 90.7976 326.489 92.1178 327.479L105.079 337.2C106.144 337.998 107.65 338.607 109.29 338.899L117.326 340.335C119.28 340.684 121.074 341.408 122.342 342.359L148.946 362.312C150.266 363.302 150.911 364.459 150.738 365.528L150.108 369.4C149.963 370.297 150.504 371.269 151.612 372.1L176.241 390.571L176.884 390.357C177.259 390.232 177.818 390.323 178.134 390.56L178.68 390.969L193.515 386.024L192.969 385.614C192.653 385.377 192.701 385.084 193.076 384.959L195.313 384.213C195.688 384.088 196.247 384.179 196.563 384.416L198.451 385.832C198.766 386.069 198.719 386.362 198.344 386.487L196.107 387.232C195.732 387.357 195.172 387.267 194.856 387.03L194.315 386.624L179.48 391.569L180.022 391.976C180.337 392.213 180.29 392.506 179.915 392.631L177.678 393.376C177.303 393.501 176.743 393.411 176.427 393.174L174.54 391.758C174.224 391.521 174.272 391.228 174.647 391.103L175.293 390.888L150.664 372.416C149.343 371.426 148.699 370.269 148.872 369.199L149.5 365.327C149.646 364.43 149.105 363.459 147.997 362.628L121.393 342.675C120.329 341.877 118.823 341.27 117.183 340.977L109.146 339.541C107.193 339.192 105.399 338.467 104.131 337.516L91.1691 327.795C90.0611 326.964 88.4758 326.342 86.7634 326.064L79.3725 324.864C77.4596 324.554 75.6805 323.881 74.3777 322.983L74.1235 322.8L38.5031 296.085L36.9606 296.599C36.5858 296.724 36.0249 296.633 35.7089 296.396L32.3065 293.844C31.9905 293.607 32.0381 293.313 32.4129 293.188L36.4476 291.843ZM303.382 341.62C303.757 341.495 304.317 341.586 304.633 341.823L306.521 343.238C306.523 343.24 306.523 343.241 306.525 343.243L314.45 344.529C315.973 344.776 317.486 344.696 318.655 344.306L318.883 344.23L318.34 343.822C318.024 343.585 318.072 343.292 318.446 343.167L320.683 342.421C321.058 342.297 321.618 342.387 321.934 342.624L323.822 344.04C324.138 344.277 324.089 344.57 323.715 344.695L321.477 345.441C321.102 345.565 320.543 345.475 320.227 345.238L319.683 344.83L319.455 344.906C318.034 345.38 316.196 345.477 314.345 345.177L306.419 343.891C306.417 343.891 306.415 343.893 306.413 343.893L304.176 344.639C303.801 344.764 303.242 344.673 302.926 344.436L301.039 343.021C300.723 342.784 300.77 342.491 301.145 342.366L303.382 341.62ZM285.1 346.895C285.475 346.77 286.035 346.861 286.351 347.098L289.753 349.65C290.07 349.887 290.023 350.18 289.648 350.305L285.613 351.65C285.239 351.775 284.678 351.684 284.362 351.447L283.062 350.473L261.943 357.513C260.629 357.951 259.809 358.701 259.664 359.598L259.035 363.47C258.862 364.539 257.885 365.434 256.319 365.956L229.362 374.941C227.797 375.463 225.77 375.57 223.729 375.239L216.338 374.04C214.625 373.762 212.925 373.852 211.611 374.29L206.666 375.938L207.207 376.344C207.523 376.581 207.475 376.874 207.101 376.999L204.863 377.745C204.488 377.87 203.928 377.779 203.612 377.542L201.726 376.127C201.41 375.89 201.457 375.596 201.831 375.471L204.069 374.725C204.443 374.6 205.004 374.691 205.32 374.928L205.866 375.338L210.811 373.69C212.377 373.168 214.403 373.061 216.443 373.392L223.834 374.591C225.547 374.869 227.248 374.779 228.562 374.341L255.519 365.356C256.833 364.918 257.653 364.167 257.799 363.27L258.427 359.397C258.601 358.328 259.578 357.434 261.143 356.913L282.262 349.873L280.959 348.895C280.643 348.658 280.691 348.364 281.066 348.24L285.1 346.895ZM225.34 366.815C225.715 366.69 226.275 366.781 226.591 367.018L229.993 369.57C230.309 369.807 230.262 370.101 229.887 370.226L225.853 371.57C225.478 371.695 224.917 371.604 224.601 371.367L221.199 368.816C220.883 368.579 220.93 368.285 221.305 368.16L225.34 366.815ZM236.119 363.222C236.494 363.097 237.054 363.188 237.37 363.425L240.772 365.977C241.088 366.214 241.041 366.508 240.667 366.633L236.632 367.977C236.257 368.102 235.696 368.011 235.38 367.774L231.978 365.223C231.662 364.985 231.71 364.692 232.084 364.567L236.119 363.222ZM246.908 359.626C247.283 359.501 247.842 359.592 248.158 359.829L251.561 362.381C251.877 362.618 251.83 362.911 251.455 363.036L247.42 364.381C247.046 364.506 246.485 364.415 246.169 364.178L242.766 361.626C242.45 361.389 242.499 361.096 242.874 360.971L246.908 359.626ZM159.445 369.486C159.82 369.362 160.38 369.453 160.696 369.69L162.582 371.105C162.898 371.342 162.852 371.635 162.477 371.76L161.831 371.976L167.515 376.238L168.161 376.023C168.535 375.898 169.095 375.989 169.411 376.226L171.297 377.641C171.613 377.878 171.566 378.171 171.192 378.296L168.954 379.042C168.58 379.167 168.019 379.076 167.703 378.839L165.816 377.424C165.5 377.187 165.548 376.894 165.923 376.769L166.566 376.555L160.883 372.292L160.24 372.506C159.865 372.631 159.304 372.54 158.988 372.303L157.101 370.888C156.785 370.651 156.833 370.357 157.208 370.232L159.445 369.486ZM268.008 302.915C268.383 302.79 268.944 302.881 269.26 303.118L271.147 304.533C271.463 304.77 271.414 305.064 271.04 305.189L270.392 305.405L283.279 315.07L284.824 314.554C285.199 314.43 285.76 314.521 286.076 314.758L289.478 317.309C289.794 317.546 289.746 317.84 289.372 317.965L285.337 319.31C284.962 319.435 284.402 319.344 284.086 319.107L280.684 316.555C280.368 316.318 280.415 316.024 280.789 315.899L282.33 315.386L269.443 305.721L268.802 305.934C268.427 306.059 267.868 305.969 267.552 305.732L265.665 304.317C265.349 304.08 265.396 303.786 265.771 303.661L268.008 302.915ZM112.094 349.554C112.469 349.429 113.028 349.52 113.344 349.757L115.231 351.172C115.547 351.409 115.5 351.702 115.125 351.827L114.482 352.042L128.125 362.274L128.768 362.059C129.143 361.935 129.702 362.025 130.018 362.262L131.905 363.677C132.221 363.914 132.174 364.208 131.799 364.333L129.562 365.079C129.187 365.204 128.626 365.113 128.31 364.876L126.424 363.461C126.108 363.224 126.156 362.93 126.531 362.805L127.177 362.59L113.534 352.358L112.888 352.573C112.513 352.698 111.952 352.607 111.636 352.37L109.749 350.955C109.433 350.718 109.482 350.425 109.857 350.3L112.094 349.554ZM201.816 236.719C202.191 236.594 202.751 236.684 203.067 236.921L206.47 239.473C206.786 239.71 206.738 240.004 206.363 240.129L204.816 240.645L238.54 265.938C239.86 266.928 240.505 268.085 240.332 269.154L239.703 273.027C239.558 273.924 240.098 274.896 241.206 275.727L260.15 289.935C261.258 290.766 262.844 291.389 264.556 291.667L271.947 292.866C273.988 293.197 275.876 293.94 277.196 294.93L290.079 304.592L291.626 304.077C292.001 303.952 292.561 304.042 292.877 304.279L296.28 306.831C296.596 307.068 296.548 307.362 296.173 307.487L292.139 308.832C291.764 308.956 291.205 308.866 290.889 308.629L287.485 306.076C287.17 305.839 287.217 305.546 287.592 305.421L289.131 304.908L276.248 295.246C275.14 294.415 273.555 293.792 271.842 293.514L264.451 292.315C262.411 291.983 260.522 291.241 259.201 290.251L240.258 276.043C238.937 275.053 238.293 273.895 238.467 272.826L239.095 268.954C239.241 268.057 238.699 267.085 237.591 266.254L203.867 240.961L202.328 241.474C201.954 241.599 201.394 241.508 201.078 241.271L199.777 240.295L163.822 252.28L164.366 252.688C164.682 252.925 164.635 253.218 164.261 253.343L162.023 254.089C161.648 254.214 161.087 254.123 160.771 253.886L158.885 252.471C158.569 252.234 158.617 251.94 158.992 251.816L161.229 251.07C161.604 250.945 162.163 251.036 162.479 251.273L163.022 251.68L198.977 239.695L197.675 238.719C197.359 238.482 197.407 238.189 197.782 238.064L201.816 236.719ZM248.662 272.83C249.036 272.705 249.596 272.795 249.913 273.032L251.8 274.448C252.116 274.685 252.068 274.978 251.693 275.103L251.047 275.318L264.689 285.55L265.335 285.335C265.71 285.21 266.271 285.301 266.587 285.538L268.474 286.953C268.789 287.19 268.741 287.483 268.366 287.608L266.129 288.354C265.754 288.479 265.195 288.388 264.879 288.151L262.992 286.736C262.676 286.499 262.723 286.205 263.098 286.08L263.741 285.866L250.098 275.634L249.456 275.849C249.081 275.974 248.522 275.883 248.205 275.646L246.318 274.23C246.002 273.993 246.05 273.7 246.424 273.575L248.662 272.83ZM92.8922 318.597C93.267 318.472 93.8262 318.563 94.1422 318.8L97.5446 321.352C97.8606 321.589 97.8137 321.882 97.4391 322.007L95.8937 322.522L108.78 332.187L109.425 331.972C109.8 331.847 110.359 331.938 110.675 332.175L112.562 333.59C112.878 333.827 112.831 334.12 112.457 334.245L110.219 334.991C109.844 335.116 109.284 335.025 108.968 334.788L107.081 333.373C106.765 333.136 106.813 332.842 107.188 332.717L107.831 332.503L94.9451 322.839L93.4044 323.352C93.0296 323.477 92.4687 323.386 92.1526 323.149L88.7503 320.597C88.4343 320.36 88.4827 320.067 88.8575 319.942L92.8922 318.597ZM49.7011 293.994C50.0759 293.869 50.6359 293.961 50.9519 294.198L54.3542 296.749C54.6702 296.986 54.6226 297.279 54.248 297.404L52.7045 297.919L75.8217 315.257C77.2751 316.347 79.8507 316.765 81.574 316.191C83.2971 315.616 83.5151 314.266 82.0622 313.177L64.2513 299.818L63.6083 300.033C63.2335 300.158 62.6727 300.067 62.3566 299.83L60.4699 298.415C60.154 298.177 60.2024 297.884 60.5771 297.759L62.8145 297.013C63.1892 296.889 63.7485 296.979 64.0645 297.216L65.9512 298.631C66.2672 298.868 66.2203 299.162 65.8457 299.287L65.2 299.502L83.0109 312.86C84.9056 314.282 84.621 316.042 82.374 316.791C80.1268 317.54 76.7682 316.994 74.873 315.573L51.7558 298.235L50.2133 298.749C49.8385 298.874 49.2784 298.784 48.9623 298.547L45.56 295.995C45.2439 295.758 45.2916 295.464 45.6664 295.339L49.7011 293.994ZM209.273 258.864C209.648 258.739 210.209 258.83 210.525 259.067L212.412 260.482C212.727 260.719 212.679 261.012 212.304 261.137L211.657 261.353L217.341 265.616L217.993 265.399C218.368 265.274 218.929 265.365 219.245 265.602L221.132 267.017C221.448 267.254 221.4 267.548 221.025 267.673L218.788 268.419C218.413 268.544 217.853 268.452 217.537 268.215L215.651 266.8C215.335 266.563 215.381 266.27 215.756 266.145L216.393 265.933L210.708 261.669L210.067 261.883C209.692 262.008 209.133 261.917 208.817 261.68L206.93 260.265C206.614 260.028 206.661 259.735 207.036 259.61L209.273 258.864ZM148.862 262.968C150.428 262.446 152.455 262.339 154.495 262.67L161.886 263.869C163.599 264.147 165.3 264.057 166.614 263.619L171.553 261.972L171.01 261.565C170.694 261.328 170.742 261.034 171.117 260.909L173.354 260.163C173.729 260.039 174.289 260.13 174.605 260.367L176.492 261.782C176.808 262.019 176.76 262.312 176.386 262.437L174.148 263.183C173.773 263.308 173.213 263.217 172.897 262.98L172.353 262.572L167.414 264.219C165.848 264.741 163.822 264.848 161.781 264.517L154.39 263.318C152.678 263.04 150.976 263.13 149.662 263.568L122.705 272.553C121.391 272.991 120.571 273.742 120.426 274.639L119.797 278.512C119.624 279.581 118.647 280.474 117.082 280.996L95.9668 288.035L97.2692 289.011C97.5852 289.248 97.5375 289.542 97.1627 289.667L93.128 291.012C92.7532 291.137 92.1932 291.046 91.8772 290.809L88.4749 288.257C88.1589 288.02 88.2057 287.726 88.5804 287.601L92.6151 286.256C92.9899 286.131 93.5507 286.223 93.8668 286.46L95.1668 287.435L116.282 280.396C117.595 279.958 118.415 279.208 118.561 278.311L119.189 274.439C119.363 273.369 120.34 272.475 121.905 271.953L148.862 262.968ZM130.807 273.525C131.182 273.4 131.743 273.491 132.059 273.728L135.461 276.28C135.777 276.517 135.73 276.811 135.355 276.936L131.32 278.281C130.945 278.405 130.385 278.314 130.069 278.077L126.667 275.525C126.351 275.288 126.398 274.995 126.772 274.87L130.807 273.525ZM141.596 269.929C141.97 269.804 142.531 269.895 142.847 270.132L146.25 272.684C146.566 272.921 146.518 273.215 146.143 273.339L142.109 274.684C141.734 274.809 141.174 274.718 140.858 274.481L137.455 271.929C137.139 271.692 137.186 271.399 137.561 271.274L141.596 269.929ZM152.375 266.336C152.75 266.211 153.311 266.302 153.627 266.539L157.029 269.091C157.345 269.328 157.297 269.621 156.923 269.746L152.888 271.091C152.513 271.216 151.953 271.125 151.637 270.888L148.235 268.336C147.919 268.099 147.966 267.806 148.34 267.681L152.375 266.336ZM68.6686 281.924C69.0433 281.799 69.6026 281.89 69.9186 282.127L70.4608 282.534L147.294 256.923C148.86 256.401 150.886 256.293 152.926 256.624L160.316 257.824C162.029 258.102 163.729 258.012 165.044 257.574L168.635 256.377C170.2 255.855 172.227 255.748 174.268 256.079L181.658 257.279C183.37 257.557 185.071 257.466 186.385 257.029L196.721 253.583L195.421 252.607C195.105 252.37 195.151 252.077 195.526 251.952L199.561 250.607C199.936 250.482 200.496 250.573 200.812 250.81L204.215 253.362C204.531 253.599 204.483 253.893 204.108 254.018L200.074 255.363C199.699 255.488 199.139 255.396 198.823 255.159L197.521 254.183L187.185 257.629C185.619 258.15 183.593 258.258 181.553 257.927L174.163 256.727C172.45 256.449 170.749 256.539 169.435 256.977L165.844 258.174C164.278 258.696 162.252 258.803 160.211 258.472L152.821 257.272C151.109 256.994 149.408 257.085 148.094 257.523L71.2608 283.134L71.8061 283.543C72.1217 283.78 72.0742 284.073 71.6998 284.198L69.4624 284.943C69.0878 285.068 68.5276 284.978 68.2115 284.741L66.324 283.325C66.0082 283.088 66.0565 282.795 66.4312 282.67L68.6686 281.924ZM56.7504 292.465C57.1251 292.341 57.6844 292.431 58.0004 292.668L58.5458 293.077L58.77 293.003C60.1905 292.529 62.0285 292.432 63.8799 292.732L71.8027 294.018C71.8068 294.017 71.8107 294.015 71.8149 294.013L74.0523 293.268C74.4271 293.143 74.9871 293.234 75.3031 293.471L77.1898 294.886C77.5056 295.123 77.458 295.416 77.0835 295.541L74.8462 296.287C74.4714 296.412 73.9113 296.321 73.5952 296.084L71.7061 294.667L63.7748 293.38C62.2514 293.133 60.7388 293.213 59.57 293.603L59.3458 293.677L59.8872 294.083C60.2032 294.32 60.1562 294.614 59.7817 294.739L57.5443 295.485C57.1695 295.61 56.6086 295.519 56.2925 295.282L54.4058 293.866C54.09 293.629 54.1383 293.336 54.513 293.211L56.7504 292.465ZM81.916 284.074C82.2908 283.95 82.8508 284.041 83.1668 284.278L83.7097 284.685L106.176 277.196L105.633 276.789C105.317 276.552 105.365 276.258 105.74 276.133L107.977 275.387C108.352 275.263 108.912 275.354 109.228 275.591L111.114 277.006C111.43 277.243 111.383 277.536 111.008 277.661L108.771 278.407C108.396 278.532 107.836 278.441 107.52 278.204L106.976 277.796L84.5097 285.285L85.0535 285.693C85.3694 285.93 85.3218 286.223 84.9472 286.348L82.7098 287.094C82.3351 287.219 81.775 287.128 81.4589 286.891L79.5722 285.476C79.2561 285.239 79.3038 284.945 79.6786 284.82L81.916 284.074Z" fill="white"/>
<g filter="url(#filter7_ii_4030_2026)">
<path d="M32.0999 269.024C25.0307 263.722 26.0958 257.158 34.4789 254.364L193.858 201.238C202.241 198.443 214.767 200.476 221.837 205.778L356.237 306.578C363.306 311.88 362.241 318.443 353.858 321.238L194.479 374.364C186.096 377.158 173.569 375.126 166.5 369.824L32.0999 269.024Z" fill="url(#paint10_linear_4030_2026)"/>
<path d="M32.0999 269.024C25.0307 263.722 26.0958 257.158 34.4789 254.364L193.858 201.238C202.241 198.443 214.767 200.476 221.837 205.778L356.237 306.578C363.306 311.88 362.241 318.443 353.858 321.238L194.479 374.364C186.096 377.158 173.569 375.126 166.5 369.824L32.0999 269.024Z" fill="url(#paint11_radial_4030_2026)"/>
<path d="M32.0999 269.024C25.0307 263.722 26.0958 257.158 34.4789 254.364L193.858 201.238C202.241 198.443 214.767 200.476 221.837 205.778L356.237 306.578C363.306 311.88 362.241 318.443 353.858 321.238L194.479 374.364C186.096 377.158 173.569 375.126 166.5 369.824L32.0999 269.024Z" fill="url(#paint12_radial_4030_2026)" fill-opacity="0.75"/>
<path d="M32.0999 269.024C25.0307 263.722 26.0958 257.158 34.4789 254.364L193.858 201.238C202.241 198.443 214.767 200.476 221.837 205.778L356.237 306.578C363.306 311.88 362.241 318.443 353.858 321.238L194.479 374.364C186.096 377.158 173.569 375.126 166.5 369.824L32.0999 269.024Z" fill="url(#paint13_linear_4030_2026)" fill-opacity="0.12"/>
</g>
<path d="M34.8789 254.664L194.258 201.538C202.379 198.831 214.514 200.8 221.362 205.936L355.762 306.736C362.611 311.872 361.579 318.231 353.458 320.938L194.079 374.064C185.958 376.771 173.823 374.802 166.974 369.665L32.5743 268.865C25.7259 263.729 26.7577 257.371 34.8789 254.664Z" stroke="white" stroke-opacity="0.08"/>
<rect width="174" height="174" rx="8" transform="matrix(0.948683 -0.316228 0.8 0.6 42.0328 263.113)" stroke="white" stroke-opacity="0.12" stroke-width="1.5"/>
<g clip-path="url(#clip0_4030_2026)">
<path d="M166.212 271.12C164.064 271.835 163.778 273.507 165.574 274.853L171.829 279.544C173.623 280.89 176.82 281.402 178.967 280.686L186.691 278.112C188.838 277.396 189.125 275.722 187.331 274.377L181.076 269.686C179.281 268.339 176.083 267.829 173.935 268.545L166.212 271.12ZM195.092 272.215C193.479 272.753 193.283 274.023 194.652 275.05L199.425 278.63C200.795 279.657 203.215 280.055 204.829 279.517L210.631 277.583C212.245 277.045 212.44 275.776 211.07 274.748L206.297 271.168C204.928 270.142 202.509 269.743 200.895 270.281L195.092 272.215ZM159.047 284.23C157.434 284.768 157.238 286.038 158.607 287.065L163.38 290.645C164.75 291.672 167.17 292.07 168.783 291.532L174.585 289.598C176.198 289.061 176.395 287.791 175.025 286.763L170.252 283.183C168.883 282.157 166.462 281.759 164.849 282.296L159.047 284.23ZM181.584 282.649C179.437 283.365 179.15 285.035 180.946 286.383L187.201 291.074C188.996 292.42 192.193 292.932 194.34 292.216L202.063 289.641C204.211 288.925 204.498 287.252 202.704 285.906L196.449 281.215C194.653 279.868 191.455 279.359 189.308 280.075L181.584 282.649ZM218.427 273.545C217.227 273.945 217.08 274.889 218.1 275.654L221.651 278.317C222.669 279.08 224.468 279.376 225.668 278.976L229.985 277.537C231.184 277.137 231.331 276.193 230.313 275.43L226.762 272.766C225.742 272.001 223.942 271.706 222.743 272.106L218.427 273.545ZM154.204 294.952C153.004 295.352 152.857 296.296 153.877 297.061L157.428 299.725C158.446 300.488 160.246 300.783 161.445 300.384L165.761 298.945C166.962 298.545 167.108 297.601 166.09 296.837L162.539 294.174C161.519 293.409 159.72 293.114 158.519 293.514L154.204 294.952ZM207.237 281.323C205.624 281.861 205.426 283.13 206.795 284.157L211.57 287.738C212.939 288.765 215.358 289.162 216.972 288.624L222.774 286.69C224.388 286.152 224.584 284.883 223.215 283.856L218.44 280.275C217.071 279.249 214.653 278.851 213.04 279.389L207.237 281.323ZM171.191 293.339C169.579 293.876 169.381 295.145 170.75 296.172L175.524 299.753C176.893 300.78 179.313 301.177 180.926 300.64L186.728 298.705C188.341 298.168 188.539 296.898 187.17 295.871L182.395 292.29C181.026 291.264 178.606 290.867 176.994 291.404L171.191 293.339ZM228.179 280.859C226.979 281.259 226.832 282.202 227.851 282.966L231.402 285.63C232.42 286.393 234.219 286.689 235.419 286.289L239.736 284.85C240.935 284.45 241.081 283.506 240.063 282.742L236.512 280.079C235.493 279.315 233.694 279.02 232.495 279.42L228.179 280.859ZM163.956 302.267C162.757 302.666 162.608 303.61 163.627 304.374L167.178 307.037C168.196 307.801 169.997 308.096 171.196 307.697L175.512 306.258C176.713 305.858 176.858 304.914 175.84 304.15L172.289 301.487C171.27 300.723 169.472 300.428 168.271 300.828L163.956 302.267ZM196.823 294.078C194.675 294.794 194.39 296.466 196.186 297.812L202.441 302.503C204.236 303.85 207.431 304.36 209.578 303.644L217.301 301.07C219.449 300.354 219.738 298.682 217.943 297.336L211.688 292.645C209.893 291.298 206.694 290.788 204.546 291.504L196.823 294.078ZM246.162 280.527C245.27 280.824 245.162 281.525 245.918 282.092L248.554 284.069C249.311 284.636 250.645 284.855 251.537 284.558L254.741 283.49C255.631 283.193 255.739 282.493 254.983 281.926L252.347 279.949C251.591 279.382 250.256 279.162 249.367 279.459L246.162 280.527ZM157.539 310.068C156.648 310.365 156.54 311.066 157.297 311.633L159.932 313.61C160.689 314.177 162.023 314.396 162.914 314.099L166.117 313.031C167.008 312.734 167.117 312.034 166.361 311.467L163.725 309.49C162.969 308.923 161.633 308.703 160.742 309L157.539 310.068ZM219.384 290.433C217.77 290.971 217.572 292.24 218.941 293.267L223.715 296.847C225.085 297.875 227.504 298.272 229.118 297.734L234.92 295.8C236.534 295.262 236.73 293.993 235.36 292.965L230.586 289.385C229.217 288.358 226.8 287.961 225.186 288.499L219.384 290.433ZM183.338 302.449C181.725 302.986 181.527 304.255 182.896 305.282L187.67 308.862C189.04 309.89 191.459 310.287 193.072 309.749L198.874 307.815C200.487 307.277 200.685 306.008 199.315 304.98L194.541 301.4C193.172 300.373 190.753 299.977 189.14 300.514L183.338 302.449ZM238.004 288.228C236.804 288.628 236.659 289.573 237.679 290.337L241.229 293C242.249 293.765 244.046 294.059 245.246 293.659L249.562 292.22C250.761 291.821 250.91 290.878 249.89 290.113L246.34 287.45C245.32 286.685 243.519 286.389 242.32 286.789L238.004 288.228ZM173.781 309.635C172.581 310.035 172.435 310.98 173.455 311.745L177.005 314.408C178.025 315.173 179.823 315.467 181.023 315.067L185.338 313.628C186.539 313.228 186.687 312.285 185.667 311.52L182.117 308.858C181.098 308.093 179.297 307.796 178.096 308.197L173.781 309.635ZM254.19 286.548C253.298 286.845 253.19 287.546 253.946 288.113L256.582 290.09C257.337 290.656 258.674 290.877 259.566 290.579L262.77 289.511C263.66 289.215 263.765 288.513 263.011 287.947L260.375 285.97C259.619 285.403 258.284 285.183 257.395 285.48L254.19 286.548ZM165.567 316.089C164.676 316.386 164.568 317.086 165.324 317.653L167.96 319.63C168.715 320.196 170.052 320.417 170.943 320.12L174.145 319.053C175.037 318.756 175.143 318.054 174.388 317.487L171.752 315.511C170.996 314.943 169.661 314.724 168.77 315.021L165.567 316.089ZM267.402 284.997C266.73 285.221 266.646 285.75 267.217 286.178L269.205 287.67C269.774 288.097 270.784 288.262 271.457 288.038L273.873 287.232C274.543 287.009 274.626 286.479 274.057 286.053L272.068 284.561C271.497 284.133 270.489 283.968 269.819 284.191L267.402 284.997ZM158.411 321.328C157.738 321.552 157.655 322.08 158.226 322.509L160.215 324C160.784 324.427 161.793 324.593 162.465 324.368L164.88 323.563C165.553 323.339 165.633 322.81 165.064 322.383L163.076 320.892C162.505 320.464 161.498 320.298 160.826 320.523L158.411 321.328Z" fill="#737373"/>
</g>
<path d="M209.595 480.258L215.995 485.058M216.591 481.384L209.002 483.914" stroke="white" stroke-opacity="0.25"/>
<path d="M111.664 464.369L118.064 469.169M118.66 465.495L111.071 468.025" stroke="white" stroke-opacity="0.25"/>
<path d="M155.675 193.165L162.075 197.965M162.671 194.291L155.081 196.821" stroke="white" stroke-opacity="0.1"/>
<path d="M253.601 209.057L260.001 213.857M260.597 210.183L253.008 212.712" stroke="white" stroke-opacity="0.1"/>
<defs>
<filter id="filter0_f_4030_2026" x="-184.073" y="29.2327" width="743.993" height="594.099" filterUnits="userSpaceOnUse" color-interpolation-filters="sRGB">
<feFlood flood-opacity="0" result="BackgroundImageFix"/>
<feBlend mode="normal" in="SourceGraphic" in2="BackgroundImageFix" result="shape"/>
<feGaussianBlur stdDeviation="100" result="effect1_foregroundBlur_4030_2026"/>
</filter>
<filter id="filter1_f_4030_2026" x="13.9274" y="227.233" width="347.993" height="198.099" filterUnits="userSpaceOnUse" color-interpolation-filters="sRGB">
<feFlood flood-opacity="0" result="BackgroundImageFix"/>
<feBlend mode="normal" in="SourceGraphic" in2="BackgroundImageFix" result="shape"/>
<feGaussianBlur stdDeviation="1" result="effect1_foregroundBlur_4030_2026"/>
</filter>
<filter id="filter2_f_4030_2026" x="7.92737" y="221.233" width="359.993" height="210.099" filterUnits="userSpaceOnUse" color-interpolation-filters="sRGB">
<feFlood flood-opacity="0" result="BackgroundImageFix"/>
<feBlend mode="normal" in="SourceGraphic" in2="BackgroundImageFix" result="shape"/>
<feGaussianBlur stdDeviation="4" result="effect1_foregroundBlur_4030_2026"/>
</filter>
<filter id="filter3_f_4030_2026" x="11.9274" y="225.233" width="351.993" height="202.099" filterUnits="userSpaceOnUse" color-interpolation-filters="sRGB">
<feFlood flood-opacity="0" result="BackgroundImageFix"/>
<feBlend mode="normal" in="SourceGraphic" in2="BackgroundImageFix" result="shape"/>
<feGaussianBlur stdDeviation="2" result="effect1_foregroundBlur_4030_2026"/>
</filter>
<filter id="filter4_f_4030_2026" x="-8.07263" y="205.233" width="391.993" height="242.099" filterUnits="userSpaceOnUse" color-interpolation-filters="sRGB">
<feFlood flood-opacity="0" result="BackgroundImageFix"/>
<feBlend mode="normal" in="SourceGraphic" in2="BackgroundImageFix" result="shape"/>
<feGaussianBlur stdDeviation="12" result="effect1_foregroundBlur_4030_2026"/>
</filter>
<filter id="filter5_f_4030_2026" x="7.92737" y="221.233" width="359.993" height="210.099" filterUnits="userSpaceOnUse" color-interpolation-filters="sRGB">
<feFlood flood-opacity="0" result="BackgroundImageFix"/>
<feBlend mode="normal" in="SourceGraphic" in2="BackgroundImageFix" result="shape"/>
<feGaussianBlur stdDeviation="4" result="effect1_foregroundBlur_4030_2026"/>
</filter>
<filter id="filter6_f_4030_2026" x="-32.0726" y="181.233" width="439.993" height="290.099" filterUnits="userSpaceOnUse" color-interpolation-filters="sRGB">
<feFlood flood-opacity="0" result="BackgroundImageFix"/>
<feBlend mode="normal" in="SourceGraphic" in2="BackgroundImageFix" result="shape"/>
<feGaussianBlur stdDeviation="24" result="effect1_foregroundBlur_4030_2026"/>
</filter>
<filter id="filter7_ii_4030_2026" x="27.4229" y="199.984" width="333.491" height="199.634" filterUnits="userSpaceOnUse" color-interpolation-filters="sRGB">
<feFlood flood-opacity="0" result="BackgroundImageFix"/>
<feBlend mode="normal" in="SourceGraphic" in2="BackgroundImageFix" result="shape"/>
<feColorMatrix in="SourceAlpha" type="matrix" values="0 0 0 0 0 0 0 0 0 0 0 0 0 0 0 0 0 0 127 0" result="hardAlpha"/>
<feMorphology radius="1" operator="erode" in="SourceAlpha" result="effect1_innerShadow_4030_2026"/>
<feOffset/>
<feComposite in2="hardAlpha" operator="arithmetic" k2="-1" k3="1"/>
<feColorMatrix type="matrix" values="0 0 0 0 1 0 0 0 0 1 0 0 0 0 1 0 0 0 0.12 0"/>
<feBlend mode="normal" in2="shape" result="effect1_innerShadow_4030_2026"/>
<feColorMatrix in="SourceAlpha" type="matrix" values="0 0 0 0 0 0 0 0 0 0 0 0 0 0 0 0 0 0 127 0" result="hardAlpha"/>
<feOffset dy="24"/>
<feGaussianBlur stdDeviation="24"/>
<feComposite in2="hardAlpha" operator="arithmetic" k2="-1" k3="1"/>
<feColorMatrix type="matrix" values="0 0 0 0 1 0 0 0 0 1 0 0 0 0 1 0 0 0 0.06 0"/>
<feBlend mode="normal" in2="effect1_innerShadow_4030_2026" result="effect2_innerShadow_4030_2026"/>
</filter>
<radialGradient id="paint0_radial_4030_2026" cx="0" cy="0" r="1" gradientUnits="userSpaceOnUse" gradientTransform="translate(168 449.057) rotate(36.8699) scale(386.5 317.777)">
<stop stop-color="white"/>
<stop offset="1" stop-color="white" stop-opacity="0"/>
</radialGradient>
<linearGradient id="paint1_linear_4030_2026" x1="274.324" y1="391.082" x2="218.164" y2="222.602" gradientUnits="userSpaceOnUse">
<stop stop-color="white"/>
<stop offset="1" stop-color="white" stop-opacity="0"/>
</linearGradient>
<linearGradient id="paint2_linear_4030_2026" x1="101.524" y1="261.482" x2="157.684" y2="429.962" gradientUnits="userSpaceOnUse">
<stop stop-color="white" stop-opacity="0"/>
<stop offset="1" stop-color="white"/>
</linearGradient>
<linearGradient id="paint3_linear_4030_2026" x1="101.524" y1="261.482" x2="157.684" y2="429.962" gradientUnits="userSpaceOnUse">
<stop stop-color="white" stop-opacity="0"/>
<stop offset="1" stop-color="white"/>
</linearGradient>
<linearGradient id="paint4_linear_4030_2026" x1="101.524" y1="261.482" x2="157.684" y2="429.962" gradientUnits="userSpaceOnUse">
<stop stop-color="white" stop-opacity="0"/>
<stop offset="1" stop-color="white"/>
</linearGradient>
<linearGradient id="paint5_linear_4030_2026" x1="101.524" y1="261.482" x2="157.684" y2="429.962" gradientUnits="userSpaceOnUse">
<stop stop-color="white" stop-opacity="0"/>
<stop offset="1" stop-color="white"/>
</linearGradient>
<linearGradient id="paint6_linear_4030_2026" x1="101.524" y1="261.482" x2="157.684" y2="429.962" gradientUnits="userSpaceOnUse">
<stop stop-color="white" stop-opacity="0"/>
<stop offset="1" stop-color="white"/>
</linearGradient>
<linearGradient id="paint7_linear_4030_2026" x1="101.524" y1="261.482" x2="157.684" y2="429.962" gradientUnits="userSpaceOnUse">
<stop stop-color="white"/>
<stop offset="1" stop-color="white" stop-opacity="0"/>
</linearGradient>
<radialGradient id="paint8_radial_4030_2026" cx="0" cy="0" r="1" gradientUnits="userSpaceOnUse" gradientTransform="translate(100 100) rotate(90) scale(100)">
<stop stop-color="white"/>
<stop offset="1"/>
</radialGradient>
<linearGradient id="paint9_linear_4030_2026" x1="100" y1="0" x2="100" y2="200" gradientUnits="userSpaceOnUse">
<stop stop-color="white" stop-opacity="0.25"/>
<stop offset="0.502476" stop-color="white" stop-opacity="0"/>
<stop offset="1" stop-color="white"/>
</linearGradient>
<linearGradient id="paint10_linear_4030_2026" x1="84.7137" y1="205.71" x2="146.286" y2="390.428" gradientUnits="userSpaceOnUse">
<stop/>
<stop offset="1"/>
</linearGradient>
<radialGradient id="paint11_radial_4030_2026" cx="0" cy="0" r="1" gradientUnits="userSpaceOnUse" gradientTransform="translate(200.5 281.5) rotate(-76.6307) scale(229.212)">
<stop/>
<stop offset="1" stop-color="white" stop-opacity="0"/>
</radialGradient>
<radialGradient id="paint12_radial_4030_2026" cx="0" cy="0" r="1" gradientUnits="userSpaceOnUse" gradientTransform="translate(194 356) rotate(-85.1526) scale(710.04 849.599)">
<stop offset="0.1"/>
<stop offset="1" stop-color="white" stop-opacity="0"/>
</radialGradient>
<linearGradient id="paint13_linear_4030_2026" x1="114.168" y1="227.801" x2="166.168" y2="383.801" gradientUnits="userSpaceOnUse">
<stop stop-color="white" stop-opacity="0"/>
<stop offset="0.4"/>
</linearGradient>
<clipPath id="clip0_4030_2026">
<rect width="120" height="120" fill="white" transform="matrix(0.948683 -0.316228 0.8 0.6 89.2473 270.774)"/>
</clipPath>
</defs>
</svg>
