<svg width="384" height="534" viewBox="0 0 384 534" fill="none" xmlns="http://www.w3.org/2000/svg">
<path d="M-68.6885 270.713L157.572 195.292L-101.028 1.34244L-99.6045 0.868101L158.996 194.818L212.122 177.109L256.922 210.709L563.584 108.489L564.784 109.389L258.122 211.609L448.922 354.709L755.584 252.489L756.784 253.389L450.122 355.609L494.922 389.209L441.796 406.918L700.396 600.868L698.972 601.342L440.372 407.392L214.112 482.813L472.712 676.763L471.288 677.237L212.688 483.287L159.562 500.996L114.762 467.396L-191.9 569.616L-193.1 568.716L113.562 466.496L-77.2378 323.396L-383.9 425.616L-385.1 424.716L-78.4378 322.496L-123.238 288.896L-70.1115 271.187L-328.712 77.2371L-327.288 76.7628L-68.6885 270.713ZM396.996 373.318L440.596 406.018L492.299 388.784L448.699 356.084L396.996 373.318ZM212.912 481.913L439.172 406.492L395.572 373.792L169.312 449.213L212.912 481.913ZM159.785 499.622L211.488 482.387L167.888 449.687L116.185 466.922L159.785 499.622ZM204.996 229.318L395.796 372.418L447.499 355.184L256.699 212.084L204.996 229.318ZM114.985 466.022L166.688 448.787L-24.1115 305.687L-75.8148 322.922L114.985 466.022ZM168.112 448.313L394.372 372.892L203.572 229.792L-22.6885 305.213L168.112 448.313ZM203.796 228.418L255.499 211.184L211.899 178.484L160.196 195.718L203.796 228.418ZM-77.0148 322.022L-25.3115 304.787L-68.9115 272.087L-120.615 289.322L-77.0148 322.022ZM-23.8885 304.313L202.372 228.892L158.772 196.192L-67.4885 271.613L-23.8885 304.313Z" fill="url(#paint0_radial_4030_1799)" fill-opacity="0.12"/>
<path opacity="0.08" d="M-221.747 41.5825L578.253 641.582" stroke="white"/>
<path opacity="0.08" d="M-236.926 46.6421L563.074 646.642" stroke="white"/>
<path opacity="0.08" d="M-191.39 31.4633L608.61 631.463" stroke="white"/>
<path opacity="0.08" d="M-206.569 36.5228L593.431 636.523" stroke="white"/>
<path opacity="0.08" d="M-161.032 21.3439L638.968 621.344" stroke="white"/>
<path opacity="0.08" d="M-176.211 26.4036L623.789 626.404" stroke="white"/>
<path opacity="0.08" d="M-252.105 51.7019L547.895 651.702" stroke="white"/>
<path opacity="0.08" d="M-267.284 56.7615L532.716 656.761" stroke="white"/>
<path opacity="0.08" d="M653.784 176.139L-294.9 492.366" stroke="white"/>
<path opacity="0.08" d="M640.984 166.539L-307.7 482.767" stroke="white"/>
<path opacity="0.08" d="M679.384 195.339L-269.3 511.567" stroke="white"/>
<path opacity="0.08" d="M666.584 185.739L-282.1 501.967" stroke="white"/>
<path opacity="0.08" d="M704.984 214.539L-243.7 530.767" stroke="white"/>
<path opacity="0.08" d="M692.184 204.939L-256.5 521.166" stroke="white"/>
<path opacity="0.08" d="M628.184 156.939L-320.5 473.166" stroke="white"/>
<path opacity="0.08" d="M615.384 147.339L-333.3 463.567" stroke="white"/>
<g style="mix-blend-mode:plus-lighter" filter="url(#filter0_f_4030_1799)">
<path d="M210.381 232.073C206.847 229.422 200.583 228.406 196.392 229.803L21.8342 287.989C19.4982 288.767 18.2991 290.131 18.3067 291.645L15.9274 306.307C15.9345 307.509 16.7022 308.805 18.2658 309.978L165.466 420.378C169 423.029 175.264 424.045 179.455 422.648L354.013 364.462C356.109 363.764 357.29 362.594 357.505 361.268L359.771 347.06C360.259 345.626 359.552 343.951 357.581 342.473L210.381 232.073Z" fill="url(#paint1_linear_4030_1799)" fill-opacity="0.4"/>
</g>
<rect width="240" height="240" rx="8" transform="matrix(0.948683 -0.316228 0.8 0.6 -24 305)" fill="black" fill-opacity="0.75" stroke="#323232" stroke-width="1.5"/>
<g style="mix-blend-mode:plus-lighter" filter="url(#filter1_f_4030_1799)">
<path d="M210.381 232.073C206.847 229.422 200.583 228.406 196.392 229.803L21.8342 287.989C19.4982 288.767 18.2991 290.131 18.3067 291.645L15.9274 306.307C15.9345 307.509 16.7022 308.805 18.2658 309.978L165.466 420.378C169 423.029 175.264 424.045 179.455 422.648L354.013 364.462C356.109 363.764 357.29 362.594 357.505 361.268L359.771 347.06C360.259 345.626 359.552 343.951 357.581 342.473L210.381 232.073Z" fill="url(#paint2_linear_4030_1799)"/>
</g>
<g style="mix-blend-mode:plus-lighter" filter="url(#filter2_f_4030_1799)">
<path d="M210.381 232.073C206.847 229.422 200.583 228.406 196.392 229.803L21.8342 287.989C19.4982 288.767 18.2991 290.131 18.3067 291.645L15.9274 306.307C15.9345 307.509 16.7022 308.805 18.2658 309.978L165.466 420.378C169 423.029 175.264 424.045 179.455 422.648L354.013 364.462C356.109 363.764 357.29 362.594 357.505 361.268L359.771 347.06C360.259 345.626 359.552 343.951 357.581 342.473L210.381 232.073Z" fill="url(#paint3_linear_4030_1799)"/>
</g>
<g style="mix-blend-mode:plus-lighter" filter="url(#filter3_f_4030_1799)">
<path d="M210.381 232.073C206.847 229.422 200.583 228.406 196.392 229.803L21.8342 287.989C19.4982 288.767 18.2991 290.131 18.3067 291.645L15.9274 306.307C15.9345 307.509 16.7022 308.805 18.2658 309.978L165.466 420.378C169 423.029 175.264 424.045 179.455 422.648L354.013 364.462C356.109 363.764 357.29 362.594 357.505 361.268L359.771 347.06C360.259 345.626 359.552 343.951 357.581 342.473L210.381 232.073Z" fill="url(#paint4_linear_4030_1799)"/>
</g>
<g style="mix-blend-mode:plus-lighter" filter="url(#filter4_f_4030_1799)">
<path d="M210.381 232.073C206.847 229.422 200.583 228.406 196.392 229.803L21.8342 287.989C19.4982 288.767 18.2991 290.131 18.3067 291.645L15.9274 306.307C15.9345 307.509 16.7022 308.805 18.2658 309.978L165.466 420.378C169 423.029 175.264 424.045 179.455 422.648L354.013 364.462C356.109 363.764 357.29 362.594 357.505 361.268L359.771 347.06C360.259 345.626 359.552 343.951 357.581 342.473L210.381 232.073Z" fill="url(#paint5_linear_4030_1799)"/>
</g>
<g style="mix-blend-mode:plus-lighter" filter="url(#filter5_f_4030_1799)">
<path d="M210.381 232.073C206.847 229.422 200.583 228.406 196.392 229.803L21.8342 287.989C19.4982 288.767 18.2991 290.131 18.3067 291.645L15.9274 306.307C15.9345 307.509 16.7022 308.805 18.2658 309.978L165.466 420.378C169 423.029 175.264 424.045 179.455 422.648L354.013 364.462C356.109 363.764 357.29 362.594 357.505 361.268L359.771 347.06C360.259 345.626 359.552 343.951 357.581 342.473L210.381 232.073Z" fill="url(#paint6_linear_4030_1799)"/>
</g>
<g style="mix-blend-mode:plus-lighter" filter="url(#filter6_f_4030_1799)">
<path d="M210.381 232.073C206.847 229.422 200.583 228.406 196.392 229.803L21.8342 287.989C19.4982 288.767 18.2991 290.131 18.3067 291.645L15.9274 306.307C15.9345 307.509 16.7022 308.805 18.2658 309.978L165.466 420.378C169 423.029 175.264 424.045 179.455 422.648L354.013 364.462C356.109 363.764 357.29 362.594 357.505 361.268L359.771 347.06C360.259 345.626 359.552 343.951 357.581 342.473L210.381 232.073Z" fill="url(#paint7_linear_4030_1799)" fill-opacity="0.5"/>
</g>
<rect width="200" height="200" rx="8" transform="matrix(0.948683 -0.316228 0.8 0.6 14.2447 290.518)" fill="black"/>
<rect width="200" height="200" rx="8" transform="matrix(0.948683 -0.316228 0.8 0.6 14.2447 290.518)" fill="white" fill-opacity="0.01"/>
<rect width="200" height="200" rx="8" transform="matrix(0.948683 -0.316228 0.8 0.6 14.2447 290.518)" fill="black" fill-opacity="0.05"/>
<rect width="200" height="200" rx="8" transform="matrix(0.948683 -0.316228 0.8 0.6 14.2447 290.518)" fill="url(#paint8_radial_4030_1799)" fill-opacity="0.08"/>
<rect width="200" height="200" rx="8" transform="matrix(0.948683 -0.316228 0.8 0.6 14.2447 290.518)" fill="url(#paint9_linear_4030_1799)" fill-opacity="0.03"/>
<path opacity="0.12" d="M86.089 329.018C86.4638 328.893 87.023 328.984 87.3391 329.221L90.7422 331.773C91.0579 332.01 91.0104 332.303 90.6359 332.428L89.0925 332.942L101.977 342.606C103.085 343.436 104.67 344.06 106.382 344.338L113.773 345.537C115.814 345.869 117.703 346.611 119.023 347.601L137.967 361.809C139.287 362.799 139.931 363.957 139.758 365.026L139.129 368.898C138.984 369.795 139.525 370.767 140.633 371.598L174.356 396.89L175.899 396.375C176.274 396.25 176.833 396.341 177.149 396.578L178.452 397.555L214.398 385.574L213.853 385.165C213.537 384.928 213.584 384.635 213.959 384.51L216.196 383.764C216.571 383.639 217.132 383.73 217.448 383.967L219.334 385.382C219.651 385.619 219.603 385.913 219.228 386.038L216.991 386.784C216.616 386.909 216.056 386.817 215.74 386.58L215.198 386.174L179.252 398.155L180.552 399.13C180.868 399.367 180.821 399.66 180.446 399.785L176.411 401.13C176.037 401.255 175.477 401.165 175.16 400.928L171.757 398.375C171.442 398.138 171.49 397.845 171.865 397.72L173.407 397.206L139.684 371.914C138.364 370.924 137.72 369.767 137.893 368.698L138.521 364.825C138.667 363.928 138.126 362.956 137.018 362.125L118.075 347.917C116.967 347.086 115.381 346.463 113.668 346.185L106.277 344.986C104.237 344.655 102.348 343.912 101.028 342.922L88.1438 333.259L86.6012 333.773C86.2266 333.898 85.6664 333.807 85.3503 333.57L81.9471 331.018C81.6313 330.781 81.6796 330.487 82.0544 330.363L86.089 329.018ZM182.12 250.617C182.495 250.492 183.056 250.583 183.372 250.82L183.914 251.227L198.75 246.282L198.207 245.874C197.891 245.637 197.939 245.344 198.313 245.219L200.55 244.474C200.925 244.349 201.485 244.439 201.801 244.676L203.689 246.092C204.005 246.329 203.956 246.622 203.582 246.747L202.931 246.964L227.561 265.436C228.881 266.426 229.526 267.583 229.352 268.653L228.724 272.525C228.579 273.422 229.12 274.393 230.227 275.224L256.831 295.177C257.895 295.975 259.401 296.582 261.041 296.875L269.078 298.311C271.032 298.66 272.826 299.385 274.094 300.336L287.055 310.057C288.163 310.888 289.749 311.51 291.461 311.788L298.852 312.988C300.892 313.319 302.781 314.062 304.101 315.052L339.721 341.767L341.269 341.251C341.643 341.126 342.203 341.217 342.52 341.454L345.922 344.006C346.238 344.243 346.19 344.537 345.815 344.661L341.781 346.006C341.406 346.131 340.846 346.04 340.53 345.803L339.228 344.827L322.6 350.37L322.301 350.463C320.78 350.903 318.88 350.978 316.967 350.668L296.085 347.279C296.083 347.279 296.082 347.28 296.081 347.281L293.843 348.027C293.469 348.151 292.909 348.061 292.593 347.824L290.707 346.409C290.391 346.172 290.438 345.878 290.812 345.753L293.05 345.007C293.424 344.882 293.985 344.973 294.301 345.21L296.188 346.625C296.19 346.627 296.191 346.63 296.193 346.631L317.071 350.019C318.677 350.28 320.273 350.217 321.549 349.847L321.8 349.77L338.428 344.227L337.128 343.251C336.812 343.014 336.859 342.721 337.234 342.596L338.773 342.083L303.152 315.368C302.044 314.537 300.459 313.914 298.747 313.636L291.356 312.436C289.316 312.105 287.427 311.363 286.107 310.373L273.145 300.652C272.081 299.854 270.575 299.245 268.935 298.953L260.899 297.517C258.945 297.168 257.15 296.444 255.882 295.493L229.278 275.54C227.959 274.55 227.313 273.393 227.487 272.324L228.116 268.452C228.262 267.555 227.72 266.583 226.612 265.752L201.983 247.28L201.344 247.493C200.969 247.618 200.41 247.527 200.094 247.29L199.55 246.882L184.714 251.827L185.259 252.235C185.575 252.472 185.527 252.766 185.153 252.891L182.915 253.637C182.54 253.761 181.98 253.67 181.664 253.433L179.778 252.018C179.462 251.781 179.509 251.488 179.883 251.363L182.12 250.617ZM178.154 382.487C178.529 382.362 179.089 382.453 179.405 382.69L180.708 383.667L191.04 380.223C192.605 379.702 194.631 379.594 196.672 379.925L204.062 381.125C205.775 381.403 207.476 381.313 208.79 380.875L212.381 379.678C213.947 379.156 215.973 379.049 218.013 379.38L225.403 380.58C227.116 380.858 228.817 380.767 230.131 380.329L306.968 354.717L306.424 354.308C306.108 354.071 306.155 353.778 306.529 353.653L308.767 352.907C309.142 352.782 309.702 352.873 310.018 353.11L311.905 354.525C312.221 354.762 312.174 355.056 311.799 355.181L309.561 355.927C309.187 356.052 308.627 355.96 308.311 355.723L307.768 355.317L230.931 380.929C229.365 381.451 227.339 381.559 225.298 381.228L217.908 380.028C216.195 379.75 214.495 379.84 213.181 380.278L209.59 381.475C208.024 381.997 205.997 382.104 203.957 381.773L196.567 380.573C194.854 380.295 193.154 380.385 191.84 380.823L181.508 384.267L182.807 385.242C183.123 385.479 183.076 385.772 182.702 385.897L178.667 387.242C178.292 387.367 177.731 387.276 177.415 387.039L174.013 384.487C173.697 384.25 173.744 383.956 174.119 383.831L178.154 382.487ZM295.851 321.061C298.098 320.312 301.456 320.858 303.352 322.279L326.468 339.616L328.015 339.101C328.39 338.976 328.95 339.066 329.266 339.303L332.669 341.855C332.985 342.092 332.937 342.386 332.562 342.511L328.527 343.856C328.153 343.98 327.593 343.89 327.277 343.653L323.874 341.1C323.558 340.863 323.606 340.57 323.98 340.445L325.519 339.933L302.403 322.595C300.949 321.505 298.374 321.087 296.651 321.661C294.927 322.236 294.709 323.585 296.162 324.675L313.972 338.033L314.625 337.816C314.999 337.691 315.56 337.782 315.876 338.019L317.763 339.434C318.079 339.671 318.031 339.964 317.656 340.089L315.419 340.835C315.044 340.96 314.485 340.869 314.169 340.632L312.282 339.217C311.966 338.98 312.013 338.686 312.387 338.561L313.024 338.349L295.214 324.992C293.319 323.57 293.603 321.81 295.851 321.061ZM295.512 350.757C295.887 350.632 296.448 350.723 296.764 350.96L298.651 352.375C298.967 352.612 298.919 352.906 298.544 353.031L296.307 353.776C295.932 353.901 295.372 353.81 295.056 353.573L294.515 353.167L272.053 360.654L272.595 361.061C272.911 361.298 272.864 361.592 272.489 361.717L270.251 362.462C269.877 362.587 269.317 362.496 269.001 362.259L267.114 360.844C266.798 360.607 266.846 360.314 267.22 360.189L269.458 359.443C269.832 359.318 270.392 359.409 270.709 359.646L271.253 360.054L293.715 352.567L293.169 352.158C292.854 351.921 292.9 351.627 293.275 351.502L295.512 350.757ZM36.4476 291.787C36.8224 291.662 37.3824 291.753 37.6984 291.99L39.0008 292.967L55.625 287.425C57.1906 286.904 59.2167 286.796 61.2574 287.127L82.1382 290.516C82.1414 290.515 82.1443 290.513 82.1476 290.512L84.385 289.766C84.7597 289.642 85.319 289.732 85.635 289.969L87.5217 291.384C87.8377 291.621 87.7908 291.915 87.4162 292.04L85.1788 292.786C84.804 292.911 84.2432 292.82 83.9271 292.583L82.0365 291.165L61.153 287.776C59.4402 287.498 57.7391 287.587 56.425 288.025L39.8008 293.567L41.1008 294.542C41.4168 294.779 41.37 295.072 40.9953 295.197L39.4518 295.712L75.0721 322.427L75.2857 322.58C76.3791 323.334 77.8721 323.899 79.4776 324.159L86.8686 325.359C88.9089 325.69 90.7976 326.432 92.1178 327.422L105.079 337.143C106.144 337.941 107.65 338.55 109.29 338.843L117.326 340.278C119.28 340.627 121.074 341.351 122.342 342.302L148.946 362.255C150.266 363.245 150.911 364.402 150.738 365.471L150.108 369.343C149.963 370.241 150.504 371.212 151.612 372.043L176.241 390.515L176.884 390.3C177.259 390.175 177.818 390.266 178.134 390.503L178.68 390.912L193.515 385.967L192.969 385.557C192.653 385.32 192.701 385.027 193.076 384.902L195.313 384.156C195.688 384.032 196.247 384.122 196.563 384.359L198.451 385.775C198.766 386.012 198.719 386.305 198.344 386.43L196.107 387.176C195.732 387.3 195.172 387.21 194.856 386.973L194.315 386.567L179.48 391.512L180.022 391.919C180.337 392.156 180.29 392.449 179.915 392.574L177.678 393.319C177.303 393.444 176.743 393.354 176.427 393.117L174.54 391.701C174.224 391.464 174.272 391.171 174.647 391.046L175.293 390.831L150.664 372.359C149.343 371.369 148.699 370.212 148.872 369.143L149.5 365.27C149.646 364.373 149.105 363.402 147.997 362.571L121.393 342.618C120.329 341.82 118.823 341.213 117.183 340.92L109.146 339.484C107.193 339.135 105.399 338.41 104.131 337.459L91.1691 327.738C90.0611 326.907 88.4758 326.285 86.7634 326.007L79.3725 324.807C77.4596 324.497 75.6805 323.825 74.3777 322.926L74.1235 322.743L38.5031 296.028L36.9606 296.542C36.5858 296.667 36.0249 296.576 35.7089 296.339L32.3065 293.787C31.9905 293.55 32.0381 293.256 32.4129 293.131L36.4476 291.787ZM303.382 341.563C303.757 341.438 304.317 341.529 304.633 341.766L306.521 343.181C306.523 343.183 306.523 343.184 306.525 343.186L314.45 344.472C315.973 344.719 317.486 344.639 318.655 344.249L318.883 344.173L318.34 343.765C318.024 343.528 318.072 343.235 318.446 343.11L320.683 342.365C321.058 342.24 321.618 342.33 321.934 342.567L323.822 343.983C324.138 344.22 324.089 344.513 323.715 344.638L321.477 345.384C321.102 345.509 320.543 345.418 320.227 345.181L319.683 344.773L319.455 344.849C318.034 345.323 316.196 345.42 314.345 345.12L306.419 343.834C306.417 343.834 306.415 343.836 306.413 343.837L304.176 344.582C303.801 344.707 303.242 344.616 302.926 344.379L301.039 342.964C300.723 342.727 300.77 342.434 301.145 342.309L303.382 341.563ZM285.1 346.838C285.475 346.713 286.035 346.804 286.351 347.041L289.753 349.593C290.07 349.83 290.023 350.124 289.648 350.249L285.613 351.593C285.239 351.718 284.678 351.627 284.362 351.39L283.062 350.416L261.943 357.456C260.629 357.894 259.809 358.644 259.664 359.541L259.035 363.413C258.862 364.483 257.885 365.377 256.319 365.899L229.362 374.884C227.797 375.406 225.77 375.513 223.729 375.182L216.338 373.983C214.625 373.705 212.925 373.795 211.611 374.233L206.666 375.881L207.207 376.287C207.523 376.524 207.475 376.818 207.101 376.942L204.863 377.688C204.488 377.813 203.928 377.722 203.612 377.485L201.726 376.07C201.41 375.833 201.457 375.539 201.831 375.414L204.069 374.668C204.443 374.544 205.004 374.635 205.32 374.872L205.866 375.281L210.811 373.633C212.377 373.111 214.403 373.004 216.443 373.335L223.834 374.534C225.547 374.812 227.248 374.722 228.562 374.284L255.519 365.299C256.833 364.861 257.653 364.11 257.799 363.213L258.427 359.34C258.601 358.271 259.578 357.378 261.143 356.856L282.262 349.816L280.959 348.839C280.643 348.601 280.691 348.308 281.066 348.183L285.1 346.838ZM225.34 366.758C225.715 366.633 226.275 366.724 226.591 366.961L229.993 369.513C230.309 369.75 230.262 370.044 229.887 370.169L225.853 371.514C225.478 371.639 224.917 371.548 224.601 371.31L221.199 368.759C220.883 368.522 220.93 368.228 221.305 368.103L225.34 366.758ZM236.119 363.165C236.494 363.04 237.054 363.131 237.37 363.368L240.772 365.92C241.088 366.157 241.041 366.451 240.667 366.576L236.632 367.921C236.257 368.045 235.696 367.954 235.38 367.717L231.978 365.166C231.662 364.929 231.71 364.635 232.084 364.51L236.119 363.165ZM246.908 359.569C247.283 359.444 247.842 359.535 248.158 359.772L251.561 362.324C251.877 362.561 251.83 362.855 251.455 362.979L247.42 364.324C247.046 364.449 246.485 364.358 246.169 364.121L242.766 361.569C242.45 361.332 242.499 361.039 242.874 360.914L246.908 359.569ZM159.445 369.429C159.82 369.305 160.38 369.396 160.696 369.633L162.582 371.048C162.898 371.285 162.852 371.578 162.477 371.703L161.831 371.919L167.515 376.181L168.161 375.966C168.535 375.841 169.095 375.932 169.411 376.169L171.297 377.584C171.613 377.821 171.566 378.115 171.192 378.24L168.954 378.985C168.58 379.11 168.019 379.019 167.703 378.782L165.816 377.367C165.5 377.13 165.548 376.837 165.923 376.712L166.566 376.498L160.883 372.235L160.24 372.449C159.865 372.574 159.304 372.483 158.988 372.246L157.101 370.831C156.785 370.594 156.833 370.3 157.208 370.175L159.445 369.429ZM268.008 302.858C268.383 302.733 268.944 302.824 269.26 303.061L271.147 304.477C271.463 304.714 271.414 305.007 271.04 305.132L270.392 305.348L283.279 315.013L284.824 314.498C285.199 314.373 285.76 314.464 286.076 314.701L289.478 317.252C289.794 317.49 289.746 317.783 289.372 317.908L285.337 319.253C284.962 319.378 284.402 319.287 284.086 319.05L280.684 316.498C280.368 316.261 280.415 315.967 280.789 315.842L282.33 315.329L269.443 305.664L268.802 305.878C268.427 306.002 267.868 305.912 267.552 305.675L265.665 304.26C265.349 304.023 265.396 303.729 265.771 303.604L268.008 302.858ZM112.094 349.497C112.469 349.372 113.028 349.463 113.344 349.7L115.231 351.115C115.547 351.352 115.5 351.645 115.125 351.77L114.482 351.985L128.125 362.217L128.768 362.003C129.143 361.878 129.702 361.969 130.018 362.205L131.905 363.62C132.221 363.857 132.174 364.151 131.799 364.276L129.562 365.022C129.187 365.147 128.626 365.056 128.31 364.819L126.424 363.404C126.108 363.167 126.156 362.873 126.531 362.748L127.177 362.533L113.534 352.301L112.888 352.516C112.513 352.641 111.952 352.55 111.636 352.313L109.749 350.898C109.433 350.661 109.482 350.368 109.857 350.243L112.094 349.497ZM201.816 236.662C202.191 236.537 202.751 236.628 203.067 236.865L206.47 239.416C206.786 239.653 206.738 239.947 206.363 240.072L204.816 240.588L238.54 265.881C239.86 266.871 240.505 268.028 240.332 269.098L239.703 272.97C239.558 273.867 240.098 274.839 241.206 275.67L260.15 289.878C261.258 290.709 262.844 291.332 264.556 291.61L271.947 292.809C273.988 293.14 275.876 293.883 277.196 294.873L290.079 304.535L291.626 304.02C292.001 303.895 292.561 303.985 292.877 304.222L296.28 306.775C296.596 307.012 296.548 307.305 296.173 307.43L292.139 308.775C291.764 308.9 291.205 308.809 290.889 308.572L287.485 306.02C287.17 305.783 287.217 305.489 287.592 305.365L289.131 304.852L276.248 295.19C275.14 294.359 273.555 293.735 271.842 293.457L264.451 292.258C262.411 291.927 260.522 291.184 259.201 290.194L240.258 275.986C238.937 274.996 238.293 273.839 238.467 272.769L239.095 268.897C239.241 268 238.699 267.028 237.591 266.197L203.867 240.904L202.328 241.417C201.954 241.542 201.394 241.451 201.078 241.214L199.777 240.238L163.822 252.223L164.366 252.631C164.682 252.868 164.635 253.161 164.261 253.286L162.023 254.032C161.648 254.157 161.087 254.066 160.771 253.829L158.885 252.414C158.569 252.177 158.617 251.884 158.992 251.759L161.229 251.013C161.604 250.888 162.163 250.979 162.479 251.216L163.022 251.623L198.977 239.638L197.675 238.662C197.359 238.425 197.407 238.132 197.782 238.007L201.816 236.662ZM248.662 272.773C249.036 272.648 249.596 272.738 249.913 272.975L251.8 274.391C252.116 274.628 252.068 274.921 251.693 275.046L251.047 275.261L264.689 285.493L265.335 285.278C265.71 285.153 266.271 285.244 266.587 285.481L268.474 286.896C268.789 287.133 268.741 287.426 268.366 287.551L266.129 288.297C265.754 288.422 265.195 288.331 264.879 288.094L262.992 286.679C262.676 286.442 262.723 286.149 263.098 286.024L263.741 285.809L250.098 275.578L249.456 275.792C249.081 275.917 248.522 275.826 248.205 275.589L246.318 274.173C246.002 273.936 246.05 273.643 246.424 273.518L248.662 272.773ZM92.8922 318.54C93.267 318.415 93.8262 318.506 94.1422 318.743L97.5446 321.295C97.8606 321.532 97.8137 321.825 97.4391 321.95L95.8937 322.466L108.78 332.13L109.425 331.915C109.8 331.79 110.359 331.881 110.675 332.118L112.562 333.533C112.878 333.77 112.831 334.063 112.457 334.188L110.219 334.934C109.844 335.059 109.284 334.968 108.968 334.731L107.081 333.316C106.765 333.079 106.813 332.785 107.188 332.661L107.831 332.446L94.9451 322.782L93.4044 323.295C93.0296 323.42 92.4687 323.329 92.1526 323.092L88.7503 320.54C88.4343 320.303 88.4827 320.01 88.8575 319.885L92.8922 318.54ZM49.7011 293.937C50.0759 293.812 50.6359 293.904 50.9519 294.141L54.3542 296.693C54.6702 296.93 54.6226 297.223 54.248 297.347L52.7045 297.862L75.8217 315.2C77.2751 316.29 79.8507 316.708 81.574 316.134C83.2971 315.559 83.5151 314.21 82.0622 313.12L64.2513 299.761L63.6083 299.976C63.2335 300.101 62.6727 300.01 62.3566 299.773L60.4699 298.358C60.154 298.121 60.2024 297.827 60.5771 297.702L62.8145 296.957C63.1892 296.832 63.7485 296.923 64.0645 297.159L65.9512 298.574C66.2672 298.811 66.2203 299.105 65.8457 299.23L65.2 299.445L83.0109 312.803C84.9056 314.225 84.621 315.985 82.374 316.734C80.1268 317.483 76.7682 316.937 74.873 315.516L51.7558 298.178L50.2133 298.692C49.8385 298.817 49.2784 298.727 48.9623 298.49L45.56 295.938C45.2439 295.701 45.2916 295.407 45.6664 295.282L49.7011 293.937ZM209.273 258.807C209.648 258.682 210.209 258.773 210.525 259.01L212.412 260.425C212.727 260.662 212.679 260.956 212.304 261.08L211.657 261.296L217.341 265.56L217.993 265.342C218.368 265.217 218.929 265.308 219.245 265.545L221.132 266.96C221.448 267.197 221.4 267.491 221.025 267.616L218.788 268.362C218.413 268.487 217.853 268.396 217.537 268.159L215.651 266.744C215.335 266.507 215.381 266.213 215.756 266.088L216.393 265.876L210.708 261.613L210.067 261.826C209.692 261.951 209.133 261.86 208.817 261.623L206.93 260.208C206.614 259.971 206.661 259.678 207.036 259.553L209.273 258.807ZM148.862 262.911C150.428 262.389 152.455 262.282 154.495 262.613L161.886 263.812C163.599 264.09 165.3 264 166.614 263.562L171.553 261.915L171.01 261.508C170.694 261.271 170.742 260.977 171.117 260.852L173.354 260.107C173.729 259.982 174.289 260.073 174.605 260.31L176.492 261.725C176.808 261.962 176.76 262.255 176.386 262.38L174.148 263.126C173.773 263.251 173.213 263.16 172.897 262.923L172.353 262.515L167.414 264.162C165.848 264.684 163.822 264.791 161.781 264.46L154.39 263.261C152.678 262.983 150.976 263.073 149.662 263.511L122.705 272.496C121.391 272.934 120.571 273.685 120.426 274.582L119.797 278.455C119.624 279.524 118.647 280.418 117.082 280.939L95.9668 287.978L97.2692 288.954C97.5852 289.191 97.5375 289.485 97.1627 289.61L93.128 290.955C92.7532 291.08 92.1932 290.989 91.8772 290.752L88.4749 288.2C88.1589 287.963 88.2057 287.669 88.5804 287.544L92.6151 286.2C92.9899 286.075 93.5507 286.166 93.8668 286.403L95.1668 287.378L116.282 280.339C117.595 279.901 118.415 279.151 118.561 278.254L119.189 274.382C119.363 273.313 120.34 272.418 121.905 271.896L148.862 262.911ZM130.807 273.468C131.182 273.343 131.743 273.434 132.059 273.671L135.461 276.223C135.777 276.46 135.73 276.754 135.355 276.879L131.32 278.224C130.945 278.348 130.385 278.257 130.069 278.02L126.667 275.468C126.351 275.231 126.398 274.938 126.772 274.813L130.807 273.468ZM141.596 269.872C141.97 269.747 142.531 269.838 142.847 270.075L146.25 272.627C146.566 272.864 146.518 273.158 146.143 273.283L142.109 274.627C141.734 274.752 141.174 274.661 140.858 274.424L137.455 271.872C137.139 271.635 137.186 271.342 137.561 271.217L141.596 269.872ZM152.375 266.279C152.75 266.154 153.311 266.245 153.627 266.482L157.029 269.034C157.345 269.271 157.297 269.565 156.923 269.69L152.888 271.034C152.513 271.159 151.953 271.068 151.637 270.831L148.235 268.279C147.919 268.042 147.966 267.749 148.34 267.624L152.375 266.279ZM68.6686 281.867C69.0433 281.742 69.6026 281.833 69.9186 282.07L70.4608 282.477L147.294 256.866C148.86 256.344 150.886 256.236 152.926 256.568L160.316 257.767C162.029 258.045 163.729 257.955 165.044 257.517L168.635 256.32C170.2 255.798 172.227 255.691 174.268 256.022L181.658 257.222C183.37 257.5 185.071 257.41 186.385 256.972L196.721 253.526L195.421 252.551C195.105 252.314 195.151 252.02 195.526 251.895L199.561 250.55C199.936 250.425 200.496 250.516 200.812 250.753L204.215 253.305C204.531 253.542 204.483 253.836 204.108 253.961L200.074 255.306C199.699 255.431 199.139 255.339 198.823 255.102L197.521 254.126L187.185 257.572C185.619 258.093 183.593 258.201 181.553 257.87L174.163 256.67C172.45 256.392 170.749 256.482 169.435 256.92L165.844 258.117C164.278 258.639 162.252 258.746 160.211 258.415L152.821 257.215C151.109 256.937 149.408 257.028 148.094 257.466L71.2608 283.077L71.8061 283.486C72.1217 283.723 72.0742 284.016 71.6998 284.141L69.4624 284.886C69.0878 285.011 68.5276 284.921 68.2115 284.684L66.324 283.268C66.0082 283.031 66.0565 282.738 66.4312 282.613L68.6686 281.867ZM56.7504 292.409C57.1251 292.284 57.6844 292.374 58.0004 292.611L58.5458 293.02L58.77 292.946C60.1905 292.472 62.0285 292.375 63.8799 292.675L71.8027 293.961C71.8068 293.96 71.8107 293.958 71.8149 293.956L74.0523 293.211C74.4271 293.086 74.9871 293.177 75.3031 293.414L77.1898 294.829C77.5056 295.066 77.458 295.359 77.0835 295.484L74.8462 296.23C74.4714 296.355 73.9113 296.264 73.5952 296.027L71.7061 294.611L63.7748 293.323C62.2514 293.076 60.7388 293.156 59.57 293.546L59.3458 293.62L59.8872 294.026C60.2032 294.263 60.1562 294.557 59.7817 294.682L57.5443 295.428C57.1695 295.553 56.6086 295.462 56.2925 295.225L54.4058 293.81C54.09 293.573 54.1383 293.279 54.513 293.154L56.7504 292.409ZM81.916 284.017C82.2908 283.893 82.8508 283.984 83.1668 284.221L83.7097 284.628L106.176 277.139L105.633 276.732C105.317 276.495 105.365 276.201 105.74 276.076L107.977 275.33C108.352 275.206 108.912 275.297 109.228 275.534L111.114 276.949C111.43 277.186 111.383 277.479 111.008 277.604L108.771 278.35C108.396 278.475 107.836 278.384 107.52 278.147L106.976 277.739L84.5097 285.228L85.0535 285.636C85.3694 285.873 85.3218 286.166 84.9472 286.291L82.7098 287.037C82.3351 287.162 81.775 287.071 81.4589 286.834L79.5722 285.419C79.2561 285.182 79.3038 284.888 79.6786 284.763L81.916 284.017Z" fill="white"/>
<g filter="url(#filter7_ii_4030_1799)">
<path d="M32.0999 268.967C25.0307 263.665 26.0958 257.101 34.4789 254.307L193.858 201.181C202.241 198.386 214.767 200.419 221.837 205.721L356.237 306.521C363.306 311.823 362.241 318.386 353.858 321.181L194.479 374.307C186.096 377.101 173.569 375.069 166.5 369.767L32.0999 268.967Z" fill="url(#paint10_linear_4030_1799)"/>
<path d="M32.0999 268.967C25.0307 263.665 26.0958 257.101 34.4789 254.307L193.858 201.181C202.241 198.386 214.767 200.419 221.837 205.721L356.237 306.521C363.306 311.823 362.241 318.386 353.858 321.181L194.479 374.307C186.096 377.101 173.569 375.069 166.5 369.767L32.0999 268.967Z" fill="url(#paint11_radial_4030_1799)"/>
<path d="M32.0999 268.967C25.0307 263.665 26.0958 257.101 34.4789 254.307L193.858 201.181C202.241 198.386 214.767 200.419 221.837 205.721L356.237 306.521C363.306 311.823 362.241 318.386 353.858 321.181L194.479 374.307C186.096 377.101 173.569 375.069 166.5 369.767L32.0999 268.967Z" fill="url(#paint12_radial_4030_1799)" fill-opacity="0.75"/>
<path d="M32.0999 268.967C25.0307 263.665 26.0958 257.101 34.4789 254.307L193.858 201.181C202.241 198.386 214.767 200.419 221.837 205.721L356.237 306.521C363.306 311.823 362.241 318.386 353.858 321.181L194.479 374.307C186.096 377.101 173.569 375.069 166.5 369.767L32.0999 268.967Z" fill="url(#paint13_linear_4030_1799)" fill-opacity="0.12"/>
</g>
<path d="M34.8789 254.607L194.258 201.481C202.379 198.774 214.514 200.743 221.362 205.879L355.762 306.679C362.611 311.815 361.579 318.174 353.458 320.881L194.079 374.007C185.958 376.714 173.823 374.745 166.974 369.609L32.5743 268.809C25.7259 263.672 26.7577 257.314 34.8789 254.607Z" stroke="white" stroke-opacity="0.08"/>
<g clip-path="url(#clip0_4030_1799)">
<path fill-rule="evenodd" clip-rule="evenodd" d="M152.069 258.581C149.932 259.706 148.582 261.242 148.227 262.955C147.844 264.797 148.523 266.68 150.268 268.611C150.942 269.357 152.945 270.887 154.082 271.525C158.854 274.199 165.523 275.556 171.233 275.015C175.326 274.627 178.795 273.226 180.537 271.258L181.018 270.714L196.492 273.223L211.966 275.732L212.31 276.492C212.499 276.91 212.833 277.506 213.051 277.816L213.449 278.381L208.73 279.979L204.01 281.576L203.401 281.289C199.312 279.358 193.789 278.304 189.071 278.553C182.52 278.9 177.904 281.443 177.321 285.027C177.091 286.44 177.588 288.175 178.612 289.526L178.924 289.938L174.169 291.499L169.413 293.06L168.366 292.598C163.182 290.311 156.846 289.502 151.342 290.426C150.087 290.636 147.569 291.449 146.616 291.952C142.393 294.18 141.512 297.882 144.36 301.431C145.024 302.258 145.127 302.351 146.728 303.551C148.329 304.752 148.46 304.835 149.732 305.46C154.489 307.796 160.586 308.894 165.871 308.366C166.612 308.292 167.615 308.156 168.099 308.064C169.394 307.818 171.863 306.968 172.735 306.47C176.556 304.285 177.5 301.05 175.272 297.777L174.822 297.116L179.532 295.522L184.243 293.928L184.884 294.23C186.985 295.222 189.996 296.119 192.694 296.556C203.759 298.351 212.636 294.202 210.762 288.113C210.563 287.468 210.091 286.571 209.626 285.957L209.329 285.566L214.094 284.002L218.858 282.438L219.748 282.839C220.237 283.059 221.209 283.442 221.908 283.691L223.179 284.141L221.859 292.248L220.54 300.355L219.35 300.368C215.047 300.415 211.126 301.477 208.836 303.217C206.064 305.322 205.619 308.372 207.665 311.233C208.414 312.28 209.042 312.893 210.437 313.936C212.856 315.746 215.83 317.066 219.438 317.931C224.651 319.181 230.052 319.116 234.132 317.756C239.049 316.118 241.171 312.879 239.656 309.328C238.458 306.519 234.712 303.74 229.91 302.098L228.808 301.721L230.124 293.593L231.44 285.466L232.683 285.451C239.59 285.372 244.708 282.849 245.462 279.152C246.141 275.818 243.211 272.205 237.788 269.691C236.493 269.091 234.156 268.292 232.582 267.912C230.135 267.32 227.076 266.968 224.642 266.999C219.612 267.061 215.26 268.523 213.203 270.841L212.699 271.41L197.188 268.891L181.677 266.372L181.405 265.719C180.858 264.405 179.909 263.227 178.393 261.98C173.284 257.779 163.774 255.693 156.352 257.146C155.072 257.397 153.003 258.09 152.069 258.581ZM158.013 262.403C157.034 263.03 156.643 263.563 156.478 264.495C156.355 265.191 156.385 265.452 156.651 266.018C157.406 267.626 158.991 268.806 161.634 269.727C163.686 270.443 165.857 270.723 168.077 270.559C169.283 270.469 171.154 269.929 171.929 269.446C175.174 267.424 173.508 263.87 168.492 262.118C164.718 260.799 160.331 260.918 158.013 262.403ZM153.302 295.367C153.212 295.42 152.928 295.579 152.67 295.72C152.413 295.861 151.969 296.223 151.684 296.525C151.255 296.978 151.143 297.221 151.039 297.918C150.95 298.515 150.985 298.921 151.158 299.307C152.111 301.44 155.041 303.127 158.868 303.747C160.091 303.945 160.629 303.988 161.603 303.965C163.219 303.927 163.961 303.806 165.229 303.374C166.106 303.075 166.392 302.934 166.87 302.565C168.133 301.59 168.489 300.421 167.908 299.155C167.506 298.278 167.14 297.856 166.117 297.088C165.094 296.321 164.455 295.99 162.991 295.467C160.177 294.462 156.879 294.282 154.401 294.999C153.887 295.148 153.393 295.313 153.302 295.367ZM187.587 283.977C186.392 284.61 185.728 285.396 185.571 286.365C185.366 287.622 186.007 288.773 187.563 289.94C189.119 291.107 190.997 291.845 193.397 292.234C195.797 292.623 197.812 292.516 199.658 291.901C201.538 291.274 202.488 290.393 202.683 289.094C202.87 287.851 202.25 286.739 200.733 285.596C199.699 284.817 199.016 284.462 197.536 283.93C195.493 283.197 192.869 282.891 190.701 283.134C189.7 283.246 188.199 283.652 187.587 283.977ZM222.076 272.486C220.105 273.524 219.57 275.176 220.634 276.941C220.92 277.416 221.059 277.546 222.193 278.396C223.327 279.247 223.513 279.361 224.281 279.676C225.508 280.18 226.639 280.502 227.927 280.715C229.323 280.946 230.581 280.994 231.957 280.87C232.85 280.79 233.175 280.72 234.129 280.403C236.086 279.754 237.015 278.932 237.249 277.646C237.375 276.955 237.227 276.323 236.76 275.558C236.396 274.963 236.303 274.873 235.214 274.056C234.125 273.239 233.994 273.161 233.035 272.765C229.838 271.442 226.272 271.16 223.386 272C222.911 272.138 222.322 272.357 222.076 272.486ZM216.244 306.105C213.533 307.868 214.39 310.79 218.19 312.736C218.469 312.879 219.21 313.181 219.836 313.407C220.78 313.748 221.249 313.862 222.583 314.073C223.721 314.253 224.474 314.322 225.16 314.31C229.97 314.225 232.759 312.114 231.592 309.442C230.483 306.905 225.802 304.828 221.363 304.903C220.715 304.914 219.853 304.97 219.448 305.028C218.514 305.161 216.819 305.731 216.244 306.105Z" fill="#737373"/>
</g>
<rect width="174" height="174" rx="8" transform="matrix(0.948683 -0.316228 0.8 0.6 42.0328 263.056)" stroke="white" stroke-opacity="0.12" stroke-width="1.5"/>
<path d="M209.595 480.202L215.995 485.002M216.591 481.328L209.002 483.857" stroke="white" stroke-opacity="0.25"/>
<path d="M111.664 464.312L118.064 469.112M118.66 465.438L111.071 467.968" stroke="white" stroke-opacity="0.25"/>
<path d="M155.675 193.109L162.075 197.909M162.671 194.235L155.081 196.764" stroke="white" stroke-opacity="0.1"/>
<path d="M253.601 209L260.001 213.8M260.597 210.126L253.008 212.655" stroke="white" stroke-opacity="0.1"/>
<defs>
<filter id="filter0_f_4030_1799" x="-184.073" y="29.1758" width="743.992" height="594.099" filterUnits="userSpaceOnUse" color-interpolation-filters="sRGB">
<feFlood flood-opacity="0" result="BackgroundImageFix"/>
<feBlend mode="normal" in="SourceGraphic" in2="BackgroundImageFix" result="shape"/>
<feGaussianBlur stdDeviation="100" result="effect1_foregroundBlur_4030_1799"/>
</filter>
<filter id="filter1_f_4030_1799" x="13.9274" y="227.176" width="347.992" height="198.099" filterUnits="userSpaceOnUse" color-interpolation-filters="sRGB">
<feFlood flood-opacity="0" result="BackgroundImageFix"/>
<feBlend mode="normal" in="SourceGraphic" in2="BackgroundImageFix" result="shape"/>
<feGaussianBlur stdDeviation="1" result="effect1_foregroundBlur_4030_1799"/>
</filter>
<filter id="filter2_f_4030_1799" x="7.92737" y="221.176" width="359.992" height="210.099" filterUnits="userSpaceOnUse" color-interpolation-filters="sRGB">
<feFlood flood-opacity="0" result="BackgroundImageFix"/>
<feBlend mode="normal" in="SourceGraphic" in2="BackgroundImageFix" result="shape"/>
<feGaussianBlur stdDeviation="4" result="effect1_foregroundBlur_4030_1799"/>
</filter>
<filter id="filter3_f_4030_1799" x="11.9274" y="225.176" width="351.992" height="202.099" filterUnits="userSpaceOnUse" color-interpolation-filters="sRGB">
<feFlood flood-opacity="0" result="BackgroundImageFix"/>
<feBlend mode="normal" in="SourceGraphic" in2="BackgroundImageFix" result="shape"/>
<feGaussianBlur stdDeviation="2" result="effect1_foregroundBlur_4030_1799"/>
</filter>
<filter id="filter4_f_4030_1799" x="-8.07263" y="205.176" width="391.992" height="242.099" filterUnits="userSpaceOnUse" color-interpolation-filters="sRGB">
<feFlood flood-opacity="0" result="BackgroundImageFix"/>
<feBlend mode="normal" in="SourceGraphic" in2="BackgroundImageFix" result="shape"/>
<feGaussianBlur stdDeviation="12" result="effect1_foregroundBlur_4030_1799"/>
</filter>
<filter id="filter5_f_4030_1799" x="7.92737" y="221.176" width="359.992" height="210.099" filterUnits="userSpaceOnUse" color-interpolation-filters="sRGB">
<feFlood flood-opacity="0" result="BackgroundImageFix"/>
<feBlend mode="normal" in="SourceGraphic" in2="BackgroundImageFix" result="shape"/>
<feGaussianBlur stdDeviation="4" result="effect1_foregroundBlur_4030_1799"/>
</filter>
<filter id="filter6_f_4030_1799" x="-32.0726" y="181.176" width="439.992" height="290.099" filterUnits="userSpaceOnUse" color-interpolation-filters="sRGB">
<feFlood flood-opacity="0" result="BackgroundImageFix"/>
<feBlend mode="normal" in="SourceGraphic" in2="BackgroundImageFix" result="shape"/>
<feGaussianBlur stdDeviation="24" result="effect1_foregroundBlur_4030_1799"/>
</filter>
<filter id="filter7_ii_4030_1799" x="27.4229" y="199.927" width="333.491" height="199.634" filterUnits="userSpaceOnUse" color-interpolation-filters="sRGB">
<feFlood flood-opacity="0" result="BackgroundImageFix"/>
<feBlend mode="normal" in="SourceGraphic" in2="BackgroundImageFix" result="shape"/>
<feColorMatrix in="SourceAlpha" type="matrix" values="0 0 0 0 0 0 0 0 0 0 0 0 0 0 0 0 0 0 127 0" result="hardAlpha"/>
<feMorphology radius="1" operator="erode" in="SourceAlpha" result="effect1_innerShadow_4030_1799"/>
<feOffset/>
<feComposite in2="hardAlpha" operator="arithmetic" k2="-1" k3="1"/>
<feColorMatrix type="matrix" values="0 0 0 0 1 0 0 0 0 1 0 0 0 0 1 0 0 0 0.12 0"/>
<feBlend mode="normal" in2="shape" result="effect1_innerShadow_4030_1799"/>
<feColorMatrix in="SourceAlpha" type="matrix" values="0 0 0 0 0 0 0 0 0 0 0 0 0 0 0 0 0 0 127 0" result="hardAlpha"/>
<feOffset dy="24"/>
<feGaussianBlur stdDeviation="24"/>
<feComposite in2="hardAlpha" operator="arithmetic" k2="-1" k3="1"/>
<feColorMatrix type="matrix" values="0 0 0 0 1 0 0 0 0 1 0 0 0 0 1 0 0 0 0.06 0"/>
<feBlend mode="normal" in2="effect1_innerShadow_4030_1799" result="effect2_innerShadow_4030_1799"/>
</filter>
<radialGradient id="paint0_radial_4030_1799" cx="0" cy="0" r="1" gradientUnits="userSpaceOnUse" gradientTransform="translate(168 449) rotate(36.8699) scale(386.5 317.777)">
<stop stop-color="white"/>
<stop offset="1" stop-color="white" stop-opacity="0"/>
</radialGradient>
<linearGradient id="paint1_linear_4030_1799" x1="274.324" y1="391.026" x2="218.164" y2="222.546" gradientUnits="userSpaceOnUse">
<stop stop-color="white"/>
<stop offset="1" stop-color="white" stop-opacity="0"/>
</linearGradient>
<linearGradient id="paint2_linear_4030_1799" x1="101.524" y1="261.426" x2="157.684" y2="429.906" gradientUnits="userSpaceOnUse">
<stop stop-color="white" stop-opacity="0"/>
<stop offset="1" stop-color="white"/>
</linearGradient>
<linearGradient id="paint3_linear_4030_1799" x1="101.524" y1="261.426" x2="157.684" y2="429.906" gradientUnits="userSpaceOnUse">
<stop stop-color="white" stop-opacity="0"/>
<stop offset="1" stop-color="white"/>
</linearGradient>
<linearGradient id="paint4_linear_4030_1799" x1="101.524" y1="261.426" x2="157.684" y2="429.906" gradientUnits="userSpaceOnUse">
<stop stop-color="white" stop-opacity="0"/>
<stop offset="1" stop-color="white"/>
</linearGradient>
<linearGradient id="paint5_linear_4030_1799" x1="101.524" y1="261.426" x2="157.684" y2="429.906" gradientUnits="userSpaceOnUse">
<stop stop-color="white" stop-opacity="0"/>
<stop offset="1" stop-color="white"/>
</linearGradient>
<linearGradient id="paint6_linear_4030_1799" x1="101.524" y1="261.426" x2="157.684" y2="429.906" gradientUnits="userSpaceOnUse">
<stop stop-color="white" stop-opacity="0"/>
<stop offset="1" stop-color="white"/>
</linearGradient>
<linearGradient id="paint7_linear_4030_1799" x1="101.524" y1="261.426" x2="157.684" y2="429.906" gradientUnits="userSpaceOnUse">
<stop stop-color="white"/>
<stop offset="1" stop-color="white" stop-opacity="0"/>
</linearGradient>
<radialGradient id="paint8_radial_4030_1799" cx="0" cy="0" r="1" gradientUnits="userSpaceOnUse" gradientTransform="translate(100 100) rotate(90) scale(100)">
<stop stop-color="white"/>
<stop offset="1"/>
</radialGradient>
<linearGradient id="paint9_linear_4030_1799" x1="100" y1="0" x2="100" y2="200" gradientUnits="userSpaceOnUse">
<stop stop-color="white" stop-opacity="0.25"/>
<stop offset="0.502476" stop-color="white" stop-opacity="0"/>
<stop offset="1" stop-color="white"/>
</linearGradient>
<linearGradient id="paint10_linear_4030_1799" x1="84.7137" y1="205.653" x2="146.286" y2="390.371" gradientUnits="userSpaceOnUse">
<stop/>
<stop offset="1"/>
</linearGradient>
<radialGradient id="paint11_radial_4030_1799" cx="0" cy="0" r="1" gradientUnits="userSpaceOnUse" gradientTransform="translate(200.5 281.443) rotate(-76.6307) scale(229.212)">
<stop/>
<stop offset="1" stop-color="white" stop-opacity="0"/>
</radialGradient>
<radialGradient id="paint12_radial_4030_1799" cx="0" cy="0" r="1" gradientUnits="userSpaceOnUse" gradientTransform="translate(194 355.943) rotate(-85.1526) scale(710.04 849.599)">
<stop offset="0.1"/>
<stop offset="1" stop-color="white" stop-opacity="0"/>
</radialGradient>
<linearGradient id="paint13_linear_4030_1799" x1="114.168" y1="227.744" x2="166.168" y2="383.744" gradientUnits="userSpaceOnUse">
<stop stop-color="white" stop-opacity="0"/>
<stop offset="0.4"/>
</linearGradient>
<clipPath id="clip0_4030_1799">
<rect width="120" height="120" fill="white" transform="matrix(0.948683 -0.316228 0.8 0.6 89.2473 270.718)"/>
</clipPath>
</defs>
</svg>
