<svg width="16" height="16" viewBox="0 0 16 16" fill="none" xmlns="http://www.w3.org/2000/svg">
<g clip-path="url(#clip0_3919_1006)">
<path d="M6.32071 2.99857H7.35654H6.32071ZM5.08757 2.99857H6.12341H5.08757ZM3.8791 2.99857H4.91494H3.8791ZM2.67063 2.99857H3.6818H2.67063ZM1.4375 2.99857H2.47333H1.4375ZM2.67063 1.83254H3.6818H2.67063ZM3.8791 1.83254H4.91494H3.8791ZM5.08757 1.83254H6.12341H5.08757ZM5.08757 0.666504H6.12341H5.08757Z" fill="black"/>
<path d="M6.32071 2.99857H7.35654M5.08757 2.99857H6.12341M3.8791 2.99857H4.91494M2.67063 2.99857H3.6818M1.4375 2.99857H2.47333M2.67063 1.83254H3.6818M3.8791 1.83254H4.91494M5.08757 1.83254H6.12341M5.08757 0.666504H6.12341" stroke="#737373" stroke-width="0.963245"/>
<path d="M10.664 3.0496C10.664 3.0496 10.2201 2.61868 9.30759 2.77077C9.20893 2.03566 8.44439 1.60474 8.44439 1.60474C8.44439 1.60474 7.72918 2.49194 8.24709 3.48053C8.09911 3.55657 7.85249 3.65797 7.48255 3.65797H0.700316C0.577003 4.13959 0.577003 7.33351 3.98045 7.33351C6.42205 7.33351 8.24709 6.16747 9.11028 4.0382C10.3927 4.13959 10.664 3.0496 10.664 3.0496Z" fill="#737373"/>
<g clip-path="url(#clip1_3919_1006)">
<path fill-rule="evenodd" clip-rule="evenodd" d="M11.9881 8C9.78278 8 8 9.83333 8 12.1014C8 13.9144 9.14229 15.4491 10.7269 15.9922C10.9251 16.0331 10.9976 15.904 10.9976 15.7954C10.9976 15.7003 10.9911 15.3744 10.9911 15.0348C9.88171 15.2793 9.65069 14.5459 9.65069 14.5459C9.47241 14.0706 9.20824 13.9484 9.20824 13.9484C8.84514 13.6972 9.23469 13.6972 9.23469 13.6972C9.63747 13.7243 9.84882 14.1182 9.84882 14.1182C10.2053 14.7428 10.7798 14.5663 11.0109 14.4577C11.0438 14.1928 11.1496 14.0095 11.2618 13.9077C10.377 13.8126 9.44604 13.4595 9.44604 11.8841C9.44604 11.4359 9.60441 11.0693 9.85535 10.7841C9.81576 10.6823 9.67706 10.2612 9.89502 9.69758C9.89502 9.69758 10.2318 9.58892 10.991 10.1186C11.3161 10.0288 11.6513 9.98313 11.9881 9.98275C12.3248 9.98275 12.6681 10.0303 12.9851 10.1186C13.7444 9.58892 14.0811 9.69758 14.0811 9.69758C14.2991 10.2612 14.1603 10.6823 14.1207 10.7841C14.3783 11.0693 14.5301 11.4359 14.5301 11.8841C14.5301 13.4595 13.5992 13.8057 12.7078 13.9077C12.8531 14.0367 12.9784 14.2811 12.9784 14.6682C12.9784 15.2182 12.9719 15.6596 12.9719 15.7953C12.9719 15.904 13.0446 16.0331 13.2426 15.9923C14.8273 15.449 15.9696 13.9144 15.9696 12.1014C15.9761 9.83333 14.1868 8 11.9881 8Z" fill="#737373"/>
</g>
<path d="M13 4.66675L13.2701 5.39666L14 5.66675L13.2701 5.93684L13 6.66675L12.7299 5.93684L12 5.66675L12.7299 5.39666L13 4.66675Z" fill="#737373"/>
<path d="M4.33073 9.3335L4.78088 10.55L5.9974 11.0002L4.78088 11.4503L4.33073 12.6668L3.88058 11.4503L2.66406 11.0002L3.88058 10.55L4.33073 9.3335Z" fill="#737373"/>
</g>
<defs>
<clipPath id="clip0_3919_1006">
<rect width="16" height="16" fill="white"/>
</clipPath>
<clipPath id="clip1_3919_1006">
<rect width="8" height="8" fill="white" transform="translate(8 8)"/>
</clipPath>
</defs>
</svg>
