<svg width="158" height="32" viewBox="0 0 158 32" fill="none" xmlns="http://www.w3.org/2000/svg">
<g clip-path="url(#clip0_14_319)">
<path d="M22.8548 21.7714V17.5429L22.3977 17.2571L11.4263 23.2571L1.02627 17.5429V15.0857L11.4263 20.7429L22.912 14.5143V10.3429L22.4548 10.0571L11.4263 16.1143L1.42627 10.6286L11.4263 5.14286L19.4834 9.54286L20.112 9.2V8.74286L11.4263 4L-0.0594482 10.2286V10.8571L11.4263 17.1429L21.8263 11.4286V13.9429L11.4263 19.6571L0.397695 13.6L-0.0594482 13.8857V18.1143L11.4263 24.3429L21.8263 18.6857V21.1429L11.4263 26.8571L0.397695 20.8571L-0.0594482 21.1429V21.7714L11.4263 28L22.8548 21.7714Z" fill="white"/>
<path fill-rule="evenodd" clip-rule="evenodd" d="M44.6834 5.25732V24.5145H41.5977V23.0859C41.5977 22.9716 41.5405 22.8573 41.4262 22.8573C41.3119 22.8002 41.1977 22.8573 41.1405 22.9145C40.0548 24.1145 38.4548 24.8573 36.6834 24.8573C34.8548 24.8573 33.1405 24.1145 31.8834 22.8573C30.6262 21.543 29.9405 19.7716 29.9405 17.8288C29.9405 13.8859 32.912 10.8002 36.6834 10.8002C38.4548 10.8002 40.1119 11.4859 41.1405 12.6288C41.1977 12.6859 41.3119 12.743 41.4262 12.6859C41.5405 12.6288 41.5977 12.5716 41.5977 12.4573V5.25732H44.6834ZM33.0262 17.8288C33.0262 20.2859 34.9119 22.1716 37.3691 22.1716C39.8262 22.1716 41.7119 20.2859 41.7119 17.8288C41.7119 15.3716 39.8262 13.4859 37.3691 13.4859C34.9691 13.4859 33.0262 15.3716 33.0262 17.8288Z" fill="white"/>
<path fill-rule="evenodd" clip-rule="evenodd" d="M61.0264 11.0858V24.5143H57.9978V23.0858C57.9978 22.9715 57.9406 22.8572 57.8264 22.8572C57.7121 22.8 57.5978 22.8572 57.5406 22.9143C56.4549 24.1715 54.8549 24.8572 53.0835 24.8572C49.3121 24.8572 46.3406 21.7715 46.3406 17.8286C46.3406 13.8858 49.3121 10.8 53.0835 10.8C54.9121 10.8 56.5121 11.4286 57.5406 12.6286C57.5978 12.6858 57.7121 12.7429 57.8264 12.6858C57.9406 12.6286 57.9978 12.5715 57.9978 12.4572V11.0858H61.0264ZM49.4264 17.8286C49.4264 20.2858 51.3121 22.1715 53.7692 22.1715C56.2264 22.1715 58.1121 20.2858 58.1121 17.8286C58.1121 15.3715 56.2264 13.4858 53.7692 13.4858C51.3692 13.4858 49.4264 15.3715 49.4264 17.8286Z" fill="white"/>
<path fill-rule="evenodd" clip-rule="evenodd" d="M87.0263 11.0858V24.5143H83.9978V23.0858C83.9978 22.9715 83.9406 22.8572 83.8263 22.8572C83.712 22.8 83.5978 22.8572 83.5406 22.9143C82.4549 24.1715 80.8549 24.8572 79.0835 24.8572C75.312 24.8572 72.3406 21.7715 72.3406 17.8286C72.3406 13.8858 75.312 10.8 79.0835 10.8C80.912 10.8 82.512 11.4286 83.5406 12.6286C83.5978 12.6858 83.712 12.7429 83.8263 12.6858C83.9406 12.6286 83.9978 12.5715 83.9978 12.4572V11.0858H87.0263ZM75.4263 17.8286C75.4263 20.2858 77.312 22.1715 79.7692 22.1715C82.2263 22.1715 84.112 20.2858 84.112 17.8286C84.112 15.3715 82.2263 13.4858 79.7692 13.4858C77.312 13.4858 75.4263 15.3715 75.4263 17.8286Z" fill="white"/>
<path fill-rule="evenodd" clip-rule="evenodd" d="M92.7405 22.9145C92.6833 22.9145 92.6833 22.9145 92.6262 22.9145C92.5119 22.9716 92.4548 23.0288 92.4548 23.143V24.5145H89.369V5.25732H92.4548V12.5145C92.4548 12.6288 92.5119 12.743 92.6262 12.743C92.7405 12.8002 92.8548 12.743 92.9119 12.6859C93.9976 11.4859 95.5976 10.743 97.369 10.743C99.1976 10.743 100.912 11.4859 102.169 12.743C103.426 14.0573 104.112 15.8288 104.112 17.7716C104.112 21.7145 101.14 24.8002 97.369 24.8002C95.5976 24.8002 93.9405 24.1145 92.9119 22.9716C92.8548 22.9716 92.7976 22.9145 92.7405 22.9145ZM96.6833 13.4859C94.2262 13.4859 92.3405 15.3716 92.3405 17.8288C92.3405 20.2859 94.2262 22.1716 96.6833 22.1716C99.1405 22.1716 101.026 20.2859 101.026 17.8288C101.026 15.3716 99.0833 13.4859 96.6833 13.4859Z" fill="white"/>
<path d="M112.969 13.8286C113.255 13.8286 113.54 13.8286 113.712 13.8858V10.8572C113.598 10.8572 113.426 10.8 113.198 10.8C111.598 10.8 110.112 11.6 109.369 12.8572C109.312 12.9715 109.198 13.0286 109.083 12.9715C108.969 12.9143 108.912 12.8572 108.912 12.7429V11.0858H105.883V24.5143H108.969V18.6286C108.855 15.6572 110.455 13.8286 112.969 13.8286Z" fill="white"/>
<path d="M118.683 11.0857H115.598V24.5143H118.683V11.0857Z" fill="white"/>
<path d="M117.14 5.25732C116.112 5.25732 115.255 6.05732 115.255 7.0859C115.255 8.11447 116.112 8.91447 117.14 8.91447C118.169 8.91447 119.026 8.11447 119.026 7.0859C119.026 6.11447 118.169 5.25732 117.14 5.25732Z" fill="white"/>
<path d="M127.826 10.8C123.598 10.8 120.512 13.7715 120.512 17.8286C120.512 19.8286 121.255 21.6 122.569 22.8572C123.883 24.1143 125.769 24.8572 127.826 24.8572C129.54 24.8572 130.912 24.5143 133.426 22.7429L131.712 20.9715C130.455 21.7715 129.312 22.1715 128.169 22.1715C125.598 22.1715 123.655 20.2858 123.655 17.8286C123.655 15.3715 125.598 13.4858 128.169 13.4858C129.369 13.4858 130.512 13.8858 131.655 14.6858L133.598 12.9143C131.255 10.9715 129.198 10.8 127.826 10.8Z" fill="white"/>
<path d="M138.74 18.6288C138.798 18.5716 138.855 18.5716 138.912 18.5716C138.969 18.5716 139.026 18.6288 139.083 18.6859L143.998 24.5716H147.769L141.426 17.143C141.312 17.0288 141.369 16.9145 141.426 16.8002L147.255 11.143H143.54L138.512 16.0002C138.455 16.0573 138.34 16.1145 138.226 16.0573C138.112 16.0002 138.055 15.943 138.055 15.8288V5.25732H134.969V24.5145H138.055V19.3145C138.055 19.2573 138.112 19.2002 138.112 19.143L138.74 18.6288Z" fill="white"/>
<path d="M152.855 24.8572C155.369 24.8572 157.94 23.3715 157.94 20.5715C157.94 18.7429 156.74 17.4858 154.283 16.6858L152.626 16.1715C151.483 15.8286 150.969 15.3143 150.969 14.5715C150.969 13.7715 151.712 13.2 152.797 13.2C153.826 13.2 154.74 13.8286 155.312 14.9715L157.769 13.7143C156.855 11.8858 154.969 10.8 152.797 10.8C150.055 10.8 148.055 12.5143 148.055 14.8572C148.055 16.7429 149.197 18 151.54 18.6858L153.255 19.2C154.455 19.5429 154.969 20 154.969 20.8C154.969 21.9429 153.883 22.3429 152.969 22.3429C151.712 22.3429 150.626 21.5429 150.055 20.2858L147.54 21.5429C148.34 23.6 150.397 24.8572 152.855 24.8572Z" fill="white"/>
<path d="M69.5405 24.7431C70.5119 24.7431 71.3691 24.686 71.8833 24.5717V22.0002C71.4833 22.0574 70.7976 22.1145 70.3405 22.1145C69.0833 22.1145 68.1691 21.886 68.1691 19.3145V13.8288C68.1691 13.7145 68.2833 13.6003 68.4548 13.6003H71.4262V11.2003H68.4548C68.2833 11.2003 68.1691 11.086 68.1691 10.9717V6.97168H65.1405V10.8574C65.1405 10.9717 65.0262 11.086 64.8548 11.086H62.7405V13.486H64.8548C65.0262 13.486 65.1405 13.6003 65.1405 13.7145V19.9431C65.0833 24.7431 68.3405 24.7431 69.5405 24.7431Z" fill="white"/>
</g>
<defs>
<clipPath id="clip0_14_319">
<rect width="158" height="32" fill="white"/>
</clipPath>
</defs>
</svg>
