<svg width="113" height="32" viewBox="0 0 113 32" fill="none" xmlns="http://www.w3.org/2000/svg">
<g clip-path="url(#clip0_14_333)">
<path d="M32.367 6.01433C32.0213 5.84507 31.8724 6.16764 31.6703 6.33151C31.6011 6.38437 31.5426 6.45308 31.4841 6.5165C30.9788 7.0557 30.3885 7.41001 29.6173 7.36765C28.4897 7.30417 27.527 7.65849 26.676 8.52026C26.4952 7.4576 25.8942 6.82306 24.9794 6.41606C24.5008 6.20455 24.0168 5.99304 23.6816 5.53305C23.4476 5.20537 23.3838 4.84055 23.2668 4.48101C23.1923 4.26428 23.1178 4.04215 22.8679 4.00513C22.5966 3.96288 22.4902 4.19012 22.3838 4.38056C21.9584 5.15779 21.7935 6.01427 21.8094 6.88132C21.8466 8.83227 22.6711 10.3865 24.3091 11.4916C24.4953 11.6185 24.5432 11.7453 24.4847 11.9304C24.373 12.3111 24.24 12.6811 24.123 13.0618C24.0485 13.305 23.9368 13.3579 23.6762 13.2521C22.7774 12.8768 22.0008 12.3216 21.3147 11.6502C20.1499 10.5241 19.0968 9.28164 17.7832 8.3088C17.4747 8.08145 17.1662 7.87006 16.847 7.66905C15.5067 6.36853 17.0226 5.30048 17.3736 5.17369C17.7406 5.0415 17.5013 4.58674 16.3152 4.59213C15.1291 4.59736 14.0441 4.99392 12.6613 5.52261C12.4592 5.60193 12.2464 5.66002 12.0283 5.7076C10.7731 5.46974 9.47005 5.41676 8.10848 5.57019C5.54486 5.85563 3.49726 7.06637 1.99208 9.13361C0.18378 11.6185 -0.241699 14.4416 0.279538 17.3865C0.82737 20.4899 2.41228 23.0594 4.84826 25.0685C7.37465 27.1515 10.284 28.1719 13.6028 27.9763C15.6186 27.86 17.863 27.5904 20.3947 25.4492C21.0329 25.7664 21.7031 25.8932 22.8147 25.9884C23.671 26.0677 24.4954 25.9461 25.1336 25.814C26.1335 25.6025 26.0644 24.6772 25.7028 24.5081C22.7722 23.1441 23.4157 23.6992 22.8307 23.2498C24.3199 21.4893 26.5644 19.6599 27.442 13.7332C27.5111 13.2627 27.4526 12.9666 27.442 12.5859C27.4366 12.3533 27.4898 12.2635 27.7558 12.237C28.4897 12.1524 29.2024 11.9515 29.8566 11.592C31.7554 10.5558 32.5212 8.85339 32.7021 6.81262C32.7287 6.50066 32.6968 6.17809 32.367 6.01433ZM15.8206 24.3811C12.9805 22.1501 11.603 21.4152 11.0339 21.4469C10.502 21.4786 10.5978 22.0867 10.7147 22.4832C10.8371 22.8744 10.9967 23.1441 11.22 23.4877C11.3742 23.715 11.4807 24.0533 11.0658 24.3072C10.151 24.8729 8.56067 24.1168 8.48617 24.0799C6.63536 22.9907 5.08762 21.5526 3.99724 19.586C2.94414 17.6931 2.33255 15.663 2.23145 13.4953C2.20485 12.972 2.35908 12.7868 2.88032 12.6917C3.56642 12.5648 4.27383 12.5383 4.95992 12.6388C7.85866 13.0618 10.3265 14.3571 12.3954 16.4084C13.5761 17.5768 14.4696 18.9727 15.3898 20.3367C16.3684 21.7852 17.4215 23.1652 18.7618 24.2966C19.2352 24.6931 19.6128 24.9944 19.9745 25.2166C18.8842 25.3381 17.0652 25.3646 15.8206 24.3811ZM17.1822 15.6313C17.1822 15.3986 17.3684 15.2136 17.6025 15.2136C17.6557 15.2136 17.7035 15.2241 17.7461 15.2399C17.8046 15.2612 17.8578 15.2929 17.9003 15.3404C17.9748 15.4145 18.0173 15.5201 18.0173 15.6312C18.0173 15.8638 17.8312 16.0488 17.5972 16.0488C17.3633 16.0488 17.1822 15.8639 17.1822 15.6313ZM21.4106 17.7989C21.1393 17.91 20.8681 18.0051 20.6075 18.0157C20.2033 18.0368 19.7618 17.8729 19.5225 17.672C19.1502 17.36 18.8842 17.1856 18.7726 16.6411C18.7247 16.4084 18.7513 16.0489 18.7939 15.8428C18.8896 15.3986 18.7832 15.1132 18.4695 14.854C18.2141 14.6425 17.8897 14.5844 17.5333 14.5844C17.4003 14.5844 17.2781 14.5262 17.1876 14.4787C17.0387 14.4047 16.9164 14.2196 17.0334 13.9923C17.0706 13.9183 17.2515 13.7385 17.2941 13.7068C17.7781 13.4318 18.3365 13.5218 18.8524 13.7279C19.3312 13.9236 19.6928 14.2831 20.214 14.7906C20.7459 15.4038 20.8416 15.5732 21.1447 16.033C21.3842 16.3926 21.6022 16.7626 21.7511 17.1856C21.8415 17.45 21.7244 17.6667 21.4106 17.7989Z" fill="white"/>
<path d="M69.4429 12.6043C68.6904 12.6043 67.9319 12.7693 67.4394 13.2339C67.3966 13.2737 67.3569 13.3164 67.3171 13.3593H66.9562V12.6043H64.9772V24.4878H66.9562V17.1034C66.9562 16.3424 67.1213 15.5783 67.5801 15.0801C68.039 14.5788 68.7424 14.4015 69.4429 14.4015C70.1402 14.4015 70.8468 14.5788 71.3056 15.0801C71.7644 15.5783 71.9295 16.3424 71.9295 17.1034C71.9295 17.8614 71.7644 18.6256 71.3056 19.1237C70.8468 19.625 70.1402 19.8022 69.4429 19.8022H68.3173V21.5994H69.4429C70.6082 21.5994 71.7797 21.3029 72.5444 20.4716C73.309 19.6402 73.5813 18.3688 73.5813 17.1034C73.5813 15.838 73.309 14.5634 72.5444 13.7321C71.7797 12.9008 70.6082 12.6043 69.4429 12.6043ZM41.7986 17.4152C41.7986 18.1762 41.6334 18.9403 41.1746 19.4385C40.7158 19.9367 40.0123 20.117 39.3119 20.117C38.6114 20.117 37.9079 19.9367 37.4492 19.4385C36.9904 18.9403 36.8252 18.1762 36.8252 17.4152C36.8252 16.6571 36.9904 15.89 37.4492 15.3918C37.908 14.8936 38.6114 14.7163 39.3119 14.7163H40.4375V12.9191H39.3119C38.1465 12.9191 36.975 13.2156 36.2104 14.0469C35.4457 14.8783 35.1735 16.1497 35.1735 17.4152C35.1735 18.6806 35.4457 19.9551 36.2104 20.7864C36.975 21.6177 38.1465 21.9142 39.3119 21.9142C40.0643 21.9142 40.8198 21.7461 41.3153 21.2846C41.3581 21.2449 41.3979 21.2021 41.4346 21.1593H41.7986V21.9142H43.7775V10.0278H41.7986V17.4152ZM49.4085 12.6043C48.1973 12.6043 46.9799 12.913 46.1846 13.7719C45.3925 14.6308 45.108 15.9481 45.108 17.2593C45.108 18.5675 45.3925 19.8878 46.1846 20.7467C46.9799 21.6056 48.1972 21.9143 49.4085 21.9143C50.6198 21.9143 51.8371 21.6056 52.6324 20.7467C53.0392 20.3035 53.3145 19.7411 53.4858 19.1176H51.5282C51.4732 19.2001 51.412 19.2796 51.3447 19.353C50.8676 19.8696 50.1365 20.0529 49.4086 20.0529C48.6837 20.0529 47.9527 19.8696 47.4755 19.353C46.9984 18.8364 46.8271 18.0448 46.8271 17.2594C46.8271 16.4739 46.9984 15.6822 47.4755 15.1657C47.9527 14.6492 48.6837 14.4658 49.4086 14.4658C50.1366 14.4658 50.8676 14.6492 51.3447 15.1657C51.6751 15.5233 51.8586 16.0093 51.9412 16.5381H48.4421V17.9807H53.7121V17.2594C53.7121 15.9482 53.4277 14.6308 52.6324 13.7719C51.8403 12.9131 50.6198 12.6043 49.4085 12.6043ZM59.3431 12.6043C58.1349 12.6043 56.9145 12.913 56.1223 13.7719C55.327 14.6308 55.0426 15.9481 55.0426 17.2593C55.0426 18.5675 55.3271 19.8878 56.1223 20.7467C56.9145 21.6056 58.1349 21.9143 59.3431 21.9143C60.5543 21.9143 61.7717 21.6056 62.567 20.7467C62.9768 20.3035 63.249 19.7411 63.4203 19.1176H61.4628C61.4078 19.2001 61.3466 19.2796 61.2793 19.353C60.8021 19.8696 60.0711 20.0529 59.3462 20.0529C58.6182 20.0529 57.8872 19.8696 57.41 19.353C56.9329 18.8364 56.7616 18.0448 56.7616 17.2594C56.7616 16.4739 56.9329 15.6822 57.41 15.1657C57.8872 14.6492 58.6182 14.4658 59.3462 14.4658C60.0711 14.4658 60.8021 14.6492 61.2793 15.1657C61.6097 15.5233 61.7932 16.0093 61.8757 16.5381H58.3766V17.9807H63.6467V17.2594C63.6467 15.9482 63.3623 14.6308 62.567 13.7719C61.7748 12.9131 60.5544 12.6043 59.3431 12.6043ZM82.4361 17.1064C81.6439 16.5991 80.4235 16.4188 79.2153 16.4188H79.2581C78.7412 16.4188 78.2212 16.3485 77.8818 16.1498C77.5422 15.9542 77.423 15.6516 77.423 15.3521C77.423 15.0526 77.5422 14.75 77.8818 14.5544C78.2213 14.3557 78.7413 14.2854 79.2581 14.2854C79.775 14.2854 80.295 14.3588 80.6315 14.5544C80.971 14.75 81.0934 15.0526 81.0934 15.3521H83.1091C83.1091 14.5788 82.8491 13.8025 82.1303 13.2951C81.4115 12.7877 80.3104 12.6044 79.2153 12.6044C78.1203 12.6044 77.0192 12.7877 76.3004 13.2951C75.5816 13.8025 75.3247 14.5788 75.3247 15.3521C75.3247 16.1254 75.5816 16.9047 76.3004 17.4091C77.0192 17.9165 78.1203 18.0998 79.2153 18.0998C79.7843 18.0998 80.4082 18.1701 80.7814 18.3657C81.1576 18.5644 81.2922 18.8669 81.2922 19.1665C81.2922 19.466 81.1576 19.7686 80.7814 19.9642C80.4082 20.1598 79.8332 20.2301 79.2612 20.2301C78.6923 20.2301 78.1173 20.1598 77.7411 19.9642C77.3679 19.7655 77.2333 19.466 77.2333 19.1665H74.9118C74.9118 19.9367 75.1963 20.7161 75.9915 21.2235C76.7867 21.7308 78.0041 21.9111 79.2153 21.9111C80.4235 21.9111 81.6439 21.7308 82.4361 21.2235C83.2314 20.7161 83.5158 19.9367 83.5158 19.1665C83.5158 18.3932 83.2314 17.6138 82.4361 17.1064ZM89.1499 12.6043C87.9387 12.6043 86.7213 12.913 85.926 13.7719C85.1338 14.6308 84.8463 15.9481 84.8463 17.2593C84.8463 18.5675 85.1338 19.8878 85.926 20.7467C86.7213 21.6056 87.9386 21.9143 89.1499 21.9143C90.3612 21.9143 91.5785 21.6056 92.3737 20.7467C92.7805 20.3035 93.0558 19.7411 93.224 19.1176H91.2695C91.2145 19.2001 91.1533 19.2796 91.086 19.353C90.6089 19.8696 89.8778 20.0529 89.1498 20.0529C88.425 20.0529 87.6908 19.8696 87.2168 19.353C86.7396 18.8364 86.5683 18.0448 86.5683 17.2594C86.5683 16.4739 86.7397 15.6822 87.2168 15.1657C87.6908 14.6492 88.425 14.4658 89.1498 14.4658C89.8778 14.4658 90.6089 14.6492 91.086 15.1657C91.4164 15.5233 91.5999 16.0093 91.6825 16.5381H88.1803V17.9807H93.4534V17.2594C93.4534 15.9482 93.169 14.6308 92.3737 13.7719C91.5785 12.9131 90.3611 12.6043 89.1499 12.6043ZM99.0845 12.6043C97.8732 12.6043 96.6559 12.913 95.8607 13.7719C95.0685 14.6308 94.781 15.9481 94.781 17.2593C94.781 18.5675 95.0685 19.8878 95.8607 20.7467C96.6559 21.6056 97.8732 21.9143 99.0845 21.9143C100.296 21.9143 101.513 21.6056 102.308 20.7467C102.715 20.3035 102.99 19.7411 103.162 19.1176H101.204C101.149 19.2001 101.088 19.2796 101.021 19.353C100.544 19.8696 99.8125 20.0529 99.0845 20.0529C98.3596 20.0529 97.6255 19.8696 97.1514 19.353C96.6743 18.8364 96.503 18.0448 96.503 17.2594C96.503 16.4739 96.6743 15.6822 97.1514 15.1657C97.6255 14.6492 98.3596 14.4658 99.0845 14.4658C99.8125 14.4658 100.544 14.6492 101.021 15.1657C101.351 15.5233 101.535 16.0093 101.617 16.5381H98.118V17.9807H103.388V17.2594C103.388 15.9482 103.104 14.6308 102.308 13.7719C101.513 12.9131 100.296 12.6043 99.0845 12.6043ZM104.716 9.61206H106.694V21.9143H104.716V9.61206ZM110.87 13.0169L107.621 16.9812L110.87 21.9143H113.323L110.074 16.9812L113.323 13.0169H110.87Z" fill="white"/>
</g>
<defs>
<clipPath id="clip0_14_333">
<rect width="113" height="32" fill="white"/>
</clipPath>
</defs>
</svg>
