<svg width="124" height="77" viewBox="0 0 124 77" fill="none" xmlns="http://www.w3.org/2000/svg">
<path d="M122 75.6689L1 75.6689" stroke="#181818"/>
<path d="M122 1.84473L1 1.84473" stroke="#181818"/>
<line x1="1.5" y1="1.84473" x2="1.5" y2="75.6686" stroke="#181818"/>
<line x1="122.5" y1="1.84473" x2="122.5" y2="75.6686" stroke="#181818"/>
<mask id="mask0_1_2679" style="mask-type:alpha" maskUnits="userSpaceOnUse" x="2" y="27" width="120" height="23">
<rect x="2" y="27.5718" width="120" height="22.3709" fill="white"/>
</mask>
<g mask="url(#mask0_1_2679)">
<path d="M8.89613 50.5322H1.4989V31.3069H8.82103C10.7986 31.3069 12.5071 31.6918 13.9465 32.4616C15.3922 33.2251 16.5061 34.3265 17.2884 35.7659C18.077 37.1991 18.4712 38.9169 18.4712 40.9196C18.4712 42.9222 18.0801 44.6432 17.2978 46.0826C16.5155 47.5158 15.4078 48.6172 13.9747 49.387C12.5416 50.1505 10.8487 50.5322 8.89613 50.5322ZM6.71826 46.1014H8.70838C9.65963 46.1014 10.4701 45.9481 11.1397 45.6414C11.8156 45.3348 12.3288 44.8059 12.6792 44.055C13.036 43.304 13.2143 42.2588 13.2143 40.9196C13.2143 39.5803 13.0328 38.5352 12.6698 37.7842C12.3131 37.0332 11.7874 36.5044 11.0928 36.1977C10.4044 35.8911 9.5595 35.7378 8.55818 35.7378H6.71826V46.1014Z" fill="white"/>
<path d="M26.5288 25.4402V44.6655H21.3094V25.4402H26.5288Z" fill="white"/>
<path d="M39.3762 39.0746C39.3261 38.4488 39.0915 37.9606 38.6722 37.6102C38.2591 37.2597 37.6302 37.0845 36.7853 37.0845C36.2471 37.0845 35.8059 37.1502 35.4617 37.2816C35.1237 37.4068 34.8734 37.5789 34.7107 37.7979C34.548 38.017 34.4635 38.2673 34.4572 38.5489C34.4447 38.7805 34.4854 38.9901 34.5793 39.1779C34.6794 39.3594 34.8359 39.5252 35.0486 39.6754C35.2614 39.8193 35.5336 39.9508 35.8653 40.0697C36.197 40.1886 36.5913 40.295 37.0481 40.3888L38.6252 40.7268C39.6891 40.9521 40.5997 41.2493 41.3569 41.6186C42.1142 41.9878 42.7337 42.4228 43.2156 42.9234C43.6975 43.4178 44.0511 43.9748 44.2764 44.5944C44.508 45.2139 44.6269 45.8898 44.6331 46.622C44.6269 47.8862 44.3108 48.9564 43.685 49.8325C43.0592 50.7087 42.1642 51.3752 41.0002 51.832C39.8424 52.2889 38.45 52.5173 36.8228 52.5173C35.1519 52.5173 33.6937 52.2701 32.4483 51.7757C31.2092 51.2813 30.2454 50.5209 29.557 49.4946C28.8749 48.462 28.5307 47.1415 28.5244 45.5331H33.4809C33.5122 46.1214 33.6593 46.6158 33.9222 47.0163C34.185 47.4168 34.5542 47.7204 35.0299 47.9269C35.5117 48.1334 36.0844 48.2367 36.7477 48.2367C37.3047 48.2367 37.771 48.1678 38.1465 48.0301C38.522 47.8925 38.8067 47.7016 39.0007 47.4575C39.1947 47.2134 39.2948 46.9349 39.3011 46.622C39.2948 46.3279 39.1978 46.0713 39.0101 45.8523C38.8286 45.627 38.5282 45.4267 38.1089 45.2515C37.6896 45.07 37.1232 44.901 36.4098 44.7446L34.4948 44.3315C32.7925 43.9623 31.4502 43.3458 30.4676 42.4822C29.4913 41.6123 29.0063 40.4264 29.0126 38.9244C29.0063 37.704 29.3317 36.637 29.9889 35.7233C30.6522 34.8034 31.5691 34.0868 32.7393 33.5736C33.9159 33.0604 35.2645 32.8038 36.7853 32.8038C38.3373 32.8038 39.6797 33.0636 40.8125 33.583C41.9452 34.1024 42.8182 34.8346 43.4315 35.7796C44.0511 36.7184 44.364 37.8167 44.3703 39.0746H39.3762Z" fill="white"/>
<path d="M64.5686 34.4095H59.2741C59.2366 33.9714 59.1365 33.574 58.9737 33.2173C58.8173 32.8606 58.5983 32.5539 58.3166 32.2973C58.0413 32.0345 57.7065 31.8342 57.3122 31.6965C56.9179 31.5526 56.4705 31.4806 55.9698 31.4806C55.0936 31.4806 54.352 31.6934 53.745 32.119C53.1442 32.5445 52.6873 33.1547 52.3744 33.9495C52.0678 34.7443 51.9145 35.6987 51.9145 36.8126C51.9145 37.9892 52.0709 38.9749 52.3838 39.7697C52.703 40.5582 53.163 41.1527 53.7638 41.5533C54.3646 41.9475 55.0874 42.1447 55.9322 42.1447C56.4141 42.1447 56.8459 42.0852 57.2277 41.9663C57.6094 41.8411 57.9411 41.6628 58.2228 41.4312C58.5044 41.1997 58.7328 40.9212 58.908 40.5957C59.0895 40.2641 59.2116 39.8917 59.2741 39.4787L64.5686 39.5162C64.506 40.3298 64.2776 41.159 63.8833 42.0039C63.4891 42.8425 62.9289 43.6185 62.203 44.3319C61.4833 45.0391 60.5915 45.6086 59.5276 46.0404C58.4637 46.4722 57.2277 46.6881 55.8196 46.6881C54.0548 46.6881 52.4714 46.3095 51.0696 45.5523C49.674 44.795 48.5694 43.6811 47.7559 42.2104C46.9485 40.7397 46.5449 38.9404 46.5449 36.8126C46.5449 34.6723 46.9579 32.87 47.784 31.4055C48.6101 29.9348 49.7241 28.824 51.1259 28.073C52.5278 27.3158 54.0923 26.9372 55.8196 26.9372C57.0337 26.9372 58.1508 27.103 59.1709 27.4347C60.191 27.7664 61.0859 28.2514 61.8557 28.8897C62.6254 29.5218 63.245 30.301 63.7144 31.2272C64.1837 32.1534 64.4685 33.2142 64.5686 34.4095Z" fill="white"/>
<path d="M85.6058 45.6134C85.6058 47.7537 85.1897 49.5592 84.3573 51.0299C83.525 52.4944 82.4016 53.6052 80.9872 54.3624C79.5729 55.1134 77.9958 55.4889 76.256 55.4889C74.5037 55.4889 72.9204 55.1103 71.506 54.3531C70.0979 53.5895 68.9777 52.4756 68.1453 51.0112C67.3193 49.5405 66.9062 47.7412 66.9062 45.6134C66.9062 43.4731 67.3193 41.6707 68.1453 40.2063C68.9777 38.7356 70.0979 37.6248 71.506 36.8738C72.9204 36.1166 74.5037 35.7379 76.256 35.7379C77.9958 35.7379 79.5729 36.1166 80.9872 36.8738C82.4016 37.6248 83.525 38.7356 84.3573 40.2063C85.1897 41.6707 85.6058 43.4731 85.6058 45.6134ZM80.2363 45.6134C80.2363 44.4619 80.0829 43.4919 79.7763 42.7033C79.4759 41.9086 79.0284 41.3078 78.4339 40.901C77.8456 40.4879 77.1197 40.2814 76.256 40.2814C75.3924 40.2814 74.6633 40.4879 74.0688 40.901C73.4805 41.3078 73.033 41.9086 72.7264 42.7033C72.426 43.4919 72.2758 44.4619 72.2758 45.6134C72.2758 46.7649 72.426 47.7381 72.7264 48.5329C73.033 49.3214 73.4805 49.9222 74.0688 50.3353C74.6633 50.742 75.3924 50.9454 76.256 50.9454C77.1197 50.9454 77.8456 50.742 78.4339 50.3353C79.0284 49.9222 79.4759 49.3214 79.7763 48.5329C80.0829 47.7381 80.2363 46.7649 80.2363 45.6134Z" fill="white"/>
<path d="M87.3407 50.5322V31.3069H95.6391C97.066 31.3069 98.3145 31.5666 99.3847 32.0861C100.455 32.6055 101.287 33.3534 101.882 34.3297C102.476 35.3059 102.773 36.4762 102.773 37.8405C102.773 39.2173 102.467 40.3782 101.854 41.3232C101.246 42.2682 100.392 42.9817 99.2908 43.4636C98.1956 43.9454 96.9158 44.1864 95.4514 44.1864H90.4948V40.131H94.4C95.0133 40.131 95.5359 40.0559 95.9677 39.9057C96.4057 39.7493 96.7406 39.5021 96.9721 39.1641C97.2099 38.8262 97.3288 38.385 97.3288 37.8405C97.3288 37.2898 97.2099 36.8423 96.9721 36.4981C96.7406 36.1477 96.4057 35.8911 95.9677 35.7284C95.5359 35.5594 95.0133 35.4749 94.4 35.4749H92.5601V50.5322H87.3407ZM98.6055 41.7081L103.412 50.5322H97.7419L93.0482 41.7081H98.6055Z" fill="white"/>
<path d="M112.345 46.4253H104.948V27.2H112.27C114.248 27.2 115.956 27.5849 117.396 28.3546C118.841 29.1181 119.955 30.2196 120.738 31.659C121.526 33.0921 121.92 34.81 121.92 36.8126C121.92 38.8153 121.529 40.5363 120.747 41.9757C119.965 43.4088 118.857 44.5103 117.424 45.28C115.991 46.0435 114.298 46.4253 112.345 46.4253ZM110.167 41.9945H112.158C113.109 41.9945 113.919 41.8411 114.589 41.5345C115.265 41.2278 115.778 40.699 116.128 39.948C116.485 39.197 116.664 38.1519 116.664 36.8126C116.664 35.4734 116.482 34.4283 116.119 33.6773C115.762 32.9263 115.237 32.3975 114.542 32.0908C113.854 31.7842 113.009 31.6308 112.007 31.6308H110.167V41.9945Z" fill="white"/>
</g>
<path d="M123.378 5.68116V1H118.697" stroke="white" stroke-width="0.550725"/>
<path d="M123.101 72.0005L123.101 76.6816L118.42 76.6816" stroke="white" stroke-width="0.550725"/>
<path d="M0.494622 5.68116V1H5.17578" stroke="white" stroke-width="0.550725"/>
<path d="M0.494141 72.001L0.494141 76.6821L5.1753 76.6821" stroke="white" stroke-width="0.550725"/>
</svg>
