<svg width="72" height="32" viewBox="0 0 72 32" fill="none" xmlns="http://www.w3.org/2000/svg">
<g clip-path="url(#clip0_14_312)">
<path d="M31.2007 16.7247C31.2007 20.1488 28.522 22.672 25.2346 22.672C21.9472 22.672 19.2684 20.1488 19.2684 16.7247C19.2684 13.2764 21.9472 10.7773 25.2346 10.7773C28.522 10.7773 31.2007 13.2764 31.2007 16.7247ZM28.589 16.7247C28.589 14.5849 27.0365 13.1209 25.2346 13.1209C23.4327 13.1209 21.8801 14.5849 21.8801 16.7247C21.8801 18.843 23.4327 20.3285 25.2346 20.3285C27.0365 20.3285 28.589 18.8403 28.589 16.7247Z" fill="white"/>
<path d="M44.0714 16.7247C44.0714 20.1488 41.3927 22.672 38.1053 22.672C34.8179 22.672 32.1392 20.1488 32.1392 16.7247C32.1392 13.2791 34.8179 10.7773 38.1053 10.7773C41.3927 10.7773 44.0714 13.2764 44.0714 16.7247ZM41.4597 16.7247C41.4597 14.5849 39.9072 13.1209 38.1053 13.1209C36.3034 13.1209 34.7508 14.5849 34.7508 16.7247C34.7508 18.843 36.3034 20.3285 38.1053 20.3285C39.9072 20.3285 41.4597 18.8403 41.4597 16.7247Z" fill="white"/>
<path d="M56.4058 11.1367V21.814C56.4058 26.2061 53.8156 28 50.7534 28C47.8709 28 46.1361 26.0721 45.4818 24.4954L47.7556 23.5489C48.1605 24.5169 49.1526 25.6591 50.7508 25.6591C52.7109 25.6591 53.9255 24.4498 53.9255 22.1733V21.3179H53.8344C53.2498 22.0392 52.1236 22.6694 50.7025 22.6694C47.7288 22.6694 45.0045 20.0791 45.0045 16.7461C45.0045 13.389 47.7288 10.7773 50.7025 10.7773C52.121 10.7773 53.2472 11.4075 53.8344 12.1073H53.9255V11.1393H56.4058V11.1367ZM54.1106 16.7461C54.1106 14.652 52.7136 13.1209 50.9358 13.1209C49.1339 13.1209 47.6242 14.652 47.6242 16.7461C47.6242 18.8189 49.1339 20.3285 50.9358 20.3285C52.7136 20.3285 54.1106 18.8189 54.1106 16.7461Z" fill="white"/>
<path d="M60.4951 4.87817V22.3073H57.9478V4.87817H60.4951Z" fill="white"/>
<path d="M70.4215 18.6821L72.4487 20.0335C71.7944 21.0015 70.2178 22.6694 67.4934 22.6694C64.1149 22.6694 61.5917 20.0577 61.5917 16.722C61.5917 13.1852 64.1363 10.7747 67.2012 10.7747C70.2875 10.7747 71.7971 13.2308 72.2905 14.5581L72.5613 15.2338L64.6109 18.5266C65.2196 19.7198 66.1662 20.3285 67.4934 20.3285C68.8234 20.3285 69.7458 19.6742 70.4215 18.6821ZM64.1819 16.5424L69.4965 14.3356C69.2042 13.5928 68.3247 13.0753 67.2897 13.0753C65.9624 13.0753 64.1149 14.2471 64.1819 16.5424Z" fill="white"/>
<path d="M9.62603 15.1776V12.6544H18.1288C18.2119 13.0942 18.2548 13.6144 18.2548 14.1775C18.2548 16.0705 17.7373 18.4114 16.0694 20.0792C14.4472 21.7685 12.3745 22.6695 9.62871 22.6695C4.53941 22.6695 0.259888 18.524 0.259888 13.4347C0.259888 8.3454 4.53941 4.19995 9.62871 4.19995C12.4442 4.19995 14.4499 5.30469 15.9568 6.7446L14.1764 8.52505C13.0958 7.51148 11.6317 6.72315 9.62603 6.72315C5.9096 6.72315 3.00296 9.71828 3.00296 13.4347C3.00296 17.1511 5.9096 20.1463 9.62603 20.1463C12.0366 20.1463 13.4095 19.1783 14.289 18.2988C15.0022 17.5855 15.4715 16.5666 15.6565 15.1749L9.62603 15.1776Z" fill="white"/>
</g>
<defs>
<clipPath id="clip0_14_312">
<rect width="72" height="32" fill="white"/>
</clipPath>
</defs>
</svg>
