<svg width="1204" height="291" viewBox="0 0 1204 291" fill="none" xmlns="http://www.w3.org/2000/svg">
<rect x="2.5" y="1.5" width="1199" height="288" fill="black"/>
<rect x="2.5" y="1.5" width="1199" height="288" stroke="#191919"/>
<line x1="802.5" y1="1" x2="802.5" y2="290" stroke="#181818"/>
<line x1="1202" y1="128.5" x2="802" y2="128.5" stroke="#181818"/>
<line x1="1202" y1="67.5" x2="802" y2="67.5" stroke="#181818"/>
<line x1="1202" y1="220.5" x2="802" y2="220.5" stroke="#181818"/>
<line x1="1202" y1="157.5" x2="802" y2="157.5" stroke="#181818"/>
<line x1="894.5" y1="1" x2="894.5" y2="290" stroke="#181818"/>
<line x1="1113.5" y1="1" x2="1113.5" y2="290" stroke="#181818"/>
<line x1="582.5" y1="1" x2="582.5" y2="290" stroke="#181818" stroke-dasharray="8 8"/>
<mask id="mask0_3_6698" style="mask-type:alpha" maskUnits="userSpaceOnUse" x="894" y="128" width="219" height="29">
<rect x="894" y="128" width="219" height="29" fill="white"/>
</mask>
<g mask="url(#mask0_3_6698)">
<path d="M907.682 162H894.25V127.091H907.545C911.136 127.091 914.239 127.79 916.852 129.188C919.477 130.574 921.5 132.574 922.92 135.188C924.352 137.79 925.068 140.909 925.068 144.545C925.068 148.182 924.358 151.307 922.938 153.92C921.517 156.523 919.506 158.523 916.903 159.92C914.301 161.307 911.227 162 907.682 162ZM903.727 153.955H907.341C909.068 153.955 910.54 153.676 911.756 153.119C912.983 152.562 913.915 151.602 914.551 150.239C915.199 148.875 915.523 146.977 915.523 144.545C915.523 142.114 915.193 140.216 914.534 138.852C913.886 137.489 912.932 136.528 911.67 135.972C910.42 135.415 908.886 135.136 907.068 135.136H903.727V153.955Z" fill="white"/>
<path d="M939.727 117.091V152H930.25V117.091H939.727Z" fill="white"/>
<path d="M963.068 141C962.977 139.864 962.551 138.977 961.79 138.341C961.04 137.705 959.898 137.386 958.364 137.386C957.386 137.386 956.585 137.506 955.96 137.744C955.347 137.972 954.892 138.284 954.597 138.682C954.301 139.08 954.148 139.534 954.136 140.045C954.114 140.466 954.188 140.847 954.358 141.188C954.54 141.517 954.824 141.818 955.21 142.091C955.597 142.352 956.091 142.591 956.693 142.807C957.295 143.023 958.011 143.216 958.841 143.386L961.705 144C963.636 144.409 965.29 144.949 966.665 145.619C968.04 146.29 969.165 147.08 970.04 147.989C970.915 148.886 971.557 149.898 971.966 151.023C972.386 152.148 972.602 153.375 972.614 154.705C972.602 157 972.028 158.943 970.892 160.534C969.756 162.125 968.131 163.335 966.017 164.165C963.915 164.994 961.386 165.409 958.432 165.409C955.398 165.409 952.75 164.96 950.489 164.062C948.239 163.165 946.489 161.784 945.239 159.92C944 158.045 943.375 155.648 943.364 152.727H952.364C952.42 153.795 952.688 154.693 953.165 155.42C953.642 156.148 954.313 156.699 955.176 157.074C956.051 157.449 957.091 157.636 958.295 157.636C959.307 157.636 960.153 157.511 960.835 157.261C961.517 157.011 962.034 156.665 962.386 156.222C962.739 155.778 962.92 155.273 962.932 154.705C962.92 154.17 962.744 153.705 962.403 153.307C962.074 152.898 961.528 152.534 960.767 152.216C960.006 151.886 958.977 151.58 957.682 151.295L954.205 150.545C951.114 149.875 948.676 148.756 946.892 147.188C945.119 145.608 944.239 143.455 944.25 140.727C944.239 138.511 944.83 136.574 946.023 134.915C947.227 133.244 948.892 131.943 951.017 131.011C953.153 130.08 955.602 129.614 958.364 129.614C961.182 129.614 963.619 130.085 965.676 131.028C967.733 131.972 969.318 133.301 970.432 135.017C971.557 136.722 972.125 138.716 972.136 141H963.068Z" fill="white"/>
<path d="M1008.84 133.182H999.227C999.159 132.386 998.977 131.665 998.682 131.017C998.398 130.369 998 129.812 997.489 129.347C996.989 128.869 996.381 128.506 995.665 128.256C994.949 127.994 994.136 127.864 993.227 127.864C991.636 127.864 990.29 128.25 989.188 129.023C988.097 129.795 987.267 130.903 986.699 132.347C986.142 133.79 985.864 135.523 985.864 137.545C985.864 139.682 986.148 141.472 986.716 142.915C987.295 144.347 988.131 145.426 989.222 146.153C990.313 146.869 991.625 147.227 993.159 147.227C994.034 147.227 994.818 147.119 995.511 146.903C996.205 146.676 996.807 146.352 997.318 145.932C997.83 145.511 998.244 145.006 998.562 144.415C998.892 143.812 999.114 143.136 999.227 142.386L1008.84 142.455C1008.73 143.932 1008.31 145.437 1007.6 146.972C1006.88 148.494 1005.86 149.903 1004.55 151.199C1003.24 152.483 1001.62 153.517 999.688 154.301C997.756 155.085 995.511 155.477 992.955 155.477C989.75 155.477 986.875 154.79 984.33 153.415C981.795 152.04 979.79 150.017 978.312 147.347C976.847 144.676 976.114 141.409 976.114 137.545C976.114 133.659 976.864 130.386 978.364 127.727C979.864 125.057 981.886 123.04 984.432 121.676C986.977 120.301 989.818 119.614 992.955 119.614C995.159 119.614 997.188 119.915 999.04 120.517C1000.89 121.119 1002.52 122 1003.91 123.159C1005.31 124.307 1006.44 125.722 1007.29 127.403C1008.14 129.085 1008.66 131.011 1008.84 133.182Z" fill="white"/>
<path d="M1047.07 152.545C1047.07 156.432 1046.31 159.71 1044.8 162.381C1043.29 165.04 1041.25 167.057 1038.68 168.432C1036.11 169.795 1033.25 170.477 1030.09 170.477C1026.91 170.477 1024.03 169.79 1021.47 168.415C1018.91 167.028 1016.88 165.006 1015.36 162.347C1013.86 159.676 1013.11 156.409 1013.11 152.545C1013.11 148.659 1013.86 145.386 1015.36 142.727C1016.88 140.057 1018.91 138.04 1021.47 136.676C1024.03 135.301 1026.91 134.614 1030.09 134.614C1033.25 134.614 1036.11 135.301 1038.68 136.676C1041.25 138.04 1043.29 140.057 1044.8 142.727C1046.31 145.386 1047.07 148.659 1047.07 152.545ZM1037.32 152.545C1037.32 150.455 1037.04 148.693 1036.48 147.261C1035.94 145.818 1035.13 144.727 1034.05 143.989C1032.98 143.239 1031.66 142.864 1030.09 142.864C1028.52 142.864 1027.2 143.239 1026.12 143.989C1025.05 144.727 1024.24 145.818 1023.68 147.261C1023.14 148.693 1022.86 150.455 1022.86 152.545C1022.86 154.636 1023.14 156.403 1023.68 157.847C1024.24 159.278 1025.05 160.369 1026.12 161.119C1027.2 161.858 1028.52 162.227 1030.09 162.227C1031.66 162.227 1032.98 161.858 1034.05 161.119C1035.13 160.369 1035.94 159.278 1036.48 157.847C1037.04 156.403 1037.32 154.636 1037.32 152.545Z" fill="white"/>
<path d="M1050.25 162V127.091H1065.32C1067.91 127.091 1070.18 127.562 1072.12 128.506C1074.06 129.449 1075.57 130.807 1076.65 132.58C1077.73 134.352 1078.27 136.477 1078.27 138.955C1078.27 141.455 1077.72 143.562 1076.6 145.278C1075.5 146.994 1073.95 148.29 1071.95 149.165C1069.96 150.04 1067.64 150.477 1064.98 150.477H1055.98V143.114H1063.07C1064.18 143.114 1065.13 142.977 1065.91 142.705C1066.71 142.42 1067.32 141.972 1067.74 141.358C1068.17 140.744 1068.39 139.943 1068.39 138.955C1068.39 137.955 1068.17 137.142 1067.74 136.517C1067.32 135.881 1066.71 135.415 1065.91 135.119C1065.13 134.812 1064.18 134.659 1063.07 134.659H1059.73V162H1050.25ZM1070.7 145.977L1079.43 162H1069.14L1060.61 145.977H1070.7Z" fill="white"/>
<path d="M1095.68 155H1082.25V120.091H1095.55C1099.14 120.091 1102.24 120.79 1104.85 122.188C1107.48 123.574 1109.5 125.574 1110.92 128.188C1112.35 130.79 1113.07 133.909 1113.07 137.545C1113.07 141.182 1112.36 144.307 1110.94 146.92C1109.52 149.523 1107.51 151.523 1104.9 152.92C1102.3 154.307 1099.23 155 1095.68 155ZM1091.73 146.955H1095.34C1097.07 146.955 1098.54 146.676 1099.76 146.119C1100.98 145.562 1101.91 144.602 1102.55 143.239C1103.2 141.875 1103.52 139.977 1103.52 137.545C1103.52 135.114 1103.19 133.216 1102.53 131.852C1101.89 130.489 1100.93 129.528 1099.67 128.972C1098.42 128.415 1096.89 128.136 1095.07 128.136H1091.73V146.955Z" fill="white"/>
</g>
<path d="M1113.5 76V67.5H1105" stroke="white"/>
<path d="M1113.5 212L1113.5 220.5L1105 220.5" stroke="white"/>
<path d="M895 76V67.5H903.5" stroke="white"/>
<path d="M895 212L895 220.5L903.5 220.5" stroke="white"/>
<rect x="666.5" y="45.5" width="106" height="49" rx="24.5" stroke="#292929" stroke-opacity="0.24"/>
<rect x="671.5" y="50.5" width="96" height="39" rx="19.5" stroke="#292929" stroke-opacity="0.48"/>
<rect x="676.5" y="55.5" width="86" height="29" rx="14.5" fill="black"/>
<rect x="676.5" y="55.5" width="86" height="29" rx="14.5" stroke="#585858"/>
<path d="M691.233 75V64.8182H694.673C695.472 64.8182 696.125 64.9624 696.632 65.2507C697.143 65.5357 697.52 65.9219 697.766 66.4091C698.011 66.8963 698.134 67.4399 698.134 68.0398C698.134 68.6397 698.011 69.1849 697.766 69.6754C697.524 70.166 697.149 70.5571 696.642 70.8487C696.135 71.1371 695.485 71.2812 694.693 71.2812H692.227V70.1875H694.653C695.2 70.1875 695.639 70.093 695.971 69.9041C696.302 69.7152 696.543 69.46 696.692 69.1385C696.844 68.8137 696.92 68.4474 696.92 68.0398C696.92 67.6321 696.844 67.2675 696.692 66.946C696.543 66.6245 696.301 66.3726 695.966 66.1903C695.631 66.0047 695.187 65.9119 694.634 65.9119H692.466V75H691.233ZM702.981 75.1591C702.291 75.1591 701.687 74.995 701.166 74.6669C700.649 74.3388 700.245 73.8797 699.953 73.2898C699.665 72.6998 699.521 72.0104 699.521 71.2216C699.521 70.4261 699.665 69.7318 699.953 69.1385C700.245 68.5452 700.649 68.0845 701.166 67.7564C701.687 67.4283 702.291 67.2642 702.981 67.2642C703.67 67.2642 704.273 67.4283 704.79 67.7564C705.311 68.0845 705.715 68.5452 706.004 69.1385C706.295 69.7318 706.441 70.4261 706.441 71.2216C706.441 72.0104 706.295 72.6998 706.004 73.2898C705.715 73.8797 705.311 74.3388 704.79 74.6669C704.273 74.995 703.67 75.1591 702.981 75.1591ZM702.981 74.1051C703.504 74.1051 703.935 73.9709 704.273 73.7024C704.612 73.4339 704.862 73.081 705.024 72.6435C705.187 72.206 705.268 71.732 705.268 71.2216C705.268 70.7112 705.187 70.2356 705.024 69.7947C704.862 69.3539 704.612 68.9976 704.273 68.7259C703.935 68.4541 703.504 68.3182 702.981 68.3182C702.457 68.3182 702.026 68.4541 701.688 68.7259C701.35 68.9976 701.1 69.3539 700.938 69.7947C700.775 70.2356 700.694 70.7112 700.694 71.2216C700.694 71.732 700.775 72.206 700.938 72.6435C701.1 73.081 701.35 73.4339 701.688 73.7024C702.026 73.9709 702.457 74.1051 702.981 74.1051ZM709.702 75L707.376 67.3636H708.609L710.259 73.2102H710.339L711.969 67.3636H713.222L714.833 73.1903H714.913L716.563 67.3636H717.796L715.469 75H714.316L712.646 69.1335H712.526L710.856 75H709.702ZM722.289 75.1591C721.553 75.1591 720.919 74.9967 720.385 74.6719C719.855 74.3438 719.445 73.8864 719.157 73.2997C718.872 72.7098 718.73 72.0237 718.73 71.2415C718.73 70.4593 718.872 69.7699 719.157 69.1733C719.445 68.5734 719.847 68.1061 720.36 67.7713C720.877 67.4332 721.481 67.2642 722.17 67.2642C722.568 67.2642 722.96 67.3305 723.348 67.4631C723.736 67.5956 724.089 67.8111 724.407 68.1094C724.725 68.4044 724.979 68.7955 725.168 69.2827C725.357 69.7699 725.451 70.3698 725.451 71.0824V71.5795H719.565V70.5653H724.258C724.258 70.1345 724.172 69.75 723.999 69.4119C723.83 69.0739 723.588 68.8071 723.274 68.6115C722.962 68.416 722.594 68.3182 722.17 68.3182C721.703 68.3182 721.298 68.4342 720.957 68.6662C720.619 68.8949 720.359 69.1932 720.176 69.5611C719.994 69.929 719.903 70.3234 719.903 70.7443V71.4205C719.903 71.9972 720.002 72.486 720.201 72.8871C720.403 73.2848 720.683 73.5881 721.041 73.7969C721.399 74.0024 721.815 74.1051 722.289 74.1051C722.597 74.1051 722.876 74.062 723.124 73.9759C723.376 73.8864 723.593 73.7538 723.776 73.5781C723.958 73.3991 724.099 73.1771 724.198 72.9119L725.332 73.2301C725.213 73.6146 725.012 73.9527 724.73 74.2443C724.449 74.5327 724.101 74.758 723.686 74.9205C723.272 75.0795 722.806 75.1591 722.289 75.1591ZM727.236 75V67.3636H728.369V68.517H728.449C728.588 68.1392 728.84 67.8326 729.205 67.5973C729.569 67.362 729.98 67.2443 730.438 67.2443C730.524 67.2443 730.632 67.246 730.761 67.2493C730.89 67.2526 730.988 67.2576 731.054 67.2642V68.4574C731.014 68.4474 730.923 68.4325 730.781 68.4126C730.642 68.3894 730.494 68.3778 730.338 68.3778C729.967 68.3778 729.636 68.4557 729.344 68.6115C729.056 68.764 728.827 68.9761 728.658 69.2479C728.492 69.5163 728.409 69.8229 728.409 70.1676V75H727.236ZM736.324 67.3636V68.358H732.208V67.3636H736.324ZM733.441 75V66.3097C733.441 65.8722 733.543 65.5076 733.749 65.2159C733.954 64.9242 734.221 64.7055 734.549 64.5597C734.877 64.4138 735.224 64.3409 735.588 64.3409C735.877 64.3409 736.112 64.3641 736.294 64.4105C736.477 64.4569 736.612 64.5 736.702 64.5398L736.364 65.554C736.304 65.5341 736.221 65.5092 736.115 65.4794C736.012 65.4496 735.877 65.4347 735.708 65.4347C735.32 65.4347 735.04 65.5324 734.867 65.728C734.698 65.9235 734.614 66.2102 734.614 66.5881V75H733.441ZM742.781 71.8778V67.3636H743.954V75H742.781V73.7074H742.701C742.522 74.0952 742.244 74.425 741.866 74.6967C741.488 74.9652 741.011 75.0994 740.434 75.0994C739.957 75.0994 739.533 74.995 739.162 74.7862C738.79 74.5741 738.499 74.2559 738.287 73.8317C738.074 73.4041 737.968 72.8655 737.968 72.2159V67.3636H739.142V72.1364C739.142 72.6932 739.297 73.1373 739.609 73.4688C739.924 73.8002 740.325 73.9659 740.812 73.9659C741.104 73.9659 741.4 73.8913 741.702 73.7422C742.007 73.593 742.262 73.3643 742.468 73.0561C742.676 72.7479 742.781 72.3551 742.781 71.8778ZM747.276 64.8182V75H746.103V64.8182H747.276Z" fill="white"/>
<path d="M720.5 94V144C720.5 150.627 715.127 156 708.5 156H700" stroke="#292929"/>
<path d="M642.5 207.5L642.5 168C642.5 161.373 647.873 156 654.5 156L664 156" stroke="#292929"/>
<rect x="591.5" y="207.5" width="123" height="49" rx="24.5" stroke="#292929" stroke-opacity="0.24"/>
<rect x="596.5" y="212.5" width="113" height="39" rx="19.5" stroke="#292929" stroke-opacity="0.48"/>
<rect x="601.5" y="217.5" width="103" height="29" rx="14.5" fill="black"/>
<rect x="601.5" y="217.5" width="103" height="29" rx="14.5" stroke="#585858"/>
<path d="M624.426 230H623.193C623.12 229.645 622.993 229.334 622.81 229.065C622.631 228.797 622.413 228.571 622.154 228.389C621.899 228.204 621.616 228.064 621.304 227.972C620.992 227.879 620.668 227.832 620.33 227.832C619.713 227.832 619.155 227.988 618.654 228.3C618.157 228.611 617.761 229.07 617.466 229.677C617.174 230.283 617.028 231.027 617.028 231.909C617.028 232.791 617.174 233.535 617.466 234.141C617.761 234.748 618.157 235.207 618.654 235.518C619.155 235.83 619.713 235.986 620.33 235.986C620.668 235.986 620.992 235.939 621.304 235.847C621.616 235.754 621.899 235.616 622.154 235.434C622.413 235.248 622.631 235.021 622.81 234.753C622.993 234.481 623.12 234.17 623.193 233.818H624.426C624.333 234.339 624.164 234.804 623.919 235.215C623.674 235.626 623.369 235.976 623.004 236.264C622.64 236.549 622.23 236.766 621.776 236.915C621.326 237.065 620.843 237.139 620.33 237.139C619.461 237.139 618.689 236.927 618.013 236.503C617.337 236.079 616.805 235.475 616.417 234.693C616.029 233.911 615.835 232.983 615.835 231.909C615.835 230.835 616.029 229.907 616.417 229.125C616.805 228.343 617.337 227.74 618.013 227.315C618.689 226.891 619.461 226.679 620.33 226.679C620.843 226.679 621.326 226.754 621.776 226.903C622.23 227.052 622.64 227.271 623.004 227.559C623.369 227.844 623.674 228.192 623.919 228.603C624.164 229.011 624.333 229.476 624.426 230ZM629.362 237.159C628.672 237.159 628.067 236.995 627.547 236.667C627.03 236.339 626.626 235.88 626.334 235.29C626.046 234.7 625.901 234.01 625.901 233.222C625.901 232.426 626.046 231.732 626.334 231.138C626.626 230.545 627.03 230.085 627.547 229.756C628.067 229.428 628.672 229.264 629.362 229.264C630.051 229.264 630.654 229.428 631.171 229.756C631.692 230.085 632.096 230.545 632.384 231.138C632.676 231.732 632.822 232.426 632.822 233.222C632.822 234.01 632.676 234.7 632.384 235.29C632.096 235.88 631.692 236.339 631.171 236.667C630.654 236.995 630.051 237.159 629.362 237.159ZM629.362 236.105C629.885 236.105 630.316 235.971 630.654 235.702C630.992 235.434 631.243 235.081 631.405 234.643C631.567 234.206 631.649 233.732 631.649 233.222C631.649 232.711 631.567 232.236 631.405 231.795C631.243 231.354 630.992 230.998 630.654 230.726C630.316 230.454 629.885 230.318 629.362 230.318C628.838 230.318 628.407 230.454 628.069 230.726C627.731 230.998 627.481 231.354 627.318 231.795C627.156 232.236 627.075 232.711 627.075 233.222C627.075 233.732 627.156 234.206 627.318 234.643C627.481 235.081 627.731 235.434 628.069 235.702C628.407 235.971 628.838 236.105 629.362 236.105ZM634.613 237V229.364H635.746V230.557H635.846C636.005 230.149 636.262 229.833 636.616 229.607C636.971 229.379 637.397 229.264 637.894 229.264C638.398 229.264 638.817 229.379 639.152 229.607C639.49 229.833 639.754 230.149 639.942 230.557H640.022C640.218 230.162 640.511 229.849 640.902 229.617C641.293 229.382 641.762 229.264 642.309 229.264C642.992 229.264 643.55 229.478 643.984 229.906C644.419 230.33 644.636 230.991 644.636 231.889V237H643.462V231.889C643.462 231.326 643.308 230.923 643 230.681C642.692 230.439 642.329 230.318 641.911 230.318C641.374 230.318 640.958 230.481 640.663 230.805C640.368 231.127 640.221 231.535 640.221 232.028V237H639.028V231.77C639.028 231.336 638.887 230.986 638.605 230.721C638.323 230.452 637.96 230.318 637.516 230.318C637.211 230.318 636.926 230.399 636.661 230.562C636.399 230.724 636.187 230.95 636.025 231.238C635.866 231.523 635.786 231.853 635.786 232.227V237H634.613ZM646.781 237V229.364H647.914V230.557H648.014C648.173 230.149 648.43 229.833 648.784 229.607C649.139 229.379 649.565 229.264 650.062 229.264C650.566 229.264 650.985 229.379 651.32 229.607C651.658 229.833 651.922 230.149 652.11 230.557H652.19C652.386 230.162 652.679 229.849 653.07 229.617C653.461 229.382 653.93 229.264 654.477 229.264C655.16 229.264 655.718 229.478 656.152 229.906C656.587 230.33 656.804 230.991 656.804 231.889V237H655.63V231.889C655.63 231.326 655.476 230.923 655.168 230.681C654.86 230.439 654.497 230.318 654.079 230.318C653.542 230.318 653.126 230.481 652.831 230.805C652.536 231.127 652.389 231.535 652.389 232.028V237H651.196V231.77C651.196 231.336 651.055 230.986 650.773 230.721C650.491 230.452 650.128 230.318 649.684 230.318C649.379 230.318 649.094 230.399 648.829 230.562C648.567 230.724 648.355 230.95 648.193 231.238C648.034 231.523 647.954 231.853 647.954 232.227V237H646.781ZM663.761 233.878V229.364H664.935V237H663.761V235.707H663.682C663.503 236.095 663.224 236.425 662.847 236.697C662.469 236.965 661.991 237.099 661.415 237.099C660.938 237.099 660.513 236.995 660.142 236.786C659.771 236.574 659.479 236.256 659.267 235.832C659.055 235.404 658.949 234.866 658.949 234.216V229.364H660.122V234.136C660.122 234.693 660.278 235.137 660.589 235.469C660.904 235.8 661.305 235.966 661.793 235.966C662.084 235.966 662.381 235.891 662.683 235.742C662.987 235.593 663.243 235.364 663.448 235.056C663.657 234.748 663.761 234.355 663.761 233.878ZM668.257 232.406V237H667.084V229.364H668.217V230.557H668.317C668.496 230.169 668.767 229.857 669.132 229.622C669.497 229.384 669.967 229.264 670.544 229.264C671.061 229.264 671.513 229.37 671.901 229.582C672.289 229.791 672.59 230.109 672.806 230.537C673.021 230.961 673.129 231.498 673.129 232.148V237H671.956V232.227C671.956 231.627 671.8 231.16 671.488 230.825C671.177 230.487 670.749 230.318 670.206 230.318C669.831 230.318 669.497 230.399 669.202 230.562C668.91 230.724 668.68 230.961 668.51 231.273C668.341 231.584 668.257 231.962 668.257 232.406ZM675.273 237V229.364H676.446V237H675.273ZM675.87 228.091C675.641 228.091 675.444 228.013 675.278 227.857C675.116 227.701 675.034 227.514 675.034 227.295C675.034 227.077 675.116 226.889 675.278 226.734C675.444 226.578 675.641 226.5 675.87 226.5C676.098 226.5 676.294 226.578 676.456 226.734C676.622 226.889 676.705 227.077 676.705 227.295C676.705 227.514 676.622 227.701 676.456 227.857C676.294 228.013 676.098 228.091 675.87 228.091ZM681.916 229.364V230.358H677.959V229.364H681.916ZM679.112 227.534H680.286V234.812C680.286 235.144 680.334 235.393 680.43 235.558C680.529 235.721 680.655 235.83 680.808 235.886C680.963 235.939 681.128 235.966 681.3 235.966C681.429 235.966 681.535 235.959 681.618 235.946C681.701 235.929 681.767 235.916 681.817 235.906L682.056 236.96C681.976 236.99 681.865 237.02 681.722 237.05C681.58 237.083 681.399 237.099 681.181 237.099C680.849 237.099 680.524 237.028 680.206 236.886C679.891 236.743 679.629 236.526 679.421 236.234C679.215 235.943 679.112 235.575 679.112 235.131V227.534ZM684.437 239.864C684.238 239.864 684.061 239.847 683.905 239.814C683.749 239.784 683.642 239.754 683.582 239.724L683.88 238.69C684.165 238.763 684.417 238.79 684.636 238.77C684.855 238.75 685.048 238.652 685.218 238.477C685.39 238.304 685.547 238.024 685.69 237.636L685.909 237.04L683.085 229.364H684.357L686.465 235.449H686.545L688.653 229.364H689.926L686.684 238.114C686.538 238.508 686.358 238.835 686.142 239.093C685.927 239.355 685.677 239.549 685.392 239.675C685.11 239.801 684.792 239.864 684.437 239.864Z" fill="white"/>
<path d="M691.268 148.33C689.938 147.71 688.498 147.26 686.998 147C686.985 147 686.972 147.002 686.96 147.007C686.948 147.012 686.937 147.02 686.928 147.03C686.748 147.36 686.538 147.79 686.398 148.12C684.807 147.88 683.189 147.88 681.598 148.12C681.458 147.78 681.248 147.36 681.058 147.03C681.048 147.01 681.018 147 680.988 147C679.488 147.26 678.058 147.71 676.718 148.33C676.708 148.33 676.698 148.34 676.688 148.35C673.968 152.42 673.218 156.38 673.588 160.3C673.588 160.32 673.598 160.34 673.618 160.35C675.418 161.67 677.148 162.47 678.858 163C678.888 163.01 678.918 163 678.928 162.98C679.328 162.43 679.688 161.85 679.998 161.24C680.018 161.2 679.998 161.16 679.958 161.15C679.388 160.93 678.848 160.67 678.318 160.37C678.278 160.35 678.278 160.29 678.308 160.26C678.418 160.18 678.528 160.09 678.638 160.01C678.658 159.99 678.688 159.99 678.708 160C682.148 161.57 685.858 161.57 689.258 160C689.278 159.99 689.308 159.99 689.328 160.01C689.438 160.1 689.548 160.18 689.658 160.27C689.698 160.3 689.698 160.36 689.648 160.38C689.128 160.69 688.578 160.94 688.008 161.16C687.968 161.17 687.958 161.22 687.968 161.25C688.288 161.86 688.648 162.44 689.038 162.99C689.068 163 689.098 163.01 689.128 163C690.848 162.47 692.578 161.67 694.378 160.35C694.398 160.34 694.408 160.32 694.408 160.3C694.848 155.77 693.678 151.84 691.308 148.35C691.298 148.34 691.288 148.33 691.268 148.33ZM680.518 157.91C679.488 157.91 678.628 156.96 678.628 155.79C678.628 154.62 679.468 153.67 680.518 153.67C681.578 153.67 682.418 154.63 682.408 155.79C682.408 156.96 681.568 157.91 680.518 157.91ZM687.488 157.91C686.458 157.91 685.598 156.96 685.598 155.79C685.598 154.62 686.438 153.67 687.488 153.67C688.548 153.67 689.388 154.63 689.378 155.79C689.378 156.96 688.548 157.91 687.488 157.91Z" fill="white"/>
<circle cx="683.5" cy="154.5" r="18" stroke="#292929"/>
<circle cx="2" cy="2" r="2" fill="#515151"/>
<circle cx="803" cy="67" r="2" fill="#515151"/>
<circle cx="583" cy="2" r="2" fill="#515151"/>
<circle cx="803" cy="158" r="2" fill="#515151"/>
<circle cx="803" cy="128" r="2" fill="#515151"/>
<circle cx="803" cy="220" r="2" fill="#515151"/>
<ellipse cx="582.998" cy="289" rx="1.99833" ry="2" fill="#515151"/>
<ellipse cx="1202" cy="289" rx="1.99833" ry="2" fill="#515151"/>
<ellipse cx="1.99833" cy="289" rx="1.99833" ry="2" fill="#515151"/>
</svg>
