<svg width="158" height="11" viewBox="0 0 158 11" fill="none" xmlns="http://www.w3.org/2000/svg">
<path d="M17.5717 0.00215534H2.57333L6.3199 2.59547H17.5717C18.0101 2.59547 18.3664 2.95632 18.3664 3.39553V5.33003L20.9423 7.11003V3.39553C20.9399 2.49627 20.5841 1.6345 19.9525 0.998626C19.3209 0.362749 18.4649 0.00448581 17.5717 0.00215534Z" fill="white" style="fill:white;fill-opacity:1;"/>
<path d="M9.69046 10.9961H24.6888L20.9422 8.40391H9.68936C9.47895 8.40275 9.27749 8.31809 9.1287 8.1683C8.97992 8.01851 8.89582 7.81568 8.89467 7.60385V5.66935L6.31987 3.88824V7.60385C6.3216 8.50319 6.67731 9.36517 7.30908 10.001C7.94084 10.6368 8.79716 10.9947 9.69046 10.9961Z" fill="white" style="fill:white;fill-opacity:1;"/>
<path d="M26.2183 8.40695H28.7931V10.9992H26.2172V8.40584L26.2183 8.40695Z" fill="white" style="fill:white;fill-opacity:1;"/>
<path d="M2.5759 3.88824H0V10.9983H2.5759V3.88824Z" fill="white" style="fill:white;fill-opacity:1;"/>
<path d="M0 0V2.22142L2.48273 3.94073L2.57481 3.88886V0H0Z" fill="white" style="fill:white;fill-opacity:1;"/>
<path d="M42.3698 0.00215534H44.9457V3.64824C44.9457 4.5421 44.5862 5.40728 43.9625 6.03629L40.0142 10.0112C39.703 10.3252 39.3333 10.5742 38.9262 10.7439C38.5192 10.9136 38.0828 11.0006 37.6422 11C36.7675 11 35.9103 10.6711 35.2548 10.0112L31.3066 6.03408C30.6785 5.39999 30.3251 4.54152 30.3234 3.64603V0.00215534H32.8993V3.63279C32.8993 3.8535 32.976 4.05544 33.1316 4.21435L37.0646 8.17274C37.1404 8.24871 37.2306 8.30865 37.3298 8.34902C37.429 8.38939 37.5352 8.40937 37.6422 8.40779C37.845 8.40779 38.0478 8.32944 38.2045 8.17274L42.1363 4.21435C42.2104 4.14015 42.2692 4.05193 42.3092 3.95477C42.3493 3.85761 42.3699 3.75344 42.3698 3.64824V0.00215534Z" fill="white" style="fill:white;fill-opacity:1;"/>
<path d="M61.0965 0.00215534V2.59547H49.8458C49.6352 2.59634 49.4335 2.68087 49.2845 2.83069C49.1354 2.98051 49.0512 3.18351 49.05 3.39553V4.21215H46.4741V3.39553C46.4756 2.496 46.8312 1.63373 47.463 0.997663C48.0947 0.361598 48.9512 0.00361444 49.8447 0.00215534H61.0965ZM49.8458 4.21215H61.0965V6.7889H49.8458C49.6335 6.79323 49.4312 6.88114 49.2825 7.03379C49.1337 7.18644 49.0503 7.39167 49.05 7.60552C49.05 8.04473 49.4085 8.40558 49.8458 8.40558H61.0965V10.9989H49.8458C48.9523 10.9974 48.0958 10.6395 47.4641 10.0034C46.8323 9.36732 46.4767 8.50505 46.4752 7.60552C46.4747 7.15973 46.5614 6.71821 46.7306 6.30624C46.8998 5.89428 47.1481 5.51997 47.4612 5.20475C47.7743 4.88953 48.1461 4.6396 48.5553 4.46927C48.9645 4.29894 49.403 4.21157 49.8458 4.21215Z" fill="white" style="fill:white;fill-opacity:1;"/>
<path d="M73.8767 0.00215534C74.7701 0.00361444 75.6266 0.361598 76.2584 0.997663C76.8902 1.63373 77.2458 2.496 77.2472 3.39553V11H74.6714V3.39553C74.6705 3.18351 74.5865 2.9804 74.4377 2.83037C74.2889 2.68034 74.0873 2.59552 73.8767 2.59436H65.9955C65.7849 2.59552 65.5833 2.68034 65.4344 2.83037C65.2856 2.9804 65.2017 3.18351 65.2008 3.39553V11H62.6249V3.39553C62.6264 2.496 62.9819 1.63373 63.6137 0.997663C64.2455 0.361598 65.102 0.00361444 65.9955 0.00215534H73.8767Z" fill="white" style="fill:white;fill-opacity:1;"/>
<path d="M87.3748 3.17267V10.9967H84.7989V3.39117C84.7977 3.17933 84.7136 2.97651 84.5649 2.82672C84.4161 2.67693 84.2146 2.59226 84.0042 2.5911H78.7757V0H84.0042C84.8595 0.000575027 85.6824 0.329203 86.3055 0.919012C86.9286 1.50882 87.3051 2.31549 87.3584 3.17487H87.3748V3.17267ZM87.3748 2.59221V0H93.398V2.59331L87.3748 2.59221Z" fill="white" style="fill:white;fill-opacity:1;"/>
<path d="M106.973 0.00215534H109.548V7.60662C109.546 8.50615 109.191 9.36842 108.559 10.0045C107.927 10.6406 107.071 10.9985 106.177 11H98.2959C97.4026 10.9982 96.5464 10.6401 95.9149 10.0041C95.2833 9.36807 94.9279 8.50596 94.9264 7.60662V0.0032588H97.5012V7.60662C97.5012 8.04693 97.8597 8.40779 98.297 8.40779H106.177C106.388 8.40692 106.59 8.32223 106.739 8.17217C106.888 8.02211 106.972 7.81884 106.973 7.60662V0.00215534Z" fill="white" style="fill:white;fill-opacity:1;"/>
<path d="M122.328 0.00215534C123.221 0.00361444 124.078 0.361598 124.71 0.997663C125.341 1.63373 125.697 2.496 125.698 3.39553V4.21215H123.124V3.39553C123.123 3.18331 123.039 2.98004 122.89 2.82998C122.741 2.67992 122.539 2.59523 122.328 2.59436H114.448C114.237 2.59552 114.035 2.6803 113.886 2.8303C113.737 2.9803 113.653 3.1834 113.652 3.39553V11H111.077V3.39553C111.079 2.496 111.434 1.63373 112.066 0.997663C112.698 0.361598 113.554 0.00361444 114.448 0.00215534H122.328ZM122.328 4.21215C122.771 4.21157 123.209 4.29894 123.618 4.46927C124.028 4.6396 124.399 4.88953 124.713 5.20475C125.026 5.51997 125.274 5.89428 125.443 6.30624C125.612 6.71821 125.699 7.15973 125.698 7.60552V10.9989H123.124V7.60552C123.125 7.49925 123.105 7.3938 123.066 7.29521C123.026 7.19661 122.968 7.10681 122.894 7.03095C122.82 6.95509 122.732 6.89466 122.635 6.85313C122.538 6.81159 122.433 6.78977 122.328 6.7889H115.181V4.21215H122.328Z" fill="white" style="fill:white;fill-opacity:1;"/>
<path d="M141.849 0.00215534V2.59547H130.599C130.388 2.59634 130.186 2.68087 130.037 2.83069C129.888 2.98051 129.804 3.18351 129.803 3.39553V4.21215H127.228V3.39553C127.229 2.496 127.585 1.63373 128.217 0.997663C128.849 0.361598 129.705 0.00361444 130.599 0.00215534H141.849ZM130.599 4.21215H141.849V6.7889H130.599C130.386 6.79323 130.184 6.88114 130.035 7.03379C129.886 7.18644 129.803 7.39167 129.803 7.60552C129.803 8.04473 130.161 8.40558 130.599 8.40558H141.849V10.9989H130.599C129.705 10.9974 128.849 10.6395 128.217 10.0034C127.585 9.36732 127.229 8.50505 127.228 7.60552C127.228 7.15977 127.314 6.71832 127.484 6.30642C127.653 5.89452 127.901 5.52026 128.214 5.20507C128.527 4.88988 128.899 4.63994 129.308 4.46956C129.717 4.29919 130.156 4.21171 130.599 4.21215Z" fill="white" style="fill:white;fill-opacity:1;"/>
<path d="M146.749 0.00215534H156.472V2.59547H146.749C146.536 2.59547 146.332 2.68069 146.181 2.83238C146.031 2.98408 145.946 3.18983 145.946 3.40436C145.946 3.61889 146.031 3.82463 146.181 3.97633C146.332 4.12803 146.536 4.21325 146.749 4.21325H154.629C155.072 4.21267 155.511 4.30001 155.92 4.47027C156.329 4.64052 156.701 4.89036 157.014 5.20546C157.327 5.52056 157.575 5.89475 157.744 6.30658C157.914 6.71842 158 7.15982 158 7.60552C157.999 8.50505 157.643 9.36732 157.011 10.0034C156.379 10.6395 155.523 10.9974 154.629 10.9989H143.379V8.40558H154.629C154.84 8.40471 155.042 8.32018 155.191 8.17036C155.34 8.02053 155.424 7.81754 155.425 7.60552C155.426 7.49925 155.407 7.3938 155.367 7.29521C155.328 7.19661 155.27 7.10681 155.196 7.03095C155.122 6.95509 155.034 6.89466 154.936 6.85313C154.839 6.81159 154.735 6.78977 154.629 6.7889H146.749C146.307 6.78948 145.868 6.70211 145.459 6.53178C145.05 6.36145 144.678 6.11152 144.365 5.7963C144.052 5.48108 143.803 5.10677 143.634 4.69481C143.465 4.28284 143.378 3.84132 143.379 3.39553C143.38 2.496 143.736 1.63373 144.368 0.997663C144.999 0.361598 145.856 0.00361444 146.749 0.00215534Z" fill="white" style="fill:white;fill-opacity:1;"/>
</svg>
