<svg width="85" height="28" viewBox="0 0 85 28" fill="none" xmlns="http://www.w3.org/2000/svg">
  <path d="M18.2414 4.79006C18.086 7.98861 17.0442 10.6742 15.0953 12.9909C12.9695 15.5178 10.2713 17.1159 7.02929 17.7373C6.03774 17.927 5.01307 18.0172 4.00324 18.0183C2.25203 18.0206 0.684745 16.7995 0.178688 15.1614C-0.447313 13.1337 0.665325 10.9244 2.71354 10.247C3.30527 10.0517 3.95412 9.97971 4.58241 9.95001C7.24862 9.82435 9.55615 7.69503 9.85659 5.04366C9.92284 4.46335 9.91028 3.85791 10.0782 3.30845C10.9132 0.577116 14.3528 -0.472693 16.6284 1.2808C17.781 2.17182 18.3339 3.44096 18.2414 4.79006Z" fill="white" />
  <path d="M7.62231 19.156C10.517 18.4843 13.0359 17.1649 15.2109 15.095C15.5536 15.5873 15.8951 16.0363 16.1944 16.5115C17.523 18.6179 18.2095 20.9255 18.2415 23.4123C18.2735 25.7918 16.3464 27.6424 13.9634 27.5705C11.9426 27.5099 10.3148 26.1688 9.95497 24.236C9.86815 23.7676 9.89328 23.2798 9.82588 22.8069C9.61684 21.3447 8.9063 20.1692 7.7434 19.2634C7.7137 19.2394 7.68629 19.2131 7.62231 19.156Z" fill="white" />
  <path d="M0.000507706 10.2025C0.000507706 9.57645 0.000507706 8.99272 0.000507706 8.40898C0.000507706 7.12728 -0.000634633 5.84557 0.000507706 4.56387C0.00279238 2.04387 2.18009 0.141878 4.68752 0.468587C6.5621 0.713048 7.9706 2.01646 8.29046 3.80422C8.6503 5.81131 7.32404 7.83781 5.29068 8.33587C4.79262 8.45696 4.26714 8.47067 3.75195 8.51179C2.34459 8.62488 1.13142 9.16293 0.1136 10.1408C0.0998918 10.1533 0.0804714 10.159 0.000507706 10.2025Z" fill="white" />
  <path d="M0.0131359 17.8138C0.808204 18.5015 1.62269 19.059 2.60396 19.2886C3.13172 19.412 3.68004 19.4885 4.22151 19.5056C6.02069 19.5639 7.62454 20.6982 8.15687 22.3307C8.89368 24.5902 7.43034 27.0302 5.05999 27.494C2.76846 27.943 0.606009 26.5881 0.0930993 24.372C0.0302706 24.099 0.00628279 23.81 0.00514045 23.529C-0.00285592 21.6898 0.000571239 19.8495 0.00171358 18.0103C0.00171358 17.9635 0.00628189 17.9167 0.0131359 17.8138Z" fill="white" />
  <path d="M26.9408 22V5.27451H29.9706V12.9594H30.1748L36.7 5.27451H40.3995L33.9315 12.7797L40.4567 22H36.8143L31.8245 14.8296L29.9706 17.0183V22H26.9408ZM41.8146 22V5.27451H48.0867C49.3716 5.27451 50.4496 5.49773 51.3207 5.94418C52.1973 6.39063 52.8588 7.01674 53.3052 7.82253C53.7571 8.62287 53.9831 9.5566 53.9831 10.6237C53.9831 11.6963 53.7544 12.6273 53.297 13.4168C52.8452 14.2008 52.1782 14.8078 51.2962 15.2379C50.4142 15.6626 49.3307 15.8749 48.0458 15.8749H43.5786V13.3596H47.6375C48.3888 13.3596 49.0041 13.2561 49.4832 13.0492C49.9623 12.8369 50.3162 12.5293 50.5449 12.1264C50.779 11.7181 50.896 11.2172 50.896 10.6237C50.896 10.0303 50.779 9.52394 50.5449 9.10471C50.3107 8.68004 49.9541 8.35881 49.475 8.14103C48.9959 7.91781 48.3779 7.8062 47.6212 7.8062H44.8445V22H41.8146ZM50.455 14.4213L54.5956 22H51.2145L47.1475 14.4213H50.455ZM56.0821 22V5.27451H66.9602V7.81436H59.1119V12.3551H66.3967V14.8949H59.1119V19.4601H67.0255V22H56.0821ZM71.5092 22H68.2752L74.1634 5.27451H77.9038L83.8002 22H80.5661L76.0989 8.70454H75.9683L71.5092 22ZM71.6154 15.4421H80.4355V17.8758H71.6154V15.4421Z" fill="white" />
</svg>