<svg width="162" height="27" viewBox="0 0 162 27" fill="none" xmlns="http://www.w3.org/2000/svg">
  <path d="M25.6719 19.1045C25.6279 19.0675 25.5584 19.0073 25.4705 18.9286V8.52875L25.526 8.44309H25.5307C25.577 8.44309 25.6256 8.43846 25.6719 8.4292V19.1045Z" fill="white" />
  <path d="M25.5694 20.79C25.7014 20.79 25.8287 20.7553 25.9422 20.6951L25.6412 21.1442C25.6412 21.1442 24.6457 22.619 23.7265 23.6701C23.3191 24.0428 22.9811 24.3531 22.6986 24.6124C21.9323 25.1842 21.1382 25.5222 20.8557 25.2629C20.8789 25.2051 20.909 25.1287 20.9414 25.0453C21.8188 24.5151 22.6291 23.8808 23.3631 23.1445C23.4441 23.0635 23.5251 22.9825 23.6038 22.8991C23.6038 22.8991 23.6062 22.8968 23.6085 22.8945C23.6363 22.8667 23.6617 22.8389 23.6872 22.8112C23.6895 22.8088 23.6918 22.8065 23.6941 22.8042C24.2891 22.1629 24.8147 21.4707 25.2638 20.7298C25.3611 20.7715 25.4629 20.7923 25.5694 20.7923V20.79Z" fill="white" />
  <path d="M25.1764 8.35742C25.2667 8.40373 25.3662 8.43151 25.4704 8.44077V8.52875L22.4444 13.2193C22.3912 12.9739 22.3426 12.7331 22.2986 12.497L25.0907 8.48476L25.174 8.35742H25.1764Z" fill="white" />
  <path d="M24.0904 4.78722C24.403 5.15996 25.2851 6.23421 25.6787 6.90562C25.63 6.89636 25.5791 6.89173 25.5282 6.89173C25.3916 6.89173 25.2596 6.92646 25.1415 6.99591C25.0883 7.02601 25.0397 7.06305 24.9957 7.10473C24.5234 6.39165 23.9793 5.72255 23.3635 5.10903C23.2431 4.98864 23.1204 4.87056 22.9954 4.7548C23.3982 4.71545 23.7918 4.74555 24.0904 4.78722Z" fill="white" />
  <path d="M18.668 4.26415L24.8796 7.2438C24.8426 7.29936 24.8148 7.36187 24.794 7.42438L18.9875 4.6369C18.8879 4.50956 18.7814 4.38455 18.6703 4.26184L18.668 4.26415Z" fill="white" />
  <path d="M24.0903 4.78735C24.1922 4.80124 24.2825 4.81745 24.3589 4.83134C25.0002 5.52358 25.5697 6.28297 26.0559 7.09791C25.9517 7.00068 25.8198 6.93585 25.6786 6.90575C25.285 6.23203 24.4029 5.1601 24.0903 4.78735Z" fill="white" />
  <path d="M21.0554 19.746C21.1272 19.7784 21.199 19.8108 21.2707 19.8409C21.5393 19.9497 21.8241 20.0192 22.0649 20.0632C22.007 20.378 21.8611 21.1073 21.6157 21.9315L20.5854 22.4316C20.7915 21.4268 20.9906 20.1673 21.0554 19.7483V19.746Z" fill="white" />
  <path d="M22.2246 16.0787C21.9491 15.1734 21.574 13.8723 21.3633 11.7701C21.3633 11.7632 21.3633 11.7562 21.3633 11.7493C21.1781 9.92721 20.729 8.51957 20.6155 8.18619C20.2636 8.13062 19.8423 8.03339 19.4209 7.86438C19.5529 8.07506 19.8099 8.53347 20.0205 9.20719C20.3192 10.161 20.3701 11.4066 20.3701 11.4066C20.3701 11.4066 20.3748 11.5432 20.3863 11.7608C20.4072 12.1498 20.4442 12.805 20.4975 13.4231C20.5808 14.3909 20.7406 15.9791 21.3518 17.5025C21.9213 18.924 23.4262 19.8038 24.8176 19.8385C24.8338 19.7645 24.8616 19.6927 24.901 19.6255C24.9889 19.475 25.1232 19.3593 25.2783 19.2968C23.5767 18.9819 22.4839 16.9283 22.2246 16.0787Z" fill="white" />
  <path d="M17.0733 11.5846C16.6682 11.5592 16.3718 11.1934 16.3718 11.1795C16.3718 11.1656 16.7052 10.9178 16.9807 10.8669C17.2562 10.816 17.6406 10.9827 17.8119 11.066C17.8535 11.0869 17.8906 11.1007 17.9207 11.1123L17.8999 11.1864C17.8883 11.1864 17.8744 11.1887 17.8582 11.1957C17.7702 11.2327 17.4785 11.6101 17.0733 11.5869V11.5846Z" fill="white" />
  <path d="M15.0469 26.8234C15.0469 26.8234 16.9477 26.6937 18.1238 25.9668C19.2976 25.2398 20.1843 24.1725 20.4737 22.9454C20.4945 22.8598 20.5131 22.7695 20.5339 22.6769L21.5341 22.1907C21.3373 22.8088 21.0849 23.4594 20.77 24.0081C20.7515 24.0428 20.7307 24.0776 20.7099 24.11C20.1936 24.9666 19.3485 25.7514 18.2534 26.2654C17.2394 26.5918 16.1906 26.7886 15.1164 26.8512C15.077 26.8535 15.0353 26.8558 14.9937 26.8581L15.0469 26.8187V26.8234Z" fill="white" />
  <path d="M14.9939 26.8627C15.0356 26.8627 15.0749 26.8581 15.1166 26.8558C16.1885 26.7933 17.2373 26.5965 18.2537 26.2677C17.3299 26.7006 16.2232 26.9414 14.9846 26.8673L14.9962 26.8604L14.9939 26.8627Z" fill="white" />
  <path d="M14.3407 25.4272C14.4611 25.4272 14.6047 25.4666 14.8617 25.5662C15.2992 25.7352 15.6396 25.844 15.7438 25.8764C15.4266 26.3881 15.0376 26.6589 15.0376 26.6589C15.0376 26.6589 14.8431 26.8465 14.5121 26.8789C14.4588 26.8835 14.4009 26.8835 14.3407 26.8789C14.2806 26.8835 14.2227 26.8835 14.1694 26.8789C13.8384 26.8488 13.6439 26.6589 13.6439 26.6589C13.6439 26.6589 13.2549 26.3881 12.9377 25.8764C13.0419 25.844 13.3823 25.7329 13.8198 25.5662C14.0745 25.4666 14.2204 25.4272 14.3407 25.4272Z" fill="white" />
  <path d="M13.6973 26.8697C12.4586 26.9437 11.352 26.703 10.4282 26.27C11.4423 26.5965 12.4911 26.7932 13.5653 26.8581C13.6047 26.8604 13.6463 26.8627 13.688 26.865C13.688 26.865 13.6926 26.8673 13.6996 26.872L13.6973 26.8697Z" fill="white" />
  <path d="M13.0769 11.8139C13.0815 11.8347 13.1255 12.6751 13.0399 12.9923C12.9542 13.3118 12.7366 13.5132 12.4912 13.8721C12.2434 14.2309 12.2041 14.5018 12.1416 14.812C12.0953 15.0459 12.0675 15.3654 12.0582 15.5066C11.8105 15.6617 11.5767 15.8909 11.5767 15.8909C11.5767 15.833 11.5697 15.7775 11.5558 15.7196C11.6044 15.6548 11.6669 15.539 11.6438 15.4001C11.6091 15.1848 11.4864 14.5319 10.9029 13.4345C10.3195 12.3348 10.0046 11.6356 10.0046 11.6356C10.0046 11.6356 10.8103 11.9435 11.1808 12.101C11.5512 12.2584 11.8174 12.1774 12.1022 11.9574C12.387 11.7352 12.5328 11.5685 12.806 11.5731C12.9171 11.6541 13.0699 11.793 13.0746 11.8139H13.0769Z" fill="white" />
  <path d="M10.431 26.27C9.33593 25.7561 8.49088 24.9712 7.9746 24.1146C7.95376 24.0799 7.93292 24.0452 7.9144 24.0127C7.60185 23.4617 7.34718 22.8135 7.15039 22.1953L8.15055 22.6815C8.17139 22.7741 8.19222 22.8644 8.21075 22.9501C8.50014 24.1771 9.38455 25.2444 10.5607 25.9714C11.7345 26.6984 13.6375 26.828 13.6375 26.828L13.6908 26.865C13.6491 26.865 13.6098 26.8604 13.5681 26.8581C12.4962 26.7956 11.4451 26.5988 10.431 26.2724V26.27Z" fill="white" />
  <path d="M11.7023 10.8669C11.9778 10.9178 12.3112 11.1679 12.3112 11.1795C12.3112 11.191 12.0149 11.5591 11.6097 11.5846C11.2045 11.6101 10.9152 11.2304 10.8249 11.1933C10.8087 11.1864 10.7948 11.1841 10.7809 11.1841L10.7739 11.1054C10.8017 11.0938 10.8341 11.0822 10.8688 11.0637C11.0402 10.9804 11.4245 10.8137 11.7 10.8646L11.7023 10.8669Z" fill="white" />
  <path d="M17.36 20.8433C17.36 20.8294 17.3345 20.3062 17.2998 19.6857C17.2651 19.056 17.1864 18.5513 16.809 17.9771C16.7881 17.9447 16.7673 17.9123 16.7442 17.8822C16.6724 17.9702 16.4756 18.1438 16.0635 18.1577C15.5194 18.1739 15.0008 17.91 14.9846 17.903C15.0124 18.0188 15.1258 18.2411 15.5264 18.5999C16.0056 19.0305 16.3297 19.4102 16.6215 19.7737C16.6631 19.827 16.7048 19.8779 16.7465 19.9311C16.802 20.0006 16.8553 20.0677 16.9109 20.1372C17.0359 20.2946 17.1401 20.4497 17.2234 20.5887C17.279 20.6836 17.3253 20.7716 17.3623 20.8433H17.36Z" fill="white" />
  <path d="M12.621 18.1577C12.2065 18.1438 12.0121 17.9702 11.9403 17.8822C11.9172 17.9123 11.8963 17.9447 11.8755 17.9771C11.4981 18.5513 11.4194 19.0537 11.3847 19.6857C11.3499 20.3085 11.3245 20.8294 11.3245 20.8433C11.3615 20.7692 11.4078 20.6836 11.4634 20.5887C11.5467 20.4497 11.6486 20.2946 11.7759 20.1372C11.8315 20.0701 11.8847 20.0006 11.9403 19.9311C11.982 19.8802 12.0236 19.827 12.0653 19.7737C12.357 19.4102 12.6812 19.0282 13.1604 18.5999C13.5609 18.2411 13.6744 18.0188 13.7022 17.903C13.686 17.9123 13.1674 18.1739 12.6233 18.1577H12.621Z" fill="white" />
  <path d="M8.06922 8.18619C8.42113 8.13062 8.84249 8.03339 9.26386 7.86438C9.13189 8.07506 8.87491 8.53347 8.66423 9.20719C8.36557 10.161 8.31463 11.4066 8.31463 11.4066C8.31463 11.4066 8.31 11.5432 8.29842 11.7608C7.90021 11.784 7.52284 11.7632 7.32373 11.7493C7.50895 9.92721 7.95809 8.51957 8.07154 8.18619H8.06922Z" fill="white" />
  <path d="M7.91161 24.0129C7.93014 24.0476 7.95097 24.0823 7.97181 24.1147C7.82595 24.2212 7.51803 24.4412 7.49951 24.4319C7.45784 24.3277 7.43005 24.256 7.43005 24.256C7.224 23.7489 6.89756 22.7951 6.61279 21.9338L7.1476 22.1931C7.34439 22.8113 7.59675 23.4595 7.91161 24.0106V24.0129Z" fill="white" />
  <path d="M7.32111 11.7491C7.52253 11.7654 7.89759 11.7839 8.2958 11.7607C8.27728 12.1497 8.23792 12.8049 8.18467 13.423C8.10133 14.3908 7.94158 15.979 7.33037 17.5024C6.76083 18.9239 5.25596 19.8037 3.86453 19.8384C3.84832 19.7643 3.82054 19.6926 3.78118 19.6254C3.69321 19.4749 3.55893 19.3592 3.40381 19.2967C5.10547 18.9818 6.19824 16.9282 6.45754 16.0785C6.73305 15.1733 7.10811 13.8722 7.31879 11.77C7.31879 11.763 7.31879 11.7561 7.31879 11.7491H7.32111Z" fill="white" />
  <path d="M7.62734 19.746C7.69217 20.1673 7.88896 21.4268 8.09733 22.4293L7.06707 21.9292C6.82166 21.1073 6.6758 20.3757 6.61792 20.0608C6.8587 20.0168 7.14578 19.9474 7.41203 19.8386C7.48149 19.8108 7.55326 19.7784 7.62503 19.7437L7.62734 19.746Z" fill="white" />
  <path d="M6.61772 20.0629C6.6756 20.3777 6.82146 21.107 7.06687 21.9312L6.52512 21.6696C6.24961 20.8292 6.03198 20.1393 6.03198 20.1393C6.03198 20.1393 6.28202 20.1277 6.61772 20.0652V20.0629Z" fill="white" />
  <path d="M4.59164 4.78722C4.8903 4.74555 5.28388 4.71545 5.68672 4.7548C5.5617 4.87056 5.439 4.98864 5.31861 5.10903C4.70508 5.72255 4.1587 6.38933 3.6864 7.10473C3.64241 7.06305 3.59379 7.02832 3.54054 6.99591C3.42247 6.92877 3.28819 6.89173 3.15391 6.89173C3.10297 6.89173 3.05204 6.89636 3.00342 6.90562C3.11686 6.71114 3.27198 6.48194 3.4433 6.2481C3.86235 5.67162 4.3717 5.05347 4.59395 4.78722H4.59164Z" fill="white" />
  <path d="M4.32558 4.83134C4.40198 4.81745 4.49227 4.80124 4.59414 4.78735C4.37188 5.0536 3.86254 5.67176 3.44349 6.24824L3.24438 6.15794C3.57777 5.69259 3.93894 5.25039 4.32558 4.83134Z" fill="white" />
  <path d="M3.21899 8.44085C3.33938 8.43158 3.45283 8.39223 3.55238 8.33203L3.65425 8.48483L6.39775 12.4253C6.35376 12.6614 6.30514 12.9022 6.25421 13.1476L3.21899 8.44085Z" fill="white" />
  <path d="M3.15172 8.4431C3.17256 8.4431 3.19108 8.4431 3.21192 8.44078V18.9309C3.12394 19.0096 3.05449 19.0698 3.0105 19.1069V8.43152C3.0568 8.44078 3.10311 8.44541 3.15172 8.44541V8.4431Z" fill="white" />
  <path d="M2.73999 20.6951C2.85343 20.7576 2.98077 20.79 3.11274 20.79C3.21692 20.79 3.3211 20.7692 3.41834 20.7275C3.86749 21.4683 4.39072 22.1629 4.98804 22.8019C4.98804 22.8042 4.99267 22.8065 4.99498 22.8088C5.02045 22.8366 5.04592 22.8644 5.0737 22.8922C5.0737 22.8922 5.07602 22.8945 5.07833 22.8968C5.15705 22.9802 5.23808 23.0612 5.31911 23.1422C6.05303 23.8761 6.86334 24.5128 7.7408 25.043C7.77321 25.1263 7.80331 25.2027 7.82646 25.2606C7.4051 25.6449 5.87244 24.7166 4.95563 23.6701C4.74263 23.427 4.52732 23.1631 4.31895 22.8991C3.62902 22.017 3.04097 21.1442 3.04097 21.1442L2.73999 20.6951Z" fill="white" />
  <path d="M2.62622 7.09793C2.81838 6.77612 3.02443 6.46357 3.24206 6.16028L3.44117 6.25057C3.26984 6.48672 3.11472 6.71361 3.00128 6.90809C2.86005 6.93587 2.7304 7.00301 2.62622 7.10024V7.09793Z" fill="white" />
  <path d="M16.73 24.302L16.818 24.4826H16.8203C16.737 24.647 16.3133 25.4781 15.804 26.1241C15.5609 26.432 15.2993 26.6959 15.0469 26.8256L14.9937 26.8626C14.9937 26.8626 14.989 26.8649 14.9821 26.8672C14.9821 26.8672 14.3107 27.1659 13.6971 26.8672C13.6902 26.8649 13.6856 26.8626 13.6856 26.8626L13.6323 26.8256C13.38 26.6959 13.1183 26.432 12.8753 26.1241C12.3659 25.4804 11.9422 24.6493 11.8589 24.4826H11.8612L11.9492 24.3043L11.9631 24.2974C12.0673 24.4918 12.1645 24.6655 12.2594 24.8206C12.5048 25.2304 12.7248 25.536 12.9308 25.8717C12.9308 25.8717 12.9331 25.8763 12.9354 25.8786C13.2526 26.3903 13.6416 26.6612 13.6416 26.6612C13.6416 26.6612 13.8361 26.8487 14.1671 26.8811C14.2204 26.8857 14.2783 26.8881 14.3385 26.8811C14.3986 26.8857 14.4565 26.8857 14.5098 26.8811C14.8409 26.851 15.0353 26.6612 15.0353 26.6612C15.0353 26.6612 15.4243 26.3903 15.7415 25.8786C15.7415 25.8786 15.7438 25.874 15.7461 25.8717C15.9521 25.536 16.1721 25.2304 16.4175 24.8206C16.5124 24.6632 16.6097 24.4918 16.7138 24.2974L16.7277 24.3043L16.73 24.302Z" fill="white" />
  <path d="M27.4309 17.9143C27.3984 18.0046 26.9933 19.0858 26.2432 20.4008C26.3103 20.2851 26.345 20.1577 26.3473 20.0281C26.6367 19.5257 27.0697 18.7316 27.4309 17.912V17.9143Z" fill="white" />
  <path d="M27.9549 14.9557C27.8901 15.9744 27.7118 16.963 27.434 17.9076C27.434 17.9076 27.434 17.9076 27.434 17.9099C27.0728 18.7295 26.6376 19.5236 26.3505 20.026C26.3505 19.9542 26.3436 19.8802 26.325 19.8084C26.2741 19.6185 26.156 19.4565 25.9893 19.3523C26.0287 19.2643 26.068 19.174 26.1051 19.0861C26.7696 17.514 27.1076 15.8448 27.1076 14.1223C27.1076 12.3998 26.7696 10.7305 26.1051 9.15852C25.9963 8.90385 25.8805 8.65149 25.7578 8.40608C25.8157 8.38988 25.8713 8.36441 25.9222 8.33431C26.1028 8.23013 26.2301 8.06344 26.2834 7.86433C26.3158 7.74163 26.3181 7.61661 26.2926 7.49622C27.3553 9.41782 27.9688 11.6219 27.985 13.9672" fill="white" />
  <path d="M25.9839 19.3569C26.1506 19.4611 26.2687 19.6209 26.3196 19.813C26.3382 19.8848 26.3474 19.9566 26.3451 20.0306C26.1553 20.3617 26.0279 20.5678 26.0279 20.5678L25.9423 20.6951C25.8288 20.7576 25.7015 20.79 25.5695 20.79C25.4653 20.79 25.3612 20.7692 25.2639 20.7275C25.3149 20.6442 25.3635 20.5608 25.4121 20.4775C25.4144 20.4775 25.4167 20.4775 25.4213 20.4798C25.4283 20.4821 25.4352 20.4844 25.4445 20.4867C25.4445 20.4867 25.4468 20.4867 25.4491 20.4867C25.4584 20.4867 25.4677 20.4914 25.4769 20.4937C25.4769 20.4937 25.4769 20.4937 25.4792 20.4937C25.4862 20.4937 25.4954 20.496 25.5024 20.4983C25.5116 20.4983 25.5209 20.5006 25.5325 20.5006C25.5371 20.5006 25.5417 20.5006 25.5464 20.5006C25.5533 20.5006 25.5626 20.5006 25.5718 20.5006C25.7408 20.5006 25.9052 20.4127 25.9955 20.2552C26.0025 20.2413 26.0117 20.2251 26.0187 20.2112C26.0256 20.1973 26.0302 20.1811 26.0372 20.1649C26.0395 20.1557 26.0441 20.1441 26.0465 20.1348C26.0627 20.0723 26.0673 20.0098 26.058 19.9473C26.058 19.9357 26.0557 19.9265 26.0534 19.9172C26.0534 19.9172 26.0511 19.8987 26.0488 19.8917C26.0488 19.8894 26.0488 19.8871 26.0488 19.8825C26.0464 19.8732 26.0441 19.864 26.0418 19.857C26.0395 19.8477 26.0349 19.8385 26.0302 19.8269C26.0279 19.8176 26.0233 19.8084 26.0187 19.7991C26.0187 19.7991 26.0187 19.7991 26.0187 19.7968C26.014 19.7875 26.0094 19.7783 26.0048 19.769C26.0001 19.7598 25.9955 19.7505 25.9886 19.7436C25.9886 19.7436 25.977 19.725 25.97 19.7158C25.9654 19.7088 25.9608 19.7019 25.9538 19.6949C25.9492 19.6903 25.9469 19.6857 25.94 19.681C25.9376 19.6787 25.9353 19.6741 25.9307 19.6718C25.9261 19.6672 25.9214 19.6602 25.9145 19.6556C25.9145 19.6556 25.9145 19.6556 25.9122 19.6533C25.9099 19.651 25.9052 19.6463 25.9029 19.644C25.9029 19.644 25.896 19.6371 25.8913 19.6347C25.8844 19.6278 25.8774 19.6232 25.8682 19.6162C25.9099 19.5282 25.9515 19.4403 25.9909 19.3523L25.9839 19.3569Z" fill="white" />
  <path d="M26.028 20.5653C26.028 20.5653 26.1554 20.3616 26.3452 20.0305C26.3429 20.1602 26.3082 20.2875 26.241 20.4033C26.1693 20.5283 26.0651 20.6278 25.9424 20.695L26.028 20.5676V20.5653Z" fill="white" />
  <path d="M25.9585 19.3408C25.9585 19.3408 25.9747 19.35 25.9839 19.357C25.9446 19.445 25.9029 19.5329 25.8612 19.6209C25.8589 19.6186 25.8543 19.6163 25.8497 19.614C25.8473 19.6116 25.8427 19.6093 25.8381 19.607C25.8311 19.6024 25.8219 19.5978 25.8149 19.5931C25.8057 19.5885 25.7941 19.5816 25.7848 19.5769C25.7779 19.5723 25.7686 19.57 25.7617 19.5653C25.7501 19.5607 25.7385 19.5561 25.7246 19.5514C25.72 19.5514 25.7154 19.5491 25.7107 19.5468C25.7107 19.5468 25.7084 19.5468 25.7061 19.5468C25.7015 19.5468 25.6945 19.5445 25.6899 19.5422C25.683 19.5422 25.6783 19.5399 25.6714 19.5376V19.2458C25.7709 19.2597 25.8705 19.2921 25.9585 19.3431V19.3408Z" fill="white" />
  <path d="M25.6718 19.2131V19.246C25.6718 19.246 25.653 19.246 25.646 19.2437L25.6718 19.2155V19.2131Z" fill="white" />
  <path d="M25.4705 18.9286C25.5584 19.0073 25.6279 19.0675 25.6719 19.1045V19.211L25.6464 19.2388C25.6233 19.2388 25.5978 19.2365 25.5723 19.2365C25.5376 19.2365 25.5052 19.2365 25.4705 19.2435V18.9286Z" fill="white" />
  <path d="M25.2897 8.18616L25.1762 8.35748C25.0443 8.29034 24.9332 8.18616 24.8568 8.05419C24.8382 8.02409 24.822 7.99169 24.8104 7.95927C24.785 7.89445 24.7665 7.8273 24.7595 7.75785C24.7456 7.6444 24.7595 7.53096 24.7919 7.42446C24.8128 7.36195 24.8429 7.29944 24.8776 7.24387C24.91 7.19294 24.9494 7.14664 24.9957 7.10497C25.0396 7.06329 25.0883 7.02857 25.1415 6.99615C25.2596 6.92901 25.3939 6.89197 25.5282 6.89197C25.5791 6.89197 25.63 6.8966 25.6786 6.90586C25.8199 6.93364 25.9495 7.00079 26.056 7.09802C26.1139 7.15127 26.1625 7.21146 26.2019 7.28092C26.2412 7.35037 26.2713 7.42446 26.2875 7.50086C26.313 7.62125 26.3107 7.74627 26.2783 7.86898C26.225 8.06808 26.0954 8.23709 25.9171 8.33896C25.8639 8.36906 25.8083 8.39221 25.7527 8.41073C25.7273 8.41768 25.6995 8.42462 25.6717 8.43157C25.6254 8.44083 25.5791 8.44546 25.5305 8.44546H25.5258L25.5397 8.42462L25.2897 8.18848V8.18616ZM25.0883 7.87824C25.0883 7.87824 25.0906 7.88518 25.0929 7.88981C25.0975 7.89676 25.0998 7.90602 25.1045 7.91297C25.1137 7.92917 25.1253 7.94538 25.1369 7.95927C25.1392 7.9639 25.1438 7.96853 25.1485 7.97316C25.1531 7.97779 25.1554 7.98473 25.1624 7.98937C25.1762 8.00557 25.1925 8.02178 25.2087 8.03567C25.2133 8.0403 25.2156 8.04262 25.2202 8.04493C25.2225 8.04725 25.2249 8.04956 25.2272 8.05188C25.2295 8.05188 25.2318 8.05651 25.2341 8.05883C25.2364 8.05883 25.2388 8.06345 25.2411 8.06345C25.2411 8.06345 25.2411 8.06346 25.2434 8.06577C25.248 8.0704 25.255 8.07503 25.2619 8.07734C25.2758 8.0866 25.2897 8.09587 25.3059 8.10281C25.3105 8.10513 25.3175 8.10975 25.3244 8.11207C25.3476 8.12365 25.373 8.13291 25.3985 8.13754C25.4008 8.13754 25.4031 8.13754 25.4055 8.13754C25.4078 8.13754 25.4101 8.13754 25.4124 8.13754C25.417 8.13754 25.4217 8.13754 25.4263 8.13986C25.4309 8.13986 25.4379 8.14217 25.4425 8.14217C25.4494 8.14217 25.4587 8.14449 25.4656 8.14449C25.4749 8.14449 25.4842 8.14449 25.4934 8.1468C25.5027 8.1468 25.5143 8.1468 25.5235 8.1468C25.5305 8.1468 25.5397 8.1468 25.5467 8.1468C25.5513 8.1468 25.5583 8.1468 25.5629 8.1468C25.5675 8.1468 25.5698 8.1468 25.5745 8.1468C25.5791 8.1468 25.5837 8.1468 25.5883 8.1468C25.5953 8.1468 25.6022 8.1468 25.6092 8.14449C25.6184 8.14449 25.6277 8.14217 25.637 8.13754C25.6462 8.13754 25.6532 8.13291 25.6624 8.1306H25.6671C25.674 8.1306 25.681 8.12597 25.6879 8.12365C25.6948 8.12133 25.7041 8.11902 25.7111 8.11439C25.7296 8.10744 25.7481 8.09818 25.7643 8.08892C25.9981 7.95464 26.0792 7.65366 25.9426 7.41983C25.8986 7.34111 25.8338 7.28092 25.7597 7.23925C25.6138 7.1559 25.4286 7.15127 25.2735 7.23925C25.2642 7.24388 25.2573 7.24851 25.248 7.25545C25.2364 7.2624 25.2249 7.27166 25.2133 7.28092C25.2063 7.28555 25.1994 7.29018 25.1948 7.29713C25.1948 7.29713 25.1925 7.29713 25.1925 7.29944C25.1855 7.30639 25.1762 7.31333 25.1693 7.32028C25.1647 7.32491 25.16 7.33186 25.1554 7.33649C25.1531 7.3388 25.1485 7.34343 25.1462 7.34806C25.1415 7.35501 25.1369 7.35963 25.1323 7.36658C25.123 7.37815 25.1161 7.38974 25.1091 7.40131C25.1045 7.40826 25.0998 7.4152 25.0975 7.42215C25.0906 7.43372 25.0836 7.4453 25.079 7.45687C25.0767 7.46382 25.0721 7.47308 25.0697 7.48003C25.0651 7.4916 25.0605 7.50318 25.0582 7.51475C25.0582 7.51938 25.0535 7.52633 25.0535 7.53096C25.0535 7.53559 25.0512 7.54022 25.0489 7.54485C25.0489 7.5518 25.0443 7.56106 25.0443 7.56801C25.0443 7.57495 25.042 7.57958 25.042 7.58652C25.042 7.59115 25.042 7.59579 25.042 7.60273C25.042 7.61199 25.0397 7.62125 25.0397 7.63051C25.0397 7.63977 25.0397 7.65135 25.0397 7.66061C25.0397 7.66756 25.0397 7.67682 25.0397 7.68377C25.0397 7.69071 25.0397 7.69766 25.0397 7.7046C25.0397 7.71155 25.0397 7.71849 25.0397 7.72544C25.0397 7.7347 25.042 7.74164 25.0443 7.7509C25.0443 7.75553 25.0443 7.75785 25.0466 7.76248C25.0466 7.76711 25.0466 7.77174 25.0489 7.77637C25.0489 7.781 25.0489 7.78331 25.0512 7.78794C25.0512 7.79489 25.0559 7.80184 25.0582 7.80878C25.0582 7.81341 25.0605 7.81804 25.0628 7.82499C25.0674 7.8412 25.0744 7.85509 25.0813 7.86898L25.0883 7.87824Z" fill="white" />
  <path d="M25.4703 8.44059C25.3661 8.43364 25.2666 8.40354 25.1763 8.35723L25.2897 8.18591L25.5398 8.42207L25.5259 8.4429C25.5073 8.4429 25.4888 8.4429 25.4703 8.44059Z" fill="white" />
  <path d="M25.4705 19.3246C25.5008 19.3269 25.5335 19.3316 25.5639 19.3316L25.4705 19.4344V19.3223V19.3246Z" fill="white" />
  <path d="M25.4705 19.2456C25.5029 19.241 25.5376 19.2386 25.5723 19.2386C25.5978 19.2386 25.6209 19.2386 25.6464 19.241L25.5654 19.3313C25.5353 19.3313 25.5029 19.3266 25.4728 19.3243V19.2456H25.4705Z" fill="white" />
  <path d="M25.5144 19.5283C25.5144 19.5283 25.5052 19.5283 25.4982 19.5283C25.4959 19.5283 25.4936 19.5283 25.4913 19.5283C25.4843 19.5283 25.4774 19.5283 25.4705 19.5329V19.4334L25.5631 19.3315L25.6441 19.2412C25.6441 19.2412 25.6603 19.2412 25.6696 19.2435V19.5352C25.6649 19.5352 25.658 19.5329 25.651 19.5329C25.6487 19.5329 25.6464 19.5329 25.6418 19.5329C25.6372 19.5329 25.6302 19.5329 25.6233 19.5306C25.6186 19.5306 25.6163 19.5306 25.6117 19.5306C25.6071 19.5306 25.6024 19.5306 25.5978 19.5306C25.5885 19.5306 25.5793 19.5306 25.57 19.5306C25.5584 19.5306 25.5492 19.5306 25.5376 19.5306C25.5283 19.5306 25.5214 19.5306 25.5121 19.5306L25.5144 19.5283Z" fill="white" />
  <path d="M25.4701 19.2433C25.4029 19.2525 25.3381 19.2687 25.2756 19.2942C23.5739 18.9793 22.4812 16.9258 22.2218 16.0761C21.9463 15.1708 21.5713 13.8697 21.3606 11.7675C21.3606 11.7606 21.3606 11.7536 21.3606 11.7467C21.1754 9.92462 20.7262 8.51698 20.6128 8.18359C21.1383 8.26926 21.5134 8.26232 21.5134 8.26232C21.5134 8.26232 21.5597 8.48226 21.8422 9.87369C21.9834 10.5659 22.1107 11.4874 22.3006 12.4945L21.9186 13.0432L22.3121 13.4229L22.4464 13.2168C22.6201 14.0225 22.84 14.856 23.1433 15.6524C23.7476 17.2406 24.9468 18.4491 25.4701 18.9261V19.2409V19.2433Z" fill="white" />
  <path d="M25.2759 19.2968C25.3384 19.2713 25.4032 19.2551 25.4704 19.2458V19.3246C25.4055 19.3176 25.3407 19.3084 25.2759 19.2968Z" fill="white" />
  <path d="M25.2754 19.2967C25.3403 19.3083 25.4051 19.3176 25.4699 19.3245V19.4357L25.3333 19.5861C25.3333 19.5861 25.3148 19.5977 25.3055 19.6024C25.2963 19.607 25.287 19.6139 25.2801 19.6209C25.2708 19.6278 25.2639 19.6348 25.2546 19.6417C25.2476 19.6487 25.2384 19.6556 25.2314 19.6625C25.2268 19.6672 25.2222 19.6718 25.2175 19.6764C25.1921 19.7042 25.1689 19.7343 25.1504 19.7667C25.1458 19.776 25.1388 19.7853 25.1342 19.7945C25.1296 19.8015 25.1273 19.8084 25.1249 19.8177L25.1134 19.8316C25.0161 19.8385 24.9189 19.8385 24.8193 19.8362C24.8355 19.7621 24.8633 19.6903 24.9027 19.6232C24.9907 19.4727 25.1249 19.3569 25.2801 19.2944L25.2754 19.2967Z" fill="white" />
  <path d="M25.3262 20.438C25.3262 20.438 25.3447 20.4496 25.3539 20.4519C25.3632 20.4565 25.3725 20.4612 25.3817 20.4658C25.391 20.4704 25.4002 20.4727 25.4095 20.4751C25.3609 20.5584 25.3123 20.6418 25.2613 20.7251C25.2336 20.7135 25.2058 20.6996 25.178 20.6834C25.0993 20.6394 25.0321 20.5816 24.9766 20.5167L25.2498 20.3848C25.2498 20.3848 25.2613 20.394 25.266 20.3987C25.2729 20.4033 25.2799 20.4102 25.2891 20.4149C25.2914 20.4149 25.2937 20.4172 25.2961 20.4195C25.303 20.4241 25.3123 20.4311 25.3215 20.4357L25.3262 20.438Z" fill="white" />
  <path d="M25.3335 19.5874L25.4713 19.4355V19.536C25.4713 19.536 25.4596 19.536 25.4526 19.5407C25.448 19.5407 25.4456 19.5407 25.4409 19.543C25.4339 19.543 25.4246 19.5477 25.4176 19.55C25.4082 19.5523 25.3966 19.557 25.3872 19.5617C25.3802 19.564 25.3732 19.5664 25.3662 19.571C25.3615 19.571 25.3545 19.5757 25.3498 19.578C25.3452 19.578 25.3405 19.5827 25.3358 19.585C25.3358 19.585 25.3358 19.585 25.3335 19.585V19.5874Z" fill="white" />
  <path d="M25.1298 20.2251C25.1298 20.2251 25.1321 20.2297 25.1344 20.232C25.1367 20.239 25.1414 20.2459 25.146 20.2529C25.146 20.2529 25.1529 20.2691 25.1599 20.2737C25.1599 20.276 25.1645 20.2807 25.1668 20.283C25.1715 20.2876 25.1738 20.2945 25.1784 20.2992C25.19 20.3154 25.2039 20.3339 25.2201 20.3478C25.2224 20.3501 25.2247 20.3524 25.227 20.3547C25.2293 20.3571 25.2317 20.3594 25.234 20.3617C25.234 20.3617 25.2363 20.364 25.2386 20.3663C25.2455 20.3733 25.2502 20.3779 25.2571 20.3825L24.9839 20.5145C24.9399 20.4636 24.9029 20.4057 24.8728 20.3455L25.1298 20.2205V20.2251Z" fill="white" />
  <path d="M25.1184 7.40369C25.1184 7.40369 25.109 7.41778 25.1067 7.42483C25.109 7.41778 25.1137 7.41073 25.1184 7.40369Z" fill="white" />
  <path d="M24.8152 19.8408C24.9148 19.8431 25.012 19.8408 25.1093 19.8362L25.1208 19.8223C25.1208 19.8223 25.1162 19.8362 25.1139 19.8408C25.1139 19.8408 25.1139 19.8431 25.1139 19.8454C25.1139 19.8477 25.1116 19.8524 25.1116 19.8547C25.1116 19.8547 25.1116 19.8616 25.1093 19.8639C25.107 19.8732 25.1046 19.8825 25.1023 19.8894C25.1 19.8987 25.0977 19.9079 25.0954 19.9172C25.0954 19.9264 25.0931 19.9357 25.0907 19.945C25.0907 19.9496 25.0907 19.9542 25.0907 19.9589C25.0907 19.9589 25.0907 19.9612 25.0907 19.9635C25.0907 19.9704 25.0907 19.9774 25.0907 19.9843C25.0907 20.0121 25.0907 20.0399 25.0931 20.0677C25.0931 20.0723 25.0931 20.0769 25.0931 20.0816C25.0931 20.0862 25.0931 20.0931 25.0954 20.0978C25.0954 20.1024 25.0954 20.107 25.0977 20.1117C25.0977 20.114 25.0977 20.1186 25.0977 20.1209C25.0977 20.1279 25.1 20.1348 25.1023 20.1418C25.1023 20.1487 25.107 20.1557 25.1093 20.1626C25.1116 20.1719 25.1162 20.1811 25.1185 20.1904C25.1208 20.1973 25.1255 20.2066 25.1278 20.2135C25.1278 20.2135 25.1278 20.2158 25.1278 20.2182L24.8708 20.3432C24.7944 20.1858 24.7736 20.0052 24.8129 19.8315L24.8152 19.8408Z" fill="white" />
  <path d="M24.871 20.3501C24.8987 20.4103 24.9358 20.4682 24.9821 20.5191L22.0696 21.9337C22.0997 21.8434 22.1275 21.7554 22.1576 21.6674L24.871 20.3501Z" fill="white" />
  <path d="M24.0904 4.78735L24.3451 4.81976C24.3451 4.81976 24.3521 4.82903 24.3567 4.83134C24.2803 4.81745 24.19 4.80124 24.0881 4.78735H24.0904Z" fill="white" />
  <path d="M22.6501 20.1369C22.6501 20.1369 22.4325 20.8292 22.157 21.6673L21.6152 21.9289C21.8606 21.107 22.0065 20.3754 22.0644 20.0605C22.4001 20.1207 22.6501 20.1346 22.6501 20.1346V20.1369Z" fill="white" />
  <path d="M22.4444 13.2216L22.3101 13.4277L21.9165 13.048L22.2985 12.4993C22.3425 12.7354 22.3911 12.9785 22.4444 13.2216Z" fill="white" />
  <path d="M21.6152 21.9314L22.157 21.6698C22.1292 21.7578 22.0991 21.8458 22.069 21.9361L21.5342 22.1954C21.562 22.1074 21.5897 22.0194 21.6152 21.9337V21.9314Z" fill="white" />
  <path d="M21.6291 7.95936H21.3467V7.75793H21.4161C21.5064 7.84591 21.5782 7.91306 21.6291 7.95936Z" fill="white" />
  <path d="M21.1849 24.4317C21.1664 24.4409 20.8585 24.221 20.7126 24.1145C20.7335 24.0798 20.7543 24.0451 20.7728 24.0126C21.0854 23.4616 21.3401 22.8134 21.5369 22.1952L22.0717 21.9359C21.7869 22.7972 21.4605 23.751 21.2544 24.258C21.2544 24.258 21.2266 24.3275 21.1873 24.434L21.1849 24.4317Z" fill="white" />
  <path d="M16.4731 4.22711C16.6374 4.32435 16.7972 4.43085 16.9546 4.53966C17.112 4.64847 17.2649 4.76423 17.413 4.88694C17.7117 5.12772 17.9965 5.38702 18.265 5.66716C18.0358 5.35461 17.7696 5.06984 17.4871 4.80128C17.2023 4.53503 16.8967 4.28962 16.568 4.07662C16.4036 3.97012 16.2346 3.87057 16.0586 3.78028C15.8827 3.6923 15.7021 3.61359 15.5146 3.54413C15.4683 3.52793 15.4196 3.51172 15.3733 3.49783C15.3502 3.49088 15.327 3.48162 15.3016 3.47468L15.2298 3.45615C15.1812 3.44458 15.1349 3.42837 15.0863 3.41911L14.9404 3.3867C14.8918 3.37512 14.8432 3.37049 14.7922 3.36354L14.7181 3.35197C14.6927 3.34966 14.6695 3.34734 14.6441 3.34503C14.5954 3.3404 14.5445 3.33576 14.4959 3.33113H14.4473V2.4884C15.9568 2.5185 17.0102 2.91672 17.802 3.48625L18.397 4.35908L18.985 4.64153C19.2629 4.99344 19.506 5.35692 19.7398 5.71115C20.3927 6.70205 21.0525 7.40587 21.4183 7.76241H21.3488V7.96383H21.6313C21.6776 8.0055 21.7031 8.02634 21.7054 8.03097C21.2007 7.96615 20.7099 7.84112 20.2399 7.67906C19.7421 7.41744 19.2443 7.06322 18.61 6.56777C17.9756 6.07232 17.5589 5.65558 16.5796 4.99807C15.7137 4.41696 14.6788 4.34981 14.4496 4.34287V3.56265H14.4843C14.5306 3.56728 14.5769 3.57191 14.6232 3.57655C14.6464 3.57655 14.6695 3.58118 14.6927 3.58349L14.7621 3.59275C14.8084 3.5997 14.8547 3.60432 14.901 3.61359C15.0863 3.646 15.2668 3.69693 15.4451 3.75481C15.6234 3.81501 15.7993 3.88678 15.9707 3.9655C16.0563 4.00717 16.142 4.04884 16.2253 4.09283C16.311 4.13682 16.392 4.18544 16.4754 4.23174L16.4731 4.22711Z" fill="white" />
  <path d="M19.6961 22.8621L20.5851 22.4292C20.5666 22.5149 20.5504 22.5982 20.5319 22.6769L19.6567 23.1006C19.6706 23.0219 19.6822 22.9409 19.6938 22.8598L19.6961 22.8621Z" fill="white" />
  <path d="M20.5342 22.6791C20.5527 22.5981 20.5689 22.5147 20.5874 22.4314L21.6177 21.9313C21.5922 22.0169 21.5644 22.1049 21.5367 22.1929L20.5365 22.6791H20.5342Z" fill="white" />
  <path d="M18.6685 4.26409L18.5342 4.19926L18.3652 3.95154C18.4717 4.05341 18.5736 4.15759 18.6708 4.26409H18.6685Z" fill="white" />
  <path d="M18.365 3.95164C18.1937 3.78726 18.0062 3.62982 17.8048 3.48397L16.4897 1.5531C16.5824 1.56931 16.675 1.58551 16.7653 1.60404L18.365 3.95164Z" fill="white" />
  <path d="M18.9856 4.63685L18.3975 4.35439L17.8025 3.48157C18.0062 3.62742 18.1914 3.78486 18.3628 3.94924L18.5318 4.19696L18.6661 4.26179C18.7772 4.38449 18.8814 4.50951 18.9832 4.63685H18.9856Z" fill="white" />
  <path d="M16.7163 24.2951C16.7579 24.2164 16.8019 24.133 16.8459 24.045C17.0635 23.6121 17.2302 23.3273 17.3622 23.1005C17.4918 22.8736 17.5891 22.7022 17.6678 22.4962C17.8275 22.0795 18.1007 21.1048 18.1748 20.2528C18.2304 19.5953 18.0544 18.9239 17.7697 18.3219C17.6863 18.1459 17.5937 17.9769 17.4942 17.8149C17.0566 17.0995 15.4799 16.0275 15.2947 15.9326C15.1118 15.8377 15.1628 15.7729 15.216 15.7335C15.2693 15.6942 15.7879 15.3932 15.7879 15.3932C15.7879 15.3932 16.582 15.6594 17.2279 16.2336C17.8715 16.8078 18.073 17.1898 18.073 17.1898C18.073 17.1898 17.4247 15.5228 17.5381 15.4858C17.6493 15.4488 18.5499 16.0113 18.8648 16.8494C19.1796 17.6875 19.1125 19.4216 18.8648 20.3871C18.617 21.3525 18.073 22.1466 17.728 22.8203C17.4988 23.2695 17.1793 23.8436 16.9918 24.1793L16.7325 24.3067L16.7186 24.2997L16.7163 24.2951Z" fill="white" />
  <path d="M19.659 23.103L16.8206 24.4805C16.8298 24.462 16.8344 24.4504 16.8344 24.4504C16.8344 24.4504 16.8946 24.3416 16.9896 24.1749L19.6937 22.8622C19.6821 22.9455 19.6706 23.0242 19.6567 23.103H19.659Z" fill="white" />
  <path d="M16.818 24.4826L16.73 24.302L16.9893 24.1747C16.8944 24.3437 16.8342 24.4502 16.8342 24.4502C16.8342 24.4502 16.8295 24.4595 16.8203 24.4803H16.818V24.4826Z" fill="white" />
  <path d="M16.3226 0.953489L16.7648 1.60174C16.6722 1.58322 16.5819 1.56701 16.4893 1.55081L16.1582 1.06462L16.3249 0.951172L16.3226 0.953489Z" fill="white" />
  <path d="M16.4876 1.55294C16.0361 1.47654 15.5777 1.42329 15.1147 1.39551C15.0915 0.988034 14.7535 0.66391 14.3391 0.66391V0.44165C16.7284 0.44165 18.9741 1.05749 20.9305 2.141C22.2084 2.84713 23.3591 3.75469 24.3454 4.81736L24.0907 4.78494C23.792 4.74327 23.3984 4.71318 22.9956 4.75253C21.9098 3.74774 20.6712 2.949 19.3075 2.37252C18.4856 2.02524 17.6336 1.76594 16.7654 1.59924L16.3232 0.950991L16.1565 1.06444L16.4876 1.55063V1.55294Z" fill="white" />
  <path d="M18.6777 11.6379C18.6777 11.6379 18.3629 12.3394 17.7794 13.4368C17.196 14.5365 17.0733 15.1894 17.0386 15.4024C17.0154 15.539 17.0779 15.6571 17.1266 15.7219C17.1103 15.7798 17.1034 15.8354 17.1057 15.8932C17.1057 15.8932 16.8719 15.664 16.6242 15.5089C16.6126 15.3677 16.5871 15.0482 16.5408 14.8144C16.4806 14.5041 16.4389 14.2309 16.1912 13.8744C15.9458 13.5155 15.7282 13.3118 15.6425 12.9946C15.5569 12.6751 15.6008 11.837 15.6055 11.8162C15.6101 11.7977 15.7629 11.6588 15.874 11.5777C16.1472 11.5731 16.2931 11.7398 16.5779 11.9621C16.8626 12.1843 17.1289 12.2653 17.4993 12.1056C17.8697 11.9482 18.6754 11.6379 18.6754 11.6379H18.6777Z" fill="white" />
  <path d="M13.853 1.44197C13.853 1.71285 14.0729 1.93048 14.3415 1.93048C14.6101 1.93048 14.83 1.71053 14.83 1.44197C14.83 1.42113 14.83 1.40261 14.8254 1.38409C14.7976 1.141 14.5892 0.953467 14.3392 0.953467C14.0891 0.953467 13.8831 1.141 13.853 1.38409C13.8507 1.40261 13.8484 1.42345 13.8484 1.44197H13.853ZM14.3415 0.666382C14.7536 0.666382 15.0939 0.990509 15.1171 1.39798C15.1171 1.41187 15.1171 1.42808 15.1171 1.44197C15.1171 1.87028 14.7698 2.21756 14.3415 2.21756C13.9132 2.21756 13.5659 1.87028 13.5659 1.44197C13.5659 1.42577 13.5659 1.41187 13.5659 1.39798C13.5891 0.990509 13.9294 0.666382 14.3415 0.666382Z" fill="white" />
  <path d="M14.3412 0.444214V0.666474C13.9291 0.666474 13.5887 0.990601 13.5656 1.39807C13.1026 1.42586 12.6465 1.47679 12.1927 1.55551L12.5238 1.06932L12.3571 0.955872L11.9149 1.60413C11.0444 1.77082 10.1947 2.0278 9.37279 2.3774C8.00914 2.95388 6.77051 3.75262 5.68469 4.75741C5.28185 4.71805 4.88827 4.74816 4.58961 4.78983C4.48774 4.80372 4.39745 4.81993 4.32104 4.83382C6.8145 2.13662 10.3822 0.444214 14.3366 0.444214H14.3412Z" fill="white" />
  <path d="M17.9158 9.50564C17.807 8.90138 17.3995 8.03086 16.8184 7.36872C16.2581 6.72973 15.1214 6.26669 14.3435 6.24817V10.059C14.3018 10.4873 14.2184 10.7744 14.149 11.4064C14.0517 12.2792 14.1096 14.1592 14.1096 14.7704C14.1096 15.2635 14.2786 15.6293 14.3435 15.752V15.759C14.5958 15.7289 14.9454 15.414 15.0195 15.2982C15.0936 15.1825 15.0982 15.069 15.1283 15.069C15.1584 15.069 15.4409 15.1547 15.589 15.1315C15.7349 15.1084 15.8831 14.9787 15.934 14.9093C15.9849 14.8398 15.978 14.782 15.8437 14.6014C15.7071 14.4208 15.5335 14.3652 15.3645 14.4856C15.1978 14.606 15.0033 14.6755 15.0033 14.6755C15.0033 14.6755 14.9014 14.6616 14.9014 13.9554C14.9014 13.3465 14.9014 12.5756 14.9037 11.8602C14.9037 11.7444 14.9037 11.631 14.9037 11.5199C14.9037 10.7165 15.1376 10.4688 15.4061 10.4016C15.6724 10.3368 16.5429 10.3136 17.3671 10.3715C17.5222 10.3831 17.6773 10.4155 17.8232 10.4618C17.8811 10.3275 18.0038 9.97562 17.9204 9.50795L17.9158 9.50564Z" fill="white" />
  <path d="M15.1975 16.9583C14.5979 17.0023 14.3409 17.2639 14.3409 17.2639C14.3409 17.2639 14.0862 17 13.4843 16.9583C12.9171 16.9167 12.3198 17.3519 11.9377 17.8844C12.0095 17.9724 12.2063 18.146 12.6184 18.1599C13.1625 18.1761 13.6811 17.9122 13.6973 17.9052C13.6973 17.9052 13.9682 18.1275 14.3409 18.1576C14.7137 18.1275 14.9845 17.9052 14.9845 17.9052C15.0007 17.9145 15.5193 18.1761 16.0634 18.1599C16.4778 18.146 16.6723 17.9724 16.7441 17.8844C16.3621 17.3542 15.7648 16.919 15.1975 16.9583Z" fill="white" />
  <path d="M15.2787 19.306C15.237 19.2597 15.1884 19.2018 15.1259 19.1277C15.0819 19.0768 15.0471 19.0374 15.0147 19.0027H13.6719C13.6395 19.0374 13.6025 19.0768 13.5608 19.1277C13.4983 19.2018 13.4497 19.2574 13.408 19.306C13.408 19.306 13.3015 20.1418 13.4103 20.6141C13.5191 21.0864 13.8247 21.4383 14.0423 21.9337C14.0771 22.0124 14.1049 22.0935 14.1326 22.1722C14.1419 22.2046 14.1535 22.237 14.1604 22.2694C14.2715 22.6653 14.297 23.0404 14.3456 23.1121C14.3943 23.0404 14.4197 22.6653 14.5308 22.2694C14.5401 22.237 14.5494 22.2046 14.5609 22.1722C14.5864 22.0911 14.6165 22.0101 14.6512 21.9337C14.8689 21.4383 15.1745 21.0864 15.2833 20.6141C15.3921 20.1418 15.2856 19.306 15.2856 19.306H15.2787Z" fill="white" />
  <path d="M12.8429 14.5991C12.9795 14.4185 13.1531 14.3629 13.3222 14.4833C13.4888 14.6037 13.6833 14.6731 13.6833 14.6731C13.6833 14.6731 13.7852 14.6593 13.7852 13.9531C13.7852 13.3442 13.7829 12.5733 13.7829 11.8579C13.7829 11.7421 13.7829 11.6287 13.7829 11.5175C13.7829 10.7142 13.549 10.4664 13.2805 10.3993C13.0142 10.3345 12.1437 10.3113 11.3195 10.3692C11.1644 10.3808 11.0093 10.4132 10.8634 10.4595C10.8055 10.3252 10.6828 9.97331 10.7662 9.50564C10.875 8.90138 11.2825 8.03086 11.8636 7.36872C12.4239 6.72973 13.5606 6.26669 14.3385 6.24817V10.059C14.2968 10.4873 14.2135 10.7744 14.144 11.4064C14.0468 12.2792 14.1047 14.1592 14.1047 14.7704C14.1047 15.2635 14.2737 15.6293 14.3385 15.752V15.759C14.0862 15.7289 13.7366 15.414 13.6625 15.2982C13.5884 15.1825 13.5838 15.069 13.5537 15.069C13.5236 15.069 13.2411 15.1547 13.093 15.1315C12.9471 15.1084 12.7989 14.9787 12.748 14.9093C12.6971 14.8398 12.7017 14.782 12.8383 14.6014L12.8429 14.5991Z" fill="white" />
  <path d="M12.526 1.06694L12.1949 1.55313C12.1023 1.56934 12.0097 1.58554 11.9194 1.60406L12.3616 0.955811L12.5283 1.06926L12.526 1.06694Z" fill="white" />
  <path d="M12.1946 1.5531L10.8796 3.48397C10.6759 3.62982 10.4907 3.78726 10.3193 3.95164L11.9191 1.60404C12.0117 1.58551 12.102 1.56931 12.1946 1.5531Z" fill="white" />
  <path d="M11.9519 24.302L11.864 24.4826H11.8616C11.8524 24.4618 11.8477 24.4525 11.8477 24.4525C11.8477 24.4525 11.7875 24.3437 11.6926 24.177L11.9542 24.3043L11.9519 24.302Z" fill="white" />
  <path d="M11.6899 24.1749C11.7848 24.3439 11.845 24.4504 11.845 24.4504C11.845 24.4504 11.8496 24.4597 11.8589 24.4805L9.02044 23.103C9.00655 23.0242 8.99497 22.9432 8.9834 22.8622L11.6875 24.1749H11.6899Z" fill="white" />
  <path d="M12.8942 15.3909C12.8942 15.3909 13.4128 15.6918 13.466 15.7312C13.5193 15.7706 13.5702 15.8354 13.3873 15.9303C13.2044 16.0252 11.6255 17.0948 11.1879 17.8126C11.0884 17.9746 10.9957 18.1436 10.9124 18.3196C10.6276 18.9215 10.4517 19.5906 10.5072 20.2504C10.579 21.1001 10.8522 22.0771 11.0143 22.4939C11.0953 22.7022 11.1902 22.8712 11.3199 23.0981C11.4518 23.3273 11.6162 23.6121 11.8362 24.045C11.8801 24.133 11.9241 24.2164 11.9658 24.2951L11.9519 24.302L11.6926 24.1747C11.5051 23.839 11.1856 23.2625 10.9564 22.8157C10.6114 22.142 10.065 21.3478 9.81963 20.3824C9.5719 19.417 9.50476 17.6829 9.81963 16.8448C10.1345 16.0067 11.0351 15.4464 11.1462 15.4812C11.2574 15.5182 10.6114 17.1851 10.6114 17.1851C10.6114 17.1851 10.8128 16.8054 11.4565 16.229C12.1001 15.6548 12.8942 15.3885 12.8942 15.3885V15.3909Z" fill="white" />
  <path d="M10.8801 3.48389L10.2851 4.35671L9.69702 4.63916C9.79657 4.51183 9.90307 4.38681 10.0142 4.2641L10.1485 4.19928L10.3175 3.95156C10.4888 3.78718 10.6763 3.62974 10.8778 3.48389H10.8801Z" fill="white" />
  <path d="M10.3172 3.95154L10.1482 4.19926L10.0139 4.26409C10.1112 4.15759 10.213 4.05341 10.3195 3.95154H10.3172Z" fill="white" />
  <path d="M9.02336 23.1029L8.14822 22.6792C8.1297 22.5982 8.11349 22.5149 8.09497 22.4315L8.984 22.8645C8.99558 22.9455 9.00716 23.0265 9.02105 23.1052L9.02336 23.1029Z" fill="white" />
  <path d="M8.14784 22.6791L7.14768 22.1929C7.1199 22.1049 7.09212 22.0169 7.06665 21.9313L8.09691 22.4314C8.11543 22.517 8.13164 22.6004 8.15016 22.6791H8.14784Z" fill="white" />
  <path d="M7.16857 8.26463C7.16857 8.26463 7.54363 8.26926 8.06918 8.18591C7.95574 8.5193 7.50659 9.92694 7.32137 11.749C7.32137 11.7559 7.32137 11.7629 7.32137 11.7698C7.11069 13.872 6.73563 15.1732 6.46012 16.0784C6.20082 16.9281 5.11037 18.9816 3.40639 19.2965C3.34388 19.271 3.27905 19.2548 3.21191 19.2456V18.9307C3.73515 18.4538 4.93442 17.2453 5.53868 15.657C5.85123 14.8351 6.0758 13.9739 6.25176 13.1474L6.43234 13.4275L6.82592 13.0478L6.3953 12.4273C6.5782 11.448 6.70322 10.5544 6.83981 9.87832C7.12227 8.48457 7.16857 8.26463 7.16857 8.26463Z" fill="white" />
  <path d="M7.33494 7.75793V7.95936H7.05249C7.10111 7.91537 7.1752 7.84823 7.26549 7.75793H7.33494Z" fill="white" />
  <path d="M7.14793 22.193L6.61312 21.9337C6.58303 21.8434 6.55524 21.7555 6.52515 21.6675L7.0669 21.9291C7.09237 22.0171 7.12015 22.1027 7.14793 22.1907V22.193Z" fill="white" />
  <path d="M8.44427 7.6721C7.97429 7.83648 7.48579 7.95919 6.97876 8.02401C6.97876 8.02401 7.00423 8.00086 7.05285 7.95687H7.3353V7.75545H7.26584C7.63164 7.39891 8.29147 6.69509 8.94436 5.70419C9.17588 5.35228 9.41897 4.98648 9.69911 4.63457L10.2872 4.35212L10.8822 3.47929C11.6763 2.90975 12.7274 2.51154 14.2369 2.48145V3.32417H14.1883C14.1373 3.3288 14.0887 3.33575 14.0401 3.34038C14.0146 3.3427 13.9892 3.34501 13.966 3.34733L13.8919 3.3589C13.8433 3.36816 13.7924 3.37279 13.7437 3.38205L13.5979 3.41447C13.5493 3.42373 13.5006 3.43993 13.4543 3.45151L13.3826 3.47003C13.3594 3.47698 13.3363 3.48624 13.3108 3.49319C13.2645 3.50939 13.2159 3.52328 13.1696 3.53949C12.9844 3.60663 12.8015 3.68766 12.6255 3.77564C12.4496 3.86362 12.2805 3.96548 12.1162 4.07198C11.7874 4.2873 11.4818 4.53039 11.197 4.79664C10.9146 5.0652 10.6483 5.34997 10.4191 5.66252C10.6877 5.38238 10.9725 5.12308 11.2711 4.8823C11.4193 4.76191 11.5721 4.64383 11.7295 4.53502C11.887 4.42621 12.0444 4.31971 12.2111 4.22247C12.2944 4.17616 12.3755 4.12754 12.4611 4.08356C12.5445 4.03725 12.6301 3.99558 12.7158 3.95622C12.8871 3.87751 13.0631 3.80573 13.2413 3.74554C13.4196 3.68766 13.6025 3.63673 13.7854 3.60431C13.8317 3.59505 13.878 3.59042 13.9243 3.58348L13.9938 3.57421C14.0169 3.5719 14.0401 3.56958 14.0632 3.56727C14.1095 3.56264 14.1558 3.55801 14.2022 3.55569H14.2369V4.3336C14.0077 4.34055 12.9728 4.41 12.1069 4.9888C11.1276 5.64631 10.7108 6.06304 10.0765 6.55849C9.44212 7.05394 8.94436 7.41049 8.44659 7.66979L8.44427 7.6721Z" fill="white" />
  <path d="M6.3955 12.4276L6.82612 13.0481L6.43254 13.4278L6.25195 13.1476C6.3052 12.9045 6.35151 12.6614 6.3955 12.4276Z" fill="white" />
  <path d="M6.61344 21.9337L3.70093 20.5191C3.74492 20.4682 3.78196 20.4103 3.81206 20.3501L6.52777 21.6674C6.55556 21.7554 6.58565 21.8434 6.61575 21.9337H6.61344Z" fill="white" />
  <path d="M3.54075 6.99615C3.594 7.02625 3.64262 7.06329 3.68661 7.10497C3.7306 7.14664 3.76995 7.19525 3.80468 7.24387C3.84173 7.29944 3.86951 7.36195 3.89034 7.42446C3.92507 7.53096 3.93665 7.6444 3.92276 7.75784C3.91581 7.82498 3.89729 7.89213 3.87182 7.95927C3.85793 7.99168 3.84404 8.02409 3.82552 8.05419C3.75838 8.16995 3.66346 8.26487 3.55233 8.3297L3.45509 8.18384L3.20505 8.41999L3.21662 8.43851C3.21662 8.43851 3.21431 8.43851 3.21199 8.43851C3.19347 8.43851 3.17264 8.44083 3.1518 8.44083C3.1055 8.44083 3.05688 8.4362 3.01057 8.42694C2.98279 8.42231 2.95501 8.41536 2.92954 8.40841C2.87166 8.39221 2.8161 8.36674 2.76516 8.33664C2.58689 8.23246 2.45724 8.06576 2.40399 7.86666C2.37158 7.74395 2.36927 7.61893 2.39473 7.49854C2.41094 7.42214 2.44104 7.34806 2.48039 7.27861C2.51975 7.20915 2.56837 7.14895 2.62625 7.0957C2.73044 6.99847 2.8624 6.93364 3.00363 6.90354C3.05225 6.89428 3.10318 6.88965 3.15411 6.88965C3.2884 6.88965 3.42268 6.92669 3.54075 6.99383V6.99615ZM2.90871 8.09123C2.92723 8.10049 2.94343 8.10976 2.96195 8.1167C2.9689 8.11902 2.97816 8.12364 2.98511 8.12596C2.99437 8.12827 3.00131 8.13291 3.01057 8.13522C3.01057 8.13522 3.02678 8.13985 3.03604 8.14217C3.0453 8.14448 3.05456 8.1468 3.06382 8.14911C3.07077 8.14911 3.07771 8.15143 3.08466 8.15143C3.08929 8.15143 3.09392 8.15143 3.09855 8.15143C3.10087 8.15143 3.1055 8.15143 3.11013 8.15143C3.11476 8.15143 3.1217 8.15143 3.12633 8.15143C3.13328 8.15143 3.14254 8.15143 3.14949 8.15143C3.15875 8.15143 3.17032 8.15143 3.17958 8.15143C3.18884 8.15143 3.1981 8.15143 3.20736 8.14911C3.21431 8.14911 3.22357 8.14912 3.23052 8.1468C3.23515 8.1468 3.24209 8.1468 3.24672 8.14448C3.25135 8.14448 3.25598 8.14448 3.26061 8.14217C3.26061 8.14217 3.26524 8.14217 3.26756 8.14217C3.26756 8.14217 3.27219 8.14217 3.2745 8.14217C3.29997 8.13522 3.32312 8.12596 3.34859 8.1167C3.35554 8.11439 3.36017 8.11207 3.36711 8.10744C3.381 8.10049 3.39721 8.09124 3.4111 8.08198C3.41805 8.07735 3.42268 8.07503 3.42962 8.0704C3.42962 8.0704 3.42962 8.07039 3.43194 8.06808C3.43657 8.06345 3.44351 8.06114 3.44814 8.05651C3.45046 8.05651 3.45277 8.05188 3.4574 8.04956C3.46203 8.04725 3.46667 8.04261 3.46898 8.0403C3.48519 8.02641 3.50139 8.0102 3.51528 7.994C3.51991 7.98937 3.52455 7.98474 3.52918 7.97779C3.53381 7.97316 3.53612 7.96853 3.54075 7.9639C3.55233 7.95001 3.56159 7.9338 3.57085 7.91759C3.57548 7.91065 3.58011 7.90139 3.58242 7.89444C3.58242 7.88981 3.58706 7.8875 3.58706 7.88287C3.594 7.86898 3.60095 7.85277 3.60558 7.83888C3.60558 7.83425 3.61021 7.82961 3.61021 7.82267C3.61252 7.81572 3.61484 7.80878 3.61715 7.80183C3.61715 7.7972 3.61715 7.79489 3.61947 7.79026C3.61947 7.78563 3.62178 7.781 3.62178 7.77637C3.62178 7.77174 3.62178 7.76942 3.62178 7.76479C3.62178 7.75784 3.6241 7.74859 3.62641 7.73933C3.62641 7.73238 3.62641 7.72544 3.62641 7.71849C3.62641 7.71154 3.62641 7.7046 3.62641 7.69765C3.62641 7.69071 3.62641 7.68145 3.62641 7.6745C3.62641 7.66524 3.62641 7.65366 3.62641 7.6444C3.62641 7.63514 3.62641 7.62588 3.6241 7.61662C3.6241 7.61199 3.6241 7.60736 3.6241 7.60041C3.6241 7.59347 3.6241 7.58884 3.62178 7.58189C3.62178 7.57495 3.61947 7.56569 3.61715 7.55874C3.61715 7.55874 3.61484 7.54716 3.61252 7.54253C3.61252 7.5379 3.61021 7.53096 3.60789 7.52633C3.60558 7.51475 3.60095 7.50317 3.59632 7.4916C3.594 7.48234 3.58937 7.47539 3.58706 7.46845C3.58243 7.45687 3.57548 7.4453 3.56853 7.43372C3.5639 7.42677 3.56159 7.41983 3.55696 7.41288C3.55001 7.40131 3.54075 7.38973 3.53381 7.37816C3.52918 7.37121 3.52455 7.36658 3.51992 7.35963C3.5176 7.355 3.51297 7.35269 3.51065 7.34806C3.50602 7.34343 3.50139 7.33648 3.49676 7.33185C3.48982 7.3249 3.48287 7.31796 3.47361 7.31101C3.47361 7.31101 3.47361 7.31101 3.4713 7.3087C3.46435 7.30407 3.45972 7.29713 3.45277 7.2925C3.4412 7.28324 3.42962 7.27397 3.41805 7.26703C3.4111 7.26239 3.40184 7.25545 3.39258 7.25082C3.2282 7.15589 3.02909 7.16748 2.87861 7.26471C2.8161 7.30639 2.76285 7.35964 2.72349 7.42909C2.58921 7.66293 2.66793 7.96158 2.90176 8.09818L2.90871 8.09123Z" fill="white" />
  <path d="M3.40628 19.2965C3.56371 19.3614 3.69799 19.4748 3.78366 19.6253C3.82301 19.6947 3.8508 19.7665 3.867 19.8383C3.90636 20.0119 3.88552 20.1925 3.80912 20.3499C3.78134 20.4101 3.7443 20.468 3.69799 20.519C3.64243 20.5838 3.57529 20.6393 3.49657 20.6856C3.47111 20.7018 3.44332 20.7157 3.41323 20.7273C3.31599 20.769 3.2118 20.7898 3.10762 20.7898C2.97566 20.7898 2.84832 20.7551 2.73488 20.6949C2.65847 20.6532 2.58902 20.5977 2.53114 20.5328C2.49641 20.4935 2.464 20.4495 2.43622 20.4032C2.41769 20.3708 2.40149 20.3361 2.3876 20.3013C2.35287 20.2133 2.33435 20.1231 2.33203 20.0304C2.33203 19.9587 2.33898 19.8846 2.3575 19.8128C2.40843 19.623 2.52651 19.4609 2.6932 19.3567C2.70246 19.3521 2.70941 19.3475 2.71867 19.3405C2.80665 19.2896 2.9062 19.2549 3.00575 19.2433C3.01501 19.2433 3.02427 19.2433 3.03122 19.241C3.05437 19.241 3.07984 19.2386 3.10531 19.2386C3.14003 19.2386 3.17245 19.2387 3.20717 19.2456C3.27431 19.2549 3.33914 19.2734 3.40165 19.2988L3.40628 19.2965ZM2.82054 19.6207C2.81359 19.6253 2.80433 19.6322 2.79738 19.6392C2.79044 19.6461 2.78349 19.6508 2.77655 19.6577C2.77655 19.6577 2.77655 19.6577 2.77423 19.66C2.7696 19.6646 2.76266 19.6693 2.75803 19.6762C2.75571 19.6785 2.75108 19.6832 2.74877 19.6855C2.74414 19.6901 2.73951 19.6947 2.73488 19.6994C2.73025 19.7063 2.7233 19.7133 2.71867 19.7202C2.71172 19.7295 2.70709 19.7364 2.70015 19.7457C2.70015 19.7457 2.68857 19.7642 2.68394 19.7735C2.67931 19.7827 2.67468 19.792 2.67005 19.8012C2.67005 19.8012 2.67005 19.8012 2.67005 19.8036C2.66542 19.8128 2.66079 19.8221 2.65847 19.8313C2.65384 19.8406 2.65153 19.8499 2.6469 19.8614C2.64458 19.8707 2.64227 19.8776 2.63995 19.8869C2.63995 19.8892 2.63995 19.8915 2.63995 19.8962C2.63764 19.9054 2.63532 19.9124 2.63301 19.9216C2.63301 19.9216 2.62838 19.9425 2.62838 19.954C2.62143 20.0166 2.62375 20.0791 2.63995 20.1416C2.64227 20.1508 2.6469 20.1624 2.64921 20.1717C2.65384 20.1879 2.66079 20.2018 2.66773 20.218C2.67468 20.2319 2.68163 20.2481 2.69089 20.262C2.78118 20.4194 2.94556 20.5074 3.11457 20.5074C3.12383 20.5074 3.13077 20.5074 3.14003 20.5074C3.14466 20.5074 3.14929 20.5074 3.15392 20.5074C3.16318 20.5074 3.17245 20.5074 3.18171 20.5051C3.18865 20.5051 3.19791 20.5027 3.20486 20.5004C3.21412 20.5004 3.22338 20.4958 3.23264 20.4935C3.23264 20.4935 3.23496 20.4935 3.23727 20.4935C3.24422 20.4935 3.25348 20.4889 3.26042 20.4865C3.26274 20.4865 3.26505 20.4865 3.26968 20.4842C3.27894 20.4819 3.28821 20.4773 3.29747 20.475C3.30673 20.4703 3.31599 20.4657 3.32525 20.4611C3.33451 20.4564 3.34377 20.4518 3.35303 20.4449C3.36229 20.4402 3.36924 20.4356 3.3785 20.431C3.38081 20.431 3.38313 20.4287 3.38544 20.4263C3.39239 20.4217 3.40165 20.4148 3.40859 20.4101C3.40859 20.4101 3.41786 20.4009 3.4248 20.3962C3.4248 20.3962 3.43638 20.3847 3.44332 20.3777C3.44332 20.3777 3.44564 20.3777 3.44795 20.3731C3.45258 20.3685 3.45721 20.3638 3.46184 20.3592C3.47805 20.343 3.49194 20.3268 3.50352 20.3106C3.50815 20.306 3.51046 20.299 3.51509 20.2944C3.51509 20.2921 3.51972 20.2874 3.52204 20.2851C3.52667 20.2782 3.5313 20.2712 3.53593 20.2643C3.53593 20.2643 3.54288 20.2504 3.54751 20.2434C3.54751 20.2411 3.54982 20.2388 3.55214 20.2365C3.55214 20.2365 3.55214 20.2342 3.55214 20.2319C3.55677 20.2249 3.55908 20.2157 3.5614 20.2087C3.56603 20.1995 3.56834 20.1902 3.57297 20.1809C3.57529 20.174 3.5776 20.167 3.57992 20.1601C3.57992 20.1531 3.58455 20.1462 3.58455 20.1393C3.58455 20.1369 3.58455 20.1323 3.58455 20.13C3.58455 20.1254 3.58455 20.1207 3.58686 20.1161C3.58686 20.1115 3.58686 20.1045 3.58918 20.0999C3.58918 20.0953 3.58918 20.0906 3.58918 20.086C3.59149 20.0582 3.59381 20.0304 3.59149 20.0027C3.59149 19.9957 3.59149 19.9888 3.59149 19.9818C3.59149 19.9818 3.59149 19.9795 3.59149 19.9772C3.59149 19.9726 3.59149 19.9679 3.59149 19.9633C3.59149 19.954 3.58918 19.9448 3.58686 19.9355C3.58686 19.9263 3.58223 19.917 3.57992 19.9077C3.57992 19.8985 3.57529 19.8892 3.57297 19.8823C3.57297 19.8753 3.56834 19.8707 3.56603 19.8638V19.8591C3.56603 19.8522 3.5614 19.8452 3.55908 19.8406C3.55908 19.8406 3.55214 19.8267 3.54982 19.8174C3.54519 19.8082 3.54056 19.7989 3.53361 19.7897C3.51509 19.7573 3.49194 19.7248 3.46647 19.6994C3.46647 19.6971 3.46184 19.6947 3.45953 19.6924C3.45953 19.6901 3.4549 19.6878 3.45258 19.6855C3.44564 19.6785 3.43638 19.6693 3.42943 19.6646C3.42017 19.6577 3.41323 19.6508 3.40396 19.6438C3.3947 19.6369 3.38544 19.6322 3.3785 19.6253C3.36924 19.6183 3.35998 19.6137 3.35071 19.6091C3.34608 19.6068 3.34145 19.6044 3.33682 19.6021C3.33219 19.5998 3.32525 19.5975 3.32062 19.5952C3.31367 19.5929 3.30673 19.5882 3.29978 19.5859C3.29052 19.5813 3.28126 19.579 3.26968 19.5744C3.26274 19.572 3.25348 19.5697 3.24653 19.5674C3.2419 19.5674 3.23727 19.5674 3.23496 19.5651C3.22801 19.5651 3.22338 19.5628 3.21643 19.5605C3.20949 19.5605 3.20254 19.5581 3.1956 19.5558C3.1956 19.5558 3.19097 19.5558 3.18865 19.5558C3.18402 19.5558 3.17939 19.5558 3.17245 19.5535C3.16319 19.5535 3.15624 19.5535 3.14698 19.5535C3.13772 19.5535 3.12614 19.5535 3.11688 19.5535C3.10762 19.5535 3.09836 19.5535 3.0891 19.5535C3.08447 19.5535 3.07984 19.5535 3.07289 19.5535C3.06826 19.5535 3.06363 19.5535 3.06132 19.5535C3.05669 19.5535 3.04974 19.5535 3.04279 19.5558C3.04048 19.5558 3.03817 19.5558 3.03354 19.5558C3.02659 19.5558 3.02196 19.5558 3.01501 19.5581C3.01501 19.5581 3.00344 19.5605 2.99649 19.5628C2.99186 19.5628 2.98492 19.5651 2.98028 19.5674C2.98028 19.5674 2.97797 19.5674 2.97566 19.5674C2.97102 19.5674 2.96639 19.5697 2.96176 19.572C2.95019 19.5767 2.93861 19.5813 2.92472 19.5859C2.91778 19.5882 2.90851 19.5929 2.90157 19.5975C2.89231 19.6021 2.88073 19.6068 2.87147 19.6137C2.86453 19.6183 2.85526 19.623 2.84832 19.6276C2.84137 19.6322 2.83443 19.6369 2.82748 19.6415L2.82054 19.6207Z" fill="white" />
  <path d="M3.802 7.24381L10.0137 4.26416C9.90252 4.38687 9.79834 4.51188 9.69647 4.63922L3.88998 7.42671C3.86914 7.3642 3.83904 7.30169 3.80432 7.24613L3.802 7.24381Z" fill="white" />
  <path d="M3.45476 8.18591L3.55199 8.33177C3.45244 8.39197 3.33668 8.42901 3.21861 8.44059L3.20703 8.42207L3.45707 8.18591H3.45476Z" fill="white" />
  <path d="M3.21192 18.9286V19.2435C3.17951 19.2388 3.14478 19.2365 3.11005 19.2365C3.08458 19.2365 3.06143 19.2365 3.03597 19.2388L3.0105 19.211V19.1045C3.05449 19.0675 3.12394 19.0096 3.21192 18.9286Z" fill="white" />
  <path d="M3.01318 19.2135L3.03903 19.2417C3.03903 19.2417 3.02258 19.2417 3.01318 19.2441V19.2112V19.2135Z" fill="white" />
  <path d="M0.702393 14.0135C0.711653 11.6543 1.32518 9.43404 2.3948 7.50085C2.36933 7.62124 2.37164 7.74626 2.40406 7.86897C2.45731 8.06808 2.58696 8.23708 2.76523 8.33895C2.81847 8.36905 2.87404 8.3922 2.9296 8.41072C2.80458 8.65613 2.68882 8.90849 2.58232 9.16316C1.91787 10.7352 1.57985 12.4044 1.57985 14.1269C1.57985 15.8494 1.91787 17.5187 2.58232 19.0907C2.61937 19.181 2.65873 19.269 2.69808 19.3569C2.53139 19.4611 2.41332 19.6209 2.36238 19.813C2.34386 19.8848 2.3346 19.9566 2.33692 20.0307C2.04752 19.5283 1.61226 18.7318 1.25109 17.9099C0.968638 16.9491 0.790368 15.9467 0.727858 14.9118" fill="white" />
  <path d="M2.38969 20.3015C1.66966 19.1208 1.36406 18.2734 1.2784 18.0025C1.2784 17.9979 1.27608 17.9933 1.27377 17.9909C1.27377 17.9863 1.27145 17.984 1.26914 17.9794C1.26914 17.9747 1.26682 17.9701 1.2645 17.9678C1.26219 17.9608 1.25987 17.9516 1.25756 17.9423C1.25756 17.9423 1.25756 17.9377 1.25756 17.9354C1.25756 17.9284 1.25524 17.9238 1.25293 17.9192C1.25293 17.9145 1.25293 17.9122 1.25293 17.9099C1.6141 18.7318 2.04936 19.5282 2.33875 20.0306C2.33875 20.1232 2.35959 20.2135 2.39432 20.3015H2.38969Z" fill="white" />
  <path fill-rule="evenodd" clip-rule="evenodd" d="M37.7341 6.40566V22.3203H47.1338V20.0769H40.2554V6.40566H37.7341ZM51.366 21.7855C52.2643 22.3133 53.2876 22.5749 54.4428 22.5749C55.2254 22.5749 55.9454 22.4546 56.6006 22.2115C57.2697 21.9545 57.8392 21.6141 58.3092 21.1858C58.7931 20.7436 59.1496 20.2528 59.3765 19.7111L57.4109 18.7503C57.1262 19.248 56.7349 19.6555 56.2371 19.968C55.7532 20.2806 55.1606 20.438 54.4637 20.438C53.7668 20.438 53.1672 20.2737 52.6254 19.9472C52.0976 19.6208 51.6855 19.1647 51.3868 18.5789C51.19 18.1784 51.0789 17.7293 51.0511 17.2338H59.652C59.696 17.0625 59.7238 16.8773 59.7377 16.6782C59.7516 16.479 59.7585 16.2869 59.7585 16.1017C59.7585 15.3469 59.6312 14.6338 59.3742 13.9648C59.1311 13.2957 58.7769 12.7053 58.3069 12.1913C57.8369 11.6635 57.2604 11.2514 56.5775 10.9527C55.8945 10.654 55.1166 10.5036 54.2484 10.5036C53.1649 10.5036 52.1971 10.7675 51.3428 11.293C50.4885 11.8047 49.8055 12.5108 49.2916 13.4068C48.7938 14.3051 48.5437 15.3353 48.5437 16.5045C48.5437 17.6737 48.7938 18.6762 49.2916 19.6022C49.7893 20.5144 50.4816 21.2391 51.3637 21.7808L51.366 21.7855ZM51.1113 15.3145C51.1669 14.9788 51.2571 14.6732 51.3868 14.3954C51.6577 13.7981 52.042 13.342 52.5398 13.0271C53.0375 12.7007 53.6071 12.5363 54.2484 12.5363C54.8897 12.5363 55.4453 12.7007 55.9153 13.0271C56.3992 13.3397 56.7557 13.7749 56.9826 14.3306C57.1169 14.6338 57.1933 14.9603 57.2072 15.3122H51.109L51.1113 15.3145ZM64.6366 21.7855C65.5627 22.3133 66.5814 22.5749 67.6904 22.5749C68.7993 22.5749 69.8111 22.318 70.7233 21.8063C71.6354 21.2784 72.3601 20.5607 72.9019 19.6485C73.4436 18.7364 73.7145 17.6968 73.7145 16.53C73.7145 15.3631 73.4436 14.3306 72.9019 13.4323C72.374 12.5201 71.6563 11.8093 70.7441 11.2953C69.8458 10.7675 68.8294 10.5059 67.6904 10.5059C66.5513 10.5059 65.5465 10.7698 64.6366 11.2953C63.7244 11.807 62.9998 12.5201 62.458 13.4323C61.9163 14.3306 61.6454 15.3631 61.6454 16.53C61.6454 17.6968 61.9163 18.7155 62.458 19.6277C62.9998 20.5399 63.7244 21.2576 64.6366 21.7855ZM69.5078 19.843C68.9799 20.1695 68.3757 20.3338 67.6927 20.3338C67.0097 20.3338 66.417 20.1695 65.8776 19.843C65.3497 19.5166 64.9307 19.0674 64.6158 18.4979C64.3171 17.9145 64.1666 17.2593 64.1666 16.5323C64.1666 15.8053 64.3171 15.1571 64.6158 14.5875C64.9283 14.018 65.3497 13.5689 65.8776 13.2424C66.4193 12.916 67.0236 12.7516 67.6927 12.7516C68.3618 12.7516 68.9822 12.916 69.5078 13.2424C70.0356 13.5689 70.4478 14.018 70.7464 14.5875C71.059 15.1571 71.2164 15.8053 71.2164 16.5323C71.2164 17.2593 71.059 17.9145 70.7464 18.4979C70.4478 19.0674 70.0333 19.5166 69.5078 19.843ZM76.0713 10.7629V22.3203H78.4861V15.5067C78.4861 14.9371 78.5926 14.4463 78.8056 14.0319C79.0186 13.6198 79.3196 13.3049 79.7039 13.0919C80.1021 12.865 80.5512 12.7493 81.049 12.7493C81.5468 12.7493 81.989 12.8627 82.3733 13.0919C82.7715 13.3049 83.0771 13.6198 83.2924 14.0319C83.5054 14.4301 83.6119 14.9209 83.6119 15.5067V22.3203H86.0035V14.8654C86.0035 14.0111 85.8183 13.2563 85.4479 12.6011C85.0774 11.9459 84.5658 11.4343 83.9106 11.0638C83.2554 10.6934 82.5006 10.5082 81.6463 10.5082C80.792 10.5082 80.0951 10.7003 79.4677 11.0847C79.0163 11.3509 78.6528 11.7121 78.3773 12.1635V10.7629H76.0713ZM89.9764 22.1698C90.5737 22.4407 91.2659 22.5749 92.0485 22.5749C92.7037 22.5749 93.294 22.4823 93.8219 22.2971C94.3637 22.1119 94.8406 21.848 95.2527 21.5076C95.4564 21.3456 95.6416 21.1696 95.8083 20.9775V22.3203H98.1143V14.5436C98.1143 13.7471 97.9151 13.0479 97.5169 12.4506C97.1326 11.8394 96.5839 11.3602 95.8708 11.0198C95.174 10.6772 94.3683 10.5082 93.4584 10.5082C92.7314 10.5082 92.0415 10.6286 91.3863 10.8717C90.745 11.1148 90.1824 11.4551 89.6985 11.8973C89.2147 12.3256 88.8651 12.8234 88.6521 13.3929L90.6593 14.3977C90.8862 13.8698 91.2358 13.4438 91.7058 13.1151C92.1897 12.7724 92.7523 12.6034 93.3936 12.6034C94.0905 12.6034 94.6461 12.7886 95.0605 13.1591C95.4888 13.5156 95.7018 13.9786 95.7018 14.5482V14.9881L92.0276 15.5946C91.1455 15.7382 90.4116 15.979 89.8282 16.3216C89.2448 16.6643 88.8095 17.0833 88.5247 17.5811C88.2539 18.0789 88.1196 18.6414 88.1196 19.2689C88.1196 19.9379 88.284 20.5214 88.6104 21.0215C88.9368 21.5053 89.3929 21.8897 89.9787 22.1744L89.9764 22.1698ZM95.7018 16.8888V17.5116C95.7018 18.0951 95.5675 18.6299 95.2967 19.1137C95.0258 19.5837 94.6415 19.9611 94.1437 20.2459C93.6598 20.5306 93.0903 20.6742 92.4351 20.6742C91.9072 20.6742 91.4743 20.5399 91.1316 20.269C90.8029 19.9842 90.6408 19.6208 90.6408 19.1786C90.6408 18.7364 90.7913 18.352 91.09 18.0673C91.3886 17.7686 91.8586 17.5626 92.4999 17.4468L95.7041 16.8865L95.7018 16.8888ZM100.939 10.7629V22.3203H103.354V15.6548C103.354 14.7427 103.594 14.0458 104.081 13.5619C104.578 13.0641 105.227 12.8141 106.025 12.8141H107.03V10.6147H106.324C105.527 10.6147 104.842 10.786 104.273 11.1263C103.84 11.3741 103.499 11.7445 103.247 12.2399V10.7629H100.941H100.939ZM111.028 21.7855C111.91 22.3133 112.908 22.5749 114.02 22.5749C114.902 22.5749 115.714 22.3897 116.455 22.0193C117.039 21.7276 117.516 21.334 117.886 20.8409V22.318H120.171V6.14636H117.779V12.1033C117.418 11.6797 116.976 11.3324 116.455 11.0592C115.742 10.6888 114.925 10.5036 113.999 10.5036C112.901 10.5036 111.92 10.7675 111.052 11.293C110.183 11.8209 109.491 12.5386 108.979 13.4508C108.465 14.363 108.211 15.3886 108.211 16.5277C108.211 17.6667 108.461 18.6924 108.959 19.6046C109.473 20.5167 110.163 21.2414 111.031 21.7832L111.028 21.7855ZM116.048 19.843C115.52 20.1695 114.923 20.3338 114.253 20.3338C113.584 20.3338 112.957 20.1695 112.415 19.843C111.887 19.5166 111.475 19.0674 111.177 18.4979C110.878 17.9145 110.727 17.2593 110.727 16.5323C110.727 15.8053 110.878 15.1571 111.177 14.5875C111.475 14.018 111.897 13.5689 112.436 13.2424C112.978 12.916 113.582 12.7516 114.251 12.7516C114.92 12.7516 115.518 12.916 116.045 13.2424C116.587 13.5689 117.006 14.018 117.305 14.5875C117.62 15.1571 117.775 15.8053 117.775 16.5323C117.775 17.2593 117.62 17.9145 117.305 18.4979C117.006 19.0674 116.585 19.5166 116.045 19.843H116.048ZM125.51 21.7855C126.436 22.3133 127.455 22.5749 128.564 22.5749C129.673 22.5749 130.684 22.318 131.597 21.8063C132.509 21.2784 133.233 20.5607 133.775 19.6485C134.317 18.7364 134.585 17.6968 134.585 16.53C134.585 15.3631 134.315 14.3306 133.775 13.4323C133.247 12.5201 132.53 11.8093 131.617 11.2953C130.719 10.7675 129.7 10.5059 128.564 10.5059C127.427 10.5059 126.42 10.7698 125.51 11.2953C124.598 11.807 123.873 12.5201 123.331 13.4323C122.79 14.3306 122.521 15.3631 122.521 16.53C122.521 17.6968 122.792 18.7155 123.331 19.6277C123.873 20.5399 124.598 21.2576 125.51 21.7855ZM130.381 19.843C129.853 20.1695 129.249 20.3338 128.566 20.3338C127.883 20.3338 127.29 20.1695 126.751 19.843C126.223 19.5166 125.804 19.0674 125.489 18.4979C125.19 17.9145 125.04 17.2593 125.04 16.5323C125.04 15.8053 125.19 15.1571 125.489 14.5875C125.802 14.018 126.223 13.5689 126.751 13.2424C127.293 12.916 127.897 12.7516 128.566 12.7516C129.235 12.7516 129.856 12.916 130.381 13.2424C130.909 13.5689 131.321 14.018 131.62 14.5875C131.932 15.1571 132.09 15.8053 132.09 16.5323C132.09 17.2593 131.932 17.9145 131.62 18.4979C131.321 19.0674 130.907 19.5166 130.381 19.843ZM138.014 19.5421V22.318H140.471V19.5421H138.014ZM148.773 6.40566L143.177 22.3203H145.87L147.108 18.7526H153.582L154.799 22.3203H157.492L151.896 6.40566H148.778H148.773ZM152.811 16.5092H147.833L150.34 9.21167L152.811 16.5092ZM159.14 10.7629V22.3203H161.555V10.7629H159.14ZM159.14 6.40566V9.18158H161.555V6.40566H159.14Z" fill="white" />
</svg>