<svg width="110" height="32" viewBox="0 0 110 32" fill="none" xmlns="http://www.w3.org/2000/svg">
<path d="M3.99233 19.5085C3.99233 20.7732 4.26992 21.7442 4.63274 22.3316C5.10845 23.101 5.81798 23.427 6.54133 23.427C7.47431 23.427 8.32782 23.1955 9.97264 20.9206C11.2903 19.0973 12.843 16.5379 13.8877 14.9334L15.6569 12.2151C16.8859 10.3272 18.3084 8.22859 19.9394 6.80607C21.271 5.64503 22.7073 5 24.1528 5C26.5798 5 28.8915 6.40639 30.6607 9.04408C32.5969 11.9329 33.5368 15.5715 33.5368 19.3265C33.5368 21.5587 33.0968 23.199 32.3481 24.4948C31.6248 25.748 30.2149 27 27.8433 27V23.427C29.874 23.427 30.3808 21.561 30.3808 19.4255C30.3808 16.3824 29.6713 13.0052 28.1082 10.5921C26.999 8.88052 25.5615 7.83466 23.9801 7.83466C22.2696 7.83466 20.8932 9.12471 19.3463 11.4249C18.5238 12.647 17.6796 14.1363 16.7316 15.8169L15.688 17.6655C13.5917 21.3825 13.0607 22.2291 12.0125 23.6263C10.1754 26.0728 8.60657 27 6.54133 27C4.09138 27 2.54217 25.9392 1.58269 24.3404C0.799446 23.0377 0.414734 21.3284 0.414734 19.3806L3.99233 19.5085Z" fill="white"/>
<path d="M3.23553 9.29634C4.87574 6.76806 7.24276 5 9.95763 5C11.5299 5 13.0929 5.46534 14.7251 6.79801C16.5104 8.25508 18.4132 10.6543 20.7872 14.6086L21.6384 16.0276C23.6932 19.4509 24.8623 21.212 25.5465 22.0425C26.4265 23.1091 27.0428 23.427 27.8433 23.427C29.874 23.427 30.3808 21.561 30.3808 19.4255L33.5368 19.3265C33.5368 21.5587 33.0968 23.199 32.3481 24.4948C31.6247 25.748 30.2149 27 27.8433 27C26.3689 27 25.0628 26.6798 23.6184 25.3172C22.508 24.2713 21.2099 22.4134 20.2112 20.7432L17.2407 15.7812C15.7502 13.2909 14.383 11.4341 13.5917 10.5933C12.7405 9.68911 11.6462 8.59717 9.90004 8.59717C8.48674 8.59717 7.28653 9.5889 6.28213 11.1059L3.23553 9.29634Z" fill="white"/>
<path d="M9.90007 8.59717C8.48678 8.59717 7.28657 9.5889 6.28217 11.1059C4.86196 13.2494 3.99233 16.4423 3.99233 19.5085C3.99233 20.7732 4.26992 21.7442 4.63274 22.3316L1.58269 24.3404C0.799446 23.0377 0.414734 21.3284 0.414734 19.3806C0.414734 15.8387 1.38688 12.1471 3.23557 9.29634C4.87578 6.76806 7.2428 5 9.95767 5L9.90007 8.59717Z" fill="white"/>
<path d="M40.4916 5.69556H44.6301L51.6667 18.4256L58.7043 5.69556H62.753V26.6128H59.377V10.5816L53.2055 21.683H50.038L43.8676 10.5816V26.6128H40.4916V5.69556ZM73.3315 13.4946C70.9103 13.4946 69.4521 15.3168 69.1031 17.5733H77.3203C77.1509 15.2489 75.8102 13.4946 73.3315 13.4946ZM65.7559 18.8587C65.7559 14.1108 68.8243 10.6553 73.3902 10.6553C77.8812 10.6553 80.5627 14.0671 80.5627 19.1121V20.0393H69.1031C69.5097 22.4939 71.1384 24.1479 73.7646 24.1479C75.8597 24.1479 77.1694 23.5086 78.4111 22.3395L80.2044 24.5361C78.5147 26.0899 76.3654 26.986 73.6448 26.986C68.7023 26.986 65.7559 23.3819 65.7559 18.8587ZM84.6563 13.7941H81.5486V11.0297H84.6563V6.45807H87.9137V11.0297H92.635V13.7941H87.9137V20.8007C87.9137 23.193 88.6785 24.0431 90.5583 24.0431C91.4164 24.0431 91.9082 23.9694 92.635 23.8484V26.5829C91.7297 26.8386 90.8658 26.9561 89.9305 26.9561C86.414 26.9561 84.6563 25.0348 84.6563 21.1889V13.7941ZM106.351 16.4825C105.697 14.8307 104.237 13.6144 102.093 13.6144C99.3053 13.6144 97.5211 15.5921 97.5211 18.8138C97.5211 21.9548 99.1636 24.0281 101.959 24.0281C104.157 24.0281 105.726 22.7496 106.351 21.1589V16.4825ZM109.608 26.6128H106.411V24.4313C105.517 25.7156 103.891 26.986 101.256 26.986C97.0201 26.986 94.1888 23.4395 94.1888 18.8138C94.1888 14.1442 97.088 10.6553 101.436 10.6553C103.585 10.6553 105.272 11.5146 106.411 13.0316V11.0297H109.608V26.6128Z" fill="white"/>
</svg>
