<svg width="114" height="32" viewBox="0 0 114 32" fill="none" xmlns="http://www.w3.org/2000/svg">
<path d="M47.601 8.79984V23.2H45.101V11.8999H45.0677L40.6009 23.2H38.9342L34.3675 11.8999H34.3342V23.2H32.0341V8.79984H35.6342L39.7676 19.4667H39.8343L44.201 8.79984H47.601ZM49.6677 9.89985C49.6677 9.49985 49.8011 9.16651 50.1011 8.89984C50.4011 8.63317 50.7344 8.49983 51.1344 8.49983C51.5678 8.49983 51.9344 8.63317 52.2011 8.89984C52.4678 9.16651 52.6344 9.49985 52.6344 9.89985C52.6344 10.2999 52.5011 10.6332 52.2011 10.8999C51.9011 11.1665 51.5678 11.2999 51.1344 11.2999C50.7011 11.2999 50.3677 11.1665 50.1011 10.8999C49.8344 10.5999 49.6677 10.2665 49.6677 9.89985ZM52.3678 12.8666V23.2H49.9344V12.8666H52.3678ZM59.7345 21.4333C60.1012 21.4333 60.5012 21.3667 60.9346 21.1667C61.3679 21 61.7679 20.7667 62.1346 20.5V22.7667C61.7346 23 61.3012 23.1667 60.8012 23.2667C60.3012 23.3667 59.7679 23.4334 59.1679 23.4334C57.6345 23.4334 56.4012 22.9667 55.4678 22C54.5011 21.0333 54.0345 19.8 54.0345 18.3333C54.0345 16.6666 54.5345 15.2999 55.5012 14.2332C56.4678 13.1666 57.8345 12.6332 59.6345 12.6332C60.1012 12.6332 60.5679 12.6999 61.0012 12.7999C61.4679 12.8999 61.8346 13.0666 62.1012 13.1999V15.5333C61.7346 15.2666 61.3346 15.0333 60.9679 14.8999C60.5679 14.7666 60.1679 14.6666 59.7679 14.6666C58.8012 14.6666 58.0345 14.9666 57.4345 15.5999C56.8345 16.2333 56.5678 17.0666 56.5678 18.1333C56.5678 19.1666 56.8678 20 57.4345 20.5667C58.0012 21.1333 58.7679 21.4333 59.7345 21.4333ZM69.0347 12.6999C69.2347 12.6999 69.4013 12.6999 69.568 12.7332C69.7347 12.7666 69.868 12.7999 69.968 12.8332V15.2999C69.8347 15.1999 69.668 15.0999 69.4013 15.0333C69.1347 14.9666 68.868 14.8999 68.5013 14.8999C67.9013 14.8999 67.4013 15.1666 67.0013 15.6666C66.6013 16.1666 66.368 16.9333 66.368 18V23.2H63.9346V12.8666H66.368V14.4999H66.4013C66.6346 13.9332 66.968 13.4999 67.4013 13.1666C67.868 12.8666 68.4013 12.6999 69.0347 12.6999ZM70.1014 18.2C70.1014 16.4999 70.6014 15.1333 71.5347 14.1332C72.5014 13.1332 73.8347 12.6332 75.5348 12.6332C77.1348 12.6332 78.4015 13.0999 79.3015 14.0666C80.2015 15.0333 80.6682 16.3333 80.6682 17.9666C80.6682 19.6333 80.1682 20.9667 79.2348 21.9667C78.2681 22.9667 76.9681 23.4667 75.3014 23.4667C73.7014 23.4667 72.4347 23 71.5014 22.0667C70.568 21.1 70.1014 19.8 70.1014 18.2ZM72.6347 18.1C72.6347 19.1666 72.8681 20 73.3681 20.5667C73.8681 21.1333 74.5681 21.4333 75.4681 21.4333C76.3348 21.4333 77.0348 21.1667 77.5015 20.5667C77.9681 20 78.2015 19.1666 78.2015 18.0333C78.2015 16.9333 77.9681 16.0999 77.5015 15.4999C77.0348 14.9333 76.3348 14.6333 75.5014 14.6333C74.6014 14.6333 73.9347 14.9333 73.4347 15.5333C72.8681 16.1666 72.6347 17 72.6347 18.1ZM84.3016 15.5999C84.3016 15.9333 84.4016 16.2333 84.6349 16.4333C84.8682 16.6333 85.3349 16.8666 86.1016 17.1666C87.0683 17.5666 87.7683 18 88.1349 18.4666C88.535 18.9666 88.7349 19.5333 88.7349 20.2333C88.7349 21.2 88.3683 21.9667 87.6016 22.5667C86.8683 23.1667 85.8349 23.4334 84.5682 23.4334C84.1349 23.4334 83.6682 23.3667 83.1349 23.2667C82.6015 23.1667 82.1682 23.0334 81.8015 22.8667V20.4667C82.2349 20.7667 82.7349 21.0333 83.2349 21.2C83.7349 21.3667 84.2016 21.4667 84.6349 21.4667C85.1682 21.4667 85.6016 21.4 85.8349 21.2333C86.1016 21.0667 86.2349 20.8333 86.2349 20.4667C86.2349 20.1333 86.1016 19.8667 85.8349 19.6C85.5682 19.3667 85.0349 19.1 84.3016 18.8C83.4015 18.4333 82.7682 18 82.4015 17.5333C82.0349 17.0666 81.8349 16.4666 81.8349 15.7333C81.8349 14.7999 82.2015 14.0332 82.9349 13.4332C83.6682 12.8332 84.6349 12.5332 85.8016 12.5332C86.1682 12.5332 86.5683 12.5666 87.0016 12.6666C87.4349 12.7666 87.8349 12.8666 88.1349 12.9666V15.3333C87.8016 15.1333 87.4349 14.9333 87.0016 14.7666C86.5683 14.5999 86.1349 14.5333 85.7349 14.5333C85.2682 14.5333 84.9016 14.6333 84.6682 14.7999C84.4349 15.0333 84.3016 15.2666 84.3016 15.5999ZM89.7683 18.2C89.7683 16.4999 90.2683 15.1333 91.2017 14.1332C92.1683 13.1332 93.5017 12.6332 95.2017 12.6332C96.8017 12.6332 98.0684 13.0999 98.9684 14.0666C99.8684 15.0333 100.335 16.3333 100.335 17.9666C100.335 19.6333 99.8351 20.9667 98.9018 21.9667C97.9351 22.9667 96.6351 23.4667 94.9684 23.4667C93.3684 23.4667 92.1017 23 91.1683 22.0667C90.2683 21.1 89.7683 19.8 89.7683 18.2ZM92.3017 18.1C92.3017 19.1666 92.535 20 93.035 20.5667C93.535 21.1333 94.235 21.4333 95.135 21.4333C96.0017 21.4333 96.7017 21.1667 97.1684 20.5667C97.6351 20 97.8684 19.1666 97.8684 18.0333C97.8684 16.9333 97.6351 16.0999 97.1684 15.4999C96.7017 14.9333 96.0017 14.6333 95.1684 14.6333C94.2684 14.6333 93.6017 14.9333 93.1017 15.5333C92.5683 16.1666 92.3017 17 92.3017 18.1ZM108.435 14.8666H104.802V23.2H102.335V14.8666H100.602V12.8666H102.335V11.4332C102.335 10.3665 102.702 9.46651 103.402 8.7665C104.102 8.06649 105.002 7.73315 106.102 7.73315C106.402 7.73315 106.669 7.76649 106.902 7.76649C107.135 7.76649 107.335 7.83316 107.502 7.89982V9.99985C107.435 9.96652 107.269 9.89985 107.069 9.83318C106.869 9.76652 106.635 9.73318 106.369 9.73318C105.869 9.73318 105.469 9.89985 105.202 10.1999C104.935 10.4999 104.802 10.9999 104.802 11.5999V12.8332H108.435V10.4999L110.869 9.76652V12.8332H113.335V14.8333H110.869V19.6667C110.869 20.3 111.002 20.7333 111.202 21C111.435 21.2667 111.802 21.4 112.302 21.4C112.435 21.4 112.602 21.3667 112.802 21.3C113.002 21.2333 113.169 21.1667 113.302 21.0667V23.0667C113.135 23.1667 112.902 23.2334 112.535 23.3C112.169 23.3667 111.835 23.4 111.469 23.4C110.435 23.4 109.669 23.1334 109.169 22.6C108.669 22.0667 108.402 21.2333 108.402 20.1333L108.435 14.8666Z" fill="white"/>
<path d="M12.2006 3.99976H0.800415V15.3999H12.2006V3.99976Z" fill="white"/>
<path d="M24.8007 3.99976H13.4005V15.3999H24.8007V3.99976Z" fill="white"/>
<path d="M12.2005 16.5999H0.800354V28H12.2005V16.5999Z" fill="white"/>
<path d="M24.8007 16.5999H13.4005V28H24.8007V16.5999Z" fill="white"/>
</svg>
