<svg width="98" height="32" viewBox="0 0 98 32" fill="none" xmlns="http://www.w3.org/2000/svg">
<path d="M12.2321 17.8837H6.5715L6.57415 12.226H12.2349L12.2321 17.8837Z" fill="black"/>
<path d="M17.8899 23.5414H12.2293L12.232 17.8837H17.8927L17.8899 23.5414Z" fill="black"/>
<path d="M17.8927 17.8837H12.2321L12.2347 12.226H17.8955L17.8927 17.8837Z" fill="black"/>
<path d="M23.5533 17.8837H17.8927L17.8953 12.226H23.5561L23.5533 17.8837Z" fill="black"/>
<path d="M12.2349 12.2259H6.57431L6.57696 6.56812H12.2377L12.2349 12.2259Z" fill="black"/>
<path d="M23.556 12.2259H17.8954L17.8981 6.56812H23.5588L23.556 12.2259Z" fill="black"/>
<path d="M6.57153 17.8837H0.91095L0.913601 12.226H6.57433L6.57153 17.8837Z" fill="black"/>
<path d="M6.57431 12.2259H0.913727L0.916378 6.56812H6.57711L6.57431 12.2259Z" fill="black"/>
<path d="M6.57709 6.56789H0.916504L0.919155 0.910156H6.57989L6.57709 6.56789Z" fill="black"/>
<path d="M29.2194 6.56789H23.5588L23.5615 0.910156H29.2222L29.2194 6.56789Z" fill="black"/>
<path d="M6.56873 23.5414H0.908142L0.910793 17.8837H6.57153L6.56873 23.5414Z" fill="black"/>
<path d="M6.56595 29.1994H0.905365L0.908016 23.5416H6.56875L6.56595 29.1994Z" fill="black"/>
<path d="M29.2139 17.8837H23.5533L23.556 12.226H29.2167L29.2139 17.8837Z" fill="black"/>
<path d="M29.2166 12.2259H23.556L23.5587 6.56812H29.2194L29.2166 12.2259Z" fill="black"/>
<path d="M29.211 23.5414H23.5504L23.5531 17.8837H29.2138L29.211 23.5414Z" fill="black"/>
<path d="M29.2083 29.1994H23.5477L23.5504 23.5416H29.2111L29.2083 29.1994Z" fill="black"/>
<path d="M14.5861 17.8832H8.92566L8.92831 12.2255H14.589L14.5861 17.8832Z" fill="white"/>
<path d="M20.244 23.5408H14.5834L14.5861 17.8831H20.2468L20.244 23.5408Z" fill="white"/>
<path d="M20.2468 17.8832H14.5862L14.5889 12.2255H20.2496L20.2468 17.8832Z" fill="white"/>
<path d="M25.9074 17.8832H20.2468L20.2494 12.2255H25.9102L25.9074 17.8832Z" fill="white"/>
<path d="M14.5889 12.2254H8.92844L8.93109 6.56763H14.5918L14.5889 12.2254Z" fill="white"/>
<path d="M25.9102 12.2254H20.2496L20.2523 6.56763H25.913L25.9102 12.2254Z" fill="white"/>
<path d="M8.92551 17.8832H3.26508L3.26773 12.2255H8.92846L8.92551 17.8832Z" fill="white"/>
<path d="M8.92823 12.2254H3.26779L3.27044 6.56763H8.93118L8.92823 12.2254Z" fill="white"/>
<path d="M8.93109 6.56765H3.27066L3.27331 0.909912H8.93404L8.93109 6.56765Z" fill="white"/>
<path d="M31.5735 6.56765H25.913L25.9156 0.909912H31.5763L31.5735 6.56765Z" fill="white"/>
<path d="M8.92273 23.5408H3.2623L3.26495 17.8831H8.92568L8.92273 23.5408Z" fill="white"/>
<path d="M8.91992 29.1988H3.25949L3.26214 23.541H8.92287L8.91992 29.1988Z" fill="white"/>
<path d="M31.568 17.8832H25.9074L25.91 12.2255H31.5708L31.568 17.8832Z" fill="white"/>
<path d="M31.5707 12.2254H25.9102L25.9128 6.56763H31.5735L31.5707 12.2254Z" fill="white"/>
<path d="M31.5652 23.5408H25.9046L25.9073 17.8831H31.568L31.5652 23.5408Z" fill="white"/>
<path d="M31.5624 29.1988H25.9019L25.9045 23.541H31.5652L31.5624 29.1988Z" fill="white"/>
<path d="M40.683 3.64554H42.8329L43.72 6.85339L44.0243 8.10509H44.0801L44.3807 6.85339L45.2718 3.64554H47.4218V12.6975H45.6881V9.89532C45.6881 8.87608 45.867 6.66876 45.9627 5.69047H45.9211L45.2263 8.12006L44.5215 10.3006H43.5271L42.8101 8.12006L42.1621 5.69047H42.114C42.2178 6.66876 42.3886 8.87608 42.3886 9.89532V12.6975H40.683V3.64554Z" fill="white"/>
<path d="M49.2505 10.9799H51.3655V5.36345H49.2505V3.64558H55.5298V5.36345H53.4154V10.9799H55.5298V12.6978H49.2505V10.9799Z" fill="white"/>
<path d="M57.26 11.557L58.4364 10.15C59.121 10.7103 59.9658 11.0946 60.8439 11.0946C61.7136 11.0946 62.1153 10.758 62.1153 10.3155C62.1153 9.66365 61.577 9.50604 60.7201 9.14737L59.5402 8.64399C58.5369 8.26287 57.6205 7.49375 57.6205 6.17614C57.6205 4.67701 58.9716 3.47874 60.9398 3.47874C62.029 3.47874 63.1297 3.88711 63.9474 4.66391L62.9148 5.95533C62.2768 5.49748 61.7124 5.24818 60.8275 5.24818C60.1526 5.24818 59.6943 5.52804 59.6943 6.05658C59.6943 6.60114 60.3014 6.80054 61.1701 7.12594L62.278 7.59522C63.4642 8.03955 64.2127 8.77893 64.2127 10.0564C64.2127 11.5612 62.9497 12.864 60.7078 12.864C59.484 12.864 58.2203 12.4166 57.26 11.557Z" fill="white"/>
<path d="M68.0423 5.36345H65.3271V3.64558H72.8069V5.36345H70.0922V12.6978H68.0423V5.36345Z" fill="white"/>
<path d="M76.2548 5.27154H77.2541C78.3307 5.27154 78.9084 5.57199 78.9084 6.46586C78.9084 7.35203 78.3307 7.81528 77.2541 7.81528H76.2548V5.27154ZM81.3525 12.6978L79.3042 9.07634C80.2711 8.63929 80.9181 7.79595 80.9181 6.46586C80.9181 4.31218 79.3394 3.64558 77.421 3.64558H74.2009V12.6978H76.2548V9.44125H77.3307L79.0598 12.6978H81.3525Z" fill="white"/>
<path d="M84.7549 8.94864L84.9691 8.11466L85.6718 5.19541H85.7274C85.9452 6.15061 86.221 7.21081 86.4505 8.11466L86.6633 8.94864H84.7549ZM87.6198 12.6975H89.793L86.9722 3.64554H84.5154L81.6946 12.6975H83.7919L84.3448 10.5449H87.0706L87.6198 12.6975Z" fill="white"/>
<path d="M91.3939 3.64554H93.4397V10.9798H97.471V12.6975H91.3939V3.64554Z" fill="white"/>
<path d="M43.0634 23.4698L43.2777 22.6358L43.9804 19.7163H44.0359C44.2537 20.6715 44.5296 21.7319 44.759 22.6358L44.9718 23.4698H43.0634ZM45.9275 27.2222H48.1016L45.2797 18.1665H42.8219L40 27.2222H42.0982L42.6515 25.0683H45.3781L45.9275 27.2222Z" fill="white"/>
<path d="M49.2505 25.5011H51.3655V19.8845H49.2505V18.1666H55.5298V19.8845H53.4154V25.5011H55.5298V27.219H49.2505V25.5011Z" fill="white"/>
<path d="M57.3933 27.9668H64.0641V29.5042H57.3933V27.9668Z" fill="white"/>
</svg>
