<svg width="215" height="62" viewBox="0 0 215 62" fill="none" xmlns="http://www.w3.org/2000/svg">
<path d="M114 19.3395V41.6181C114 41.7878 113.848 41.9576 113.595 41.9576H110.808C109.542 41.9576 108.326 41.4059 107.617 40.5148L95.0529 24.262L95.4582 32.3672V41.6605C95.4582 41.8303 95.3062 42 95.0529 42H91.4053C91.2026 42 91 41.8727 91 41.6605V19.3395C91 19.1697 91.152 19 91.4053 19H94.141C95.4075 19 96.6233 19.5517 97.3326 20.4428L109.896 36.6531L109.491 28.548V19.3395C109.491 19.1697 109.643 19 109.896 19H113.544C113.848 19 114 19.1273 114 19.3395Z" fill="white"/>
<path d="M151.32 42H147.389C147.131 42 146.924 41.787 147.027 41.5741L157.474 19.2981C157.578 19.1278 157.785 19 157.992 19H162.957C163.215 19 163.422 19.1278 163.474 19.2981L173.973 41.5741C174.076 41.787 173.869 42 173.611 42H169.68C169.525 42 169.37 41.9148 169.318 41.787L160.888 23.4722C160.784 23.2167 160.267 23.2167 160.164 23.4722L151.734 41.787C151.63 41.9148 151.475 42 151.32 42Z" fill="white"/>
<path d="M200.902 41.4889L193.032 33.2259C197.485 32.5444 200.074 30.0741 200.074 26.2833C200.074 21.9389 196.656 19 190.547 19H179.57C179.259 19 179 19.213 179 19.4685C179 21.1722 180.657 22.5352 182.728 22.5352H190.132C193.809 22.5352 195.569 24.0685 195.569 26.3259C195.569 28.5833 193.86 30.1167 190.132 30.1167H179.673C179.362 30.1167 179.104 30.3296 179.104 30.5852V41.6593C179.104 41.8296 179.259 42 179.518 42H183.246C183.453 42 183.66 41.8722 183.66 41.6593V33.4389H187.958L194.792 40.7648C195.517 41.5741 196.656 42 197.899 42H200.747C200.954 42 201.109 41.7019 200.902 41.4889Z" fill="white"/>
<path d="M139.592 19H122.51C122.204 19 122 19.1707 122 19.4267C122 21.1336 123.683 22.5417 125.722 22.5417H139.592C139.796 22.5417 140 22.4137 140 22.2004V19.2987C139.949 19.128 139.796 19 139.592 19ZM139.592 38.5009H126.844C126.64 38.5009 126.436 38.3729 126.436 38.1596V32.3989C126.436 32.2282 126.589 32.0575 126.844 32.0575H138.623C138.827 32.0575 139.031 31.9295 139.031 31.7161V28.8145C139.031 28.6438 138.878 28.4731 138.623 28.4731H122.561C122.255 28.4731 122 28.6865 122 28.9425V41.5306C122 41.7866 122.255 42 122.561 42H139.592C139.796 42 140 41.872 140 41.6586V38.757C139.949 38.6289 139.796 38.5009 139.592 38.5009Z" fill="white"/>
<path d="M63.8613 12.9933L54.263 25.0833C53.5993 25.9067 54.8757 26.9033 55.7947 26.21L65.2397 19.2333C65.495 19.06 65.8524 19.19 65.8524 19.4933V41.29C65.8524 41.5933 65.3929 41.7233 65.1887 41.5067L36.5982 12.4733C35.6792 11.52 34.3518 11 32.8713 11H31.8502C29.1953 11 27 12.8633 27 15.16V45.84C27 48.1367 29.1953 50 31.9012 50C33.586 50 35.1687 49.2633 36.0877 48.0067L45.6859 35.9167C46.3496 35.0933 45.0733 34.0967 44.1543 34.79L34.7092 41.7233C34.4539 41.8967 34.0966 41.7667 34.0966 41.4633V19.71C34.0966 19.4067 34.556 19.2767 34.7603 19.4933L63.3507 48.5267C64.2697 49.48 65.6482 50 67.0777 50H68.0988C70.8047 50 73 48.1367 73 45.84V15.16C72.9489 12.8633 70.7536 11 68.0477 11C66.3629 11 64.7802 11.7367 63.8613 12.9933Z" fill="white"/>
</svg>
