<svg width="78" height="18" viewBox="0 0 78 18" fill="none" xmlns="http://www.w3.org/2000/svg">
  <g clip-path="url(#clip0_4001_4811)">
    <path d="M73.0479 17.6803C73.0479 17.8135 72.9405 17.9201 72.8064 17.9201H69.6787C69.5446 17.9201 69.4373 17.8135 69.4373 17.6803V10.7505H63.2317C63.0976 10.7505 62.9903 10.644 62.9903 10.5108V7.4055C62.9903 7.27231 63.0976 7.16575 63.2317 7.16575H69.4373V5.44947C69.4373 4.76829 69.2916 4.28879 69.0003 4.0148C68.7243 3.72558 68.2452 3.58097 67.5553 3.58097H63.5844C62.8983 3.58097 62.4077 3.72558 62.1164 4.0148C61.8404 4.28879 61.7024 4.76448 61.7024 5.44947V17.6765C61.7024 17.8097 61.5951 17.9163 61.4609 17.9163H58.3333C58.1991 17.9163 58.0918 17.8097 58.0918 17.6765V5.45328C58.0918 3.90063 58.6169 2.60296 59.6633 1.56025C60.7097 0.517548 62.0167 0 63.5805 0H67.5515C69.1153 0 70.4223 0.521353 71.4725 1.56025C72.5228 2.59915 73.044 3.89683 73.044 5.45328V17.6803H73.0479Z" fill="white" />
    <path d="M51.6601 2.13173e-05C51.7942 2.13173e-05 51.9016 0.106575 51.9016 0.239768V3.34505C51.9016 3.47825 51.7942 3.5848 51.6601 3.5848H44.2434C43.5573 3.5848 43.0667 3.72941 42.7754 4.01863C42.4994 4.29262 42.3614 4.76831 42.3614 5.4533C42.3614 6.08501 42.4994 6.53025 42.7754 6.78522C43.0667 7.04019 43.5573 7.16958 44.2434 7.16958H48.2143C49.7628 7.16958 51.0583 7.6719 52.1085 8.68036C53.1741 9.68882 53.7069 10.9484 53.7069 12.4706C53.7069 14.0233 53.1818 15.321 52.1354 16.3637C51.0852 17.4064 49.782 17.9239 48.2143 17.9239H39.7665C39.6324 17.9239 39.5251 17.8174 39.5251 17.6842V14.5751C39.5251 14.4419 39.6324 14.3353 39.7665 14.3353H48.2143C48.9004 14.3353 49.3833 14.1983 49.6593 13.9243C49.9506 13.6351 50.0963 13.148 50.0963 12.4668C50.0963 11.8351 49.9506 11.3899 49.6593 11.1349C49.3833 10.8799 48.9042 10.7506 48.2143 10.7506H44.2434C42.6949 10.7506 41.3917 10.2482 40.3261 9.23977C39.2759 8.23131 38.7546 6.97169 38.7546 5.44949C38.7546 3.89685 39.2797 2.59918 40.3261 1.55647C41.3725 0.513763 42.6796 -0.00378418 44.2434 -0.00378418H51.6601V2.13173e-05Z" fill="white" />
    <path d="M34.1206 14.3619C34.2548 14.3619 34.3621 14.4685 34.3621 14.6017V17.707C34.3621 17.8402 34.2548 17.9467 34.1206 17.9467H24.8986C23.3348 17.9467 22.0277 17.4254 20.9775 16.3865C19.9273 15.3438 19.406 14.0499 19.406 12.4934V12.2727C19.406 12.1395 19.5133 12.033 19.6475 12.033H22.7751C22.9093 12.033 23.0166 12.1395 23.0166 12.2727V12.4934C23.0166 13.1746 23.1546 13.6617 23.4306 13.951C23.7219 14.2249 24.2125 14.3619 24.8986 14.3619H34.1206ZM19.6475 10.7505C19.5133 10.7505 19.406 10.644 19.406 10.5108V0H34.1206C34.2548 0 34.3621 0.106554 34.3621 0.239746V3.34503C34.3621 3.47822 34.2548 3.58478 34.1206 3.58478H23.0166V7.16956H32.3153C32.4494 7.16956 32.5568 7.27611 32.5568 7.4093V10.5146C32.5568 10.6478 32.4494 10.7543 32.3153 10.7543H19.6475V10.7505Z" fill="white" />
    <path d="M3.6758 17.6803C3.6758 17.8135 3.56848 17.9201 3.43433 17.9201H0.30666C0.172507 17.9201 0.0651855 17.8135 0.0651855 17.6803V12.2727C0.0651855 12.1395 0.172507 12.033 0.30666 12.033H3.43433C3.56848 12.033 3.6758 12.1395 3.6758 12.2727V17.6803ZM0.30666 10.7505C0.172507 10.7505 0.0651855 10.644 0.0651855 10.5108V5.45328C0.0651855 3.90063 0.590296 2.60296 1.63668 1.56025C2.68307 0.517548 3.99393 0 5.55777 0H9.52868C11.0925 0 12.3995 0.521353 13.4498 1.56025C14.5 2.60296 15.0213 3.89683 15.0213 5.45328V17.6803C15.0213 17.8135 14.9139 17.9201 14.7798 17.9201H11.6521C11.518 17.9201 11.4106 17.8135 11.4106 17.6803V5.45328C11.4106 4.77209 11.265 4.2926 10.9737 4.0186C10.6977 3.72939 10.2186 3.58478 9.52868 3.58478H5.55777C4.87167 3.58478 4.38106 3.72939 4.08976 4.0186C3.81379 4.2926 3.6758 4.76829 3.6758 5.45328V10.5108C3.6758 10.644 3.56848 10.7505 3.43433 10.7505H0.30666Z" fill="white" />
    <path d="M75.2173 0H75.6159L76.5511 2.26808H76.5818L77.5209 0H77.9195V2.73615H77.609V0.658351H77.5822L76.7198 2.73615H76.417L75.5584 0.658351H75.5316V2.73615H75.2211V0H75.2173Z" fill="white" />
    <path d="M72.6033 0.293023V0H74.6692V0.293023H73.803V2.73235H73.4695V0.293023H72.6033Z" fill="white" />
  </g>
  <defs>
    <clipPath id="clip0_4001_4811">
      <rect width="78" height="18" fill="white" />
    </clipPath>
  </defs>
</svg>