<svg width="88" height="32" viewBox="0 0 88 32" fill="none" xmlns="http://www.w3.org/2000/svg">
<path d="M27.8256 15.5378C27.8256 19.4621 30.3458 22.1983 33.8381 22.1983C37.3303 22.1983 39.8505 19.4621 39.8505 15.5378C39.8505 11.6135 37.3303 8.87732 33.8381 8.87732C30.3458 8.87732 27.8256 11.6135 27.8256 15.5378ZM37.5463 15.5378C37.5463 18.346 36.0162 20.1642 33.8381 20.1642C31.6599 20.1642 30.1298 18.346 30.1298 15.5378C30.1298 12.7296 31.6599 10.9115 33.8381 10.9115C36.0162 10.9115 37.5463 12.7296 37.5463 15.5378Z" fill="white"/>
<path d="M46.3392 22.1984C48.9854 22.1984 50.4975 19.9662 50.4975 17.284C50.4975 14.6018 48.9854 12.3696 46.3392 12.3696C45.1152 12.3696 44.2151 12.8557 43.621 13.5577V12.5496H41.4609V25.2406H43.621V21.0103C44.2151 21.7123 45.1152 22.1984 46.3392 22.1984ZM43.567 17.014C43.567 15.2318 44.5751 14.2598 45.9072 14.2598C47.4733 14.2598 48.3194 15.4839 48.3194 17.284C48.3194 19.0841 47.4733 20.3082 45.9072 20.3082C44.5751 20.3082 43.567 19.3181 43.567 17.572V17.014Z" fill="white"/>
<path d="M56.3435 22.1984C58.2337 22.1984 59.7278 21.2083 60.3938 19.5522L58.5397 18.8501C58.2517 19.8222 57.4056 20.3622 56.3435 20.3622C54.9574 20.3622 53.9853 19.3721 53.8233 17.752H60.4478V17.032C60.4478 14.4398 58.9897 12.3696 56.2535 12.3696C53.5173 12.3696 51.7532 14.5118 51.7532 17.284C51.7532 20.2002 53.6433 22.1984 56.3435 22.1984ZM56.2355 14.1878C57.6036 14.1878 58.2517 15.0878 58.2697 16.1319H53.9313C54.2554 14.8538 55.1194 14.1878 56.2355 14.1878Z" fill="white"/>
<path d="M62.0687 22.0003H64.2288V16.4559C64.2288 15.1058 65.2189 14.3858 66.191 14.3858C67.3791 14.3858 67.8471 15.2318 67.8471 16.4019V22.0003H70.0073V15.7719C70.0073 13.7377 68.8192 12.3696 66.839 12.3696C65.6149 12.3696 64.7689 12.9277 64.2288 13.5577V12.5496H62.0687V22.0003Z" fill="white"/>
<path d="M76.334 9.07544L71.4377 22.0004H73.7239L74.8219 19.0482H80.4024L81.5184 22.0004H83.8406L78.9442 9.07544H76.334ZM77.5941 11.6316L79.6463 17.032H75.578L77.5941 11.6316Z" fill="white"/>
<path d="M87.5488 9.11267H85.2446V22.0376H87.5488V9.11267Z" fill="white"/>
<path d="M22.5467 13.8224C23.0912 12.188 22.9037 10.3976 22.0329 8.91101C20.7233 6.63084 18.0906 5.45775 15.5194 6.00979C14.3756 4.72119 12.7322 3.98839 11.0093 3.99889C8.38115 3.99289 6.04923 5.68502 5.24067 8.1857C3.55229 8.53148 2.09493 9.58831 1.24212 11.0862C-0.0772292 13.3603 0.223543 16.227 1.98617 18.1772C1.44163 19.8116 1.62915 21.6019 2.49996 23.0886C3.80956 25.3687 6.44226 26.5418 9.01345 25.9898C10.1565 27.2784 11.8007 28.0112 13.5235 27.9999C16.1532 28.0067 18.4859 26.313 19.2945 23.8101C20.9828 23.4643 22.4402 22.4075 23.293 20.9096C24.6109 18.6355 24.3093 15.771 22.5475 13.8209L22.5467 13.8224ZM13.525 26.4316C12.4727 26.4331 11.4534 26.0648 10.6456 25.3905C10.6823 25.371 10.7461 25.3357 10.7873 25.3102L15.5667 22.55C15.8112 22.4113 15.9612 22.151 15.9597 21.8697V15.132L17.9796 16.2983C18.0014 16.3088 18.0156 16.3298 18.0186 16.3538V21.9335C18.0156 24.4147 16.0062 26.4263 13.525 26.4316ZM3.86131 22.304C3.33402 21.3934 3.14426 20.3261 3.32502 19.2903C3.36028 19.3113 3.42253 19.3495 3.46678 19.375L8.24614 22.1352C8.48841 22.277 8.78843 22.277 9.03145 22.1352L14.8661 18.766V21.0987C14.8676 21.1227 14.8564 21.1459 14.8376 21.1609L10.0065 23.9504C7.85461 25.1895 5.10641 24.4529 3.86206 22.304H3.86131ZM2.60347 11.8715C3.12851 10.9594 3.95732 10.2619 4.94439 9.89958C4.94439 9.94083 4.94214 10.0136 4.94214 10.0646V15.5858C4.94064 15.8663 5.09066 16.1265 5.33442 16.2653L11.1691 19.6338L9.14921 20.8001C9.12896 20.8136 9.10345 20.8159 9.08095 20.8061L4.24909 18.0144C2.10168 16.7708 1.36513 14.0234 2.60272 11.8722L2.60347 11.8715ZM19.1992 15.7335L13.3645 12.3643L15.3844 11.1987C15.4047 11.1852 15.4302 11.1829 15.4527 11.1927L20.2845 13.9821C22.4357 15.225 23.173 17.9769 21.9302 20.1281C21.4044 21.0387 20.5763 21.7362 19.59 22.0992V16.4131C19.5922 16.1325 19.443 15.873 19.2 15.7335H19.1992ZM21.2094 12.7078C21.1741 12.686 21.1118 12.6485 21.0676 12.623L16.2882 9.86283C16.046 9.72107 15.7459 9.72107 15.5029 9.86283L9.66825 13.2321V10.8994C9.66675 10.8754 9.678 10.8521 9.69675 10.8371L14.5279 8.04994C16.6798 6.8086 19.431 7.5474 20.6716 9.70006C21.1959 10.6091 21.3856 11.6735 21.2079 12.7078H21.2094ZM8.57016 16.8653L6.54951 15.699C6.52776 15.6885 6.51351 15.6675 6.51051 15.6435V10.0638C6.51201 7.57966 8.52741 5.56651 11.0116 5.56801C12.0624 5.56801 13.0795 5.93703 13.8873 6.60908C13.8506 6.62859 13.7876 6.66384 13.7455 6.68934L8.96619 9.44955C8.72167 9.58831 8.57166 9.84783 8.57316 10.1291L8.57016 16.8638V16.8653ZM9.6675 14.4997L12.2664 12.9988L14.8654 14.4989V17.4999L12.2664 19L9.6675 17.4999V14.4997Z" fill="white"/>
</svg>
