<svg width="112" height="27" viewBox="0 0 112 27" fill="none" xmlns="http://www.w3.org/2000/svg">
  <g clip-path="url(#clip0_4001_4819)">
    <path fill-rule="evenodd" clip-rule="evenodd" d="M27.355 0.0790383C28.1676 0.878816 22.7208 7.53591 15.1891 14.9481C7.65745 22.3603 0.892988 27.7207 0.0803126 26.921C-0.380926 26.467 1.17416 24.1263 3.98235 20.8317C3.67898 20.4339 3.40224 20.0186 3.15328 19.589C2.12548 17.8151 1.57128 15.7936 1.57128 13.7158C1.57128 10.5713 2.84056 7.5557 5.09986 5.33225C7.35917 3.10877 10.4235 1.85964 13.6186 1.85964C15.7299 1.85964 17.784 2.40503 19.5865 3.41655C20.0118 3.65521 20.4231 3.91983 20.8179 4.20937C24.349 1.26342 26.8779 -0.390531 27.355 0.0790383ZM8.14935 16.2214C9.41735 14.8841 10.793 13.482 12.2462 12.0519C13.5812 10.738 14.8921 9.48869 16.1501 8.32667C15.364 7.96905 14.5013 7.7787 13.6186 7.7787C12.0186 7.7787 10.4841 8.40421 9.35277 9.51763C8.2214 10.631 7.58579 12.1412 7.58579 13.7158C7.58579 14.5898 7.7816 15.444 8.14935 16.2214ZM6.91679 23.5672C6.97481 23.6054 7.03313 23.6432 7.09175 23.6803C9.02287 24.9053 11.2863 25.5715 13.6194 25.5715C16.8146 25.5715 19.8788 24.3224 22.1381 22.099C24.3974 19.8755 25.6668 16.8598 25.6668 13.7153C25.6668 11.4192 24.9899 9.19173 23.7451 7.29122C23.7186 7.25089 23.6921 7.21073 23.665 7.17074C23.1443 7.83582 22.5771 8.53036 21.9683 9.24775C22.7191 10.6067 23.1226 12.1405 23.1226 13.7153C23.1226 16.1957 22.1214 18.5745 20.3392 20.3284C18.557 22.0823 16.1398 23.0677 13.6194 23.0677C12.0041 23.0677 10.4311 22.6629 9.04063 21.9106C8.30504 22.508 7.59467 23.0618 6.91679 23.5672ZM9.90548 21.1978C11.0514 21.7486 12.32 22.0428 13.6194 22.0428C15.8636 22.0428 18.0158 21.1655 19.6027 19.6038C21.1896 18.0421 22.0811 15.9239 22.0811 13.7153C22.0811 12.4494 21.7883 11.2131 21.2394 10.0944C20.6386 10.7829 20.0025 11.4892 19.3354 12.2079C19.4682 12.6954 19.5371 13.2019 19.5371 13.7153C19.5371 15.2599 18.9136 16.7411 17.8038 17.8332C16.694 18.9254 15.1889 19.539 13.6194 19.539C13.0891 19.539 12.5661 19.469 12.0633 19.3341C11.3283 19.9887 10.6072 20.6112 9.90548 21.1978Z" fill="white" />
    <path fill-rule="evenodd" clip-rule="evenodd" d="M58.2598 21.2564V5.74365H60.7362V10.2508H64.3563C66.5722 10.2508 67.6798 11.3548 67.6798 13.5629V17.9442C67.6798 20.1524 66.5722 21.2564 64.3563 21.2564H58.2598ZM60.7362 19.1182H64.2292C64.8785 19.1182 65.2033 18.7967 65.2033 18.1539V13.3533C65.2033 12.7104 64.8785 12.389 64.2292 12.389H60.7362V19.1182Z" fill="white" />
    <path fill-rule="evenodd" clip-rule="evenodd" d="M32.5264 6.79175V21.2564H35.109V16.3929H39.5546C41.855 16.3929 43.0054 15.2609 43.0054 12.9969V10.2088C43.0054 7.93077 41.855 6.79175 39.5546 6.79175H32.5264ZM39.4911 14.066H35.109V9.11868H39.4911C40.112 9.11868 40.4225 9.41914 40.4225 10.0201V13.1436C40.4225 13.7585 40.112 14.066 39.4911 14.066Z" fill="white" />
    <path d="M45.6677 10.2507V17.9442C45.6677 20.1523 46.7826 21.2564 49.0123 21.2564H55.0882V10.2507H52.6113V19.1182H49.1183C48.469 19.1182 48.1446 18.7967 48.1446 18.1538V10.2507H45.6677Z" fill="white" />
    <path d="M70.5994 5.74365V21.2564H73.0762V5.74365H70.5994Z" fill="white" />
    <path d="M76.2034 8.34302V5.84839H78.8068V8.34302H76.2034Z" fill="white" />
    <path d="M76.2668 21.2564V10.2507H78.7433V21.2564H76.2668Z" fill="white" />
    <path d="M81.7412 13.5629V17.9442C81.7412 20.1523 82.8561 21.2564 85.0858 21.2564H90.209V19.1182H85.1918C84.5425 19.1182 84.2181 18.7967 84.2181 18.1538V13.3533C84.2181 12.7104 84.5425 12.389 85.1918 12.389H90.209V10.2507H85.0858C82.8561 10.2507 81.7412 11.3548 81.7412 13.5629Z" fill="white" />
    <path fill-rule="evenodd" clip-rule="evenodd" d="M97.7889 5.8175L92.6699 21.1826H95.618L96.7032 17.7978H103.149L104.212 21.1826H107.117L102.087 5.8175H97.7889ZM102.403 15.3261H97.4722L99.7113 8.28927H100.141L102.403 15.3261Z" fill="white" />
    <path d="M109.241 5.8175V21.1826H112V5.8175H109.241Z" fill="white" />
  </g>
  <defs>
    <clipPath id="clip0_4001_4819">
      <rect width="112" height="27" fill="white" />
    </clipPath>
  </defs>
</svg>