<svg width="114" height="31" viewBox="0 0 114 31" fill="none" xmlns="http://www.w3.org/2000/svg">
  <path d="M6.19067 27.6549C5.34218 26.7682 4.53255 25.9212 3.69054 25.0409C6.70365 22.2935 9.64941 19.6064 12.5965 16.918C12.5796 16.8564 12.5641 16.7935 12.5472 16.7319C8.5237 16.9064 4.49887 17.0809 0.428711 17.2567C0.428711 16.0774 0.428711 14.9546 0.428711 13.7188C4.49758 13.842 8.55608 13.9665 12.8063 14.0961C9.71158 11.305 6.72827 8.61535 3.83174 6.00395C4.64655 5.08771 5.41472 4.22408 6.24378 3.29245C9.09108 6.26573 11.8373 9.1325 14.5823 11.9993C14.6367 11.9723 14.6911 11.9454 14.7468 11.9171C14.5888 8.02634 14.432 4.13426 14.2727 0.204956C15.5046 0.204956 16.6381 0.204956 17.9011 0.204956C17.7431 4.13811 17.5851 8.04944 17.4283 11.9608C17.4775 11.9852 17.5268 12.0108 17.576 12.0352C20.3222 9.18768 23.0685 6.33887 25.9404 3.36174C26.7047 4.22665 27.4509 5.07103 28.2488 5.97443C25.6114 8.60509 22.5529 11.024 19.8663 13.8176C19.9012 13.8921 19.9362 13.9665 19.9699 14.0409C23.9053 13.9447 27.8395 13.8484 31.8319 13.7496C31.8319 14.8429 31.8462 15.9003 31.8073 16.9565C31.8034 17.045 31.4459 17.1977 31.2555 17.1926C28.2139 17.1053 25.1722 16.9924 22.1293 16.8974C21.3754 16.8743 20.6202 16.8936 19.7484 16.8936C19.944 17.1246 20.0904 17.3363 20.2756 17.5082C22.7991 19.8733 25.3199 22.2421 27.8628 24.5866C28.2825 24.9742 28.2942 25.2103 27.8796 25.6081C27.2164 26.2446 26.6192 26.9504 25.9534 27.6716C23.0828 24.6213 20.352 21.7199 17.6226 18.8197C17.5604 18.8351 17.497 18.8492 17.4348 18.8646C17.5889 22.8209 17.7418 26.7771 17.8985 30.795C16.6964 30.795 15.5461 30.795 14.2818 30.795C14.4359 26.8618 14.5901 22.9094 14.7442 18.957C14.6872 18.9262 14.6315 18.8967 14.5745 18.8659C11.805 21.7686 9.03538 24.6713 6.19067 27.6549Z" fill="white" />
  <path d="M49.6026 11.7524C49.5161 10.9846 49.1592 10.3898 48.532 9.96798C47.9047 9.54081 47.1153 9.32722 46.1636 9.32722C45.4823 9.32722 44.8929 9.43536 44.3954 9.65166C43.8979 9.86254 43.5113 10.1545 43.2355 10.5276C42.9651 10.8953 42.83 11.3144 42.83 11.7848C42.83 12.1796 42.9219 12.5202 43.1057 12.8068C43.295 13.0934 43.541 13.334 43.8438 13.5287C44.1521 13.718 44.4819 13.8775 44.8334 14.0073C45.1849 14.1316 45.5228 14.2344 45.8473 14.3155L47.4694 14.7372C47.9994 14.867 48.5428 15.0428 49.0998 15.2645C49.6567 15.4862 50.1731 15.7782 50.649 16.1404C51.1248 16.5027 51.5087 16.9515 51.8007 17.4869C52.0981 18.0222 52.2468 18.663 52.2468 19.4092C52.2468 20.3501 52.0035 21.1855 51.5168 21.9155C51.0356 22.6455 50.3353 23.2213 49.4161 23.6431C48.5022 24.0649 47.3965 24.2758 46.0987 24.2758C44.855 24.2758 43.7789 24.0784 42.8705 23.6837C41.9621 23.2889 41.251 22.7293 40.7373 22.0047C40.2236 21.2747 39.9397 20.4095 39.8857 19.4092H42.4001C42.4487 20.0094 42.6434 20.5096 42.9841 20.9097C43.3301 21.3044 43.7708 21.5991 44.3062 21.7938C44.8469 21.9831 45.439 22.0777 46.0825 22.0777C46.7908 22.0777 47.4208 21.9668 47.9723 21.7451C48.5293 21.518 48.9673 21.2044 49.2863 20.8043C49.6053 20.3987 49.7649 19.9256 49.7649 19.3848C49.7649 18.8928 49.6243 18.4899 49.3431 18.1763C49.0673 17.8627 48.6915 17.6031 48.2157 17.3977C47.7452 17.1922 47.2126 17.011 46.6178 16.8542L44.6549 16.3189C43.3247 15.9566 42.2703 15.424 41.4916 14.721C40.7184 14.0181 40.3318 13.088 40.3318 11.9308C40.3318 10.9737 40.5913 10.1383 41.1104 9.42455C41.6295 8.71078 42.3325 8.15653 43.2193 7.7618C44.1061 7.36165 45.1064 7.16158 46.2204 7.16158C47.3451 7.16158 48.3373 7.35895 49.1971 7.75368C50.0623 8.14842 50.7436 8.69186 51.2411 9.38399C51.7385 10.0707 51.9981 10.8602 52.0197 11.7524H49.6026ZM56.7871 16.6028V24H54.3619V7.38869H56.7547V13.5693H56.9088C57.2008 12.8988 57.6469 12.3661 58.2471 11.9714C58.8473 11.5767 59.6314 11.3793 60.5993 11.3793C61.4536 11.3793 62.1998 11.555 62.8379 11.9065C63.4814 12.258 63.9789 12.7825 64.3303 13.48C64.6872 14.1722 64.8657 15.0374 64.8657 16.0756V24H62.4405V16.3676C62.4405 15.4537 62.2053 14.7454 61.7348 14.2425C61.2644 13.7342 60.6101 13.48 59.772 13.48C59.1988 13.48 58.6851 13.6017 58.2309 13.845C57.7821 14.0884 57.4279 14.4453 57.1683 14.9157C56.9142 15.3807 56.7871 15.9431 56.7871 16.6028ZM71.0423 24.2758C70.2529 24.2758 69.5391 24.1298 68.901 23.8378C68.263 23.5404 67.7574 23.1105 67.3843 22.5481C67.0166 21.9858 66.8327 21.2963 66.8327 20.4798C66.8327 19.7769 66.9679 19.1983 67.2383 18.7441C67.5087 18.2899 67.8736 17.9303 68.3333 17.6653C68.7929 17.4004 69.3066 17.2003 69.8744 17.0651C70.4421 16.9299 71.0207 16.8272 71.6101 16.7569C72.3563 16.6704 72.9619 16.6001 73.427 16.546C73.892 16.4865 74.23 16.3919 74.4408 16.2621C74.6517 16.1323 74.7572 15.9215 74.7572 15.6295V15.5727C74.7572 14.8643 74.5571 14.3155 74.157 13.9261C73.7622 13.5368 73.1728 13.3422 72.3888 13.3422C71.5723 13.3422 70.9288 13.5233 70.4584 13.8856C69.9933 14.2425 69.6716 14.6399 69.4931 15.0779L67.214 14.5588C67.4843 13.8018 67.8791 13.1908 68.3982 12.7257C68.9227 12.2553 69.5256 11.9146 70.2069 11.7037C70.8882 11.4874 71.6047 11.3793 72.3563 11.3793C72.8538 11.3793 73.381 11.4388 73.938 11.5577C74.5003 11.6713 75.0248 11.8822 75.5115 12.1904C76.0036 12.4986 76.4064 12.9393 76.72 13.5125C77.0337 14.0803 77.1905 14.8184 77.1905 15.7268V24H74.8221V22.2967H74.7247C74.5679 22.6103 74.3327 22.9185 74.0191 23.2213C73.7055 23.5242 73.3026 23.7756 72.8105 23.9757C72.3185 24.1757 71.7291 24.2758 71.0423 24.2758ZM71.5696 22.3291C72.2401 22.3291 72.8132 22.1967 73.2891 21.9317C73.7703 21.6667 74.1353 21.3207 74.3841 20.8935C74.6382 20.4609 74.7653 19.9986 74.7653 19.5065V17.9005C74.6788 17.9871 74.5111 18.0682 74.2624 18.1439C74.0191 18.2142 73.7406 18.2763 73.427 18.3304C73.1133 18.3791 72.8078 18.425 72.5104 18.4683C72.213 18.5062 71.9643 18.5386 71.7642 18.5656C71.2938 18.6251 70.8639 18.7252 70.4746 18.8657C70.0907 19.0063 69.7824 19.2091 69.5499 19.4741C69.3228 19.7336 69.2093 20.0797 69.2093 20.5123C69.2093 21.1125 69.431 21.5667 69.8744 21.8749C70.3178 22.1777 70.8828 22.3291 71.5696 22.3291ZM79.7355 24V11.5415H82.0795V13.5206H82.2093C82.4364 12.8501 82.8366 12.3229 83.4097 11.939C83.9883 11.5496 84.6426 11.355 85.3726 11.355C85.524 11.355 85.7024 11.3604 85.9079 11.3712C86.1188 11.382 86.2837 11.3955 86.4027 11.4117V13.7315C86.3054 13.7044 86.1323 13.6747 85.8836 13.6423C85.6349 13.6044 85.3861 13.5855 85.1374 13.5855C84.5642 13.5855 84.0532 13.7072 83.6044 13.9505C83.161 14.1884 82.8095 14.521 82.55 14.9481C82.2904 15.3699 82.1606 15.8512 82.1606 16.3919V24H79.7355ZM87.8162 28.6719V11.5415H90.1846V13.5612H90.3874C90.528 13.3016 90.7307 13.0015 90.9957 12.6608C91.2607 12.3202 91.6284 12.0228 92.0988 11.7686C92.5692 11.5091 93.1911 11.3793 93.9643 11.3793C94.9701 11.3793 95.8677 11.6334 96.6572 12.1417C97.4466 12.65 98.0658 13.3827 98.5146 14.3398C98.9688 15.2969 99.1959 16.4487 99.1959 17.7951C99.1959 19.1415 98.9715 20.296 98.5227 21.2585C98.0739 22.2156 97.4575 22.9537 96.6734 23.4728C95.8893 23.9865 94.9944 24.2433 93.9887 24.2433C93.2316 24.2433 92.6125 24.1163 92.1312 23.8621C91.6554 23.608 91.2823 23.3106 91.0119 22.9699C90.7416 22.6292 90.5334 22.3264 90.3874 22.0615H90.2414V28.6719H87.8162ZM90.1927 17.7708C90.1927 18.6467 90.3198 19.4146 90.5739 20.0743C90.8281 20.734 91.1958 21.2504 91.677 21.6235C92.1583 21.9912 92.7477 22.175 93.4452 22.175C94.1698 22.175 94.7754 21.9831 95.2621 21.5991C95.7487 21.2098 96.1164 20.6826 96.3652 20.0175C96.6193 19.3524 96.7464 18.6035 96.7464 17.7708C96.7464 16.9488 96.622 16.2107 96.3733 15.5565C96.13 14.9022 95.7623 14.3858 95.2702 14.0073C94.7835 13.6287 94.1752 13.4395 93.4452 13.4395C92.7423 13.4395 92.1475 13.6206 91.6608 13.9829C91.1796 14.3452 90.8146 14.8508 90.5658 15.4997C90.3171 16.1486 90.1927 16.9056 90.1927 17.7708ZM106.597 24.2514C105.37 24.2514 104.313 23.9892 103.426 23.4647C102.545 22.9348 101.863 22.1912 101.382 21.2342C100.906 20.2716 100.668 19.1442 100.668 17.8519C100.668 16.5757 100.906 15.451 101.382 14.4777C101.863 13.5044 102.534 12.7446 103.394 12.1985C104.259 11.6524 105.27 11.3793 106.427 11.3793C107.13 11.3793 107.811 11.4956 108.471 11.7281C109.131 11.9606 109.723 12.3256 110.247 12.8231C110.772 13.3205 111.185 13.9667 111.488 14.7616C111.791 15.5511 111.943 16.5109 111.943 17.641V18.5007H102.039V16.6839H109.566C109.566 16.0458 109.436 15.4808 109.177 14.9887C108.917 14.4912 108.552 14.0992 108.082 13.8126C107.617 13.526 107.07 13.3827 106.443 13.3827C105.762 13.3827 105.167 13.5503 104.659 13.8856C104.156 14.2154 103.767 14.648 103.491 15.1834C103.22 15.7133 103.085 16.2892 103.085 16.911V18.3304C103.085 19.1631 103.231 19.8715 103.523 20.4555C103.821 21.0395 104.234 21.4856 104.764 21.7938C105.294 22.0966 105.913 22.248 106.622 22.248C107.081 22.248 107.5 22.1831 107.879 22.0534C108.257 21.9182 108.585 21.7181 108.86 21.4531C109.136 21.1882 109.347 20.861 109.493 20.4717L111.788 20.8854C111.605 21.5613 111.275 22.1534 110.799 22.6617C110.328 23.1646 109.736 23.5566 109.023 23.8378C108.314 24.1136 107.506 24.2514 106.597 24.2514Z" fill="white" />
</svg>