<svg width="82" height="32" viewBox="0 0 82 32" fill="none" xmlns="http://www.w3.org/2000/svg">
  <g clip-path="url(#clip0_3_3)">
    <path d="M33.9018 20.2046L31.0529 12.2827C31.0154 12.1702 30.9654 12.0328 30.9654 11.8953C30.9654 11.558 31.2528 11.2206 31.6776 11.2206C32.04 11.2206 32.2774 11.458 32.3898 11.7954L34.7514 18.6302L37.1255 11.7829C37.238 11.458 37.4504 11.2206 37.8128 11.2206H37.8877C38.2751 11.2206 38.5 11.458 38.6125 11.7829L40.974 18.6302L43.3731 11.7704C43.4606 11.483 43.6605 11.2206 44.0479 11.2206C44.4477 11.2206 44.7351 11.533 44.7351 11.8703C44.7351 11.9953 44.6851 12.1452 44.6476 12.2577L41.7862 20.2046C41.6363 20.617 41.3489 20.8419 41.024 20.8419H40.974C40.6117 20.8419 40.3368 20.6295 40.2118 20.2046L37.8752 13.4697L35.5136 20.2046C35.3887 20.617 35.1138 20.8419 34.7514 20.8419H34.714C34.3391 20.8294 34.0392 20.617 33.9018 20.2046Z" fill="white" />
    <path d="M54.6438 11.9203C54.6438 11.533 54.9562 11.2081 55.331 11.2081C55.7309 11.2081 56.0433 11.5205 56.0433 11.9203V13.5322C56.7305 11.9703 58.2674 11.2331 59.2795 11.2331C59.7043 11.2331 59.9667 11.5455 59.9667 11.9453C59.9667 12.3327 59.7168 12.5951 59.342 12.6575C57.5302 12.87 56.0308 14.2444 56.0308 16.9434V20.1297C56.0308 20.517 55.7434 20.8419 55.3435 20.8419C54.9437 20.8419 54.6313 20.5295 54.6313 20.1297L54.6438 11.9203Z" fill="white" />
    <path d="M64.4775 20.9293C61.9535 20.9293 59.8918 18.9676 59.8918 16.0937V16.0562C59.8918 13.3822 61.766 11.2206 64.3026 11.2206C67.0265 11.2206 68.5759 13.4697 68.5759 15.9313C68.5759 16.3061 68.276 16.581 67.9387 16.581H61.2912C61.4912 18.5927 62.8906 19.7298 64.5275 19.7298C65.6645 19.7298 66.5017 19.28 67.1765 18.6552C67.2889 18.5678 67.4139 18.4928 67.5638 18.4928C67.9012 18.4928 68.1636 18.7677 68.1636 19.0926C68.1636 19.255 68.0886 19.4174 67.9512 19.5424C67.0765 20.3796 66.0519 20.9293 64.4775 20.9293ZM67.2015 15.5564C67.064 13.8696 66.1019 12.3951 64.2651 12.3951C62.6657 12.3951 61.4537 13.7446 61.2787 15.5564H67.2015Z" fill="white" />
    <path d="M44.7726 18.0305V17.993C44.7726 16.0187 46.397 14.9691 48.771 14.9691C49.9706 14.9691 50.8203 15.1316 51.6574 15.369V15.0441C51.6574 13.3573 50.6203 12.4951 48.871 12.4951C47.9339 12.4951 47.3841 12.62 46.6968 12.9199C46.6094 12.9574 46.5219 12.9699 46.4469 12.9699C46.1221 12.9699 45.8347 12.695 45.8347 12.3701C45.8347 12.0828 45.9596 11.9078 46.222 11.7954C47.1467 11.3955 47.8339 11.2581 49.0334 11.2581C50.3579 11.2581 51.37 11.5954 52.0573 12.2952C52.6945 12.9324 53.0194 13.8321 53.0194 15.0316V20.2046C53.0194 20.6045 52.732 20.8919 52.3447 20.8919C51.9448 20.8919 51.6824 20.6045 51.6824 20.2421V19.355C51.0327 20.2046 49.9456 20.9668 48.2962 20.9668C46.5344 20.9543 44.7726 19.9547 44.7726 18.0305ZM51.6699 17.3057V16.4061C50.9827 16.2062 50.0581 16.0062 48.921 16.0062C47.1717 16.0062 46.1845 16.7685 46.1845 17.943V17.9805C46.1845 19.155 47.2716 19.8423 48.5336 19.8423C50.258 19.8423 51.6699 18.7927 51.6699 17.3057Z" fill="white" />
    <path d="M8.56151 11.8329C8.24913 11.1581 7.49942 10.8582 6.7872 11.1706C6.07497 11.483 5.81257 12.2702 6.13744 12.9449L9.1113 19.405C9.57362 20.4171 10.0734 20.9419 10.9981 20.9419C11.9852 20.9419 12.4225 20.3671 12.8848 19.405C12.8848 19.405 15.4714 13.7571 15.5088 13.6946C15.5338 13.6322 15.6213 13.4572 15.8837 13.4572C16.1086 13.4572 16.296 13.6322 16.296 13.8696V19.3925C16.296 20.2421 16.7709 20.9419 17.6705 20.9419C18.5827 20.9419 19.07 20.2421 19.07 19.3925V14.8692C19.07 13.9945 19.6947 13.4322 20.5444 13.4322C21.3941 13.4322 21.9564 14.0195 21.9564 14.8692V19.3925C21.9564 20.2421 22.4312 20.9419 23.3308 20.9419C24.243 20.9419 24.7303 20.2421 24.7303 19.3925V14.8692C24.7303 13.9945 25.3551 13.4322 26.2047 13.4322C27.0544 13.4322 27.6167 14.0195 27.6167 14.8692V19.3925C27.6167 20.2421 28.0915 20.9419 28.9912 20.9419C29.9033 20.9419 30.3906 20.2421 30.3906 19.3925V14.2444C30.3906 12.3577 28.8662 11.0332 27.0419 11.0332C25.2176 11.0332 24.068 12.2952 24.068 12.2952C23.4558 11.508 22.6186 11.0332 21.2066 11.0332C19.7072 11.0332 18.3952 12.2952 18.3952 12.2952C17.783 11.508 16.7459 11.0332 15.8962 11.0332C14.5717 11.0332 13.5221 11.6204 12.8724 13.0824L10.9731 17.5557L8.56151 11.8329Z" fill="white" />
    <path d="M68.6884 12.4076C68.6884 11.7704 69.2007 11.2331 69.8504 11.2331C70.5002 11.2331 71.0125 11.7579 71.0125 12.3951C71.0125 13.0324 70.5002 13.5572 69.8504 13.5572C69.1882 13.5572 68.6884 13.0324 68.6884 12.4076ZM70.7751 12.3951C70.7751 11.8703 70.3752 11.4455 69.838 11.4455C69.3132 11.4455 68.9008 11.8828 68.9008 12.3951C68.9008 12.9074 69.3007 13.3448 69.838 13.3448C70.3752 13.3448 70.7751 12.9074 70.7751 12.3951Z" fill="white" />
    <path d="M69.4131 11.9203C69.4131 11.8453 69.4631 11.7954 69.5381 11.7954H69.9254C70.0754 11.7954 70.1878 11.8328 70.2503 11.9078C70.3128 11.9703 70.3502 12.0578 70.3502 12.1577C70.3502 12.3327 70.2628 12.4451 70.1253 12.4951L70.3003 12.7075C70.3253 12.7325 70.3378 12.77 70.3378 12.8075C70.3378 12.87 70.2753 12.9199 70.2253 12.9199C70.1753 12.9199 70.1378 12.8949 70.1003 12.8575L69.8629 12.5576H69.663V12.8075C69.663 12.8824 69.613 12.9324 69.5381 12.9324C69.4631 12.9324 69.4131 12.8824 69.4131 12.8075V11.9203ZM69.9129 12.3452C70.0379 12.3452 70.1003 12.2827 70.1003 12.1827C70.1003 12.0828 70.0254 12.0203 69.9129 12.0203H69.663V12.3452H69.9129Z" fill="white" />
  </g>
  <defs>
    <clipPath id="clip0_3_3">
      <rect width="65" height="26" fill="white" transform="translate(6 3)" />
    </clipPath>
  </defs>
</svg>