<svg xmlns="http://www.w3.org/2000/svg" width="142" height="20" fill="none"><script xmlns="" id="youtube-hd-fjdmkanbdloodhegphphhklnjfngoffa">var ythdlog = () =&gt; {};;var ythderror = () =&gt; {};</script><path fill-rule="evenodd" clip-rule="evenodd" d="M5.821 12.13a5.614 5.614 0 0 1-1.339-1.828 5.333 5.333 0 0 1-.344-1.024L3.788 0h2.578l.345 9.283v1.763h.516V9.283L7.914 0h4.555l.689 9.283v1.763h.516V9.283L14.016 0h2.58l-.35 9.278c-.078.35-.194.693-.343 1.024a5.615 5.615 0 0 1-1.34 1.829 6.237 6.237 0 0 1-2.006 1.22 6.618 6.618 0 0 1-1.391.358h-.029L10.45 3.29V1.41h-.516v1.88l-.687 10.42H9.22a6.585 6.585 0 0 1-1.392-.359 6.236 6.236 0 0 1-2.006-1.22Zm39.346-4.063c0-2.3.631-4.084 1.893-5.352C48.322 1.447 50.086.812 52.35.81c2.246 0 4 .634 5.263 1.904 1.263 1.269 1.903 3.053 1.92 5.352v3.96c0 2.367-.64 4.168-1.92 5.405-1.28 1.236-3.034 1.853-5.262 1.851-2.246 0-4.01-.617-5.29-1.851-1.263-1.235-1.894-3.037-1.894-5.405v-3.96Zm7.184 8.17a4.347 4.347 0 0 0 1.67-.279c.432-.192.806-.48 1.085-.838.29-.38.49-.813.585-1.268a7.352 7.352 0 0 0 .167-1.624V7.863a6.156 6.156 0 0 0-.194-1.573 3.485 3.485 0 0 0-.613-1.268 2.838 2.838 0 0 0-1.087-.838 3.626 3.626 0 0 0-1.613-.327 3.634 3.634 0 0 0-1.614.327 2.851 2.851 0 0 0-1.086.838c-.292.382-.5.813-.612 1.268a6.077 6.077 0 0 0-.195 1.573v4.365c-.005.545.051 1.089.167 1.624.095.455.294.887.584 1.268.28.357.654.645 1.087.838a4.349 4.349 0 0 0 1.669.281v-.002ZM41.927 18.93h-6.404l-.896-13.5V2.99h-.667v2.436l-.897 13.5H26.66L25.99 1.164h3.342l.445 13.5v2.287h.669v-2.287l.896-13.5h5.902l.897 13.5v2.287h.668v-2.287l.445-13.5h3.342l-.669 17.765Zm30.538-1.675h-.5L69.681 1.165h-7.182V18.93h3.673V2.84h.502l2.283 16.089h7.184V1.165h-3.676v16.089ZM78.94 1.165h5.234c2.413 0 4.206.517 5.379 1.55 1.17 1.015 1.755 2.594 1.755 4.738v5.178c0 2.15-.585 3.74-1.755 4.771-1.17 1.015-2.962 1.523-5.38 1.523h-5.188l-.044-3.222V1.165Zm5.234 14.566c1.281 0 2.172-.273 2.673-.817.52-.558.78-1.42.78-2.589v-4.87c0-1.017-.26-1.787-.78-2.311-.5-.525-1.39-.787-2.673-.786h-1.558v11.378l1.558-.005Zm22.232-14.566H94.099v17.768h12.64v-3.197h-8.965V11.62h8.296V8.424h-8.296v-4.06h8.631V1.164Zm16.144 17.764h-3.683V13.6a1.376 1.376 0 0 0-.359-.99c-.222-.253-.604-.38-1.142-.38h-4.231v6.699h-3.675V1.166h7.462a8.37 8.37 0 0 1 2.644.38 5.25 5.25 0 0 1 1.894 1.066c.511.43.911.96 1.168 1.549.282.6.424 1.248.418 1.902v.61a3.647 3.647 0 0 1-.64 2.055 4.036 4.036 0 0 1-1.972 1.446v.457a2.37 2.37 0 0 1 1.531.685c.397.403.607.93.586 1.47l-.001 6.143Zm-9.411-9.892h3.507c.891 0 1.569-.186 2.033-.558.464-.389.695-.93.695-1.624V6.55a1.913 1.913 0 0 0-.174-.827 2.082 2.082 0 0 0-.521-.695c-.464-.435-1.142-.653-2.033-.653h-3.507v4.662Zm17.445 6.084h6.633l.94 3.808H142l-4.651-17.764h-6.904l-4.651 17.764h3.844l.945-3.808Zm5.827-3.196h-5.04l2.284-9.085h.5l2.256 9.085ZM17.812 8.283c0 .91-.197 1.813-.579 2.655a6.89 6.89 0 0 1-1.651 2.252 7.651 7.651 0 0 1-2.47 1.505 8.271 8.271 0 0 1-2.914.527c-1 0-1.99-.18-2.914-.527a7.653 7.653 0 0 1-2.47-1.505 6.89 6.89 0 0 1-1.651-2.252 6.389 6.389 0 0 1-.58-2.655H0a8.518 8.518 0 0 0 .776 3.56 9.307 9.307 0 0 0 2.213 3.018A10.336 10.336 0 0 0 6.3 16.878c.748.282 1.53.481 2.33.594V20h2.98v-2.505a10.913 10.913 0 0 0 2.51-.617 10.362 10.362 0 0 0 3.312-2.017 9.328 9.328 0 0 0 2.212-3.018 8.574 8.574 0 0 0 .776-3.56h-2.608Z" fill="#FCFCFE" wiid="N1"/></svg>